M48
; DRILL file {KiCad 5.1.6} date Sun Jul 12 14:31:36 2020
; FORMAT={-:-/ absolute / metric / decimal}
; #@! TF.CreationDate,2020-07-12T14:31:36+01:00
; #@! TF.GenerationSoftware,Kicad,Pcbnew,5.1.6
FMAT,2
METRIC
T1C0.300
T2C0.500
T3C0.800
T4C1.000
%
G90
G05
T1
X9.5Y7.5
X10.6Y9.4
X10.6Y8.6
X11.4Y9.4
X11.4Y8.6
X12.55Y19.6
X13.4Y9.9
X14.15Y9.1
X14.15Y7.9
X14.7Y17.8
X16.8Y9.4
X16.8Y7.6
X17.375Y14.075
X17.4Y13.275
X18.7Y14.6
X18.7Y12.2
X18.9Y16.7
X21.0Y19.25
X21.6Y8.7
X22.4Y16.0
X22.4Y15.2
X22.4Y14.4
X22.4Y13.6
X22.4Y12.8
X22.4Y12.0
X23.2Y16.0
X23.2Y15.2
X23.2Y14.4
X23.2Y13.6
X23.2Y12.8
X23.2Y12.0
X24.0Y16.0
X24.0Y15.2
X24.0Y14.4
X24.0Y13.6
X24.0Y12.8
X24.0Y12.0
X24.8Y16.0
X24.8Y15.2
X24.8Y14.4
X24.8Y13.6
X24.8Y12.8
X24.8Y12.0
X25.6Y16.0
X25.6Y15.2
X25.6Y14.4
X25.6Y13.6
X25.6Y12.8
X25.6Y12.0
X26.2Y4.9
X26.9Y20.6
X27.0Y8.75
X27.4Y19.6
X29.6Y17.6
X29.8Y12.0
X42.7Y15.1
X42.8Y17.2
X43.0Y19.3
X43.5Y17.2
X44.2Y17.2
T2
X7.7Y12.7
X8.7Y20.5
T4
X26.67Y2.54
X29.21Y2.54
X6.35Y2.54
X8.89Y2.54
X11.43Y2.54
X13.97Y2.54
X16.51Y2.54
X19.05Y2.54
X21.59Y2.54
X24.13Y2.54
X31.75Y2.54
X34.29Y2.54
X36.83Y2.54
X39.37Y2.54
X41.91Y2.54
X44.45Y2.54
X46.99Y2.54
X49.53Y2.54
X41.91Y22.5
X44.45Y22.5
X31.75Y25.4
X34.29Y25.4
X36.83Y25.4
X39.37Y25.4
X41.91Y25.4
X44.45Y25.4
X46.99Y25.4
X49.53Y25.4
X7.22Y25.4
X9.76Y25.4
X12.3Y25.4
X14.84Y25.4
X17.38Y25.4
X19.92Y25.4
X22.46Y25.4
X25.0Y25.4
T3
X1.25Y19.1G85X1.95Y19.1
G05
X1.25Y8.9G85X1.95Y8.9
G05
X4.95Y19.1G85X5.65Y19.1
G05
X4.95Y8.9G85X5.65Y8.9
G05
T0
M30
