G04 #@! TF.GenerationSoftware,KiCad,Pcbnew,5.1.6*
G04 #@! TF.CreationDate,2020-07-12T14:31:33+01:00*
G04 #@! TF.ProjectId,CY7CBreakout,43593743-4272-4656-916b-6f75742e6b69,rev?*
G04 #@! TF.SameCoordinates,PX7270e00PY7270e00*
G04 #@! TF.FileFunction,Copper,L2,Bot*
G04 #@! TF.FilePolarity,Positive*
%FSLAX46Y46*%
G04 Gerber Fmt 4.6, Leading zero omitted, Abs format (unit mm)*
G04 Created by KiCad (PCBNEW 5.1.6) date 2020-07-12 14:31:33*
%MOMM*%
%LPD*%
G01*
G04 APERTURE LIST*
G04 #@! TA.AperFunction,SMDPad,CuDef*
%ADD10R,1.400000X1.200000*%
G04 #@! TD*
G04 #@! TA.AperFunction,SMDPad,CuDef*
%ADD11R,1.400000X0.400000*%
G04 #@! TD*
G04 #@! TA.AperFunction,SMDPad,CuDef*
%ADD12R,1.200000X1.200000*%
G04 #@! TD*
G04 #@! TA.AperFunction,SMDPad,CuDef*
%ADD13R,0.900000X0.800000*%
G04 #@! TD*
G04 #@! TA.AperFunction,ComponentPad*
%ADD14O,1.700000X1.700000*%
G04 #@! TD*
G04 #@! TA.AperFunction,ComponentPad*
%ADD15R,1.700000X1.700000*%
G04 #@! TD*
G04 #@! TA.AperFunction,SMDPad,CuDef*
%ADD16R,0.800000X0.900000*%
G04 #@! TD*
G04 #@! TA.AperFunction,ViaPad*
%ADD17C,0.600000*%
G04 #@! TD*
G04 #@! TA.AperFunction,ViaPad*
%ADD18C,0.700000*%
G04 #@! TD*
G04 #@! TA.AperFunction,Conductor*
%ADD19C,0.400000*%
G04 #@! TD*
G04 #@! TA.AperFunction,Conductor*
%ADD20C,0.300000*%
G04 #@! TD*
G04 #@! TA.AperFunction,Conductor*
%ADD21C,0.200000*%
G04 #@! TD*
G04 #@! TA.AperFunction,Conductor*
%ADD22C,1.000000*%
G04 #@! TD*
G04 APERTURE END LIST*
G04 #@! TO.P,JP1,SHIELD*
G04 #@! TO.N,Earth*
G04 #@! TA.AperFunction,ComponentPad*
G36*
G01*
X2500000Y18300000D02*
X700000Y18300000D01*
G75*
G02*
X500000Y18500000I0J200000D01*
G01*
X500000Y19700000D01*
G75*
G02*
X700000Y19900000I200000J0D01*
G01*
X2500000Y19900000D01*
G75*
G02*
X2700000Y19700000I0J-200000D01*
G01*
X2700000Y18500000D01*
G75*
G02*
X2500000Y18300000I-200000J0D01*
G01*
G37*
G04 #@! TD.AperFunction*
G04 #@! TA.AperFunction,ComponentPad*
G36*
G01*
X6200000Y18300000D02*
X4400000Y18300000D01*
G75*
G02*
X4200000Y18500000I0J200000D01*
G01*
X4200000Y19700000D01*
G75*
G02*
X4400000Y19900000I200000J0D01*
G01*
X6200000Y19900000D01*
G75*
G02*
X6400000Y19700000I0J-200000D01*
G01*
X6400000Y18500000D01*
G75*
G02*
X6200000Y18300000I-200000J0D01*
G01*
G37*
G04 #@! TD.AperFunction*
G04 #@! TA.AperFunction,ComponentPad*
G36*
G01*
X6200000Y8100000D02*
X4400000Y8100000D01*
G75*
G02*
X4200000Y8300000I0J200000D01*
G01*
X4200000Y9500000D01*
G75*
G02*
X4400000Y9700000I200000J0D01*
G01*
X6200000Y9700000D01*
G75*
G02*
X6400000Y9500000I0J-200000D01*
G01*
X6400000Y8300000D01*
G75*
G02*
X6200000Y8100000I-200000J0D01*
G01*
G37*
G04 #@! TD.AperFunction*
G04 #@! TA.AperFunction,ComponentPad*
G36*
G01*
X2500000Y8100000D02*
X700000Y8100000D01*
G75*
G02*
X500000Y8300000I0J200000D01*
G01*
X500000Y9500000D01*
G75*
G02*
X700000Y9700000I200000J0D01*
G01*
X2500000Y9700000D01*
G75*
G02*
X2700000Y9500000I0J-200000D01*
G01*
X2700000Y8300000D01*
G75*
G02*
X2500000Y8100000I-200000J0D01*
G01*
G37*
G04 #@! TD.AperFunction*
D10*
X5700000Y16350000D03*
X5700000Y11650000D03*
D11*
G04 #@! TO.P,JP1,VCC*
G04 #@! TO.N,/Processor+USB/VBUS*
X5700000Y12700000D03*
G04 #@! TO.P,JP1,GND1*
G04 #@! TO.N,GND*
X5700000Y15300000D03*
G04 #@! TO.P,JP1,ID*
G04 #@! TO.N,Net-(JP1-PadID)*
X5700000Y14650000D03*
G04 #@! TO.P,JP1,D+*
G04 #@! TO.N,/Processor+USB/D+*
X5700000Y14000000D03*
G04 #@! TO.P,JP1,D-*
G04 #@! TO.N,/Processor+USB/D-*
X5700000Y13350000D03*
G04 #@! TD*
D12*
G04 #@! TO.P,C18,2*
G04 #@! TO.N,GND*
X48700000Y22500000D03*
G04 #@! TO.P,C18,1*
G04 #@! TO.N,+5V*
X46700000Y22500000D03*
G04 #@! TD*
D13*
G04 #@! TO.P,C17,2*
G04 #@! TO.N,GND*
X44350000Y16000000D03*
G04 #@! TO.P,C17,1*
G04 #@! TO.N,+3V3*
X42650000Y16000000D03*
G04 #@! TD*
G04 #@! TO.P,C16,2*
G04 #@! TO.N,+5V*
X42650000Y18400000D03*
G04 #@! TO.P,C16,1*
G04 #@! TO.N,GND*
X44350000Y18400000D03*
G04 #@! TD*
D14*
G04 #@! TO.P,J6,2*
G04 #@! TO.N,/Processor+USB/VBUS*
X41910000Y22500000D03*
D15*
G04 #@! TO.P,J6,1*
G04 #@! TO.N,+5V*
X44450000Y22500000D03*
G04 #@! TD*
D14*
G04 #@! TO.P,J3,8*
G04 #@! TO.N,/Breadboard Connectors/PD7*
X7220000Y25400000D03*
G04 #@! TO.P,J3,7*
G04 #@! TO.N,/Breadboard Connectors/PD6*
X9760000Y25400000D03*
G04 #@! TO.P,J3,6*
G04 #@! TO.N,/Breadboard Connectors/PD5*
X12300000Y25400000D03*
G04 #@! TO.P,J3,5*
G04 #@! TO.N,/Breadboard Connectors/PD4*
X14840000Y25400000D03*
G04 #@! TO.P,J3,4*
G04 #@! TO.N,/Breadboard Connectors/PD3*
X17380000Y25400000D03*
G04 #@! TO.P,J3,3*
G04 #@! TO.N,/Breadboard Connectors/PD2*
X19920000Y25400000D03*
G04 #@! TO.P,J3,2*
G04 #@! TO.N,/Breadboard Connectors/PD1*
X22460000Y25400000D03*
D15*
G04 #@! TO.P,J3,1*
G04 #@! TO.N,/Breadboard Connectors/PD0*
X25000000Y25400000D03*
G04 #@! TD*
D16*
G04 #@! TO.P,R6,2*
G04 #@! TO.N,Earth*
X1400000Y6850000D03*
G04 #@! TO.P,R6,1*
G04 #@! TO.N,GND*
X1400000Y5150000D03*
G04 #@! TD*
G04 #@! TO.P,C15,2*
G04 #@! TO.N,GND*
X2800000Y5150000D03*
G04 #@! TO.P,C15,1*
G04 #@! TO.N,Earth*
X2800000Y6850000D03*
G04 #@! TD*
D13*
G04 #@! TO.P,R4,2*
G04 #@! TO.N,/Processor+USB/SDA*
X14150000Y7900000D03*
G04 #@! TO.P,R4,1*
G04 #@! TO.N,+3V3*
X15850000Y7900000D03*
G04 #@! TD*
G04 #@! TO.P,C14,2*
G04 #@! TO.N,GND*
X20850000Y12200000D03*
G04 #@! TO.P,C14,1*
G04 #@! TO.N,+3V3*
X19150000Y12200000D03*
G04 #@! TD*
G04 #@! TO.P,C13,2*
G04 #@! TO.N,GND*
X20850000Y13400000D03*
G04 #@! TO.P,C13,1*
G04 #@! TO.N,+3V3*
X19150000Y13400000D03*
G04 #@! TD*
G04 #@! TO.P,C12,2*
G04 #@! TO.N,GND*
X20850000Y14600000D03*
G04 #@! TO.P,C12,1*
G04 #@! TO.N,+3V3*
X19150000Y14600000D03*
G04 #@! TD*
D16*
G04 #@! TO.P,C11,2*
G04 #@! TO.N,GND*
X21000000Y17100000D03*
G04 #@! TO.P,C11,1*
G04 #@! TO.N,+3V3*
X21000000Y18800000D03*
G04 #@! TD*
G04 #@! TO.P,C10,2*
G04 #@! TO.N,GND*
X27250000Y17100000D03*
G04 #@! TO.P,C10,1*
G04 #@! TO.N,+3V3*
X27250000Y18800000D03*
G04 #@! TD*
G04 #@! TO.P,C9,2*
G04 #@! TO.N,GND*
X21750000Y10900000D03*
G04 #@! TO.P,C9,1*
G04 #@! TO.N,+3V3*
X21750000Y9200000D03*
G04 #@! TD*
G04 #@! TO.P,C8,2*
G04 #@! TO.N,GND*
X27000000Y10900000D03*
G04 #@! TO.P,C8,1*
G04 #@! TO.N,+3V3*
X27000000Y9200000D03*
G04 #@! TD*
D13*
G04 #@! TO.P,C7,2*
G04 #@! TO.N,GND*
X27150000Y12250000D03*
G04 #@! TO.P,C7,1*
G04 #@! TO.N,+3V3*
X28850000Y12250000D03*
G04 #@! TD*
G04 #@! TO.P,C6,2*
G04 #@! TO.N,GND*
X20850000Y15800000D03*
G04 #@! TO.P,C6,1*
G04 #@! TO.N,+3V3*
X19150000Y15800000D03*
G04 #@! TD*
D14*
G04 #@! TO.P,J5,2*
G04 #@! TO.N,GND*
X29210000Y2540000D03*
D15*
G04 #@! TO.P,J5,1*
G04 #@! TO.N,/Supply + Support Elements/EEPROM_WC*
X26670000Y2540000D03*
G04 #@! TD*
D13*
G04 #@! TO.P,C5,2*
G04 #@! TO.N,GND*
X11250000Y7500000D03*
G04 #@! TO.P,C5,1*
G04 #@! TO.N,+3V3*
X9550000Y7500000D03*
G04 #@! TD*
G04 #@! TO.P,R3,2*
G04 #@! TO.N,/Processor+USB/SCL*
X14150000Y9100000D03*
G04 #@! TO.P,R3,1*
G04 #@! TO.N,+3V3*
X15850000Y9100000D03*
G04 #@! TD*
G04 #@! TO.P,C4,2*
G04 #@! TO.N,GND*
X32350000Y17600000D03*
G04 #@! TO.P,C4,1*
G04 #@! TO.N,/Processor+USB/~RESET*
X30650000Y17600000D03*
G04 #@! TD*
G04 #@! TO.P,C3,2*
G04 #@! TO.N,GND*
X29850000Y21000000D03*
G04 #@! TO.P,C3,1*
G04 #@! TO.N,/Processor+USB/WAKEUP*
X28150000Y21000000D03*
G04 #@! TD*
D14*
G04 #@! TO.P,J4,8*
G04 #@! TO.N,+3V3*
X31750000Y25400000D03*
G04 #@! TO.P,J4,7*
X34290000Y25400000D03*
G04 #@! TO.P,J4,6*
G04 #@! TO.N,GND*
X36830000Y25400000D03*
G04 #@! TO.P,J4,5*
X39370000Y25400000D03*
G04 #@! TO.P,J4,4*
G04 #@! TO.N,+5V*
X41910000Y25400000D03*
G04 #@! TO.P,J4,3*
X44450000Y25400000D03*
G04 #@! TO.P,J4,2*
G04 #@! TO.N,GND*
X46990000Y25400000D03*
D15*
G04 #@! TO.P,J4,1*
X49530000Y25400000D03*
G04 #@! TD*
D14*
G04 #@! TO.P,J2,8*
G04 #@! TO.N,/Breadboard Connectors/PB7*
X24130000Y2540000D03*
G04 #@! TO.P,J2,7*
G04 #@! TO.N,/Breadboard Connectors/PB6*
X21590000Y2540000D03*
G04 #@! TO.P,J2,6*
G04 #@! TO.N,/Breadboard Connectors/PB5*
X19050000Y2540000D03*
G04 #@! TO.P,J2,5*
G04 #@! TO.N,/Breadboard Connectors/PB4*
X16510000Y2540000D03*
G04 #@! TO.P,J2,4*
G04 #@! TO.N,/Breadboard Connectors/PB3*
X13970000Y2540000D03*
G04 #@! TO.P,J2,3*
G04 #@! TO.N,/Breadboard Connectors/PB2*
X11430000Y2540000D03*
G04 #@! TO.P,J2,2*
G04 #@! TO.N,/Breadboard Connectors/PB1*
X8890000Y2540000D03*
D15*
G04 #@! TO.P,J2,1*
G04 #@! TO.N,/Breadboard Connectors/PB0*
X6350000Y2540000D03*
G04 #@! TD*
D14*
G04 #@! TO.P,J1,8*
G04 #@! TO.N,/Breadboard Connectors/PA7*
X49530000Y2540000D03*
G04 #@! TO.P,J1,7*
G04 #@! TO.N,/Breadboard Connectors/PA6*
X46990000Y2540000D03*
G04 #@! TO.P,J1,6*
G04 #@! TO.N,/Breadboard Connectors/PA5*
X44450000Y2540000D03*
G04 #@! TO.P,J1,5*
G04 #@! TO.N,/Breadboard Connectors/PA4*
X41910000Y2540000D03*
G04 #@! TO.P,J1,4*
G04 #@! TO.N,/Breadboard Connectors/PA3*
X39370000Y2540000D03*
G04 #@! TO.P,J1,3*
G04 #@! TO.N,/Breadboard Connectors/PA2*
X36830000Y2540000D03*
G04 #@! TO.P,J1,2*
G04 #@! TO.N,/Breadboard Connectors/PA1*
X34290000Y2540000D03*
D15*
G04 #@! TO.P,J1,1*
G04 #@! TO.N,/Breadboard Connectors/PA0*
X31750000Y2540000D03*
G04 #@! TD*
D17*
G04 #@! TO.N,GND*
X44200000Y17200000D03*
X43500000Y17200000D03*
X42800000Y17200000D03*
X14700000Y17800000D03*
X12550000Y19600000D03*
X10600000Y9400000D03*
X10600000Y8600000D03*
X11400000Y8600000D03*
X11400000Y9400000D03*
X25600000Y12000000D03*
X24800000Y12000000D03*
X24000000Y12000000D03*
X23200000Y12000000D03*
X22400000Y12000000D03*
X22400000Y16000000D03*
X23200000Y16000000D03*
X24000000Y16000000D03*
X24800000Y16000000D03*
X25600000Y16000000D03*
X25600000Y15200000D03*
X24800000Y15200000D03*
X24000000Y15200000D03*
X23200000Y15200000D03*
X22400000Y15200000D03*
X22400000Y14400000D03*
X23200000Y14400000D03*
X23200000Y13600000D03*
X22400000Y13600000D03*
X22400000Y12800000D03*
X23200000Y12800000D03*
X25600000Y12800000D03*
X24800000Y12800000D03*
X24000000Y12800000D03*
X24000000Y13600000D03*
X24800000Y13600000D03*
X25600000Y13600000D03*
X25600000Y14400000D03*
X24800000Y14400000D03*
X24000000Y14400000D03*
G04 #@! TO.N,+3V3*
X21600000Y8700000D03*
X27000000Y8750000D03*
X27400000Y19600000D03*
X21000000Y19250000D03*
X18700000Y14600000D03*
X9500000Y7500000D03*
X16800000Y9400000D03*
X16800000Y7600000D03*
X18700000Y12200000D03*
X18900000Y16700000D03*
X42700000Y15100000D03*
X29800000Y12000000D03*
G04 #@! TO.N,/Processor+USB/WAKEUP*
X26900000Y20600000D03*
G04 #@! TO.N,/Processor+USB/~RESET*
X29600000Y17600000D03*
G04 #@! TO.N,/Processor+USB/SDA*
X14150000Y7900000D03*
G04 #@! TO.N,/Processor+USB/SCL*
X14150000Y9100000D03*
G04 #@! TO.N,/Supply + Support Elements/EEPROM_WC*
X13400000Y9900000D03*
X26200000Y4900000D03*
G04 #@! TO.N,/Processor+USB/D+*
X17375000Y14075000D03*
G04 #@! TO.N,/Processor+USB/D-*
X17400000Y13275000D03*
G04 #@! TO.N,+5V*
X43000000Y19300000D03*
D18*
G04 #@! TO.N,/Processor+USB/VBUS*
X7700000Y12700000D03*
X8700000Y20500000D03*
G04 #@! TD*
D19*
G04 #@! TO.N,GND*
X5700000Y15300000D02*
X7200000Y15300000D01*
D20*
G04 #@! TO.N,+3V3*
X21750000Y8850000D02*
X21600000Y8700000D01*
X21750000Y9200000D02*
X21750000Y8850000D01*
X27000000Y8750000D02*
X27000000Y9200000D01*
X27250000Y19250000D02*
X27250000Y18800000D01*
X21000000Y19250000D02*
X21000000Y18800000D01*
X9550000Y7500000D02*
X9500000Y7500000D01*
D21*
X16500000Y9100000D02*
X16800000Y9400000D01*
X15850000Y9100000D02*
X16500000Y9100000D01*
X16500000Y7900000D02*
X16800000Y7600000D01*
X15850000Y7900000D02*
X16500000Y7900000D01*
D20*
X27250000Y19450000D02*
X27400000Y19600000D01*
X27250000Y18800000D02*
X27250000Y19450000D01*
X19150000Y14600000D02*
X18700000Y14600000D01*
X19150000Y12200000D02*
X18700000Y12200000D01*
D19*
X19150000Y13400000D02*
X19150000Y14600000D01*
X19150000Y13400000D02*
X19150000Y12200000D01*
D20*
X19150000Y16400000D02*
X19150000Y15800000D01*
X18900000Y16700000D02*
X19150000Y16400000D01*
D19*
X42650000Y15150000D02*
X42700000Y15100000D01*
X42650000Y16000000D02*
X42650000Y15150000D01*
D20*
X29500000Y12250000D02*
X28850000Y12250000D01*
X29800000Y12000000D02*
X29500000Y12250000D01*
D21*
G04 #@! TO.N,/Processor+USB/WAKEUP*
X27300000Y21000000D02*
X28150000Y21000000D01*
X26900000Y20600000D02*
X27300000Y21000000D01*
G04 #@! TO.N,/Processor+USB/~RESET*
X29600000Y17600000D02*
X30650000Y17600000D01*
G04 #@! TO.N,/Supply + Support Elements/EEPROM_WC*
X13700000Y10200000D02*
X13400000Y9900000D01*
X15000000Y5200000D02*
X15000000Y10000000D01*
X15300000Y4900000D02*
X15000000Y5200000D01*
X14800000Y10200000D02*
X13700000Y10200000D01*
X15000000Y10000000D02*
X14800000Y10200000D01*
X26200000Y4900000D02*
X15300000Y4900000D01*
G04 #@! TO.N,/Processor+USB/D+*
X17200000Y13875000D02*
X17375000Y14075000D01*
X6725000Y13875000D02*
X17200000Y13875000D01*
X6600008Y14000000D02*
X6725000Y13875000D01*
X5700000Y14000000D02*
X6600008Y14000000D01*
G04 #@! TO.N,/Processor+USB/D-*
X17200000Y13475000D02*
X17400000Y13275000D01*
X6750000Y13475000D02*
X17200000Y13475000D01*
X6600000Y13350000D02*
X6750000Y13475000D01*
X5700000Y13350000D02*
X6600000Y13350000D01*
D19*
G04 #@! TO.N,+5V*
X42650000Y18950000D02*
X42650000Y18400000D01*
X43000000Y19300000D02*
X42650000Y18950000D01*
D22*
X46700000Y22500000D02*
X44450000Y22500000D01*
D19*
G04 #@! TO.N,/Processor+USB/VBUS*
X7500000Y12700000D02*
X7500000Y12700000D01*
D22*
X10600000Y22400000D02*
X41910000Y22500000D01*
X8700000Y20500000D02*
X10600000Y22400000D01*
G04 #@! TD*
D21*
G04 #@! TO.N,Earth*
G36*
X6900000Y6200000D02*
G01*
X3423958Y6200000D01*
X3450648Y6232522D01*
X3478505Y6284639D01*
X3495660Y6341190D01*
X3501452Y6400000D01*
X3500000Y6675000D01*
X3425000Y6750000D01*
X2900000Y6750000D01*
X2900000Y6730000D01*
X2700000Y6730000D01*
X2700000Y6750000D01*
X2175000Y6750000D01*
X2100000Y6675000D01*
X2025000Y6750000D01*
X1500000Y6750000D01*
X1500000Y6730000D01*
X1300000Y6730000D01*
X1300000Y6750000D01*
X775000Y6750000D01*
X700000Y6675000D01*
X698548Y6400000D01*
X704340Y6341190D01*
X721495Y6284639D01*
X749352Y6232522D01*
X776042Y6200000D01*
X325000Y6200000D01*
X325000Y7300000D01*
X698548Y7300000D01*
X700000Y7025000D01*
X775000Y6950000D01*
X1300000Y6950000D01*
X1300000Y7525000D01*
X1500000Y7525000D01*
X1500000Y6950000D01*
X2025000Y6950000D01*
X2100000Y7025000D01*
X2175000Y6950000D01*
X2700000Y6950000D01*
X2700000Y7525000D01*
X2900000Y7525000D01*
X2900000Y6950000D01*
X3425000Y6950000D01*
X3500000Y7025000D01*
X3501452Y7300000D01*
X3495660Y7358810D01*
X3478505Y7415361D01*
X3450648Y7467478D01*
X3413159Y7513159D01*
X3367478Y7550648D01*
X3315361Y7578505D01*
X3258810Y7595660D01*
X3200000Y7601452D01*
X2975000Y7600000D01*
X2900000Y7525000D01*
X2700000Y7525000D01*
X2625000Y7600000D01*
X2400000Y7601452D01*
X2341190Y7595660D01*
X2284639Y7578505D01*
X2232522Y7550648D01*
X2186841Y7513159D01*
X2149352Y7467478D01*
X2121495Y7415361D01*
X2104340Y7358810D01*
X2100000Y7314743D01*
X2095660Y7358810D01*
X2078505Y7415361D01*
X2050648Y7467478D01*
X2013159Y7513159D01*
X1967478Y7550648D01*
X1915361Y7578505D01*
X1858810Y7595660D01*
X1800000Y7601452D01*
X1575000Y7600000D01*
X1500000Y7525000D01*
X1300000Y7525000D01*
X1225000Y7600000D01*
X1000000Y7601452D01*
X941190Y7595660D01*
X884639Y7578505D01*
X832522Y7550648D01*
X786841Y7513159D01*
X749352Y7467478D01*
X721495Y7415361D01*
X704340Y7358810D01*
X698548Y7300000D01*
X325000Y7300000D01*
X325000Y7855525D01*
X332522Y7849352D01*
X384639Y7821495D01*
X441190Y7804340D01*
X500000Y7798548D01*
X1125000Y7800000D01*
X1200000Y7875000D01*
X1200000Y8500000D01*
X2000000Y8500000D01*
X2000000Y7875000D01*
X2075000Y7800000D01*
X2700000Y7798548D01*
X2758810Y7804340D01*
X2815361Y7821495D01*
X2867478Y7849352D01*
X2913159Y7886841D01*
X2950648Y7932522D01*
X2978505Y7984639D01*
X2995660Y8041190D01*
X3001452Y8100000D01*
X3898548Y8100000D01*
X3904340Y8041190D01*
X3921495Y7984639D01*
X3949352Y7932522D01*
X3986841Y7886841D01*
X4032522Y7849352D01*
X4084639Y7821495D01*
X4141190Y7804340D01*
X4200000Y7798548D01*
X4825000Y7800000D01*
X4900000Y7875000D01*
X4900000Y8500000D01*
X5700000Y8500000D01*
X5700000Y7875000D01*
X5775000Y7800000D01*
X6400000Y7798548D01*
X6458810Y7804340D01*
X6515361Y7821495D01*
X6567478Y7849352D01*
X6613159Y7886841D01*
X6650648Y7932522D01*
X6678505Y7984639D01*
X6695660Y8041190D01*
X6701452Y8100000D01*
X6700000Y8425000D01*
X6625000Y8500000D01*
X5700000Y8500000D01*
X4900000Y8500000D01*
X3975000Y8500000D01*
X3900000Y8425000D01*
X3898548Y8100000D01*
X3001452Y8100000D01*
X3000000Y8425000D01*
X2925000Y8500000D01*
X2000000Y8500000D01*
X1200000Y8500000D01*
X1180000Y8500000D01*
X1180000Y9300000D01*
X1200000Y9300000D01*
X1200000Y9320000D01*
X2000000Y9320000D01*
X2000000Y9300000D01*
X2925000Y9300000D01*
X3000000Y9375000D01*
X3001452Y9700000D01*
X2995660Y9758810D01*
X2978505Y9815361D01*
X2950648Y9867478D01*
X2913159Y9913159D01*
X2867478Y9950648D01*
X2821918Y9975000D01*
X4078082Y9975000D01*
X4032522Y9950648D01*
X3986841Y9913159D01*
X3949352Y9867478D01*
X3921495Y9815361D01*
X3904340Y9758810D01*
X3898548Y9700000D01*
X3900000Y9375000D01*
X3975000Y9300000D01*
X4900000Y9300000D01*
X4900000Y9925000D01*
X5700000Y9925000D01*
X5700000Y9300000D01*
X6625000Y9300000D01*
X6700000Y9375000D01*
X6701452Y9700000D01*
X6695660Y9758810D01*
X6678505Y9815361D01*
X6650648Y9867478D01*
X6613159Y9913159D01*
X6567478Y9950648D01*
X6515361Y9978505D01*
X6458810Y9995660D01*
X6400000Y10001452D01*
X5775000Y10000000D01*
X5700000Y9925000D01*
X4900000Y9925000D01*
X4825000Y10000000D01*
X4728598Y10000224D01*
X4781434Y10028465D01*
X4830921Y10069079D01*
X4871535Y10118566D01*
X4901713Y10175026D01*
X4920297Y10236289D01*
X4926572Y10300000D01*
X4925000Y10315961D01*
X4925000Y10759251D01*
X4941190Y10754340D01*
X5000000Y10748548D01*
X5525000Y10750000D01*
X5600000Y10825000D01*
X5600000Y11550000D01*
X5800000Y11550000D01*
X5800000Y10825000D01*
X5875000Y10750000D01*
X6400000Y10748548D01*
X6458810Y10754340D01*
X6515361Y10771495D01*
X6567478Y10799352D01*
X6613159Y10836841D01*
X6650648Y10882522D01*
X6678505Y10934639D01*
X6695660Y10991190D01*
X6701452Y11050000D01*
X6700000Y11475000D01*
X6625000Y11550000D01*
X5800000Y11550000D01*
X5600000Y11550000D01*
X5580000Y11550000D01*
X5580000Y11750000D01*
X5600000Y11750000D01*
X5600000Y11770000D01*
X5800000Y11770000D01*
X5800000Y11750000D01*
X6625000Y11750000D01*
X6700000Y11825000D01*
X6700256Y11900000D01*
X6900000Y11900000D01*
X6900000Y6200000D01*
G37*
X6900000Y6200000D02*
X3423958Y6200000D01*
X3450648Y6232522D01*
X3478505Y6284639D01*
X3495660Y6341190D01*
X3501452Y6400000D01*
X3500000Y6675000D01*
X3425000Y6750000D01*
X2900000Y6750000D01*
X2900000Y6730000D01*
X2700000Y6730000D01*
X2700000Y6750000D01*
X2175000Y6750000D01*
X2100000Y6675000D01*
X2025000Y6750000D01*
X1500000Y6750000D01*
X1500000Y6730000D01*
X1300000Y6730000D01*
X1300000Y6750000D01*
X775000Y6750000D01*
X700000Y6675000D01*
X698548Y6400000D01*
X704340Y6341190D01*
X721495Y6284639D01*
X749352Y6232522D01*
X776042Y6200000D01*
X325000Y6200000D01*
X325000Y7300000D01*
X698548Y7300000D01*
X700000Y7025000D01*
X775000Y6950000D01*
X1300000Y6950000D01*
X1300000Y7525000D01*
X1500000Y7525000D01*
X1500000Y6950000D01*
X2025000Y6950000D01*
X2100000Y7025000D01*
X2175000Y6950000D01*
X2700000Y6950000D01*
X2700000Y7525000D01*
X2900000Y7525000D01*
X2900000Y6950000D01*
X3425000Y6950000D01*
X3500000Y7025000D01*
X3501452Y7300000D01*
X3495660Y7358810D01*
X3478505Y7415361D01*
X3450648Y7467478D01*
X3413159Y7513159D01*
X3367478Y7550648D01*
X3315361Y7578505D01*
X3258810Y7595660D01*
X3200000Y7601452D01*
X2975000Y7600000D01*
X2900000Y7525000D01*
X2700000Y7525000D01*
X2625000Y7600000D01*
X2400000Y7601452D01*
X2341190Y7595660D01*
X2284639Y7578505D01*
X2232522Y7550648D01*
X2186841Y7513159D01*
X2149352Y7467478D01*
X2121495Y7415361D01*
X2104340Y7358810D01*
X2100000Y7314743D01*
X2095660Y7358810D01*
X2078505Y7415361D01*
X2050648Y7467478D01*
X2013159Y7513159D01*
X1967478Y7550648D01*
X1915361Y7578505D01*
X1858810Y7595660D01*
X1800000Y7601452D01*
X1575000Y7600000D01*
X1500000Y7525000D01*
X1300000Y7525000D01*
X1225000Y7600000D01*
X1000000Y7601452D01*
X941190Y7595660D01*
X884639Y7578505D01*
X832522Y7550648D01*
X786841Y7513159D01*
X749352Y7467478D01*
X721495Y7415361D01*
X704340Y7358810D01*
X698548Y7300000D01*
X325000Y7300000D01*
X325000Y7855525D01*
X332522Y7849352D01*
X384639Y7821495D01*
X441190Y7804340D01*
X500000Y7798548D01*
X1125000Y7800000D01*
X1200000Y7875000D01*
X1200000Y8500000D01*
X2000000Y8500000D01*
X2000000Y7875000D01*
X2075000Y7800000D01*
X2700000Y7798548D01*
X2758810Y7804340D01*
X2815361Y7821495D01*
X2867478Y7849352D01*
X2913159Y7886841D01*
X2950648Y7932522D01*
X2978505Y7984639D01*
X2995660Y8041190D01*
X3001452Y8100000D01*
X3898548Y8100000D01*
X3904340Y8041190D01*
X3921495Y7984639D01*
X3949352Y7932522D01*
X3986841Y7886841D01*
X4032522Y7849352D01*
X4084639Y7821495D01*
X4141190Y7804340D01*
X4200000Y7798548D01*
X4825000Y7800000D01*
X4900000Y7875000D01*
X4900000Y8500000D01*
X5700000Y8500000D01*
X5700000Y7875000D01*
X5775000Y7800000D01*
X6400000Y7798548D01*
X6458810Y7804340D01*
X6515361Y7821495D01*
X6567478Y7849352D01*
X6613159Y7886841D01*
X6650648Y7932522D01*
X6678505Y7984639D01*
X6695660Y8041190D01*
X6701452Y8100000D01*
X6700000Y8425000D01*
X6625000Y8500000D01*
X5700000Y8500000D01*
X4900000Y8500000D01*
X3975000Y8500000D01*
X3900000Y8425000D01*
X3898548Y8100000D01*
X3001452Y8100000D01*
X3000000Y8425000D01*
X2925000Y8500000D01*
X2000000Y8500000D01*
X1200000Y8500000D01*
X1180000Y8500000D01*
X1180000Y9300000D01*
X1200000Y9300000D01*
X1200000Y9320000D01*
X2000000Y9320000D01*
X2000000Y9300000D01*
X2925000Y9300000D01*
X3000000Y9375000D01*
X3001452Y9700000D01*
X2995660Y9758810D01*
X2978505Y9815361D01*
X2950648Y9867478D01*
X2913159Y9913159D01*
X2867478Y9950648D01*
X2821918Y9975000D01*
X4078082Y9975000D01*
X4032522Y9950648D01*
X3986841Y9913159D01*
X3949352Y9867478D01*
X3921495Y9815361D01*
X3904340Y9758810D01*
X3898548Y9700000D01*
X3900000Y9375000D01*
X3975000Y9300000D01*
X4900000Y9300000D01*
X4900000Y9925000D01*
X5700000Y9925000D01*
X5700000Y9300000D01*
X6625000Y9300000D01*
X6700000Y9375000D01*
X6701452Y9700000D01*
X6695660Y9758810D01*
X6678505Y9815361D01*
X6650648Y9867478D01*
X6613159Y9913159D01*
X6567478Y9950648D01*
X6515361Y9978505D01*
X6458810Y9995660D01*
X6400000Y10001452D01*
X5775000Y10000000D01*
X5700000Y9925000D01*
X4900000Y9925000D01*
X4825000Y10000000D01*
X4728598Y10000224D01*
X4781434Y10028465D01*
X4830921Y10069079D01*
X4871535Y10118566D01*
X4901713Y10175026D01*
X4920297Y10236289D01*
X4926572Y10300000D01*
X4925000Y10315961D01*
X4925000Y10759251D01*
X4941190Y10754340D01*
X5000000Y10748548D01*
X5525000Y10750000D01*
X5600000Y10825000D01*
X5600000Y11550000D01*
X5800000Y11550000D01*
X5800000Y10825000D01*
X5875000Y10750000D01*
X6400000Y10748548D01*
X6458810Y10754340D01*
X6515361Y10771495D01*
X6567478Y10799352D01*
X6613159Y10836841D01*
X6650648Y10882522D01*
X6678505Y10934639D01*
X6695660Y10991190D01*
X6701452Y11050000D01*
X6700000Y11475000D01*
X6625000Y11550000D01*
X5800000Y11550000D01*
X5600000Y11550000D01*
X5580000Y11550000D01*
X5580000Y11750000D01*
X5600000Y11750000D01*
X5600000Y11770000D01*
X5800000Y11770000D01*
X5800000Y11750000D01*
X6625000Y11750000D01*
X6700000Y11825000D01*
X6700256Y11900000D01*
X6900000Y11900000D01*
X6900000Y6200000D01*
G36*
X6900000Y15800000D02*
G01*
X6701281Y15800000D01*
X6700000Y16175000D01*
X6625000Y16250000D01*
X5800000Y16250000D01*
X5800000Y16230000D01*
X5600000Y16230000D01*
X5600000Y16250000D01*
X5580000Y16250000D01*
X5580000Y16450000D01*
X5600000Y16450000D01*
X5600000Y17175000D01*
X5800000Y17175000D01*
X5800000Y16450000D01*
X6625000Y16450000D01*
X6700000Y16525000D01*
X6701452Y16950000D01*
X6695660Y17008810D01*
X6678505Y17065361D01*
X6650648Y17117478D01*
X6613159Y17163159D01*
X6567478Y17200648D01*
X6515361Y17228505D01*
X6458810Y17245660D01*
X6400000Y17251452D01*
X5875000Y17250000D01*
X5800000Y17175000D01*
X5600000Y17175000D01*
X5525000Y17250000D01*
X5000000Y17251452D01*
X4941190Y17245660D01*
X4925000Y17240749D01*
X4925000Y17684039D01*
X4926572Y17700000D01*
X4920297Y17763711D01*
X4901713Y17824974D01*
X4871535Y17881434D01*
X4830921Y17930921D01*
X4781434Y17971535D01*
X4728598Y17999776D01*
X4825000Y18000000D01*
X4900000Y18075000D01*
X4900000Y18700000D01*
X5700000Y18700000D01*
X5700000Y18075000D01*
X5775000Y18000000D01*
X6400000Y17998548D01*
X6458810Y18004340D01*
X6515361Y18021495D01*
X6567478Y18049352D01*
X6613159Y18086841D01*
X6650648Y18132522D01*
X6678505Y18184639D01*
X6695660Y18241190D01*
X6701452Y18300000D01*
X6700000Y18625000D01*
X6625000Y18700000D01*
X5700000Y18700000D01*
X4900000Y18700000D01*
X3975000Y18700000D01*
X3900000Y18625000D01*
X3898548Y18300000D01*
X3904340Y18241190D01*
X3921495Y18184639D01*
X3949352Y18132522D01*
X3986841Y18086841D01*
X4032522Y18049352D01*
X4078082Y18025000D01*
X2821918Y18025000D01*
X2867478Y18049352D01*
X2913159Y18086841D01*
X2950648Y18132522D01*
X2978505Y18184639D01*
X2995660Y18241190D01*
X3001452Y18300000D01*
X3000000Y18625000D01*
X2925000Y18700000D01*
X2000000Y18700000D01*
X2000000Y18680000D01*
X1200000Y18680000D01*
X1200000Y18700000D01*
X1180000Y18700000D01*
X1180000Y19500000D01*
X1200000Y19500000D01*
X1200000Y20125000D01*
X2000000Y20125000D01*
X2000000Y19500000D01*
X2925000Y19500000D01*
X3000000Y19575000D01*
X3001452Y19900000D01*
X3898548Y19900000D01*
X3900000Y19575000D01*
X3975000Y19500000D01*
X4900000Y19500000D01*
X4900000Y20125000D01*
X5700000Y20125000D01*
X5700000Y19500000D01*
X6625000Y19500000D01*
X6700000Y19575000D01*
X6701452Y19900000D01*
X6695660Y19958810D01*
X6678505Y20015361D01*
X6650648Y20067478D01*
X6613159Y20113159D01*
X6567478Y20150648D01*
X6515361Y20178505D01*
X6458810Y20195660D01*
X6400000Y20201452D01*
X5775000Y20200000D01*
X5700000Y20125000D01*
X4900000Y20125000D01*
X4825000Y20200000D01*
X4200000Y20201452D01*
X4141190Y20195660D01*
X4084639Y20178505D01*
X4032522Y20150648D01*
X3986841Y20113159D01*
X3949352Y20067478D01*
X3921495Y20015361D01*
X3904340Y19958810D01*
X3898548Y19900000D01*
X3001452Y19900000D01*
X2995660Y19958810D01*
X2978505Y20015361D01*
X2950648Y20067478D01*
X2913159Y20113159D01*
X2867478Y20150648D01*
X2815361Y20178505D01*
X2758810Y20195660D01*
X2700000Y20201452D01*
X2075000Y20200000D01*
X2000000Y20125000D01*
X1200000Y20125000D01*
X1125000Y20200000D01*
X500000Y20201452D01*
X441190Y20195660D01*
X384639Y20178505D01*
X332522Y20150648D01*
X325000Y20144475D01*
X325000Y20400000D01*
X6900000Y20400000D01*
X6900000Y15800000D01*
G37*
X6900000Y15800000D02*
X6701281Y15800000D01*
X6700000Y16175000D01*
X6625000Y16250000D01*
X5800000Y16250000D01*
X5800000Y16230000D01*
X5600000Y16230000D01*
X5600000Y16250000D01*
X5580000Y16250000D01*
X5580000Y16450000D01*
X5600000Y16450000D01*
X5600000Y17175000D01*
X5800000Y17175000D01*
X5800000Y16450000D01*
X6625000Y16450000D01*
X6700000Y16525000D01*
X6701452Y16950000D01*
X6695660Y17008810D01*
X6678505Y17065361D01*
X6650648Y17117478D01*
X6613159Y17163159D01*
X6567478Y17200648D01*
X6515361Y17228505D01*
X6458810Y17245660D01*
X6400000Y17251452D01*
X5875000Y17250000D01*
X5800000Y17175000D01*
X5600000Y17175000D01*
X5525000Y17250000D01*
X5000000Y17251452D01*
X4941190Y17245660D01*
X4925000Y17240749D01*
X4925000Y17684039D01*
X4926572Y17700000D01*
X4920297Y17763711D01*
X4901713Y17824974D01*
X4871535Y17881434D01*
X4830921Y17930921D01*
X4781434Y17971535D01*
X4728598Y17999776D01*
X4825000Y18000000D01*
X4900000Y18075000D01*
X4900000Y18700000D01*
X5700000Y18700000D01*
X5700000Y18075000D01*
X5775000Y18000000D01*
X6400000Y17998548D01*
X6458810Y18004340D01*
X6515361Y18021495D01*
X6567478Y18049352D01*
X6613159Y18086841D01*
X6650648Y18132522D01*
X6678505Y18184639D01*
X6695660Y18241190D01*
X6701452Y18300000D01*
X6700000Y18625000D01*
X6625000Y18700000D01*
X5700000Y18700000D01*
X4900000Y18700000D01*
X3975000Y18700000D01*
X3900000Y18625000D01*
X3898548Y18300000D01*
X3904340Y18241190D01*
X3921495Y18184639D01*
X3949352Y18132522D01*
X3986841Y18086841D01*
X4032522Y18049352D01*
X4078082Y18025000D01*
X2821918Y18025000D01*
X2867478Y18049352D01*
X2913159Y18086841D01*
X2950648Y18132522D01*
X2978505Y18184639D01*
X2995660Y18241190D01*
X3001452Y18300000D01*
X3000000Y18625000D01*
X2925000Y18700000D01*
X2000000Y18700000D01*
X2000000Y18680000D01*
X1200000Y18680000D01*
X1200000Y18700000D01*
X1180000Y18700000D01*
X1180000Y19500000D01*
X1200000Y19500000D01*
X1200000Y20125000D01*
X2000000Y20125000D01*
X2000000Y19500000D01*
X2925000Y19500000D01*
X3000000Y19575000D01*
X3001452Y19900000D01*
X3898548Y19900000D01*
X3900000Y19575000D01*
X3975000Y19500000D01*
X4900000Y19500000D01*
X4900000Y20125000D01*
X5700000Y20125000D01*
X5700000Y19500000D01*
X6625000Y19500000D01*
X6700000Y19575000D01*
X6701452Y19900000D01*
X6695660Y19958810D01*
X6678505Y20015361D01*
X6650648Y20067478D01*
X6613159Y20113159D01*
X6567478Y20150648D01*
X6515361Y20178505D01*
X6458810Y20195660D01*
X6400000Y20201452D01*
X5775000Y20200000D01*
X5700000Y20125000D01*
X4900000Y20125000D01*
X4825000Y20200000D01*
X4200000Y20201452D01*
X4141190Y20195660D01*
X4084639Y20178505D01*
X4032522Y20150648D01*
X3986841Y20113159D01*
X3949352Y20067478D01*
X3921495Y20015361D01*
X3904340Y19958810D01*
X3898548Y19900000D01*
X3001452Y19900000D01*
X2995660Y19958810D01*
X2978505Y20015361D01*
X2950648Y20067478D01*
X2913159Y20113159D01*
X2867478Y20150648D01*
X2815361Y20178505D01*
X2758810Y20195660D01*
X2700000Y20201452D01*
X2075000Y20200000D01*
X2000000Y20125000D01*
X1200000Y20125000D01*
X1125000Y20200000D01*
X500000Y20201452D01*
X441190Y20195660D01*
X384639Y20178505D01*
X332522Y20150648D01*
X325000Y20144475D01*
X325000Y20400000D01*
X6900000Y20400000D01*
X6900000Y15800000D01*
G04 #@! TO.N,GND*
G36*
X51675000Y325000D02*
G01*
X325000Y325000D01*
X325000Y3390000D01*
X5198549Y3390000D01*
X5198549Y1690000D01*
X5204341Y1631190D01*
X5221496Y1574640D01*
X5249353Y1522523D01*
X5286842Y1476842D01*
X5332523Y1439353D01*
X5384640Y1411496D01*
X5441190Y1394341D01*
X5500000Y1388549D01*
X7200000Y1388549D01*
X7258810Y1394341D01*
X7315360Y1411496D01*
X7367477Y1439353D01*
X7413158Y1476842D01*
X7450647Y1522523D01*
X7478504Y1574640D01*
X7495659Y1631190D01*
X7501451Y1690000D01*
X7501451Y2653265D01*
X7740000Y2653265D01*
X7740000Y2426735D01*
X7784194Y2204557D01*
X7870884Y1995271D01*
X7996737Y1806918D01*
X8156918Y1646737D01*
X8345271Y1520884D01*
X8554557Y1434194D01*
X8776735Y1390000D01*
X9003265Y1390000D01*
X9225443Y1434194D01*
X9434729Y1520884D01*
X9623082Y1646737D01*
X9783263Y1806918D01*
X9909116Y1995271D01*
X9995806Y2204557D01*
X10040000Y2426735D01*
X10040000Y2653265D01*
X10280000Y2653265D01*
X10280000Y2426735D01*
X10324194Y2204557D01*
X10410884Y1995271D01*
X10536737Y1806918D01*
X10696918Y1646737D01*
X10885271Y1520884D01*
X11094557Y1434194D01*
X11316735Y1390000D01*
X11543265Y1390000D01*
X11765443Y1434194D01*
X11974729Y1520884D01*
X12163082Y1646737D01*
X12323263Y1806918D01*
X12449116Y1995271D01*
X12535806Y2204557D01*
X12580000Y2426735D01*
X12580000Y2653265D01*
X12820000Y2653265D01*
X12820000Y2426735D01*
X12864194Y2204557D01*
X12950884Y1995271D01*
X13076737Y1806918D01*
X13236918Y1646737D01*
X13425271Y1520884D01*
X13634557Y1434194D01*
X13856735Y1390000D01*
X14083265Y1390000D01*
X14305443Y1434194D01*
X14514729Y1520884D01*
X14703082Y1646737D01*
X14863263Y1806918D01*
X14989116Y1995271D01*
X15075806Y2204557D01*
X15120000Y2426735D01*
X15120000Y2653265D01*
X15360000Y2653265D01*
X15360000Y2426735D01*
X15404194Y2204557D01*
X15490884Y1995271D01*
X15616737Y1806918D01*
X15776918Y1646737D01*
X15965271Y1520884D01*
X16174557Y1434194D01*
X16396735Y1390000D01*
X16623265Y1390000D01*
X16845443Y1434194D01*
X17054729Y1520884D01*
X17243082Y1646737D01*
X17403263Y1806918D01*
X17529116Y1995271D01*
X17615806Y2204557D01*
X17660000Y2426735D01*
X17660000Y2653265D01*
X17900000Y2653265D01*
X17900000Y2426735D01*
X17944194Y2204557D01*
X18030884Y1995271D01*
X18156737Y1806918D01*
X18316918Y1646737D01*
X18505271Y1520884D01*
X18714557Y1434194D01*
X18936735Y1390000D01*
X19163265Y1390000D01*
X19385443Y1434194D01*
X19594729Y1520884D01*
X19783082Y1646737D01*
X19943263Y1806918D01*
X20069116Y1995271D01*
X20155806Y2204557D01*
X20200000Y2426735D01*
X20200000Y2653265D01*
X20440000Y2653265D01*
X20440000Y2426735D01*
X20484194Y2204557D01*
X20570884Y1995271D01*
X20696737Y1806918D01*
X20856918Y1646737D01*
X21045271Y1520884D01*
X21254557Y1434194D01*
X21476735Y1390000D01*
X21703265Y1390000D01*
X21925443Y1434194D01*
X22134729Y1520884D01*
X22323082Y1646737D01*
X22483263Y1806918D01*
X22609116Y1995271D01*
X22695806Y2204557D01*
X22740000Y2426735D01*
X22740000Y2653265D01*
X22980000Y2653265D01*
X22980000Y2426735D01*
X23024194Y2204557D01*
X23110884Y1995271D01*
X23236737Y1806918D01*
X23396918Y1646737D01*
X23585271Y1520884D01*
X23794557Y1434194D01*
X24016735Y1390000D01*
X24243265Y1390000D01*
X24465443Y1434194D01*
X24674729Y1520884D01*
X24863082Y1646737D01*
X25023263Y1806918D01*
X25149116Y1995271D01*
X25235806Y2204557D01*
X25280000Y2426735D01*
X25280000Y2653265D01*
X25235806Y2875443D01*
X25149116Y3084729D01*
X25023263Y3273082D01*
X24906345Y3390000D01*
X25518549Y3390000D01*
X25518549Y1690000D01*
X25524341Y1631190D01*
X25541496Y1574640D01*
X25569353Y1522523D01*
X25606842Y1476842D01*
X25652523Y1439353D01*
X25704640Y1411496D01*
X25761190Y1394341D01*
X25820000Y1388549D01*
X27520000Y1388549D01*
X27578810Y1394341D01*
X27635360Y1411496D01*
X27687477Y1439353D01*
X27733158Y1476842D01*
X27770647Y1522523D01*
X27798504Y1574640D01*
X27815659Y1631190D01*
X27821451Y1690000D01*
X27821451Y2262012D01*
X28094099Y2262012D01*
X28169773Y2049652D01*
X28285423Y1856136D01*
X28436604Y1688900D01*
X28617506Y1554372D01*
X28821177Y1457721D01*
X28932013Y1424104D01*
X29110000Y1469661D01*
X29110000Y2440000D01*
X29310000Y2440000D01*
X29310000Y1469661D01*
X29487987Y1424104D01*
X29598823Y1457721D01*
X29802494Y1554372D01*
X29983396Y1688900D01*
X30134577Y1856136D01*
X30250227Y2049652D01*
X30325901Y2262012D01*
X30280649Y2440000D01*
X29310000Y2440000D01*
X29110000Y2440000D01*
X28139351Y2440000D01*
X28094099Y2262012D01*
X27821451Y2262012D01*
X27821451Y2817988D01*
X28094099Y2817988D01*
X28139351Y2640000D01*
X29110000Y2640000D01*
X29110000Y3610339D01*
X29310000Y3610339D01*
X29310000Y2640000D01*
X30280649Y2640000D01*
X30325901Y2817988D01*
X30250227Y3030348D01*
X30134577Y3223864D01*
X29984391Y3390000D01*
X30598549Y3390000D01*
X30598549Y1690000D01*
X30604341Y1631190D01*
X30621496Y1574640D01*
X30649353Y1522523D01*
X30686842Y1476842D01*
X30732523Y1439353D01*
X30784640Y1411496D01*
X30841190Y1394341D01*
X30900000Y1388549D01*
X32600000Y1388549D01*
X32658810Y1394341D01*
X32715360Y1411496D01*
X32767477Y1439353D01*
X32813158Y1476842D01*
X32850647Y1522523D01*
X32878504Y1574640D01*
X32895659Y1631190D01*
X32901451Y1690000D01*
X32901451Y2653265D01*
X33140000Y2653265D01*
X33140000Y2426735D01*
X33184194Y2204557D01*
X33270884Y1995271D01*
X33396737Y1806918D01*
X33556918Y1646737D01*
X33745271Y1520884D01*
X33954557Y1434194D01*
X34176735Y1390000D01*
X34403265Y1390000D01*
X34625443Y1434194D01*
X34834729Y1520884D01*
X35023082Y1646737D01*
X35183263Y1806918D01*
X35309116Y1995271D01*
X35395806Y2204557D01*
X35440000Y2426735D01*
X35440000Y2653265D01*
X35680000Y2653265D01*
X35680000Y2426735D01*
X35724194Y2204557D01*
X35810884Y1995271D01*
X35936737Y1806918D01*
X36096918Y1646737D01*
X36285271Y1520884D01*
X36494557Y1434194D01*
X36716735Y1390000D01*
X36943265Y1390000D01*
X37165443Y1434194D01*
X37374729Y1520884D01*
X37563082Y1646737D01*
X37723263Y1806918D01*
X37849116Y1995271D01*
X37935806Y2204557D01*
X37980000Y2426735D01*
X37980000Y2653265D01*
X38220000Y2653265D01*
X38220000Y2426735D01*
X38264194Y2204557D01*
X38350884Y1995271D01*
X38476737Y1806918D01*
X38636918Y1646737D01*
X38825271Y1520884D01*
X39034557Y1434194D01*
X39256735Y1390000D01*
X39483265Y1390000D01*
X39705443Y1434194D01*
X39914729Y1520884D01*
X40103082Y1646737D01*
X40263263Y1806918D01*
X40389116Y1995271D01*
X40475806Y2204557D01*
X40520000Y2426735D01*
X40520000Y2653265D01*
X40760000Y2653265D01*
X40760000Y2426735D01*
X40804194Y2204557D01*
X40890884Y1995271D01*
X41016737Y1806918D01*
X41176918Y1646737D01*
X41365271Y1520884D01*
X41574557Y1434194D01*
X41796735Y1390000D01*
X42023265Y1390000D01*
X42245443Y1434194D01*
X42454729Y1520884D01*
X42643082Y1646737D01*
X42803263Y1806918D01*
X42929116Y1995271D01*
X43015806Y2204557D01*
X43060000Y2426735D01*
X43060000Y2653265D01*
X43300000Y2653265D01*
X43300000Y2426735D01*
X43344194Y2204557D01*
X43430884Y1995271D01*
X43556737Y1806918D01*
X43716918Y1646737D01*
X43905271Y1520884D01*
X44114557Y1434194D01*
X44336735Y1390000D01*
X44563265Y1390000D01*
X44785443Y1434194D01*
X44994729Y1520884D01*
X45183082Y1646737D01*
X45343263Y1806918D01*
X45469116Y1995271D01*
X45555806Y2204557D01*
X45600000Y2426735D01*
X45600000Y2653265D01*
X45840000Y2653265D01*
X45840000Y2426735D01*
X45884194Y2204557D01*
X45970884Y1995271D01*
X46096737Y1806918D01*
X46256918Y1646737D01*
X46445271Y1520884D01*
X46654557Y1434194D01*
X46876735Y1390000D01*
X47103265Y1390000D01*
X47325443Y1434194D01*
X47534729Y1520884D01*
X47723082Y1646737D01*
X47883263Y1806918D01*
X48009116Y1995271D01*
X48095806Y2204557D01*
X48140000Y2426735D01*
X48140000Y2653265D01*
X48380000Y2653265D01*
X48380000Y2426735D01*
X48424194Y2204557D01*
X48510884Y1995271D01*
X48636737Y1806918D01*
X48796918Y1646737D01*
X48985271Y1520884D01*
X49194557Y1434194D01*
X49416735Y1390000D01*
X49643265Y1390000D01*
X49865443Y1434194D01*
X50074729Y1520884D01*
X50263082Y1646737D01*
X50423263Y1806918D01*
X50549116Y1995271D01*
X50635806Y2204557D01*
X50680000Y2426735D01*
X50680000Y2653265D01*
X50635806Y2875443D01*
X50549116Y3084729D01*
X50423263Y3273082D01*
X50263082Y3433263D01*
X50074729Y3559116D01*
X49865443Y3645806D01*
X49643265Y3690000D01*
X49416735Y3690000D01*
X49194557Y3645806D01*
X48985271Y3559116D01*
X48796918Y3433263D01*
X48636737Y3273082D01*
X48510884Y3084729D01*
X48424194Y2875443D01*
X48380000Y2653265D01*
X48140000Y2653265D01*
X48095806Y2875443D01*
X48009116Y3084729D01*
X47883263Y3273082D01*
X47723082Y3433263D01*
X47534729Y3559116D01*
X47325443Y3645806D01*
X47103265Y3690000D01*
X46876735Y3690000D01*
X46654557Y3645806D01*
X46445271Y3559116D01*
X46256918Y3433263D01*
X46096737Y3273082D01*
X45970884Y3084729D01*
X45884194Y2875443D01*
X45840000Y2653265D01*
X45600000Y2653265D01*
X45555806Y2875443D01*
X45469116Y3084729D01*
X45343263Y3273082D01*
X45183082Y3433263D01*
X44994729Y3559116D01*
X44785443Y3645806D01*
X44563265Y3690000D01*
X44336735Y3690000D01*
X44114557Y3645806D01*
X43905271Y3559116D01*
X43716918Y3433263D01*
X43556737Y3273082D01*
X43430884Y3084729D01*
X43344194Y2875443D01*
X43300000Y2653265D01*
X43060000Y2653265D01*
X43015806Y2875443D01*
X42929116Y3084729D01*
X42803263Y3273082D01*
X42643082Y3433263D01*
X42454729Y3559116D01*
X42245443Y3645806D01*
X42023265Y3690000D01*
X41796735Y3690000D01*
X41574557Y3645806D01*
X41365271Y3559116D01*
X41176918Y3433263D01*
X41016737Y3273082D01*
X40890884Y3084729D01*
X40804194Y2875443D01*
X40760000Y2653265D01*
X40520000Y2653265D01*
X40475806Y2875443D01*
X40389116Y3084729D01*
X40263263Y3273082D01*
X40103082Y3433263D01*
X39914729Y3559116D01*
X39705443Y3645806D01*
X39483265Y3690000D01*
X39256735Y3690000D01*
X39034557Y3645806D01*
X38825271Y3559116D01*
X38636918Y3433263D01*
X38476737Y3273082D01*
X38350884Y3084729D01*
X38264194Y2875443D01*
X38220000Y2653265D01*
X37980000Y2653265D01*
X37935806Y2875443D01*
X37849116Y3084729D01*
X37723263Y3273082D01*
X37563082Y3433263D01*
X37374729Y3559116D01*
X37165443Y3645806D01*
X36943265Y3690000D01*
X36716735Y3690000D01*
X36494557Y3645806D01*
X36285271Y3559116D01*
X36096918Y3433263D01*
X35936737Y3273082D01*
X35810884Y3084729D01*
X35724194Y2875443D01*
X35680000Y2653265D01*
X35440000Y2653265D01*
X35395806Y2875443D01*
X35309116Y3084729D01*
X35183263Y3273082D01*
X35023082Y3433263D01*
X34834729Y3559116D01*
X34625443Y3645806D01*
X34403265Y3690000D01*
X34176735Y3690000D01*
X33954557Y3645806D01*
X33745271Y3559116D01*
X33556918Y3433263D01*
X33396737Y3273082D01*
X33270884Y3084729D01*
X33184194Y2875443D01*
X33140000Y2653265D01*
X32901451Y2653265D01*
X32901451Y3390000D01*
X32895659Y3448810D01*
X32878504Y3505360D01*
X32850647Y3557477D01*
X32813158Y3603158D01*
X32767477Y3640647D01*
X32715360Y3668504D01*
X32658810Y3685659D01*
X32600000Y3691451D01*
X30900000Y3691451D01*
X30841190Y3685659D01*
X30784640Y3668504D01*
X30732523Y3640647D01*
X30686842Y3603158D01*
X30649353Y3557477D01*
X30621496Y3505360D01*
X30604341Y3448810D01*
X30598549Y3390000D01*
X29984391Y3390000D01*
X29983396Y3391100D01*
X29802494Y3525628D01*
X29598823Y3622279D01*
X29487987Y3655896D01*
X29310000Y3610339D01*
X29110000Y3610339D01*
X28932013Y3655896D01*
X28821177Y3622279D01*
X28617506Y3525628D01*
X28436604Y3391100D01*
X28285423Y3223864D01*
X28169773Y3030348D01*
X28094099Y2817988D01*
X27821451Y2817988D01*
X27821451Y3390000D01*
X27815659Y3448810D01*
X27798504Y3505360D01*
X27770647Y3557477D01*
X27733158Y3603158D01*
X27687477Y3640647D01*
X27635360Y3668504D01*
X27578810Y3685659D01*
X27520000Y3691451D01*
X25820000Y3691451D01*
X25761190Y3685659D01*
X25704640Y3668504D01*
X25652523Y3640647D01*
X25606842Y3603158D01*
X25569353Y3557477D01*
X25541496Y3505360D01*
X25524341Y3448810D01*
X25518549Y3390000D01*
X24906345Y3390000D01*
X24863082Y3433263D01*
X24674729Y3559116D01*
X24465443Y3645806D01*
X24243265Y3690000D01*
X24016735Y3690000D01*
X23794557Y3645806D01*
X23585271Y3559116D01*
X23396918Y3433263D01*
X23236737Y3273082D01*
X23110884Y3084729D01*
X23024194Y2875443D01*
X22980000Y2653265D01*
X22740000Y2653265D01*
X22695806Y2875443D01*
X22609116Y3084729D01*
X22483263Y3273082D01*
X22323082Y3433263D01*
X22134729Y3559116D01*
X21925443Y3645806D01*
X21703265Y3690000D01*
X21476735Y3690000D01*
X21254557Y3645806D01*
X21045271Y3559116D01*
X20856918Y3433263D01*
X20696737Y3273082D01*
X20570884Y3084729D01*
X20484194Y2875443D01*
X20440000Y2653265D01*
X20200000Y2653265D01*
X20155806Y2875443D01*
X20069116Y3084729D01*
X19943263Y3273082D01*
X19783082Y3433263D01*
X19594729Y3559116D01*
X19385443Y3645806D01*
X19163265Y3690000D01*
X18936735Y3690000D01*
X18714557Y3645806D01*
X18505271Y3559116D01*
X18316918Y3433263D01*
X18156737Y3273082D01*
X18030884Y3084729D01*
X17944194Y2875443D01*
X17900000Y2653265D01*
X17660000Y2653265D01*
X17615806Y2875443D01*
X17529116Y3084729D01*
X17403263Y3273082D01*
X17243082Y3433263D01*
X17054729Y3559116D01*
X16845443Y3645806D01*
X16623265Y3690000D01*
X16396735Y3690000D01*
X16174557Y3645806D01*
X15965271Y3559116D01*
X15776918Y3433263D01*
X15616737Y3273082D01*
X15490884Y3084729D01*
X15404194Y2875443D01*
X15360000Y2653265D01*
X15120000Y2653265D01*
X15075806Y2875443D01*
X14989116Y3084729D01*
X14863263Y3273082D01*
X14703082Y3433263D01*
X14514729Y3559116D01*
X14305443Y3645806D01*
X14083265Y3690000D01*
X13856735Y3690000D01*
X13634557Y3645806D01*
X13425271Y3559116D01*
X13236918Y3433263D01*
X13076737Y3273082D01*
X12950884Y3084729D01*
X12864194Y2875443D01*
X12820000Y2653265D01*
X12580000Y2653265D01*
X12535806Y2875443D01*
X12449116Y3084729D01*
X12323263Y3273082D01*
X12163082Y3433263D01*
X11974729Y3559116D01*
X11765443Y3645806D01*
X11543265Y3690000D01*
X11316735Y3690000D01*
X11094557Y3645806D01*
X10885271Y3559116D01*
X10696918Y3433263D01*
X10536737Y3273082D01*
X10410884Y3084729D01*
X10324194Y2875443D01*
X10280000Y2653265D01*
X10040000Y2653265D01*
X9995806Y2875443D01*
X9909116Y3084729D01*
X9783263Y3273082D01*
X9623082Y3433263D01*
X9434729Y3559116D01*
X9225443Y3645806D01*
X9003265Y3690000D01*
X8776735Y3690000D01*
X8554557Y3645806D01*
X8345271Y3559116D01*
X8156918Y3433263D01*
X7996737Y3273082D01*
X7870884Y3084729D01*
X7784194Y2875443D01*
X7740000Y2653265D01*
X7501451Y2653265D01*
X7501451Y3390000D01*
X7495659Y3448810D01*
X7478504Y3505360D01*
X7450647Y3557477D01*
X7413158Y3603158D01*
X7367477Y3640647D01*
X7315360Y3668504D01*
X7258810Y3685659D01*
X7200000Y3691451D01*
X5500000Y3691451D01*
X5441190Y3685659D01*
X5384640Y3668504D01*
X5332523Y3640647D01*
X5286842Y3603158D01*
X5249353Y3557477D01*
X5221496Y3505360D01*
X5204341Y3448810D01*
X5198549Y3390000D01*
X325000Y3390000D01*
X325000Y4700000D01*
X698548Y4700000D01*
X704340Y4641190D01*
X721495Y4584639D01*
X749352Y4532522D01*
X786841Y4486841D01*
X832522Y4449352D01*
X884639Y4421495D01*
X941190Y4404340D01*
X1000000Y4398548D01*
X1225000Y4400000D01*
X1300000Y4475000D01*
X1300000Y5050000D01*
X1500000Y5050000D01*
X1500000Y4475000D01*
X1575000Y4400000D01*
X1800000Y4398548D01*
X1858810Y4404340D01*
X1915361Y4421495D01*
X1967478Y4449352D01*
X2013159Y4486841D01*
X2050648Y4532522D01*
X2078505Y4584639D01*
X2095660Y4641190D01*
X2100000Y4685257D01*
X2104340Y4641190D01*
X2121495Y4584639D01*
X2149352Y4532522D01*
X2186841Y4486841D01*
X2232522Y4449352D01*
X2284639Y4421495D01*
X2341190Y4404340D01*
X2400000Y4398548D01*
X2625000Y4400000D01*
X2700000Y4475000D01*
X2700000Y5050000D01*
X2900000Y5050000D01*
X2900000Y4475000D01*
X2975000Y4400000D01*
X3200000Y4398548D01*
X3258810Y4404340D01*
X3315361Y4421495D01*
X3367478Y4449352D01*
X3413159Y4486841D01*
X3450648Y4532522D01*
X3478505Y4584639D01*
X3495660Y4641190D01*
X3501452Y4700000D01*
X3500000Y4975000D01*
X3425000Y5050000D01*
X2900000Y5050000D01*
X2700000Y5050000D01*
X2175000Y5050000D01*
X2100000Y4975000D01*
X2025000Y5050000D01*
X1500000Y5050000D01*
X1300000Y5050000D01*
X775000Y5050000D01*
X700000Y4975000D01*
X698548Y4700000D01*
X325000Y4700000D01*
X325000Y5800000D01*
X776042Y5800000D01*
X749352Y5767478D01*
X721495Y5715361D01*
X704340Y5658810D01*
X698548Y5600000D01*
X700000Y5325000D01*
X775000Y5250000D01*
X1300000Y5250000D01*
X1300000Y5270000D01*
X1500000Y5270000D01*
X1500000Y5250000D01*
X2025000Y5250000D01*
X2100000Y5325000D01*
X2175000Y5250000D01*
X2700000Y5250000D01*
X2700000Y5270000D01*
X2900000Y5270000D01*
X2900000Y5250000D01*
X3425000Y5250000D01*
X3500000Y5325000D01*
X3501452Y5600000D01*
X3495660Y5658810D01*
X3478505Y5715361D01*
X3450648Y5767478D01*
X3423958Y5800000D01*
X7000000Y5800000D01*
X7058527Y5805764D01*
X7114805Y5822836D01*
X7166671Y5850559D01*
X7212132Y5887868D01*
X7249441Y5933329D01*
X7277164Y5985195D01*
X7294236Y6041473D01*
X7300000Y6100000D01*
X7300000Y7900000D01*
X8798549Y7900000D01*
X8798549Y7100000D01*
X8804341Y7041190D01*
X8821496Y6984640D01*
X8849353Y6932523D01*
X8886842Y6886842D01*
X8932523Y6849353D01*
X8984640Y6821496D01*
X9041190Y6804341D01*
X9100000Y6798549D01*
X10000000Y6798549D01*
X10058810Y6804341D01*
X10115360Y6821496D01*
X10167477Y6849353D01*
X10213158Y6886842D01*
X10250647Y6932523D01*
X10278504Y6984640D01*
X10295659Y7041190D01*
X10301451Y7100000D01*
X10498548Y7100000D01*
X10504340Y7041190D01*
X10521495Y6984639D01*
X10549352Y6932522D01*
X10586841Y6886841D01*
X10632522Y6849352D01*
X10684639Y6821495D01*
X10741190Y6804340D01*
X10800000Y6798548D01*
X11075000Y6800000D01*
X11150000Y6875000D01*
X11150000Y7400000D01*
X11350000Y7400000D01*
X11350000Y6875000D01*
X11425000Y6800000D01*
X11700000Y6798548D01*
X11758810Y6804340D01*
X11815361Y6821495D01*
X11867478Y6849352D01*
X11913159Y6886841D01*
X11950648Y6932522D01*
X11978505Y6984639D01*
X11995660Y7041190D01*
X12001452Y7100000D01*
X12000000Y7325000D01*
X11925000Y7400000D01*
X11350000Y7400000D01*
X11150000Y7400000D01*
X10575000Y7400000D01*
X10500000Y7325000D01*
X10498548Y7100000D01*
X10301451Y7100000D01*
X10301451Y7900000D01*
X10498548Y7900000D01*
X10500000Y7675000D01*
X10575000Y7600000D01*
X11150000Y7600000D01*
X11150000Y8125000D01*
X11350000Y8125000D01*
X11350000Y7600000D01*
X11925000Y7600000D01*
X12000000Y7675000D01*
X12001452Y7900000D01*
X11995660Y7958810D01*
X11978505Y8015361D01*
X11950648Y8067478D01*
X11913159Y8113159D01*
X11867478Y8150648D01*
X11815361Y8178505D01*
X11758810Y8195660D01*
X11700000Y8201452D01*
X11425000Y8200000D01*
X11350000Y8125000D01*
X11150000Y8125000D01*
X11075000Y8200000D01*
X10800000Y8201452D01*
X10741190Y8195660D01*
X10684639Y8178505D01*
X10632522Y8150648D01*
X10586841Y8113159D01*
X10549352Y8067478D01*
X10521495Y8015361D01*
X10504340Y7958810D01*
X10498548Y7900000D01*
X10301451Y7900000D01*
X10295659Y7958810D01*
X10278504Y8015360D01*
X10250647Y8067477D01*
X10213158Y8113158D01*
X10167477Y8150647D01*
X10115360Y8178504D01*
X10058810Y8195659D01*
X10000000Y8201451D01*
X9100000Y8201451D01*
X9041190Y8195659D01*
X8984640Y8178504D01*
X8932523Y8150647D01*
X8886842Y8113158D01*
X8849353Y8067477D01*
X8821496Y8015360D01*
X8804341Y7958810D01*
X8798549Y7900000D01*
X7300000Y7900000D01*
X7300000Y9959095D01*
X12800000Y9959095D01*
X12800000Y9840905D01*
X12823058Y9724986D01*
X12868287Y9615793D01*
X12933950Y9517522D01*
X13017522Y9433950D01*
X13115793Y9368287D01*
X13224986Y9323058D01*
X13340905Y9300000D01*
X13398549Y9300000D01*
X13398549Y8700000D01*
X13404341Y8641190D01*
X13421496Y8584640D01*
X13449353Y8532523D01*
X13476044Y8500000D01*
X13449353Y8467477D01*
X13421496Y8415360D01*
X13404341Y8358810D01*
X13398549Y8300000D01*
X13398549Y7500000D01*
X13404341Y7441190D01*
X13421496Y7384640D01*
X13449353Y7332523D01*
X13486842Y7286842D01*
X13532523Y7249353D01*
X13584640Y7221496D01*
X13641190Y7204341D01*
X13700000Y7198549D01*
X14600000Y7198549D01*
X14600000Y5219646D01*
X14598065Y5200000D01*
X14600000Y5180354D01*
X14605788Y5121587D01*
X14628660Y5046187D01*
X14665803Y4976698D01*
X14715789Y4915789D01*
X14731052Y4903263D01*
X15003267Y4631047D01*
X15015789Y4615789D01*
X15031047Y4603267D01*
X15031049Y4603265D01*
X15053745Y4584639D01*
X15076697Y4565803D01*
X15146186Y4528660D01*
X15221586Y4505788D01*
X15280353Y4500000D01*
X15280355Y4500000D01*
X15299999Y4498065D01*
X15319643Y4500000D01*
X25751472Y4500000D01*
X25817522Y4433950D01*
X25915793Y4368287D01*
X26024986Y4323058D01*
X26140905Y4300000D01*
X26259095Y4300000D01*
X26375014Y4323058D01*
X26484207Y4368287D01*
X26582478Y4433950D01*
X26666050Y4517522D01*
X26731713Y4615793D01*
X26776942Y4724986D01*
X26800000Y4840905D01*
X26800000Y4959095D01*
X26776942Y5075014D01*
X26731713Y5184207D01*
X26666050Y5282478D01*
X26582478Y5366050D01*
X26484207Y5431713D01*
X26375014Y5476942D01*
X26259095Y5500000D01*
X26140905Y5500000D01*
X26024986Y5476942D01*
X25915793Y5431713D01*
X25817522Y5366050D01*
X25751472Y5300000D01*
X15465686Y5300000D01*
X15400000Y5365685D01*
X15400000Y7198549D01*
X16300000Y7198549D01*
X16348178Y7203294D01*
X16417522Y7133950D01*
X16515793Y7068287D01*
X16624986Y7023058D01*
X16740905Y7000000D01*
X16859095Y7000000D01*
X16975014Y7023058D01*
X17084207Y7068287D01*
X17182478Y7133950D01*
X17266050Y7217522D01*
X17331713Y7315793D01*
X17376942Y7424986D01*
X17400000Y7540905D01*
X17400000Y7659095D01*
X17376942Y7775014D01*
X17331713Y7884207D01*
X17266050Y7982478D01*
X17182478Y8066050D01*
X17084207Y8131713D01*
X16975014Y8176942D01*
X16859095Y8200000D01*
X16764972Y8200000D01*
X16723303Y8234197D01*
X16653814Y8271340D01*
X16601451Y8287224D01*
X16601451Y8300000D01*
X16595659Y8358810D01*
X16578504Y8415360D01*
X16550647Y8467477D01*
X16523956Y8500000D01*
X16550647Y8532523D01*
X16578504Y8584640D01*
X16595659Y8641190D01*
X16601451Y8700000D01*
X16601451Y8712776D01*
X16653814Y8728660D01*
X16710753Y8759095D01*
X21000000Y8759095D01*
X21000000Y8640905D01*
X21023058Y8524986D01*
X21068287Y8415793D01*
X21133950Y8317522D01*
X21217522Y8233950D01*
X21315793Y8168287D01*
X21424986Y8123058D01*
X21540905Y8100000D01*
X21659095Y8100000D01*
X21775014Y8123058D01*
X21884207Y8168287D01*
X21982478Y8233950D01*
X22066050Y8317522D01*
X22131713Y8415793D01*
X22145281Y8448549D01*
X22150000Y8448549D01*
X22208810Y8454341D01*
X22265360Y8471496D01*
X22317477Y8499353D01*
X22363158Y8536842D01*
X22400647Y8582523D01*
X22428504Y8634640D01*
X22445659Y8691190D01*
X22451451Y8750000D01*
X22451451Y9650000D01*
X26298549Y9650000D01*
X26298549Y8750000D01*
X26304341Y8691190D01*
X26321496Y8634640D01*
X26349353Y8582523D01*
X26386842Y8536842D01*
X26432523Y8499353D01*
X26460603Y8484344D01*
X26468287Y8465793D01*
X26533950Y8367522D01*
X26617522Y8283950D01*
X26715793Y8218287D01*
X26824986Y8173058D01*
X26940905Y8150000D01*
X27059095Y8150000D01*
X27175014Y8173058D01*
X27284207Y8218287D01*
X27382478Y8283950D01*
X27466050Y8367522D01*
X27531713Y8465793D01*
X27539397Y8484344D01*
X27567477Y8499353D01*
X27613158Y8536842D01*
X27650647Y8582523D01*
X27678504Y8634640D01*
X27695659Y8691190D01*
X27701451Y8750000D01*
X27701451Y9650000D01*
X27695659Y9708810D01*
X27678504Y9765360D01*
X27650647Y9817477D01*
X27613158Y9863158D01*
X27567477Y9900647D01*
X27515360Y9928504D01*
X27458810Y9945659D01*
X27400000Y9951451D01*
X26600000Y9951451D01*
X26541190Y9945659D01*
X26484640Y9928504D01*
X26432523Y9900647D01*
X26386842Y9863158D01*
X26349353Y9817477D01*
X26321496Y9765360D01*
X26304341Y9708810D01*
X26298549Y9650000D01*
X22451451Y9650000D01*
X22445659Y9708810D01*
X22428504Y9765360D01*
X22400647Y9817477D01*
X22363158Y9863158D01*
X22317477Y9900647D01*
X22265360Y9928504D01*
X22208810Y9945659D01*
X22150000Y9951451D01*
X21350000Y9951451D01*
X21291190Y9945659D01*
X21234640Y9928504D01*
X21182523Y9900647D01*
X21136842Y9863158D01*
X21099353Y9817477D01*
X21071496Y9765360D01*
X21054341Y9708810D01*
X21048549Y9650000D01*
X21048549Y8936555D01*
X21023058Y8875014D01*
X21000000Y8759095D01*
X16710753Y8759095D01*
X16723303Y8765803D01*
X16764972Y8800000D01*
X16859095Y8800000D01*
X16975014Y8823058D01*
X17084207Y8868287D01*
X17182478Y8933950D01*
X17266050Y9017522D01*
X17331713Y9115793D01*
X17376942Y9224986D01*
X17400000Y9340905D01*
X17400000Y9459095D01*
X17376942Y9575014D01*
X17331713Y9684207D01*
X17266050Y9782478D01*
X17182478Y9866050D01*
X17084207Y9931713D01*
X16975014Y9976942D01*
X16859095Y10000000D01*
X16740905Y10000000D01*
X16624986Y9976942D01*
X16515793Y9931713D01*
X16417522Y9866050D01*
X16348178Y9796706D01*
X16300000Y9801451D01*
X15400000Y9801451D01*
X15400000Y9980353D01*
X15401935Y10000000D01*
X15399132Y10028465D01*
X15394212Y10078414D01*
X15371340Y10153814D01*
X15334197Y10223303D01*
X15284211Y10284211D01*
X15268943Y10296741D01*
X15115685Y10450000D01*
X21048548Y10450000D01*
X21054340Y10391190D01*
X21071495Y10334639D01*
X21099352Y10282522D01*
X21136841Y10236841D01*
X21182522Y10199352D01*
X21234639Y10171495D01*
X21291190Y10154340D01*
X21350000Y10148548D01*
X21575000Y10150000D01*
X21650000Y10225000D01*
X21650000Y10800000D01*
X21850000Y10800000D01*
X21850000Y10225000D01*
X21925000Y10150000D01*
X22150000Y10148548D01*
X22208810Y10154340D01*
X22265361Y10171495D01*
X22317478Y10199352D01*
X22363159Y10236841D01*
X22400648Y10282522D01*
X22428505Y10334639D01*
X22445660Y10391190D01*
X22451452Y10450000D01*
X26298548Y10450000D01*
X26304340Y10391190D01*
X26321495Y10334639D01*
X26349352Y10282522D01*
X26386841Y10236841D01*
X26432522Y10199352D01*
X26484639Y10171495D01*
X26541190Y10154340D01*
X26600000Y10148548D01*
X26825000Y10150000D01*
X26900000Y10225000D01*
X26900000Y10800000D01*
X27100000Y10800000D01*
X27100000Y10225000D01*
X27175000Y10150000D01*
X27400000Y10148548D01*
X27458810Y10154340D01*
X27515361Y10171495D01*
X27567478Y10199352D01*
X27613159Y10236841D01*
X27650648Y10282522D01*
X27678505Y10334639D01*
X27695660Y10391190D01*
X27701452Y10450000D01*
X27700000Y10725000D01*
X27625000Y10800000D01*
X27100000Y10800000D01*
X26900000Y10800000D01*
X26375000Y10800000D01*
X26300000Y10725000D01*
X26298548Y10450000D01*
X22451452Y10450000D01*
X22450000Y10725000D01*
X22375000Y10800000D01*
X21850000Y10800000D01*
X21650000Y10800000D01*
X21125000Y10800000D01*
X21050000Y10725000D01*
X21048548Y10450000D01*
X15115685Y10450000D01*
X15096738Y10468947D01*
X15084211Y10484211D01*
X15023303Y10534197D01*
X14953814Y10571340D01*
X14878414Y10594212D01*
X14819647Y10600000D01*
X14819646Y10600000D01*
X14800000Y10601935D01*
X14780354Y10600000D01*
X13719643Y10600000D01*
X13699999Y10601935D01*
X13680355Y10600000D01*
X13680353Y10600000D01*
X13621586Y10594212D01*
X13546186Y10571340D01*
X13476697Y10534197D01*
X13435027Y10500000D01*
X13340905Y10500000D01*
X13224986Y10476942D01*
X13115793Y10431713D01*
X13017522Y10366050D01*
X12933950Y10282478D01*
X12868287Y10184207D01*
X12823058Y10075014D01*
X12800000Y9959095D01*
X7300000Y9959095D01*
X7300000Y11900000D01*
X8000000Y11900000D01*
X8058527Y11905764D01*
X8114805Y11922836D01*
X8166671Y11950559D01*
X8212132Y11987868D01*
X8412132Y12187868D01*
X8449441Y12233329D01*
X8477164Y12285195D01*
X8494236Y12341473D01*
X8500000Y12400000D01*
X8500000Y13000000D01*
X8494236Y13058527D01*
X8489239Y13075000D01*
X16833407Y13075000D01*
X16868287Y12990793D01*
X16933950Y12892522D01*
X17017522Y12808950D01*
X17115793Y12743287D01*
X17224986Y12698058D01*
X17340905Y12675000D01*
X17459095Y12675000D01*
X17575014Y12698058D01*
X17684207Y12743287D01*
X17782478Y12808950D01*
X17866050Y12892522D01*
X17931713Y12990793D01*
X17976942Y13099986D01*
X18000000Y13215905D01*
X18000000Y13334095D01*
X17976942Y13450014D01*
X17931713Y13559207D01*
X17866050Y13657478D01*
X17836028Y13687500D01*
X17841050Y13692522D01*
X17906713Y13790793D01*
X17951942Y13899986D01*
X17975000Y14015905D01*
X17975000Y14134095D01*
X17951942Y14250014D01*
X17906713Y14359207D01*
X17841050Y14457478D01*
X17757478Y14541050D01*
X17659207Y14606713D01*
X17550014Y14651942D01*
X17514054Y14659095D01*
X18100000Y14659095D01*
X18100000Y14540905D01*
X18123058Y14424986D01*
X18168287Y14315793D01*
X18233950Y14217522D01*
X18317522Y14133950D01*
X18415793Y14068287D01*
X18434344Y14060603D01*
X18449353Y14032523D01*
X18476044Y14000000D01*
X18449353Y13967477D01*
X18421496Y13915360D01*
X18404341Y13858810D01*
X18398549Y13800000D01*
X18398549Y13000000D01*
X18404341Y12941190D01*
X18421496Y12884640D01*
X18449353Y12832523D01*
X18476044Y12800000D01*
X18449353Y12767477D01*
X18434344Y12739397D01*
X18415793Y12731713D01*
X18317522Y12666050D01*
X18233950Y12582478D01*
X18168287Y12484207D01*
X18123058Y12375014D01*
X18100000Y12259095D01*
X18100000Y12140905D01*
X18123058Y12024986D01*
X18168287Y11915793D01*
X18233950Y11817522D01*
X18317522Y11733950D01*
X18415793Y11668287D01*
X18434344Y11660603D01*
X18449353Y11632523D01*
X18486842Y11586842D01*
X18532523Y11549353D01*
X18584640Y11521496D01*
X18641190Y11504341D01*
X18700000Y11498549D01*
X19600000Y11498549D01*
X19658810Y11504341D01*
X19715360Y11521496D01*
X19767477Y11549353D01*
X19813158Y11586842D01*
X19850647Y11632523D01*
X19878504Y11684640D01*
X19895659Y11741190D01*
X19901451Y11800000D01*
X20098548Y11800000D01*
X20104340Y11741190D01*
X20121495Y11684639D01*
X20149352Y11632522D01*
X20186841Y11586841D01*
X20232522Y11549352D01*
X20284639Y11521495D01*
X20341190Y11504340D01*
X20400000Y11498548D01*
X20675000Y11500000D01*
X20750000Y11575000D01*
X20750000Y12100000D01*
X20950000Y12100000D01*
X20950000Y11575000D01*
X21025000Y11500000D01*
X21089827Y11499658D01*
X21071495Y11465361D01*
X21054340Y11408810D01*
X21048548Y11350000D01*
X21050000Y11075000D01*
X21125000Y11000000D01*
X21650000Y11000000D01*
X21650000Y11575000D01*
X21850000Y11575000D01*
X21850000Y11000000D01*
X22375000Y11000000D01*
X22450000Y11075000D01*
X22451452Y11350000D01*
X26298548Y11350000D01*
X26300000Y11075000D01*
X26375000Y11000000D01*
X26900000Y11000000D01*
X26900000Y11020000D01*
X27100000Y11020000D01*
X27100000Y11000000D01*
X27625000Y11000000D01*
X27700000Y11075000D01*
X27701452Y11350000D01*
X27695660Y11408810D01*
X27678505Y11465361D01*
X27650648Y11517478D01*
X27623269Y11550840D01*
X27658810Y11554340D01*
X27715361Y11571495D01*
X27767478Y11599352D01*
X27813159Y11636841D01*
X27850648Y11682522D01*
X27878505Y11734639D01*
X27895660Y11791190D01*
X27901452Y11850000D01*
X27900000Y12075000D01*
X27825000Y12150000D01*
X27250000Y12150000D01*
X27250000Y12130000D01*
X27050000Y12130000D01*
X27050000Y12150000D01*
X26475000Y12150000D01*
X26400000Y12075000D01*
X26398548Y11850000D01*
X26404340Y11791190D01*
X26421495Y11734639D01*
X26449352Y11682522D01*
X26486841Y11636841D01*
X26493663Y11631242D01*
X26484639Y11628505D01*
X26432522Y11600648D01*
X26386841Y11563159D01*
X26349352Y11517478D01*
X26321495Y11465361D01*
X26304340Y11408810D01*
X26298548Y11350000D01*
X22451452Y11350000D01*
X22445660Y11408810D01*
X22428505Y11465361D01*
X22400648Y11517478D01*
X22363159Y11563159D01*
X22317478Y11600648D01*
X22265361Y11628505D01*
X22208810Y11645660D01*
X22150000Y11651452D01*
X21925000Y11650000D01*
X21850000Y11575000D01*
X21650000Y11575000D01*
X21575000Y11650000D01*
X21560042Y11650097D01*
X21578505Y11684639D01*
X21595660Y11741190D01*
X21601452Y11800000D01*
X21600000Y12025000D01*
X21525000Y12100000D01*
X20950000Y12100000D01*
X20750000Y12100000D01*
X20175000Y12100000D01*
X20100000Y12025000D01*
X20098548Y11800000D01*
X19901451Y11800000D01*
X19901451Y12600000D01*
X19895659Y12658810D01*
X19878504Y12715360D01*
X19850647Y12767477D01*
X19823956Y12800000D01*
X19850647Y12832523D01*
X19878504Y12884640D01*
X19895659Y12941190D01*
X19901451Y13000000D01*
X20098548Y13000000D01*
X20104340Y12941190D01*
X20121495Y12884639D01*
X20149352Y12832522D01*
X20176042Y12800000D01*
X20149352Y12767478D01*
X20121495Y12715361D01*
X20104340Y12658810D01*
X20098548Y12600000D01*
X20100000Y12375000D01*
X20175000Y12300000D01*
X20750000Y12300000D01*
X20750000Y13300000D01*
X20950000Y13300000D01*
X20950000Y12300000D01*
X21525000Y12300000D01*
X21600000Y12375000D01*
X21601452Y12600000D01*
X21596528Y12650000D01*
X26398548Y12650000D01*
X26400000Y12425000D01*
X26475000Y12350000D01*
X27050000Y12350000D01*
X27050000Y12875000D01*
X27250000Y12875000D01*
X27250000Y12350000D01*
X27825000Y12350000D01*
X27900000Y12425000D01*
X27901452Y12650000D01*
X28098549Y12650000D01*
X28098549Y11850000D01*
X28104341Y11791190D01*
X28121496Y11734640D01*
X28149353Y11682523D01*
X28186842Y11636842D01*
X28232523Y11599353D01*
X28284640Y11571496D01*
X28341190Y11554341D01*
X28400000Y11548549D01*
X29300000Y11548549D01*
X29358810Y11554341D01*
X29388212Y11563260D01*
X29417522Y11533950D01*
X29515793Y11468287D01*
X29624986Y11423058D01*
X29740905Y11400000D01*
X29859095Y11400000D01*
X29975014Y11423058D01*
X30084207Y11468287D01*
X30182478Y11533950D01*
X30266050Y11617522D01*
X30331713Y11715793D01*
X30376942Y11824986D01*
X30400000Y11940905D01*
X30400000Y12059095D01*
X30376942Y12175014D01*
X30331713Y12284207D01*
X30266050Y12382478D01*
X30182478Y12466050D01*
X30084207Y12531713D01*
X29975014Y12576942D01*
X29859095Y12600000D01*
X29782921Y12600000D01*
X29771101Y12609850D01*
X29769700Y12610801D01*
X29751216Y12625971D01*
X29733120Y12635644D01*
X29716146Y12647171D01*
X29694130Y12656484D01*
X29673041Y12667757D01*
X29653396Y12673716D01*
X29634507Y12681707D01*
X29611108Y12686545D01*
X29597444Y12690689D01*
X29595659Y12708810D01*
X29578504Y12765360D01*
X29550647Y12817477D01*
X29513158Y12863158D01*
X29467477Y12900647D01*
X29415360Y12928504D01*
X29358810Y12945659D01*
X29300000Y12951451D01*
X28400000Y12951451D01*
X28341190Y12945659D01*
X28284640Y12928504D01*
X28232523Y12900647D01*
X28186842Y12863158D01*
X28149353Y12817477D01*
X28121496Y12765360D01*
X28104341Y12708810D01*
X28098549Y12650000D01*
X27901452Y12650000D01*
X27895660Y12708810D01*
X27878505Y12765361D01*
X27850648Y12817478D01*
X27813159Y12863159D01*
X27767478Y12900648D01*
X27715361Y12928505D01*
X27658810Y12945660D01*
X27600000Y12951452D01*
X27325000Y12950000D01*
X27250000Y12875000D01*
X27050000Y12875000D01*
X26975000Y12950000D01*
X26700000Y12951452D01*
X26641190Y12945660D01*
X26584639Y12928505D01*
X26532522Y12900648D01*
X26486841Y12863159D01*
X26449352Y12817478D01*
X26421495Y12765361D01*
X26404340Y12708810D01*
X26398548Y12650000D01*
X21596528Y12650000D01*
X21595660Y12658810D01*
X21578505Y12715361D01*
X21550648Y12767478D01*
X21523958Y12800000D01*
X21550648Y12832522D01*
X21578505Y12884639D01*
X21595660Y12941190D01*
X21601452Y13000000D01*
X21600000Y13225000D01*
X21525000Y13300000D01*
X20950000Y13300000D01*
X20750000Y13300000D01*
X20175000Y13300000D01*
X20100000Y13225000D01*
X20098548Y13000000D01*
X19901451Y13000000D01*
X19901451Y13800000D01*
X19895659Y13858810D01*
X19878504Y13915360D01*
X19850647Y13967477D01*
X19823956Y14000000D01*
X19850647Y14032523D01*
X19878504Y14084640D01*
X19895659Y14141190D01*
X19901451Y14200000D01*
X20098548Y14200000D01*
X20104340Y14141190D01*
X20121495Y14084639D01*
X20149352Y14032522D01*
X20176042Y14000000D01*
X20149352Y13967478D01*
X20121495Y13915361D01*
X20104340Y13858810D01*
X20098548Y13800000D01*
X20100000Y13575000D01*
X20175000Y13500000D01*
X20750000Y13500000D01*
X20750000Y14500000D01*
X20950000Y14500000D01*
X20950000Y13500000D01*
X21525000Y13500000D01*
X21600000Y13575000D01*
X21601452Y13800000D01*
X21595660Y13858810D01*
X21578505Y13915361D01*
X21550648Y13967478D01*
X21523958Y14000000D01*
X21550648Y14032522D01*
X21578505Y14084639D01*
X21595660Y14141190D01*
X21601452Y14200000D01*
X21600000Y14425000D01*
X21525000Y14500000D01*
X20950000Y14500000D01*
X20750000Y14500000D01*
X20175000Y14500000D01*
X20100000Y14425000D01*
X20098548Y14200000D01*
X19901451Y14200000D01*
X19901451Y15000000D01*
X19895659Y15058810D01*
X19878504Y15115360D01*
X19850647Y15167477D01*
X19823956Y15200000D01*
X19850647Y15232523D01*
X19878504Y15284640D01*
X19895659Y15341190D01*
X19901451Y15400000D01*
X20098548Y15400000D01*
X20104340Y15341190D01*
X20121495Y15284639D01*
X20149352Y15232522D01*
X20176042Y15200000D01*
X20149352Y15167478D01*
X20121495Y15115361D01*
X20104340Y15058810D01*
X20098548Y15000000D01*
X20100000Y14775000D01*
X20175000Y14700000D01*
X20750000Y14700000D01*
X20750000Y15700000D01*
X20950000Y15700000D01*
X20950000Y14700000D01*
X21525000Y14700000D01*
X21600000Y14775000D01*
X21601452Y15000000D01*
X21595660Y15058810D01*
X21578505Y15115361D01*
X21550648Y15167478D01*
X21523958Y15200000D01*
X21550648Y15232522D01*
X21578505Y15284639D01*
X21595660Y15341190D01*
X21601452Y15400000D01*
X21600000Y15625000D01*
X21525000Y15700000D01*
X20950000Y15700000D01*
X20750000Y15700000D01*
X20175000Y15700000D01*
X20100000Y15625000D01*
X20098548Y15400000D01*
X19901451Y15400000D01*
X19901451Y16200000D01*
X20098548Y16200000D01*
X20100000Y15975000D01*
X20175000Y15900000D01*
X20750000Y15900000D01*
X20750000Y15920000D01*
X20950000Y15920000D01*
X20950000Y15900000D01*
X21525000Y15900000D01*
X21600000Y15975000D01*
X21601452Y16200000D01*
X21595660Y16258810D01*
X21578505Y16315361D01*
X21550648Y16367478D01*
X21537597Y16383381D01*
X21567478Y16399352D01*
X21613159Y16436841D01*
X21650648Y16482522D01*
X21678505Y16534639D01*
X21695660Y16591190D01*
X21701452Y16650000D01*
X26548548Y16650000D01*
X26554340Y16591190D01*
X26571495Y16534639D01*
X26599352Y16482522D01*
X26636841Y16436841D01*
X26682522Y16399352D01*
X26734639Y16371495D01*
X26791190Y16354340D01*
X26850000Y16348548D01*
X27075000Y16350000D01*
X27150000Y16425000D01*
X27150000Y17000000D01*
X27350000Y17000000D01*
X27350000Y16425000D01*
X27425000Y16350000D01*
X27650000Y16348548D01*
X27708810Y16354340D01*
X27765361Y16371495D01*
X27817478Y16399352D01*
X27818267Y16400000D01*
X41898549Y16400000D01*
X41898549Y15600000D01*
X41904341Y15541190D01*
X41921496Y15484640D01*
X41949353Y15432523D01*
X41986842Y15386842D01*
X42032523Y15349353D01*
X42084640Y15321496D01*
X42135874Y15305954D01*
X42123058Y15275014D01*
X42100000Y15159095D01*
X42100000Y15040905D01*
X42123058Y14924986D01*
X42168287Y14815793D01*
X42233950Y14717522D01*
X42317522Y14633950D01*
X42415793Y14568287D01*
X42524986Y14523058D01*
X42640905Y14500000D01*
X42759095Y14500000D01*
X42875014Y14523058D01*
X42984207Y14568287D01*
X43082478Y14633950D01*
X43166050Y14717522D01*
X43231713Y14815793D01*
X43276942Y14924986D01*
X43300000Y15040905D01*
X43300000Y15159095D01*
X43276942Y15275014D01*
X43250016Y15340020D01*
X43267477Y15349353D01*
X43313158Y15386842D01*
X43350647Y15432523D01*
X43378504Y15484640D01*
X43395659Y15541190D01*
X43401451Y15600000D01*
X43598548Y15600000D01*
X43604340Y15541190D01*
X43621495Y15484639D01*
X43649352Y15432522D01*
X43686841Y15386841D01*
X43732522Y15349352D01*
X43784639Y15321495D01*
X43841190Y15304340D01*
X43900000Y15298548D01*
X44175000Y15300000D01*
X44250000Y15375000D01*
X44250000Y15900000D01*
X44450000Y15900000D01*
X44450000Y15375000D01*
X44525000Y15300000D01*
X44800000Y15298548D01*
X44858810Y15304340D01*
X44915361Y15321495D01*
X44967478Y15349352D01*
X45013159Y15386841D01*
X45050648Y15432522D01*
X45078505Y15484639D01*
X45095660Y15541190D01*
X45101452Y15600000D01*
X45100000Y15825000D01*
X45025000Y15900000D01*
X44450000Y15900000D01*
X44250000Y15900000D01*
X43675000Y15900000D01*
X43600000Y15825000D01*
X43598548Y15600000D01*
X43401451Y15600000D01*
X43401451Y16400000D01*
X43598548Y16400000D01*
X43600000Y16175000D01*
X43675000Y16100000D01*
X44250000Y16100000D01*
X44250000Y16625000D01*
X44450000Y16625000D01*
X44450000Y16100000D01*
X45025000Y16100000D01*
X45100000Y16175000D01*
X45101452Y16400000D01*
X45095660Y16458810D01*
X45078505Y16515361D01*
X45050648Y16567478D01*
X45013159Y16613159D01*
X44967478Y16650648D01*
X44915361Y16678505D01*
X44858810Y16695660D01*
X44800000Y16701452D01*
X44525000Y16700000D01*
X44450000Y16625000D01*
X44250000Y16625000D01*
X44175000Y16700000D01*
X43900000Y16701452D01*
X43841190Y16695660D01*
X43784639Y16678505D01*
X43732522Y16650648D01*
X43686841Y16613159D01*
X43649352Y16567478D01*
X43621495Y16515361D01*
X43604340Y16458810D01*
X43598548Y16400000D01*
X43401451Y16400000D01*
X43395659Y16458810D01*
X43378504Y16515360D01*
X43350647Y16567477D01*
X43313158Y16613158D01*
X43267477Y16650647D01*
X43215360Y16678504D01*
X43158810Y16695659D01*
X43100000Y16701451D01*
X42200000Y16701451D01*
X42141190Y16695659D01*
X42084640Y16678504D01*
X42032523Y16650647D01*
X41986842Y16613158D01*
X41949353Y16567477D01*
X41921496Y16515360D01*
X41904341Y16458810D01*
X41898549Y16400000D01*
X27818267Y16400000D01*
X27863159Y16436841D01*
X27900648Y16482522D01*
X27928505Y16534639D01*
X27945660Y16591190D01*
X27951452Y16650000D01*
X27950000Y16925000D01*
X27875000Y17000000D01*
X27350000Y17000000D01*
X27150000Y17000000D01*
X26625000Y17000000D01*
X26550000Y16925000D01*
X26548548Y16650000D01*
X21701452Y16650000D01*
X21700000Y16925000D01*
X21625000Y17000000D01*
X21100000Y17000000D01*
X21100000Y16980000D01*
X20900000Y16980000D01*
X20900000Y17000000D01*
X20375000Y17000000D01*
X20300000Y16925000D01*
X20298548Y16650000D01*
X20304340Y16591190D01*
X20321495Y16534639D01*
X20342273Y16495767D01*
X20341190Y16495660D01*
X20284639Y16478505D01*
X20232522Y16450648D01*
X20186841Y16413159D01*
X20149352Y16367478D01*
X20121495Y16315361D01*
X20104340Y16258810D01*
X20098548Y16200000D01*
X19901451Y16200000D01*
X19895659Y16258810D01*
X19878504Y16315360D01*
X19850647Y16367477D01*
X19813158Y16413158D01*
X19767477Y16450647D01*
X19715360Y16478504D01*
X19658810Y16495659D01*
X19600000Y16501451D01*
X19589474Y16501451D01*
X19586546Y16511104D01*
X19581707Y16534509D01*
X19573714Y16553402D01*
X19567757Y16573041D01*
X19556487Y16594126D01*
X19547171Y16616147D01*
X19535641Y16633125D01*
X19525971Y16651216D01*
X19510805Y16669696D01*
X19509850Y16671102D01*
X19500000Y16682922D01*
X19500000Y16759095D01*
X19476942Y16875014D01*
X19431713Y16984207D01*
X19366050Y17082478D01*
X19282478Y17166050D01*
X19184207Y17231713D01*
X19075014Y17276942D01*
X18959095Y17300000D01*
X18840905Y17300000D01*
X18724986Y17276942D01*
X18615793Y17231713D01*
X18517522Y17166050D01*
X18433950Y17082478D01*
X18368287Y16984207D01*
X18323058Y16875014D01*
X18300000Y16759095D01*
X18300000Y16640905D01*
X18323058Y16524986D01*
X18368287Y16415793D01*
X18427673Y16326916D01*
X18421496Y16315360D01*
X18404341Y16258810D01*
X18398549Y16200000D01*
X18398549Y15400000D01*
X18404341Y15341190D01*
X18421496Y15284640D01*
X18449353Y15232523D01*
X18476044Y15200000D01*
X18449353Y15167477D01*
X18434344Y15139397D01*
X18415793Y15131713D01*
X18317522Y15066050D01*
X18233950Y14982478D01*
X18168287Y14884207D01*
X18123058Y14775014D01*
X18100000Y14659095D01*
X17514054Y14659095D01*
X17434095Y14675000D01*
X17315905Y14675000D01*
X17199986Y14651942D01*
X17090793Y14606713D01*
X16992522Y14541050D01*
X16908950Y14457478D01*
X16843287Y14359207D01*
X16808407Y14275000D01*
X7300000Y14275000D01*
X7300000Y17550000D01*
X20298548Y17550000D01*
X20300000Y17275000D01*
X20375000Y17200000D01*
X20900000Y17200000D01*
X20900000Y17775000D01*
X21100000Y17775000D01*
X21100000Y17200000D01*
X21625000Y17200000D01*
X21700000Y17275000D01*
X21701452Y17550000D01*
X26548548Y17550000D01*
X26550000Y17275000D01*
X26625000Y17200000D01*
X27150000Y17200000D01*
X27150000Y17775000D01*
X27350000Y17775000D01*
X27350000Y17200000D01*
X27875000Y17200000D01*
X27950000Y17275000D01*
X27951452Y17550000D01*
X27945660Y17608810D01*
X27930406Y17659095D01*
X29000000Y17659095D01*
X29000000Y17540905D01*
X29023058Y17424986D01*
X29068287Y17315793D01*
X29133950Y17217522D01*
X29217522Y17133950D01*
X29315793Y17068287D01*
X29424986Y17023058D01*
X29540905Y17000000D01*
X29659095Y17000000D01*
X29775014Y17023058D01*
X29884207Y17068287D01*
X29919336Y17091760D01*
X29921496Y17084640D01*
X29949353Y17032523D01*
X29986842Y16986842D01*
X30032523Y16949353D01*
X30084640Y16921496D01*
X30141190Y16904341D01*
X30200000Y16898549D01*
X31100000Y16898549D01*
X31158810Y16904341D01*
X31215360Y16921496D01*
X31267477Y16949353D01*
X31313158Y16986842D01*
X31350647Y17032523D01*
X31378504Y17084640D01*
X31395659Y17141190D01*
X31401451Y17200000D01*
X31598548Y17200000D01*
X31604340Y17141190D01*
X31621495Y17084639D01*
X31649352Y17032522D01*
X31686841Y16986841D01*
X31732522Y16949352D01*
X31784639Y16921495D01*
X31841190Y16904340D01*
X31900000Y16898548D01*
X32175000Y16900000D01*
X32250000Y16975000D01*
X32250000Y17500000D01*
X32450000Y17500000D01*
X32450000Y16975000D01*
X32525000Y16900000D01*
X32800000Y16898548D01*
X32858810Y16904340D01*
X32915361Y16921495D01*
X32967478Y16949352D01*
X33013159Y16986841D01*
X33050648Y17032522D01*
X33078505Y17084639D01*
X33095660Y17141190D01*
X33101452Y17200000D01*
X33100000Y17425000D01*
X33025000Y17500000D01*
X32450000Y17500000D01*
X32250000Y17500000D01*
X31675000Y17500000D01*
X31600000Y17425000D01*
X31598548Y17200000D01*
X31401451Y17200000D01*
X31401451Y18000000D01*
X31598548Y18000000D01*
X31600000Y17775000D01*
X31675000Y17700000D01*
X32250000Y17700000D01*
X32250000Y18225000D01*
X32450000Y18225000D01*
X32450000Y17700000D01*
X33025000Y17700000D01*
X33100000Y17775000D01*
X33101452Y18000000D01*
X33095660Y18058810D01*
X33078505Y18115361D01*
X33050648Y18167478D01*
X33013159Y18213159D01*
X32967478Y18250648D01*
X32915361Y18278505D01*
X32858810Y18295660D01*
X32800000Y18301452D01*
X32525000Y18300000D01*
X32450000Y18225000D01*
X32250000Y18225000D01*
X32175000Y18300000D01*
X31900000Y18301452D01*
X31841190Y18295660D01*
X31784639Y18278505D01*
X31732522Y18250648D01*
X31686841Y18213159D01*
X31649352Y18167478D01*
X31621495Y18115361D01*
X31604340Y18058810D01*
X31598548Y18000000D01*
X31401451Y18000000D01*
X31395659Y18058810D01*
X31378504Y18115360D01*
X31350647Y18167477D01*
X31313158Y18213158D01*
X31267477Y18250647D01*
X31215360Y18278504D01*
X31158810Y18295659D01*
X31100000Y18301451D01*
X30200000Y18301451D01*
X30141190Y18295659D01*
X30084640Y18278504D01*
X30032523Y18250647D01*
X29986842Y18213158D01*
X29949353Y18167477D01*
X29921496Y18115360D01*
X29919336Y18108240D01*
X29884207Y18131713D01*
X29775014Y18176942D01*
X29659095Y18200000D01*
X29540905Y18200000D01*
X29424986Y18176942D01*
X29315793Y18131713D01*
X29217522Y18066050D01*
X29133950Y17982478D01*
X29068287Y17884207D01*
X29023058Y17775014D01*
X29000000Y17659095D01*
X27930406Y17659095D01*
X27928505Y17665361D01*
X27900648Y17717478D01*
X27863159Y17763159D01*
X27817478Y17800648D01*
X27765361Y17828505D01*
X27708810Y17845660D01*
X27650000Y17851452D01*
X27425000Y17850000D01*
X27350000Y17775000D01*
X27150000Y17775000D01*
X27075000Y17850000D01*
X26850000Y17851452D01*
X26791190Y17845660D01*
X26734639Y17828505D01*
X26682522Y17800648D01*
X26636841Y17763159D01*
X26599352Y17717478D01*
X26571495Y17665361D01*
X26554340Y17608810D01*
X26548548Y17550000D01*
X21701452Y17550000D01*
X21695660Y17608810D01*
X21678505Y17665361D01*
X21650648Y17717478D01*
X21613159Y17763159D01*
X21567478Y17800648D01*
X21515361Y17828505D01*
X21458810Y17845660D01*
X21400000Y17851452D01*
X21175000Y17850000D01*
X21100000Y17775000D01*
X20900000Y17775000D01*
X20825000Y17850000D01*
X20600000Y17851452D01*
X20541190Y17845660D01*
X20484639Y17828505D01*
X20432522Y17800648D01*
X20386841Y17763159D01*
X20349352Y17717478D01*
X20321495Y17665361D01*
X20304340Y17608810D01*
X20298548Y17550000D01*
X7300000Y17550000D01*
X7300000Y19250000D01*
X20298549Y19250000D01*
X20298549Y18350000D01*
X20304341Y18291190D01*
X20321496Y18234640D01*
X20349353Y18182523D01*
X20386842Y18136842D01*
X20432523Y18099353D01*
X20484640Y18071496D01*
X20541190Y18054341D01*
X20600000Y18048549D01*
X21400000Y18048549D01*
X21458810Y18054341D01*
X21515360Y18071496D01*
X21567477Y18099353D01*
X21613158Y18136842D01*
X21650647Y18182523D01*
X21678504Y18234640D01*
X21695659Y18291190D01*
X21701451Y18350000D01*
X21701451Y19250000D01*
X21695659Y19308810D01*
X21678504Y19365360D01*
X21650647Y19417477D01*
X21613158Y19463158D01*
X21567477Y19500647D01*
X21539397Y19515656D01*
X21531713Y19534207D01*
X21466050Y19632478D01*
X21382478Y19716050D01*
X21284207Y19781713D01*
X21175014Y19826942D01*
X21059095Y19850000D01*
X20940905Y19850000D01*
X20824986Y19826942D01*
X20715793Y19781713D01*
X20617522Y19716050D01*
X20533950Y19632478D01*
X20468287Y19534207D01*
X20460603Y19515656D01*
X20432523Y19500647D01*
X20386842Y19463158D01*
X20349353Y19417477D01*
X20321496Y19365360D01*
X20304341Y19308810D01*
X20298549Y19250000D01*
X7300000Y19250000D01*
X7300000Y20500000D01*
X7896130Y20500000D01*
X7911577Y20343173D01*
X7957321Y20192373D01*
X8031607Y20053394D01*
X8131579Y19931579D01*
X8253394Y19831607D01*
X8392373Y19757321D01*
X8543173Y19711577D01*
X8700000Y19696130D01*
X8856827Y19711577D01*
X9007627Y19757321D01*
X9146606Y19831607D01*
X9237901Y19906531D01*
X10932428Y21601058D01*
X27538978Y21654097D01*
X27532523Y21650647D01*
X27486842Y21613158D01*
X27449353Y21567477D01*
X27421496Y21515360D01*
X27404341Y21458810D01*
X27398549Y21400000D01*
X27319635Y21400000D01*
X27299999Y21401934D01*
X27280363Y21400000D01*
X27280353Y21400000D01*
X27221586Y21394212D01*
X27146186Y21371340D01*
X27076697Y21334197D01*
X27015789Y21284211D01*
X27003263Y21268948D01*
X26934315Y21200000D01*
X26840905Y21200000D01*
X26724986Y21176942D01*
X26615793Y21131713D01*
X26517522Y21066050D01*
X26433950Y20982478D01*
X26368287Y20884207D01*
X26323058Y20775014D01*
X26300000Y20659095D01*
X26300000Y20540905D01*
X26323058Y20424986D01*
X26368287Y20315793D01*
X26433950Y20217522D01*
X26517522Y20133950D01*
X26615793Y20068287D01*
X26724986Y20023058D01*
X26840905Y20000000D01*
X26951472Y20000000D01*
X26933950Y19982478D01*
X26868287Y19884207D01*
X26823058Y19775014D01*
X26800000Y19659095D01*
X26800000Y19546527D01*
X26791190Y19545659D01*
X26734640Y19528504D01*
X26682523Y19500647D01*
X26636842Y19463158D01*
X26599353Y19417477D01*
X26571496Y19365360D01*
X26554341Y19308810D01*
X26548549Y19250000D01*
X26548549Y18350000D01*
X26554341Y18291190D01*
X26571496Y18234640D01*
X26599353Y18182523D01*
X26636842Y18136842D01*
X26682523Y18099353D01*
X26734640Y18071496D01*
X26791190Y18054341D01*
X26850000Y18048549D01*
X27650000Y18048549D01*
X27708810Y18054341D01*
X27765360Y18071496D01*
X27817477Y18099353D01*
X27863158Y18136842D01*
X27900647Y18182523D01*
X27928504Y18234640D01*
X27945659Y18291190D01*
X27951451Y18350000D01*
X27951451Y18800000D01*
X41898549Y18800000D01*
X41898549Y18000000D01*
X41904341Y17941190D01*
X41921496Y17884640D01*
X41949353Y17832523D01*
X41986842Y17786842D01*
X42032523Y17749353D01*
X42084640Y17721496D01*
X42141190Y17704341D01*
X42200000Y17698549D01*
X43100000Y17698549D01*
X43158810Y17704341D01*
X43215360Y17721496D01*
X43267477Y17749353D01*
X43313158Y17786842D01*
X43350647Y17832523D01*
X43378504Y17884640D01*
X43395659Y17941190D01*
X43401451Y18000000D01*
X43598548Y18000000D01*
X43604340Y17941190D01*
X43621495Y17884639D01*
X43649352Y17832522D01*
X43686841Y17786841D01*
X43732522Y17749352D01*
X43784639Y17721495D01*
X43841190Y17704340D01*
X43900000Y17698548D01*
X44175000Y17700000D01*
X44250000Y17775000D01*
X44250000Y18300000D01*
X44450000Y18300000D01*
X44450000Y17775000D01*
X44525000Y17700000D01*
X44800000Y17698548D01*
X44858810Y17704340D01*
X44915361Y17721495D01*
X44967478Y17749352D01*
X45013159Y17786841D01*
X45050648Y17832522D01*
X45078505Y17884639D01*
X45095660Y17941190D01*
X45101452Y18000000D01*
X45100000Y18225000D01*
X45025000Y18300000D01*
X44450000Y18300000D01*
X44250000Y18300000D01*
X43675000Y18300000D01*
X43600000Y18225000D01*
X43598548Y18000000D01*
X43401451Y18000000D01*
X43401451Y18800000D01*
X43598548Y18800000D01*
X43600000Y18575000D01*
X43675000Y18500000D01*
X44250000Y18500000D01*
X44250000Y19025000D01*
X44450000Y19025000D01*
X44450000Y18500000D01*
X45025000Y18500000D01*
X45100000Y18575000D01*
X45101452Y18800000D01*
X45095660Y18858810D01*
X45078505Y18915361D01*
X45050648Y18967478D01*
X45013159Y19013159D01*
X44967478Y19050648D01*
X44915361Y19078505D01*
X44858810Y19095660D01*
X44800000Y19101452D01*
X44525000Y19100000D01*
X44450000Y19025000D01*
X44250000Y19025000D01*
X44175000Y19100000D01*
X43900000Y19101452D01*
X43841190Y19095660D01*
X43784639Y19078505D01*
X43732522Y19050648D01*
X43686841Y19013159D01*
X43649352Y18967478D01*
X43621495Y18915361D01*
X43604340Y18858810D01*
X43598548Y18800000D01*
X43401451Y18800000D01*
X43396706Y18848178D01*
X43466050Y18917522D01*
X43531713Y19015793D01*
X43576942Y19124986D01*
X43600000Y19240905D01*
X43600000Y19359095D01*
X43576942Y19475014D01*
X43531713Y19584207D01*
X43466050Y19682478D01*
X43382478Y19766050D01*
X43284207Y19831713D01*
X43175014Y19876942D01*
X43059095Y19900000D01*
X42940905Y19900000D01*
X42824986Y19876942D01*
X42715793Y19831713D01*
X42617522Y19766050D01*
X42533950Y19682478D01*
X42468287Y19584207D01*
X42423058Y19475014D01*
X42411921Y19419027D01*
X42313823Y19320928D01*
X42294736Y19305264D01*
X42232254Y19229129D01*
X42185825Y19142266D01*
X42172626Y19098755D01*
X42141190Y19095659D01*
X42084640Y19078504D01*
X42032523Y19050647D01*
X41986842Y19013158D01*
X41949353Y18967477D01*
X41921496Y18915360D01*
X41904341Y18858810D01*
X41898549Y18800000D01*
X27951451Y18800000D01*
X27951451Y19250000D01*
X27945659Y19308810D01*
X27938540Y19332276D01*
X27976942Y19424986D01*
X28000000Y19540905D01*
X28000000Y19659095D01*
X27976942Y19775014D01*
X27931713Y19884207D01*
X27866050Y19982478D01*
X27782478Y20066050D01*
X27684207Y20131713D01*
X27575014Y20176942D01*
X27459095Y20200000D01*
X27348528Y20200000D01*
X27366050Y20217522D01*
X27431713Y20315793D01*
X27469763Y20407653D01*
X27486842Y20386842D01*
X27532523Y20349353D01*
X27584640Y20321496D01*
X27641190Y20304341D01*
X27700000Y20298549D01*
X28600000Y20298549D01*
X28658810Y20304341D01*
X28715360Y20321496D01*
X28767477Y20349353D01*
X28813158Y20386842D01*
X28850647Y20432523D01*
X28878504Y20484640D01*
X28895659Y20541190D01*
X28901451Y20600000D01*
X29098548Y20600000D01*
X29104340Y20541190D01*
X29121495Y20484639D01*
X29149352Y20432522D01*
X29186841Y20386841D01*
X29232522Y20349352D01*
X29284639Y20321495D01*
X29341190Y20304340D01*
X29400000Y20298548D01*
X29675000Y20300000D01*
X29750000Y20375000D01*
X29750000Y20900000D01*
X29950000Y20900000D01*
X29950000Y20375000D01*
X30025000Y20300000D01*
X30300000Y20298548D01*
X30358810Y20304340D01*
X30415361Y20321495D01*
X30467478Y20349352D01*
X30513159Y20386841D01*
X30550648Y20432522D01*
X30578505Y20484639D01*
X30595660Y20541190D01*
X30601452Y20600000D01*
X30600000Y20825000D01*
X30525000Y20900000D01*
X29950000Y20900000D01*
X29750000Y20900000D01*
X29175000Y20900000D01*
X29100000Y20825000D01*
X29098548Y20600000D01*
X28901451Y20600000D01*
X28901451Y21400000D01*
X28895659Y21458810D01*
X28878504Y21515360D01*
X28850647Y21567477D01*
X28813158Y21613158D01*
X28767477Y21650647D01*
X28753763Y21657977D01*
X29249194Y21659559D01*
X29232522Y21650648D01*
X29186841Y21613159D01*
X29149352Y21567478D01*
X29121495Y21515361D01*
X29104340Y21458810D01*
X29098548Y21400000D01*
X29100000Y21175000D01*
X29175000Y21100000D01*
X29750000Y21100000D01*
X29750000Y21120000D01*
X29950000Y21120000D01*
X29950000Y21100000D01*
X30525000Y21100000D01*
X30600000Y21175000D01*
X30601452Y21400000D01*
X30595660Y21458810D01*
X30578505Y21515361D01*
X30550648Y21567478D01*
X30513159Y21613159D01*
X30467478Y21650648D01*
X30443668Y21663374D01*
X41086289Y21697366D01*
X41176918Y21606737D01*
X41365271Y21480884D01*
X41574557Y21394194D01*
X41796735Y21350000D01*
X42023265Y21350000D01*
X42245443Y21394194D01*
X42454729Y21480884D01*
X42643082Y21606737D01*
X42803263Y21766918D01*
X42929116Y21955271D01*
X43015806Y22164557D01*
X43060000Y22386735D01*
X43060000Y22613265D01*
X43015806Y22835443D01*
X42929116Y23044729D01*
X42803263Y23233082D01*
X42686345Y23350000D01*
X43298549Y23350000D01*
X43298549Y21650000D01*
X43304341Y21591190D01*
X43321496Y21534640D01*
X43349353Y21482523D01*
X43386842Y21436842D01*
X43432523Y21399353D01*
X43484640Y21371496D01*
X43541190Y21354341D01*
X43600000Y21348549D01*
X45300000Y21348549D01*
X45358810Y21354341D01*
X45415360Y21371496D01*
X45467477Y21399353D01*
X45513158Y21436842D01*
X45550647Y21482523D01*
X45578504Y21534640D01*
X45595659Y21591190D01*
X45601451Y21650000D01*
X45601451Y21700000D01*
X45876044Y21700000D01*
X45886842Y21686842D01*
X45932523Y21649353D01*
X45984640Y21621496D01*
X46041190Y21604341D01*
X46100000Y21598549D01*
X47300000Y21598549D01*
X47358810Y21604341D01*
X47415360Y21621496D01*
X47467477Y21649353D01*
X47513158Y21686842D01*
X47550647Y21732523D01*
X47578504Y21784640D01*
X47595659Y21841190D01*
X47601451Y21900000D01*
X47798548Y21900000D01*
X47804340Y21841190D01*
X47821495Y21784639D01*
X47849352Y21732522D01*
X47886841Y21686841D01*
X47932522Y21649352D01*
X47984639Y21621495D01*
X48041190Y21604340D01*
X48100000Y21598548D01*
X48525000Y21600000D01*
X48600000Y21675000D01*
X48600000Y22400000D01*
X48800000Y22400000D01*
X48800000Y21675000D01*
X48875000Y21600000D01*
X49300000Y21598548D01*
X49358810Y21604340D01*
X49415361Y21621495D01*
X49467478Y21649352D01*
X49513159Y21686841D01*
X49550648Y21732522D01*
X49578505Y21784639D01*
X49595660Y21841190D01*
X49601452Y21900000D01*
X49600000Y22325000D01*
X49525000Y22400000D01*
X48800000Y22400000D01*
X48600000Y22400000D01*
X47875000Y22400000D01*
X47800000Y22325000D01*
X47798548Y21900000D01*
X47601451Y21900000D01*
X47601451Y23100000D01*
X47798548Y23100000D01*
X47800000Y22675000D01*
X47875000Y22600000D01*
X48600000Y22600000D01*
X48600000Y23325000D01*
X48800000Y23325000D01*
X48800000Y22600000D01*
X49525000Y22600000D01*
X49600000Y22675000D01*
X49601452Y23100000D01*
X49595660Y23158810D01*
X49578505Y23215361D01*
X49550648Y23267478D01*
X49513159Y23313159D01*
X49467478Y23350648D01*
X49415361Y23378505D01*
X49358810Y23395660D01*
X49300000Y23401452D01*
X48875000Y23400000D01*
X48800000Y23325000D01*
X48600000Y23325000D01*
X48525000Y23400000D01*
X48100000Y23401452D01*
X48041190Y23395660D01*
X47984639Y23378505D01*
X47932522Y23350648D01*
X47886841Y23313159D01*
X47849352Y23267478D01*
X47821495Y23215361D01*
X47804340Y23158810D01*
X47798548Y23100000D01*
X47601451Y23100000D01*
X47595659Y23158810D01*
X47578504Y23215360D01*
X47550647Y23267477D01*
X47513158Y23313158D01*
X47467477Y23350647D01*
X47415360Y23378504D01*
X47358810Y23395659D01*
X47300000Y23401451D01*
X46100000Y23401451D01*
X46041190Y23395659D01*
X45984640Y23378504D01*
X45932523Y23350647D01*
X45886842Y23313158D01*
X45876044Y23300000D01*
X45601451Y23300000D01*
X45601451Y23350000D01*
X45595659Y23408810D01*
X45578504Y23465360D01*
X45550647Y23517477D01*
X45513158Y23563158D01*
X45467477Y23600647D01*
X45415360Y23628504D01*
X45358810Y23645659D01*
X45300000Y23651451D01*
X43600000Y23651451D01*
X43541190Y23645659D01*
X43484640Y23628504D01*
X43432523Y23600647D01*
X43386842Y23563158D01*
X43349353Y23517477D01*
X43321496Y23465360D01*
X43304341Y23408810D01*
X43298549Y23350000D01*
X42686345Y23350000D01*
X42643082Y23393263D01*
X42454729Y23519116D01*
X42245443Y23605806D01*
X42023265Y23650000D01*
X41796735Y23650000D01*
X41574557Y23605806D01*
X41365271Y23519116D01*
X41176918Y23393263D01*
X41081011Y23297356D01*
X10638021Y23200125D01*
X10600000Y23203870D01*
X10559431Y23199874D01*
X10558153Y23199870D01*
X10520280Y23196018D01*
X10443173Y23188423D01*
X10441943Y23188050D01*
X10440656Y23187919D01*
X10366554Y23165181D01*
X10292372Y23142679D01*
X10291231Y23142069D01*
X10290002Y23141692D01*
X10221988Y23105058D01*
X10153393Y23068393D01*
X10152393Y23067572D01*
X10151262Y23066963D01*
X10091615Y23017692D01*
X10062099Y22993469D01*
X10061192Y22992562D01*
X10029766Y22966603D01*
X10005628Y22936998D01*
X8106531Y21037901D01*
X8031607Y20946606D01*
X7957321Y20807627D01*
X7911577Y20656827D01*
X7896130Y20500000D01*
X7300000Y20500000D01*
X7294236Y20558527D01*
X7277164Y20614805D01*
X7249441Y20666671D01*
X7212132Y20712132D01*
X7166671Y20749441D01*
X7114805Y20777164D01*
X7058527Y20794236D01*
X7000000Y20800000D01*
X325000Y20800000D01*
X325000Y25513265D01*
X6070000Y25513265D01*
X6070000Y25286735D01*
X6114194Y25064557D01*
X6200884Y24855271D01*
X6326737Y24666918D01*
X6486918Y24506737D01*
X6675271Y24380884D01*
X6884557Y24294194D01*
X7106735Y24250000D01*
X7333265Y24250000D01*
X7555443Y24294194D01*
X7764729Y24380884D01*
X7953082Y24506737D01*
X8113263Y24666918D01*
X8239116Y24855271D01*
X8325806Y25064557D01*
X8370000Y25286735D01*
X8370000Y25513265D01*
X8610000Y25513265D01*
X8610000Y25286735D01*
X8654194Y25064557D01*
X8740884Y24855271D01*
X8866737Y24666918D01*
X9026918Y24506737D01*
X9215271Y24380884D01*
X9424557Y24294194D01*
X9646735Y24250000D01*
X9873265Y24250000D01*
X10095443Y24294194D01*
X10304729Y24380884D01*
X10493082Y24506737D01*
X10653263Y24666918D01*
X10779116Y24855271D01*
X10865806Y25064557D01*
X10910000Y25286735D01*
X10910000Y25513265D01*
X11150000Y25513265D01*
X11150000Y25286735D01*
X11194194Y25064557D01*
X11280884Y24855271D01*
X11406737Y24666918D01*
X11566918Y24506737D01*
X11755271Y24380884D01*
X11964557Y24294194D01*
X12186735Y24250000D01*
X12413265Y24250000D01*
X12635443Y24294194D01*
X12844729Y24380884D01*
X13033082Y24506737D01*
X13193263Y24666918D01*
X13319116Y24855271D01*
X13405806Y25064557D01*
X13450000Y25286735D01*
X13450000Y25513265D01*
X13690000Y25513265D01*
X13690000Y25286735D01*
X13734194Y25064557D01*
X13820884Y24855271D01*
X13946737Y24666918D01*
X14106918Y24506737D01*
X14295271Y24380884D01*
X14504557Y24294194D01*
X14726735Y24250000D01*
X14953265Y24250000D01*
X15175443Y24294194D01*
X15384729Y24380884D01*
X15573082Y24506737D01*
X15733263Y24666918D01*
X15859116Y24855271D01*
X15945806Y25064557D01*
X15990000Y25286735D01*
X15990000Y25513265D01*
X16230000Y25513265D01*
X16230000Y25286735D01*
X16274194Y25064557D01*
X16360884Y24855271D01*
X16486737Y24666918D01*
X16646918Y24506737D01*
X16835271Y24380884D01*
X17044557Y24294194D01*
X17266735Y24250000D01*
X17493265Y24250000D01*
X17715443Y24294194D01*
X17924729Y24380884D01*
X18113082Y24506737D01*
X18273263Y24666918D01*
X18399116Y24855271D01*
X18485806Y25064557D01*
X18530000Y25286735D01*
X18530000Y25513265D01*
X18770000Y25513265D01*
X18770000Y25286735D01*
X18814194Y25064557D01*
X18900884Y24855271D01*
X19026737Y24666918D01*
X19186918Y24506737D01*
X19375271Y24380884D01*
X19584557Y24294194D01*
X19806735Y24250000D01*
X20033265Y24250000D01*
X20255443Y24294194D01*
X20464729Y24380884D01*
X20653082Y24506737D01*
X20813263Y24666918D01*
X20939116Y24855271D01*
X21025806Y25064557D01*
X21070000Y25286735D01*
X21070000Y25513265D01*
X21310000Y25513265D01*
X21310000Y25286735D01*
X21354194Y25064557D01*
X21440884Y24855271D01*
X21566737Y24666918D01*
X21726918Y24506737D01*
X21915271Y24380884D01*
X22124557Y24294194D01*
X22346735Y24250000D01*
X22573265Y24250000D01*
X22795443Y24294194D01*
X23004729Y24380884D01*
X23193082Y24506737D01*
X23353263Y24666918D01*
X23479116Y24855271D01*
X23565806Y25064557D01*
X23610000Y25286735D01*
X23610000Y25513265D01*
X23565806Y25735443D01*
X23479116Y25944729D01*
X23353263Y26133082D01*
X23236345Y26250000D01*
X23848549Y26250000D01*
X23848549Y24550000D01*
X23854341Y24491190D01*
X23871496Y24434640D01*
X23899353Y24382523D01*
X23936842Y24336842D01*
X23982523Y24299353D01*
X24034640Y24271496D01*
X24091190Y24254341D01*
X24150000Y24248549D01*
X25850000Y24248549D01*
X25908810Y24254341D01*
X25965360Y24271496D01*
X26017477Y24299353D01*
X26063158Y24336842D01*
X26100647Y24382523D01*
X26128504Y24434640D01*
X26145659Y24491190D01*
X26151451Y24550000D01*
X26151451Y25513265D01*
X30600000Y25513265D01*
X30600000Y25286735D01*
X30644194Y25064557D01*
X30730884Y24855271D01*
X30856737Y24666918D01*
X31016918Y24506737D01*
X31205271Y24380884D01*
X31414557Y24294194D01*
X31636735Y24250000D01*
X31863265Y24250000D01*
X32085443Y24294194D01*
X32294729Y24380884D01*
X32483082Y24506737D01*
X32643263Y24666918D01*
X32769116Y24855271D01*
X32855806Y25064557D01*
X32900000Y25286735D01*
X32900000Y25513265D01*
X33140000Y25513265D01*
X33140000Y25286735D01*
X33184194Y25064557D01*
X33270884Y24855271D01*
X33396737Y24666918D01*
X33556918Y24506737D01*
X33745271Y24380884D01*
X33954557Y24294194D01*
X34176735Y24250000D01*
X34403265Y24250000D01*
X34625443Y24294194D01*
X34834729Y24380884D01*
X35023082Y24506737D01*
X35183263Y24666918D01*
X35309116Y24855271D01*
X35395806Y25064557D01*
X35407234Y25122012D01*
X35714099Y25122012D01*
X35789773Y24909652D01*
X35905423Y24716136D01*
X36056604Y24548900D01*
X36237506Y24414372D01*
X36441177Y24317721D01*
X36552013Y24284104D01*
X36730000Y24329661D01*
X36730000Y25300000D01*
X36930000Y25300000D01*
X36930000Y24329661D01*
X37107987Y24284104D01*
X37218823Y24317721D01*
X37422494Y24414372D01*
X37603396Y24548900D01*
X37754577Y24716136D01*
X37870227Y24909652D01*
X37945901Y25122012D01*
X38254099Y25122012D01*
X38329773Y24909652D01*
X38445423Y24716136D01*
X38596604Y24548900D01*
X38777506Y24414372D01*
X38981177Y24317721D01*
X39092013Y24284104D01*
X39270000Y24329661D01*
X39270000Y25300000D01*
X39470000Y25300000D01*
X39470000Y24329661D01*
X39647987Y24284104D01*
X39758823Y24317721D01*
X39962494Y24414372D01*
X40143396Y24548900D01*
X40294577Y24716136D01*
X40410227Y24909652D01*
X40485901Y25122012D01*
X40440649Y25300000D01*
X39470000Y25300000D01*
X39270000Y25300000D01*
X38299351Y25300000D01*
X38254099Y25122012D01*
X37945901Y25122012D01*
X37900649Y25300000D01*
X36930000Y25300000D01*
X36730000Y25300000D01*
X35759351Y25300000D01*
X35714099Y25122012D01*
X35407234Y25122012D01*
X35440000Y25286735D01*
X35440000Y25513265D01*
X35407235Y25677988D01*
X35714099Y25677988D01*
X35759351Y25500000D01*
X36730000Y25500000D01*
X36730000Y26470339D01*
X36930000Y26470339D01*
X36930000Y25500000D01*
X37900649Y25500000D01*
X37945901Y25677988D01*
X38254099Y25677988D01*
X38299351Y25500000D01*
X39270000Y25500000D01*
X39270000Y26470339D01*
X39470000Y26470339D01*
X39470000Y25500000D01*
X40440649Y25500000D01*
X40444021Y25513265D01*
X40760000Y25513265D01*
X40760000Y25286735D01*
X40804194Y25064557D01*
X40890884Y24855271D01*
X41016737Y24666918D01*
X41176918Y24506737D01*
X41365271Y24380884D01*
X41574557Y24294194D01*
X41796735Y24250000D01*
X42023265Y24250000D01*
X42245443Y24294194D01*
X42454729Y24380884D01*
X42643082Y24506737D01*
X42803263Y24666918D01*
X42929116Y24855271D01*
X43015806Y25064557D01*
X43060000Y25286735D01*
X43060000Y25513265D01*
X43300000Y25513265D01*
X43300000Y25286735D01*
X43344194Y25064557D01*
X43430884Y24855271D01*
X43556737Y24666918D01*
X43716918Y24506737D01*
X43905271Y24380884D01*
X44114557Y24294194D01*
X44336735Y24250000D01*
X44563265Y24250000D01*
X44785443Y24294194D01*
X44994729Y24380884D01*
X45183082Y24506737D01*
X45343263Y24666918D01*
X45469116Y24855271D01*
X45555806Y25064557D01*
X45567234Y25122012D01*
X45874099Y25122012D01*
X45949773Y24909652D01*
X46065423Y24716136D01*
X46216604Y24548900D01*
X46397506Y24414372D01*
X46601177Y24317721D01*
X46712013Y24284104D01*
X46890000Y24329661D01*
X46890000Y25300000D01*
X47090000Y25300000D01*
X47090000Y24329661D01*
X47267987Y24284104D01*
X47378823Y24317721D01*
X47582494Y24414372D01*
X47763396Y24548900D01*
X47764390Y24550000D01*
X48378548Y24550000D01*
X48384340Y24491190D01*
X48401495Y24434639D01*
X48429352Y24382522D01*
X48466841Y24336841D01*
X48512522Y24299352D01*
X48564639Y24271495D01*
X48621190Y24254340D01*
X48680000Y24248548D01*
X49355000Y24250000D01*
X49430000Y24325000D01*
X49430000Y25300000D01*
X49630000Y25300000D01*
X49630000Y24325000D01*
X49705000Y24250000D01*
X50380000Y24248548D01*
X50438810Y24254340D01*
X50495361Y24271495D01*
X50547478Y24299352D01*
X50593159Y24336841D01*
X50630648Y24382522D01*
X50658505Y24434639D01*
X50675660Y24491190D01*
X50681452Y24550000D01*
X50680000Y25225000D01*
X50605000Y25300000D01*
X49630000Y25300000D01*
X49430000Y25300000D01*
X48455000Y25300000D01*
X48380000Y25225000D01*
X48378548Y24550000D01*
X47764390Y24550000D01*
X47914577Y24716136D01*
X48030227Y24909652D01*
X48105901Y25122012D01*
X48060649Y25300000D01*
X47090000Y25300000D01*
X46890000Y25300000D01*
X45919351Y25300000D01*
X45874099Y25122012D01*
X45567234Y25122012D01*
X45600000Y25286735D01*
X45600000Y25513265D01*
X45567235Y25677988D01*
X45874099Y25677988D01*
X45919351Y25500000D01*
X46890000Y25500000D01*
X46890000Y26470339D01*
X47090000Y26470339D01*
X47090000Y25500000D01*
X48060649Y25500000D01*
X48105901Y25677988D01*
X48030227Y25890348D01*
X47914577Y26083864D01*
X47764391Y26250000D01*
X48378548Y26250000D01*
X48380000Y25575000D01*
X48455000Y25500000D01*
X49430000Y25500000D01*
X49430000Y26475000D01*
X49630000Y26475000D01*
X49630000Y25500000D01*
X50605000Y25500000D01*
X50680000Y25575000D01*
X50681452Y26250000D01*
X50675660Y26308810D01*
X50658505Y26365361D01*
X50630648Y26417478D01*
X50593159Y26463159D01*
X50547478Y26500648D01*
X50495361Y26528505D01*
X50438810Y26545660D01*
X50380000Y26551452D01*
X49705000Y26550000D01*
X49630000Y26475000D01*
X49430000Y26475000D01*
X49355000Y26550000D01*
X48680000Y26551452D01*
X48621190Y26545660D01*
X48564639Y26528505D01*
X48512522Y26500648D01*
X48466841Y26463159D01*
X48429352Y26417478D01*
X48401495Y26365361D01*
X48384340Y26308810D01*
X48378548Y26250000D01*
X47764391Y26250000D01*
X47763396Y26251100D01*
X47582494Y26385628D01*
X47378823Y26482279D01*
X47267987Y26515896D01*
X47090000Y26470339D01*
X46890000Y26470339D01*
X46712013Y26515896D01*
X46601177Y26482279D01*
X46397506Y26385628D01*
X46216604Y26251100D01*
X46065423Y26083864D01*
X45949773Y25890348D01*
X45874099Y25677988D01*
X45567235Y25677988D01*
X45555806Y25735443D01*
X45469116Y25944729D01*
X45343263Y26133082D01*
X45183082Y26293263D01*
X44994729Y26419116D01*
X44785443Y26505806D01*
X44563265Y26550000D01*
X44336735Y26550000D01*
X44114557Y26505806D01*
X43905271Y26419116D01*
X43716918Y26293263D01*
X43556737Y26133082D01*
X43430884Y25944729D01*
X43344194Y25735443D01*
X43300000Y25513265D01*
X43060000Y25513265D01*
X43015806Y25735443D01*
X42929116Y25944729D01*
X42803263Y26133082D01*
X42643082Y26293263D01*
X42454729Y26419116D01*
X42245443Y26505806D01*
X42023265Y26550000D01*
X41796735Y26550000D01*
X41574557Y26505806D01*
X41365271Y26419116D01*
X41176918Y26293263D01*
X41016737Y26133082D01*
X40890884Y25944729D01*
X40804194Y25735443D01*
X40760000Y25513265D01*
X40444021Y25513265D01*
X40485901Y25677988D01*
X40410227Y25890348D01*
X40294577Y26083864D01*
X40143396Y26251100D01*
X39962494Y26385628D01*
X39758823Y26482279D01*
X39647987Y26515896D01*
X39470000Y26470339D01*
X39270000Y26470339D01*
X39092013Y26515896D01*
X38981177Y26482279D01*
X38777506Y26385628D01*
X38596604Y26251100D01*
X38445423Y26083864D01*
X38329773Y25890348D01*
X38254099Y25677988D01*
X37945901Y25677988D01*
X37870227Y25890348D01*
X37754577Y26083864D01*
X37603396Y26251100D01*
X37422494Y26385628D01*
X37218823Y26482279D01*
X37107987Y26515896D01*
X36930000Y26470339D01*
X36730000Y26470339D01*
X36552013Y26515896D01*
X36441177Y26482279D01*
X36237506Y26385628D01*
X36056604Y26251100D01*
X35905423Y26083864D01*
X35789773Y25890348D01*
X35714099Y25677988D01*
X35407235Y25677988D01*
X35395806Y25735443D01*
X35309116Y25944729D01*
X35183263Y26133082D01*
X35023082Y26293263D01*
X34834729Y26419116D01*
X34625443Y26505806D01*
X34403265Y26550000D01*
X34176735Y26550000D01*
X33954557Y26505806D01*
X33745271Y26419116D01*
X33556918Y26293263D01*
X33396737Y26133082D01*
X33270884Y25944729D01*
X33184194Y25735443D01*
X33140000Y25513265D01*
X32900000Y25513265D01*
X32855806Y25735443D01*
X32769116Y25944729D01*
X32643263Y26133082D01*
X32483082Y26293263D01*
X32294729Y26419116D01*
X32085443Y26505806D01*
X31863265Y26550000D01*
X31636735Y26550000D01*
X31414557Y26505806D01*
X31205271Y26419116D01*
X31016918Y26293263D01*
X30856737Y26133082D01*
X30730884Y25944729D01*
X30644194Y25735443D01*
X30600000Y25513265D01*
X26151451Y25513265D01*
X26151451Y26250000D01*
X26145659Y26308810D01*
X26128504Y26365360D01*
X26100647Y26417477D01*
X26063158Y26463158D01*
X26017477Y26500647D01*
X25965360Y26528504D01*
X25908810Y26545659D01*
X25850000Y26551451D01*
X24150000Y26551451D01*
X24091190Y26545659D01*
X24034640Y26528504D01*
X23982523Y26500647D01*
X23936842Y26463158D01*
X23899353Y26417477D01*
X23871496Y26365360D01*
X23854341Y26308810D01*
X23848549Y26250000D01*
X23236345Y26250000D01*
X23193082Y26293263D01*
X23004729Y26419116D01*
X22795443Y26505806D01*
X22573265Y26550000D01*
X22346735Y26550000D01*
X22124557Y26505806D01*
X21915271Y26419116D01*
X21726918Y26293263D01*
X21566737Y26133082D01*
X21440884Y25944729D01*
X21354194Y25735443D01*
X21310000Y25513265D01*
X21070000Y25513265D01*
X21025806Y25735443D01*
X20939116Y25944729D01*
X20813263Y26133082D01*
X20653082Y26293263D01*
X20464729Y26419116D01*
X20255443Y26505806D01*
X20033265Y26550000D01*
X19806735Y26550000D01*
X19584557Y26505806D01*
X19375271Y26419116D01*
X19186918Y26293263D01*
X19026737Y26133082D01*
X18900884Y25944729D01*
X18814194Y25735443D01*
X18770000Y25513265D01*
X18530000Y25513265D01*
X18485806Y25735443D01*
X18399116Y25944729D01*
X18273263Y26133082D01*
X18113082Y26293263D01*
X17924729Y26419116D01*
X17715443Y26505806D01*
X17493265Y26550000D01*
X17266735Y26550000D01*
X17044557Y26505806D01*
X16835271Y26419116D01*
X16646918Y26293263D01*
X16486737Y26133082D01*
X16360884Y25944729D01*
X16274194Y25735443D01*
X16230000Y25513265D01*
X15990000Y25513265D01*
X15945806Y25735443D01*
X15859116Y25944729D01*
X15733263Y26133082D01*
X15573082Y26293263D01*
X15384729Y26419116D01*
X15175443Y26505806D01*
X14953265Y26550000D01*
X14726735Y26550000D01*
X14504557Y26505806D01*
X14295271Y26419116D01*
X14106918Y26293263D01*
X13946737Y26133082D01*
X13820884Y25944729D01*
X13734194Y25735443D01*
X13690000Y25513265D01*
X13450000Y25513265D01*
X13405806Y25735443D01*
X13319116Y25944729D01*
X13193263Y26133082D01*
X13033082Y26293263D01*
X12844729Y26419116D01*
X12635443Y26505806D01*
X12413265Y26550000D01*
X12186735Y26550000D01*
X11964557Y26505806D01*
X11755271Y26419116D01*
X11566918Y26293263D01*
X11406737Y26133082D01*
X11280884Y25944729D01*
X11194194Y25735443D01*
X11150000Y25513265D01*
X10910000Y25513265D01*
X10865806Y25735443D01*
X10779116Y25944729D01*
X10653263Y26133082D01*
X10493082Y26293263D01*
X10304729Y26419116D01*
X10095443Y26505806D01*
X9873265Y26550000D01*
X9646735Y26550000D01*
X9424557Y26505806D01*
X9215271Y26419116D01*
X9026918Y26293263D01*
X8866737Y26133082D01*
X8740884Y25944729D01*
X8654194Y25735443D01*
X8610000Y25513265D01*
X8370000Y25513265D01*
X8325806Y25735443D01*
X8239116Y25944729D01*
X8113263Y26133082D01*
X7953082Y26293263D01*
X7764729Y26419116D01*
X7555443Y26505806D01*
X7333265Y26550000D01*
X7106735Y26550000D01*
X6884557Y26505806D01*
X6675271Y26419116D01*
X6486918Y26293263D01*
X6326737Y26133082D01*
X6200884Y25944729D01*
X6114194Y25735443D01*
X6070000Y25513265D01*
X325000Y25513265D01*
X325000Y27575000D01*
X51675001Y27575000D01*
X51675000Y325000D01*
G37*
X51675000Y325000D02*
X325000Y325000D01*
X325000Y3390000D01*
X5198549Y3390000D01*
X5198549Y1690000D01*
X5204341Y1631190D01*
X5221496Y1574640D01*
X5249353Y1522523D01*
X5286842Y1476842D01*
X5332523Y1439353D01*
X5384640Y1411496D01*
X5441190Y1394341D01*
X5500000Y1388549D01*
X7200000Y1388549D01*
X7258810Y1394341D01*
X7315360Y1411496D01*
X7367477Y1439353D01*
X7413158Y1476842D01*
X7450647Y1522523D01*
X7478504Y1574640D01*
X7495659Y1631190D01*
X7501451Y1690000D01*
X7501451Y2653265D01*
X7740000Y2653265D01*
X7740000Y2426735D01*
X7784194Y2204557D01*
X7870884Y1995271D01*
X7996737Y1806918D01*
X8156918Y1646737D01*
X8345271Y1520884D01*
X8554557Y1434194D01*
X8776735Y1390000D01*
X9003265Y1390000D01*
X9225443Y1434194D01*
X9434729Y1520884D01*
X9623082Y1646737D01*
X9783263Y1806918D01*
X9909116Y1995271D01*
X9995806Y2204557D01*
X10040000Y2426735D01*
X10040000Y2653265D01*
X10280000Y2653265D01*
X10280000Y2426735D01*
X10324194Y2204557D01*
X10410884Y1995271D01*
X10536737Y1806918D01*
X10696918Y1646737D01*
X10885271Y1520884D01*
X11094557Y1434194D01*
X11316735Y1390000D01*
X11543265Y1390000D01*
X11765443Y1434194D01*
X11974729Y1520884D01*
X12163082Y1646737D01*
X12323263Y1806918D01*
X12449116Y1995271D01*
X12535806Y2204557D01*
X12580000Y2426735D01*
X12580000Y2653265D01*
X12820000Y2653265D01*
X12820000Y2426735D01*
X12864194Y2204557D01*
X12950884Y1995271D01*
X13076737Y1806918D01*
X13236918Y1646737D01*
X13425271Y1520884D01*
X13634557Y1434194D01*
X13856735Y1390000D01*
X14083265Y1390000D01*
X14305443Y1434194D01*
X14514729Y1520884D01*
X14703082Y1646737D01*
X14863263Y1806918D01*
X14989116Y1995271D01*
X15075806Y2204557D01*
X15120000Y2426735D01*
X15120000Y2653265D01*
X15360000Y2653265D01*
X15360000Y2426735D01*
X15404194Y2204557D01*
X15490884Y1995271D01*
X15616737Y1806918D01*
X15776918Y1646737D01*
X15965271Y1520884D01*
X16174557Y1434194D01*
X16396735Y1390000D01*
X16623265Y1390000D01*
X16845443Y1434194D01*
X17054729Y1520884D01*
X17243082Y1646737D01*
X17403263Y1806918D01*
X17529116Y1995271D01*
X17615806Y2204557D01*
X17660000Y2426735D01*
X17660000Y2653265D01*
X17900000Y2653265D01*
X17900000Y2426735D01*
X17944194Y2204557D01*
X18030884Y1995271D01*
X18156737Y1806918D01*
X18316918Y1646737D01*
X18505271Y1520884D01*
X18714557Y1434194D01*
X18936735Y1390000D01*
X19163265Y1390000D01*
X19385443Y1434194D01*
X19594729Y1520884D01*
X19783082Y1646737D01*
X19943263Y1806918D01*
X20069116Y1995271D01*
X20155806Y2204557D01*
X20200000Y2426735D01*
X20200000Y2653265D01*
X20440000Y2653265D01*
X20440000Y2426735D01*
X20484194Y2204557D01*
X20570884Y1995271D01*
X20696737Y1806918D01*
X20856918Y1646737D01*
X21045271Y1520884D01*
X21254557Y1434194D01*
X21476735Y1390000D01*
X21703265Y1390000D01*
X21925443Y1434194D01*
X22134729Y1520884D01*
X22323082Y1646737D01*
X22483263Y1806918D01*
X22609116Y1995271D01*
X22695806Y2204557D01*
X22740000Y2426735D01*
X22740000Y2653265D01*
X22980000Y2653265D01*
X22980000Y2426735D01*
X23024194Y2204557D01*
X23110884Y1995271D01*
X23236737Y1806918D01*
X23396918Y1646737D01*
X23585271Y1520884D01*
X23794557Y1434194D01*
X24016735Y1390000D01*
X24243265Y1390000D01*
X24465443Y1434194D01*
X24674729Y1520884D01*
X24863082Y1646737D01*
X25023263Y1806918D01*
X25149116Y1995271D01*
X25235806Y2204557D01*
X25280000Y2426735D01*
X25280000Y2653265D01*
X25235806Y2875443D01*
X25149116Y3084729D01*
X25023263Y3273082D01*
X24906345Y3390000D01*
X25518549Y3390000D01*
X25518549Y1690000D01*
X25524341Y1631190D01*
X25541496Y1574640D01*
X25569353Y1522523D01*
X25606842Y1476842D01*
X25652523Y1439353D01*
X25704640Y1411496D01*
X25761190Y1394341D01*
X25820000Y1388549D01*
X27520000Y1388549D01*
X27578810Y1394341D01*
X27635360Y1411496D01*
X27687477Y1439353D01*
X27733158Y1476842D01*
X27770647Y1522523D01*
X27798504Y1574640D01*
X27815659Y1631190D01*
X27821451Y1690000D01*
X27821451Y2262012D01*
X28094099Y2262012D01*
X28169773Y2049652D01*
X28285423Y1856136D01*
X28436604Y1688900D01*
X28617506Y1554372D01*
X28821177Y1457721D01*
X28932013Y1424104D01*
X29110000Y1469661D01*
X29110000Y2440000D01*
X29310000Y2440000D01*
X29310000Y1469661D01*
X29487987Y1424104D01*
X29598823Y1457721D01*
X29802494Y1554372D01*
X29983396Y1688900D01*
X30134577Y1856136D01*
X30250227Y2049652D01*
X30325901Y2262012D01*
X30280649Y2440000D01*
X29310000Y2440000D01*
X29110000Y2440000D01*
X28139351Y2440000D01*
X28094099Y2262012D01*
X27821451Y2262012D01*
X27821451Y2817988D01*
X28094099Y2817988D01*
X28139351Y2640000D01*
X29110000Y2640000D01*
X29110000Y3610339D01*
X29310000Y3610339D01*
X29310000Y2640000D01*
X30280649Y2640000D01*
X30325901Y2817988D01*
X30250227Y3030348D01*
X30134577Y3223864D01*
X29984391Y3390000D01*
X30598549Y3390000D01*
X30598549Y1690000D01*
X30604341Y1631190D01*
X30621496Y1574640D01*
X30649353Y1522523D01*
X30686842Y1476842D01*
X30732523Y1439353D01*
X30784640Y1411496D01*
X30841190Y1394341D01*
X30900000Y1388549D01*
X32600000Y1388549D01*
X32658810Y1394341D01*
X32715360Y1411496D01*
X32767477Y1439353D01*
X32813158Y1476842D01*
X32850647Y1522523D01*
X32878504Y1574640D01*
X32895659Y1631190D01*
X32901451Y1690000D01*
X32901451Y2653265D01*
X33140000Y2653265D01*
X33140000Y2426735D01*
X33184194Y2204557D01*
X33270884Y1995271D01*
X33396737Y1806918D01*
X33556918Y1646737D01*
X33745271Y1520884D01*
X33954557Y1434194D01*
X34176735Y1390000D01*
X34403265Y1390000D01*
X34625443Y1434194D01*
X34834729Y1520884D01*
X35023082Y1646737D01*
X35183263Y1806918D01*
X35309116Y1995271D01*
X35395806Y2204557D01*
X35440000Y2426735D01*
X35440000Y2653265D01*
X35680000Y2653265D01*
X35680000Y2426735D01*
X35724194Y2204557D01*
X35810884Y1995271D01*
X35936737Y1806918D01*
X36096918Y1646737D01*
X36285271Y1520884D01*
X36494557Y1434194D01*
X36716735Y1390000D01*
X36943265Y1390000D01*
X37165443Y1434194D01*
X37374729Y1520884D01*
X37563082Y1646737D01*
X37723263Y1806918D01*
X37849116Y1995271D01*
X37935806Y2204557D01*
X37980000Y2426735D01*
X37980000Y2653265D01*
X38220000Y2653265D01*
X38220000Y2426735D01*
X38264194Y2204557D01*
X38350884Y1995271D01*
X38476737Y1806918D01*
X38636918Y1646737D01*
X38825271Y1520884D01*
X39034557Y1434194D01*
X39256735Y1390000D01*
X39483265Y1390000D01*
X39705443Y1434194D01*
X39914729Y1520884D01*
X40103082Y1646737D01*
X40263263Y1806918D01*
X40389116Y1995271D01*
X40475806Y2204557D01*
X40520000Y2426735D01*
X40520000Y2653265D01*
X40760000Y2653265D01*
X40760000Y2426735D01*
X40804194Y2204557D01*
X40890884Y1995271D01*
X41016737Y1806918D01*
X41176918Y1646737D01*
X41365271Y1520884D01*
X41574557Y1434194D01*
X41796735Y1390000D01*
X42023265Y1390000D01*
X42245443Y1434194D01*
X42454729Y1520884D01*
X42643082Y1646737D01*
X42803263Y1806918D01*
X42929116Y1995271D01*
X43015806Y2204557D01*
X43060000Y2426735D01*
X43060000Y2653265D01*
X43300000Y2653265D01*
X43300000Y2426735D01*
X43344194Y2204557D01*
X43430884Y1995271D01*
X43556737Y1806918D01*
X43716918Y1646737D01*
X43905271Y1520884D01*
X44114557Y1434194D01*
X44336735Y1390000D01*
X44563265Y1390000D01*
X44785443Y1434194D01*
X44994729Y1520884D01*
X45183082Y1646737D01*
X45343263Y1806918D01*
X45469116Y1995271D01*
X45555806Y2204557D01*
X45600000Y2426735D01*
X45600000Y2653265D01*
X45840000Y2653265D01*
X45840000Y2426735D01*
X45884194Y2204557D01*
X45970884Y1995271D01*
X46096737Y1806918D01*
X46256918Y1646737D01*
X46445271Y1520884D01*
X46654557Y1434194D01*
X46876735Y1390000D01*
X47103265Y1390000D01*
X47325443Y1434194D01*
X47534729Y1520884D01*
X47723082Y1646737D01*
X47883263Y1806918D01*
X48009116Y1995271D01*
X48095806Y2204557D01*
X48140000Y2426735D01*
X48140000Y2653265D01*
X48380000Y2653265D01*
X48380000Y2426735D01*
X48424194Y2204557D01*
X48510884Y1995271D01*
X48636737Y1806918D01*
X48796918Y1646737D01*
X48985271Y1520884D01*
X49194557Y1434194D01*
X49416735Y1390000D01*
X49643265Y1390000D01*
X49865443Y1434194D01*
X50074729Y1520884D01*
X50263082Y1646737D01*
X50423263Y1806918D01*
X50549116Y1995271D01*
X50635806Y2204557D01*
X50680000Y2426735D01*
X50680000Y2653265D01*
X50635806Y2875443D01*
X50549116Y3084729D01*
X50423263Y3273082D01*
X50263082Y3433263D01*
X50074729Y3559116D01*
X49865443Y3645806D01*
X49643265Y3690000D01*
X49416735Y3690000D01*
X49194557Y3645806D01*
X48985271Y3559116D01*
X48796918Y3433263D01*
X48636737Y3273082D01*
X48510884Y3084729D01*
X48424194Y2875443D01*
X48380000Y2653265D01*
X48140000Y2653265D01*
X48095806Y2875443D01*
X48009116Y3084729D01*
X47883263Y3273082D01*
X47723082Y3433263D01*
X47534729Y3559116D01*
X47325443Y3645806D01*
X47103265Y3690000D01*
X46876735Y3690000D01*
X46654557Y3645806D01*
X46445271Y3559116D01*
X46256918Y3433263D01*
X46096737Y3273082D01*
X45970884Y3084729D01*
X45884194Y2875443D01*
X45840000Y2653265D01*
X45600000Y2653265D01*
X45555806Y2875443D01*
X45469116Y3084729D01*
X45343263Y3273082D01*
X45183082Y3433263D01*
X44994729Y3559116D01*
X44785443Y3645806D01*
X44563265Y3690000D01*
X44336735Y3690000D01*
X44114557Y3645806D01*
X43905271Y3559116D01*
X43716918Y3433263D01*
X43556737Y3273082D01*
X43430884Y3084729D01*
X43344194Y2875443D01*
X43300000Y2653265D01*
X43060000Y2653265D01*
X43015806Y2875443D01*
X42929116Y3084729D01*
X42803263Y3273082D01*
X42643082Y3433263D01*
X42454729Y3559116D01*
X42245443Y3645806D01*
X42023265Y3690000D01*
X41796735Y3690000D01*
X41574557Y3645806D01*
X41365271Y3559116D01*
X41176918Y3433263D01*
X41016737Y3273082D01*
X40890884Y3084729D01*
X40804194Y2875443D01*
X40760000Y2653265D01*
X40520000Y2653265D01*
X40475806Y2875443D01*
X40389116Y3084729D01*
X40263263Y3273082D01*
X40103082Y3433263D01*
X39914729Y3559116D01*
X39705443Y3645806D01*
X39483265Y3690000D01*
X39256735Y3690000D01*
X39034557Y3645806D01*
X38825271Y3559116D01*
X38636918Y3433263D01*
X38476737Y3273082D01*
X38350884Y3084729D01*
X38264194Y2875443D01*
X38220000Y2653265D01*
X37980000Y2653265D01*
X37935806Y2875443D01*
X37849116Y3084729D01*
X37723263Y3273082D01*
X37563082Y3433263D01*
X37374729Y3559116D01*
X37165443Y3645806D01*
X36943265Y3690000D01*
X36716735Y3690000D01*
X36494557Y3645806D01*
X36285271Y3559116D01*
X36096918Y3433263D01*
X35936737Y3273082D01*
X35810884Y3084729D01*
X35724194Y2875443D01*
X35680000Y2653265D01*
X35440000Y2653265D01*
X35395806Y2875443D01*
X35309116Y3084729D01*
X35183263Y3273082D01*
X35023082Y3433263D01*
X34834729Y3559116D01*
X34625443Y3645806D01*
X34403265Y3690000D01*
X34176735Y3690000D01*
X33954557Y3645806D01*
X33745271Y3559116D01*
X33556918Y3433263D01*
X33396737Y3273082D01*
X33270884Y3084729D01*
X33184194Y2875443D01*
X33140000Y2653265D01*
X32901451Y2653265D01*
X32901451Y3390000D01*
X32895659Y3448810D01*
X32878504Y3505360D01*
X32850647Y3557477D01*
X32813158Y3603158D01*
X32767477Y3640647D01*
X32715360Y3668504D01*
X32658810Y3685659D01*
X32600000Y3691451D01*
X30900000Y3691451D01*
X30841190Y3685659D01*
X30784640Y3668504D01*
X30732523Y3640647D01*
X30686842Y3603158D01*
X30649353Y3557477D01*
X30621496Y3505360D01*
X30604341Y3448810D01*
X30598549Y3390000D01*
X29984391Y3390000D01*
X29983396Y3391100D01*
X29802494Y3525628D01*
X29598823Y3622279D01*
X29487987Y3655896D01*
X29310000Y3610339D01*
X29110000Y3610339D01*
X28932013Y3655896D01*
X28821177Y3622279D01*
X28617506Y3525628D01*
X28436604Y3391100D01*
X28285423Y3223864D01*
X28169773Y3030348D01*
X28094099Y2817988D01*
X27821451Y2817988D01*
X27821451Y3390000D01*
X27815659Y3448810D01*
X27798504Y3505360D01*
X27770647Y3557477D01*
X27733158Y3603158D01*
X27687477Y3640647D01*
X27635360Y3668504D01*
X27578810Y3685659D01*
X27520000Y3691451D01*
X25820000Y3691451D01*
X25761190Y3685659D01*
X25704640Y3668504D01*
X25652523Y3640647D01*
X25606842Y3603158D01*
X25569353Y3557477D01*
X25541496Y3505360D01*
X25524341Y3448810D01*
X25518549Y3390000D01*
X24906345Y3390000D01*
X24863082Y3433263D01*
X24674729Y3559116D01*
X24465443Y3645806D01*
X24243265Y3690000D01*
X24016735Y3690000D01*
X23794557Y3645806D01*
X23585271Y3559116D01*
X23396918Y3433263D01*
X23236737Y3273082D01*
X23110884Y3084729D01*
X23024194Y2875443D01*
X22980000Y2653265D01*
X22740000Y2653265D01*
X22695806Y2875443D01*
X22609116Y3084729D01*
X22483263Y3273082D01*
X22323082Y3433263D01*
X22134729Y3559116D01*
X21925443Y3645806D01*
X21703265Y3690000D01*
X21476735Y3690000D01*
X21254557Y3645806D01*
X21045271Y3559116D01*
X20856918Y3433263D01*
X20696737Y3273082D01*
X20570884Y3084729D01*
X20484194Y2875443D01*
X20440000Y2653265D01*
X20200000Y2653265D01*
X20155806Y2875443D01*
X20069116Y3084729D01*
X19943263Y3273082D01*
X19783082Y3433263D01*
X19594729Y3559116D01*
X19385443Y3645806D01*
X19163265Y3690000D01*
X18936735Y3690000D01*
X18714557Y3645806D01*
X18505271Y3559116D01*
X18316918Y3433263D01*
X18156737Y3273082D01*
X18030884Y3084729D01*
X17944194Y2875443D01*
X17900000Y2653265D01*
X17660000Y2653265D01*
X17615806Y2875443D01*
X17529116Y3084729D01*
X17403263Y3273082D01*
X17243082Y3433263D01*
X17054729Y3559116D01*
X16845443Y3645806D01*
X16623265Y3690000D01*
X16396735Y3690000D01*
X16174557Y3645806D01*
X15965271Y3559116D01*
X15776918Y3433263D01*
X15616737Y3273082D01*
X15490884Y3084729D01*
X15404194Y2875443D01*
X15360000Y2653265D01*
X15120000Y2653265D01*
X15075806Y2875443D01*
X14989116Y3084729D01*
X14863263Y3273082D01*
X14703082Y3433263D01*
X14514729Y3559116D01*
X14305443Y3645806D01*
X14083265Y3690000D01*
X13856735Y3690000D01*
X13634557Y3645806D01*
X13425271Y3559116D01*
X13236918Y3433263D01*
X13076737Y3273082D01*
X12950884Y3084729D01*
X12864194Y2875443D01*
X12820000Y2653265D01*
X12580000Y2653265D01*
X12535806Y2875443D01*
X12449116Y3084729D01*
X12323263Y3273082D01*
X12163082Y3433263D01*
X11974729Y3559116D01*
X11765443Y3645806D01*
X11543265Y3690000D01*
X11316735Y3690000D01*
X11094557Y3645806D01*
X10885271Y3559116D01*
X10696918Y3433263D01*
X10536737Y3273082D01*
X10410884Y3084729D01*
X10324194Y2875443D01*
X10280000Y2653265D01*
X10040000Y2653265D01*
X9995806Y2875443D01*
X9909116Y3084729D01*
X9783263Y3273082D01*
X9623082Y3433263D01*
X9434729Y3559116D01*
X9225443Y3645806D01*
X9003265Y3690000D01*
X8776735Y3690000D01*
X8554557Y3645806D01*
X8345271Y3559116D01*
X8156918Y3433263D01*
X7996737Y3273082D01*
X7870884Y3084729D01*
X7784194Y2875443D01*
X7740000Y2653265D01*
X7501451Y2653265D01*
X7501451Y3390000D01*
X7495659Y3448810D01*
X7478504Y3505360D01*
X7450647Y3557477D01*
X7413158Y3603158D01*
X7367477Y3640647D01*
X7315360Y3668504D01*
X7258810Y3685659D01*
X7200000Y3691451D01*
X5500000Y3691451D01*
X5441190Y3685659D01*
X5384640Y3668504D01*
X5332523Y3640647D01*
X5286842Y3603158D01*
X5249353Y3557477D01*
X5221496Y3505360D01*
X5204341Y3448810D01*
X5198549Y3390000D01*
X325000Y3390000D01*
X325000Y4700000D01*
X698548Y4700000D01*
X704340Y4641190D01*
X721495Y4584639D01*
X749352Y4532522D01*
X786841Y4486841D01*
X832522Y4449352D01*
X884639Y4421495D01*
X941190Y4404340D01*
X1000000Y4398548D01*
X1225000Y4400000D01*
X1300000Y4475000D01*
X1300000Y5050000D01*
X1500000Y5050000D01*
X1500000Y4475000D01*
X1575000Y4400000D01*
X1800000Y4398548D01*
X1858810Y4404340D01*
X1915361Y4421495D01*
X1967478Y4449352D01*
X2013159Y4486841D01*
X2050648Y4532522D01*
X2078505Y4584639D01*
X2095660Y4641190D01*
X2100000Y4685257D01*
X2104340Y4641190D01*
X2121495Y4584639D01*
X2149352Y4532522D01*
X2186841Y4486841D01*
X2232522Y4449352D01*
X2284639Y4421495D01*
X2341190Y4404340D01*
X2400000Y4398548D01*
X2625000Y4400000D01*
X2700000Y4475000D01*
X2700000Y5050000D01*
X2900000Y5050000D01*
X2900000Y4475000D01*
X2975000Y4400000D01*
X3200000Y4398548D01*
X3258810Y4404340D01*
X3315361Y4421495D01*
X3367478Y4449352D01*
X3413159Y4486841D01*
X3450648Y4532522D01*
X3478505Y4584639D01*
X3495660Y4641190D01*
X3501452Y4700000D01*
X3500000Y4975000D01*
X3425000Y5050000D01*
X2900000Y5050000D01*
X2700000Y5050000D01*
X2175000Y5050000D01*
X2100000Y4975000D01*
X2025000Y5050000D01*
X1500000Y5050000D01*
X1300000Y5050000D01*
X775000Y5050000D01*
X700000Y4975000D01*
X698548Y4700000D01*
X325000Y4700000D01*
X325000Y5800000D01*
X776042Y5800000D01*
X749352Y5767478D01*
X721495Y5715361D01*
X704340Y5658810D01*
X698548Y5600000D01*
X700000Y5325000D01*
X775000Y5250000D01*
X1300000Y5250000D01*
X1300000Y5270000D01*
X1500000Y5270000D01*
X1500000Y5250000D01*
X2025000Y5250000D01*
X2100000Y5325000D01*
X2175000Y5250000D01*
X2700000Y5250000D01*
X2700000Y5270000D01*
X2900000Y5270000D01*
X2900000Y5250000D01*
X3425000Y5250000D01*
X3500000Y5325000D01*
X3501452Y5600000D01*
X3495660Y5658810D01*
X3478505Y5715361D01*
X3450648Y5767478D01*
X3423958Y5800000D01*
X7000000Y5800000D01*
X7058527Y5805764D01*
X7114805Y5822836D01*
X7166671Y5850559D01*
X7212132Y5887868D01*
X7249441Y5933329D01*
X7277164Y5985195D01*
X7294236Y6041473D01*
X7300000Y6100000D01*
X7300000Y7900000D01*
X8798549Y7900000D01*
X8798549Y7100000D01*
X8804341Y7041190D01*
X8821496Y6984640D01*
X8849353Y6932523D01*
X8886842Y6886842D01*
X8932523Y6849353D01*
X8984640Y6821496D01*
X9041190Y6804341D01*
X9100000Y6798549D01*
X10000000Y6798549D01*
X10058810Y6804341D01*
X10115360Y6821496D01*
X10167477Y6849353D01*
X10213158Y6886842D01*
X10250647Y6932523D01*
X10278504Y6984640D01*
X10295659Y7041190D01*
X10301451Y7100000D01*
X10498548Y7100000D01*
X10504340Y7041190D01*
X10521495Y6984639D01*
X10549352Y6932522D01*
X10586841Y6886841D01*
X10632522Y6849352D01*
X10684639Y6821495D01*
X10741190Y6804340D01*
X10800000Y6798548D01*
X11075000Y6800000D01*
X11150000Y6875000D01*
X11150000Y7400000D01*
X11350000Y7400000D01*
X11350000Y6875000D01*
X11425000Y6800000D01*
X11700000Y6798548D01*
X11758810Y6804340D01*
X11815361Y6821495D01*
X11867478Y6849352D01*
X11913159Y6886841D01*
X11950648Y6932522D01*
X11978505Y6984639D01*
X11995660Y7041190D01*
X12001452Y7100000D01*
X12000000Y7325000D01*
X11925000Y7400000D01*
X11350000Y7400000D01*
X11150000Y7400000D01*
X10575000Y7400000D01*
X10500000Y7325000D01*
X10498548Y7100000D01*
X10301451Y7100000D01*
X10301451Y7900000D01*
X10498548Y7900000D01*
X10500000Y7675000D01*
X10575000Y7600000D01*
X11150000Y7600000D01*
X11150000Y8125000D01*
X11350000Y8125000D01*
X11350000Y7600000D01*
X11925000Y7600000D01*
X12000000Y7675000D01*
X12001452Y7900000D01*
X11995660Y7958810D01*
X11978505Y8015361D01*
X11950648Y8067478D01*
X11913159Y8113159D01*
X11867478Y8150648D01*
X11815361Y8178505D01*
X11758810Y8195660D01*
X11700000Y8201452D01*
X11425000Y8200000D01*
X11350000Y8125000D01*
X11150000Y8125000D01*
X11075000Y8200000D01*
X10800000Y8201452D01*
X10741190Y8195660D01*
X10684639Y8178505D01*
X10632522Y8150648D01*
X10586841Y8113159D01*
X10549352Y8067478D01*
X10521495Y8015361D01*
X10504340Y7958810D01*
X10498548Y7900000D01*
X10301451Y7900000D01*
X10295659Y7958810D01*
X10278504Y8015360D01*
X10250647Y8067477D01*
X10213158Y8113158D01*
X10167477Y8150647D01*
X10115360Y8178504D01*
X10058810Y8195659D01*
X10000000Y8201451D01*
X9100000Y8201451D01*
X9041190Y8195659D01*
X8984640Y8178504D01*
X8932523Y8150647D01*
X8886842Y8113158D01*
X8849353Y8067477D01*
X8821496Y8015360D01*
X8804341Y7958810D01*
X8798549Y7900000D01*
X7300000Y7900000D01*
X7300000Y9959095D01*
X12800000Y9959095D01*
X12800000Y9840905D01*
X12823058Y9724986D01*
X12868287Y9615793D01*
X12933950Y9517522D01*
X13017522Y9433950D01*
X13115793Y9368287D01*
X13224986Y9323058D01*
X13340905Y9300000D01*
X13398549Y9300000D01*
X13398549Y8700000D01*
X13404341Y8641190D01*
X13421496Y8584640D01*
X13449353Y8532523D01*
X13476044Y8500000D01*
X13449353Y8467477D01*
X13421496Y8415360D01*
X13404341Y8358810D01*
X13398549Y8300000D01*
X13398549Y7500000D01*
X13404341Y7441190D01*
X13421496Y7384640D01*
X13449353Y7332523D01*
X13486842Y7286842D01*
X13532523Y7249353D01*
X13584640Y7221496D01*
X13641190Y7204341D01*
X13700000Y7198549D01*
X14600000Y7198549D01*
X14600000Y5219646D01*
X14598065Y5200000D01*
X14600000Y5180354D01*
X14605788Y5121587D01*
X14628660Y5046187D01*
X14665803Y4976698D01*
X14715789Y4915789D01*
X14731052Y4903263D01*
X15003267Y4631047D01*
X15015789Y4615789D01*
X15031047Y4603267D01*
X15031049Y4603265D01*
X15053745Y4584639D01*
X15076697Y4565803D01*
X15146186Y4528660D01*
X15221586Y4505788D01*
X15280353Y4500000D01*
X15280355Y4500000D01*
X15299999Y4498065D01*
X15319643Y4500000D01*
X25751472Y4500000D01*
X25817522Y4433950D01*
X25915793Y4368287D01*
X26024986Y4323058D01*
X26140905Y4300000D01*
X26259095Y4300000D01*
X26375014Y4323058D01*
X26484207Y4368287D01*
X26582478Y4433950D01*
X26666050Y4517522D01*
X26731713Y4615793D01*
X26776942Y4724986D01*
X26800000Y4840905D01*
X26800000Y4959095D01*
X26776942Y5075014D01*
X26731713Y5184207D01*
X26666050Y5282478D01*
X26582478Y5366050D01*
X26484207Y5431713D01*
X26375014Y5476942D01*
X26259095Y5500000D01*
X26140905Y5500000D01*
X26024986Y5476942D01*
X25915793Y5431713D01*
X25817522Y5366050D01*
X25751472Y5300000D01*
X15465686Y5300000D01*
X15400000Y5365685D01*
X15400000Y7198549D01*
X16300000Y7198549D01*
X16348178Y7203294D01*
X16417522Y7133950D01*
X16515793Y7068287D01*
X16624986Y7023058D01*
X16740905Y7000000D01*
X16859095Y7000000D01*
X16975014Y7023058D01*
X17084207Y7068287D01*
X17182478Y7133950D01*
X17266050Y7217522D01*
X17331713Y7315793D01*
X17376942Y7424986D01*
X17400000Y7540905D01*
X17400000Y7659095D01*
X17376942Y7775014D01*
X17331713Y7884207D01*
X17266050Y7982478D01*
X17182478Y8066050D01*
X17084207Y8131713D01*
X16975014Y8176942D01*
X16859095Y8200000D01*
X16764972Y8200000D01*
X16723303Y8234197D01*
X16653814Y8271340D01*
X16601451Y8287224D01*
X16601451Y8300000D01*
X16595659Y8358810D01*
X16578504Y8415360D01*
X16550647Y8467477D01*
X16523956Y8500000D01*
X16550647Y8532523D01*
X16578504Y8584640D01*
X16595659Y8641190D01*
X16601451Y8700000D01*
X16601451Y8712776D01*
X16653814Y8728660D01*
X16710753Y8759095D01*
X21000000Y8759095D01*
X21000000Y8640905D01*
X21023058Y8524986D01*
X21068287Y8415793D01*
X21133950Y8317522D01*
X21217522Y8233950D01*
X21315793Y8168287D01*
X21424986Y8123058D01*
X21540905Y8100000D01*
X21659095Y8100000D01*
X21775014Y8123058D01*
X21884207Y8168287D01*
X21982478Y8233950D01*
X22066050Y8317522D01*
X22131713Y8415793D01*
X22145281Y8448549D01*
X22150000Y8448549D01*
X22208810Y8454341D01*
X22265360Y8471496D01*
X22317477Y8499353D01*
X22363158Y8536842D01*
X22400647Y8582523D01*
X22428504Y8634640D01*
X22445659Y8691190D01*
X22451451Y8750000D01*
X22451451Y9650000D01*
X26298549Y9650000D01*
X26298549Y8750000D01*
X26304341Y8691190D01*
X26321496Y8634640D01*
X26349353Y8582523D01*
X26386842Y8536842D01*
X26432523Y8499353D01*
X26460603Y8484344D01*
X26468287Y8465793D01*
X26533950Y8367522D01*
X26617522Y8283950D01*
X26715793Y8218287D01*
X26824986Y8173058D01*
X26940905Y8150000D01*
X27059095Y8150000D01*
X27175014Y8173058D01*
X27284207Y8218287D01*
X27382478Y8283950D01*
X27466050Y8367522D01*
X27531713Y8465793D01*
X27539397Y8484344D01*
X27567477Y8499353D01*
X27613158Y8536842D01*
X27650647Y8582523D01*
X27678504Y8634640D01*
X27695659Y8691190D01*
X27701451Y8750000D01*
X27701451Y9650000D01*
X27695659Y9708810D01*
X27678504Y9765360D01*
X27650647Y9817477D01*
X27613158Y9863158D01*
X27567477Y9900647D01*
X27515360Y9928504D01*
X27458810Y9945659D01*
X27400000Y9951451D01*
X26600000Y9951451D01*
X26541190Y9945659D01*
X26484640Y9928504D01*
X26432523Y9900647D01*
X26386842Y9863158D01*
X26349353Y9817477D01*
X26321496Y9765360D01*
X26304341Y9708810D01*
X26298549Y9650000D01*
X22451451Y9650000D01*
X22445659Y9708810D01*
X22428504Y9765360D01*
X22400647Y9817477D01*
X22363158Y9863158D01*
X22317477Y9900647D01*
X22265360Y9928504D01*
X22208810Y9945659D01*
X22150000Y9951451D01*
X21350000Y9951451D01*
X21291190Y9945659D01*
X21234640Y9928504D01*
X21182523Y9900647D01*
X21136842Y9863158D01*
X21099353Y9817477D01*
X21071496Y9765360D01*
X21054341Y9708810D01*
X21048549Y9650000D01*
X21048549Y8936555D01*
X21023058Y8875014D01*
X21000000Y8759095D01*
X16710753Y8759095D01*
X16723303Y8765803D01*
X16764972Y8800000D01*
X16859095Y8800000D01*
X16975014Y8823058D01*
X17084207Y8868287D01*
X17182478Y8933950D01*
X17266050Y9017522D01*
X17331713Y9115793D01*
X17376942Y9224986D01*
X17400000Y9340905D01*
X17400000Y9459095D01*
X17376942Y9575014D01*
X17331713Y9684207D01*
X17266050Y9782478D01*
X17182478Y9866050D01*
X17084207Y9931713D01*
X16975014Y9976942D01*
X16859095Y10000000D01*
X16740905Y10000000D01*
X16624986Y9976942D01*
X16515793Y9931713D01*
X16417522Y9866050D01*
X16348178Y9796706D01*
X16300000Y9801451D01*
X15400000Y9801451D01*
X15400000Y9980353D01*
X15401935Y10000000D01*
X15399132Y10028465D01*
X15394212Y10078414D01*
X15371340Y10153814D01*
X15334197Y10223303D01*
X15284211Y10284211D01*
X15268943Y10296741D01*
X15115685Y10450000D01*
X21048548Y10450000D01*
X21054340Y10391190D01*
X21071495Y10334639D01*
X21099352Y10282522D01*
X21136841Y10236841D01*
X21182522Y10199352D01*
X21234639Y10171495D01*
X21291190Y10154340D01*
X21350000Y10148548D01*
X21575000Y10150000D01*
X21650000Y10225000D01*
X21650000Y10800000D01*
X21850000Y10800000D01*
X21850000Y10225000D01*
X21925000Y10150000D01*
X22150000Y10148548D01*
X22208810Y10154340D01*
X22265361Y10171495D01*
X22317478Y10199352D01*
X22363159Y10236841D01*
X22400648Y10282522D01*
X22428505Y10334639D01*
X22445660Y10391190D01*
X22451452Y10450000D01*
X26298548Y10450000D01*
X26304340Y10391190D01*
X26321495Y10334639D01*
X26349352Y10282522D01*
X26386841Y10236841D01*
X26432522Y10199352D01*
X26484639Y10171495D01*
X26541190Y10154340D01*
X26600000Y10148548D01*
X26825000Y10150000D01*
X26900000Y10225000D01*
X26900000Y10800000D01*
X27100000Y10800000D01*
X27100000Y10225000D01*
X27175000Y10150000D01*
X27400000Y10148548D01*
X27458810Y10154340D01*
X27515361Y10171495D01*
X27567478Y10199352D01*
X27613159Y10236841D01*
X27650648Y10282522D01*
X27678505Y10334639D01*
X27695660Y10391190D01*
X27701452Y10450000D01*
X27700000Y10725000D01*
X27625000Y10800000D01*
X27100000Y10800000D01*
X26900000Y10800000D01*
X26375000Y10800000D01*
X26300000Y10725000D01*
X26298548Y10450000D01*
X22451452Y10450000D01*
X22450000Y10725000D01*
X22375000Y10800000D01*
X21850000Y10800000D01*
X21650000Y10800000D01*
X21125000Y10800000D01*
X21050000Y10725000D01*
X21048548Y10450000D01*
X15115685Y10450000D01*
X15096738Y10468947D01*
X15084211Y10484211D01*
X15023303Y10534197D01*
X14953814Y10571340D01*
X14878414Y10594212D01*
X14819647Y10600000D01*
X14819646Y10600000D01*
X14800000Y10601935D01*
X14780354Y10600000D01*
X13719643Y10600000D01*
X13699999Y10601935D01*
X13680355Y10600000D01*
X13680353Y10600000D01*
X13621586Y10594212D01*
X13546186Y10571340D01*
X13476697Y10534197D01*
X13435027Y10500000D01*
X13340905Y10500000D01*
X13224986Y10476942D01*
X13115793Y10431713D01*
X13017522Y10366050D01*
X12933950Y10282478D01*
X12868287Y10184207D01*
X12823058Y10075014D01*
X12800000Y9959095D01*
X7300000Y9959095D01*
X7300000Y11900000D01*
X8000000Y11900000D01*
X8058527Y11905764D01*
X8114805Y11922836D01*
X8166671Y11950559D01*
X8212132Y11987868D01*
X8412132Y12187868D01*
X8449441Y12233329D01*
X8477164Y12285195D01*
X8494236Y12341473D01*
X8500000Y12400000D01*
X8500000Y13000000D01*
X8494236Y13058527D01*
X8489239Y13075000D01*
X16833407Y13075000D01*
X16868287Y12990793D01*
X16933950Y12892522D01*
X17017522Y12808950D01*
X17115793Y12743287D01*
X17224986Y12698058D01*
X17340905Y12675000D01*
X17459095Y12675000D01*
X17575014Y12698058D01*
X17684207Y12743287D01*
X17782478Y12808950D01*
X17866050Y12892522D01*
X17931713Y12990793D01*
X17976942Y13099986D01*
X18000000Y13215905D01*
X18000000Y13334095D01*
X17976942Y13450014D01*
X17931713Y13559207D01*
X17866050Y13657478D01*
X17836028Y13687500D01*
X17841050Y13692522D01*
X17906713Y13790793D01*
X17951942Y13899986D01*
X17975000Y14015905D01*
X17975000Y14134095D01*
X17951942Y14250014D01*
X17906713Y14359207D01*
X17841050Y14457478D01*
X17757478Y14541050D01*
X17659207Y14606713D01*
X17550014Y14651942D01*
X17514054Y14659095D01*
X18100000Y14659095D01*
X18100000Y14540905D01*
X18123058Y14424986D01*
X18168287Y14315793D01*
X18233950Y14217522D01*
X18317522Y14133950D01*
X18415793Y14068287D01*
X18434344Y14060603D01*
X18449353Y14032523D01*
X18476044Y14000000D01*
X18449353Y13967477D01*
X18421496Y13915360D01*
X18404341Y13858810D01*
X18398549Y13800000D01*
X18398549Y13000000D01*
X18404341Y12941190D01*
X18421496Y12884640D01*
X18449353Y12832523D01*
X18476044Y12800000D01*
X18449353Y12767477D01*
X18434344Y12739397D01*
X18415793Y12731713D01*
X18317522Y12666050D01*
X18233950Y12582478D01*
X18168287Y12484207D01*
X18123058Y12375014D01*
X18100000Y12259095D01*
X18100000Y12140905D01*
X18123058Y12024986D01*
X18168287Y11915793D01*
X18233950Y11817522D01*
X18317522Y11733950D01*
X18415793Y11668287D01*
X18434344Y11660603D01*
X18449353Y11632523D01*
X18486842Y11586842D01*
X18532523Y11549353D01*
X18584640Y11521496D01*
X18641190Y11504341D01*
X18700000Y11498549D01*
X19600000Y11498549D01*
X19658810Y11504341D01*
X19715360Y11521496D01*
X19767477Y11549353D01*
X19813158Y11586842D01*
X19850647Y11632523D01*
X19878504Y11684640D01*
X19895659Y11741190D01*
X19901451Y11800000D01*
X20098548Y11800000D01*
X20104340Y11741190D01*
X20121495Y11684639D01*
X20149352Y11632522D01*
X20186841Y11586841D01*
X20232522Y11549352D01*
X20284639Y11521495D01*
X20341190Y11504340D01*
X20400000Y11498548D01*
X20675000Y11500000D01*
X20750000Y11575000D01*
X20750000Y12100000D01*
X20950000Y12100000D01*
X20950000Y11575000D01*
X21025000Y11500000D01*
X21089827Y11499658D01*
X21071495Y11465361D01*
X21054340Y11408810D01*
X21048548Y11350000D01*
X21050000Y11075000D01*
X21125000Y11000000D01*
X21650000Y11000000D01*
X21650000Y11575000D01*
X21850000Y11575000D01*
X21850000Y11000000D01*
X22375000Y11000000D01*
X22450000Y11075000D01*
X22451452Y11350000D01*
X26298548Y11350000D01*
X26300000Y11075000D01*
X26375000Y11000000D01*
X26900000Y11000000D01*
X26900000Y11020000D01*
X27100000Y11020000D01*
X27100000Y11000000D01*
X27625000Y11000000D01*
X27700000Y11075000D01*
X27701452Y11350000D01*
X27695660Y11408810D01*
X27678505Y11465361D01*
X27650648Y11517478D01*
X27623269Y11550840D01*
X27658810Y11554340D01*
X27715361Y11571495D01*
X27767478Y11599352D01*
X27813159Y11636841D01*
X27850648Y11682522D01*
X27878505Y11734639D01*
X27895660Y11791190D01*
X27901452Y11850000D01*
X27900000Y12075000D01*
X27825000Y12150000D01*
X27250000Y12150000D01*
X27250000Y12130000D01*
X27050000Y12130000D01*
X27050000Y12150000D01*
X26475000Y12150000D01*
X26400000Y12075000D01*
X26398548Y11850000D01*
X26404340Y11791190D01*
X26421495Y11734639D01*
X26449352Y11682522D01*
X26486841Y11636841D01*
X26493663Y11631242D01*
X26484639Y11628505D01*
X26432522Y11600648D01*
X26386841Y11563159D01*
X26349352Y11517478D01*
X26321495Y11465361D01*
X26304340Y11408810D01*
X26298548Y11350000D01*
X22451452Y11350000D01*
X22445660Y11408810D01*
X22428505Y11465361D01*
X22400648Y11517478D01*
X22363159Y11563159D01*
X22317478Y11600648D01*
X22265361Y11628505D01*
X22208810Y11645660D01*
X22150000Y11651452D01*
X21925000Y11650000D01*
X21850000Y11575000D01*
X21650000Y11575000D01*
X21575000Y11650000D01*
X21560042Y11650097D01*
X21578505Y11684639D01*
X21595660Y11741190D01*
X21601452Y11800000D01*
X21600000Y12025000D01*
X21525000Y12100000D01*
X20950000Y12100000D01*
X20750000Y12100000D01*
X20175000Y12100000D01*
X20100000Y12025000D01*
X20098548Y11800000D01*
X19901451Y11800000D01*
X19901451Y12600000D01*
X19895659Y12658810D01*
X19878504Y12715360D01*
X19850647Y12767477D01*
X19823956Y12800000D01*
X19850647Y12832523D01*
X19878504Y12884640D01*
X19895659Y12941190D01*
X19901451Y13000000D01*
X20098548Y13000000D01*
X20104340Y12941190D01*
X20121495Y12884639D01*
X20149352Y12832522D01*
X20176042Y12800000D01*
X20149352Y12767478D01*
X20121495Y12715361D01*
X20104340Y12658810D01*
X20098548Y12600000D01*
X20100000Y12375000D01*
X20175000Y12300000D01*
X20750000Y12300000D01*
X20750000Y13300000D01*
X20950000Y13300000D01*
X20950000Y12300000D01*
X21525000Y12300000D01*
X21600000Y12375000D01*
X21601452Y12600000D01*
X21596528Y12650000D01*
X26398548Y12650000D01*
X26400000Y12425000D01*
X26475000Y12350000D01*
X27050000Y12350000D01*
X27050000Y12875000D01*
X27250000Y12875000D01*
X27250000Y12350000D01*
X27825000Y12350000D01*
X27900000Y12425000D01*
X27901452Y12650000D01*
X28098549Y12650000D01*
X28098549Y11850000D01*
X28104341Y11791190D01*
X28121496Y11734640D01*
X28149353Y11682523D01*
X28186842Y11636842D01*
X28232523Y11599353D01*
X28284640Y11571496D01*
X28341190Y11554341D01*
X28400000Y11548549D01*
X29300000Y11548549D01*
X29358810Y11554341D01*
X29388212Y11563260D01*
X29417522Y11533950D01*
X29515793Y11468287D01*
X29624986Y11423058D01*
X29740905Y11400000D01*
X29859095Y11400000D01*
X29975014Y11423058D01*
X30084207Y11468287D01*
X30182478Y11533950D01*
X30266050Y11617522D01*
X30331713Y11715793D01*
X30376942Y11824986D01*
X30400000Y11940905D01*
X30400000Y12059095D01*
X30376942Y12175014D01*
X30331713Y12284207D01*
X30266050Y12382478D01*
X30182478Y12466050D01*
X30084207Y12531713D01*
X29975014Y12576942D01*
X29859095Y12600000D01*
X29782921Y12600000D01*
X29771101Y12609850D01*
X29769700Y12610801D01*
X29751216Y12625971D01*
X29733120Y12635644D01*
X29716146Y12647171D01*
X29694130Y12656484D01*
X29673041Y12667757D01*
X29653396Y12673716D01*
X29634507Y12681707D01*
X29611108Y12686545D01*
X29597444Y12690689D01*
X29595659Y12708810D01*
X29578504Y12765360D01*
X29550647Y12817477D01*
X29513158Y12863158D01*
X29467477Y12900647D01*
X29415360Y12928504D01*
X29358810Y12945659D01*
X29300000Y12951451D01*
X28400000Y12951451D01*
X28341190Y12945659D01*
X28284640Y12928504D01*
X28232523Y12900647D01*
X28186842Y12863158D01*
X28149353Y12817477D01*
X28121496Y12765360D01*
X28104341Y12708810D01*
X28098549Y12650000D01*
X27901452Y12650000D01*
X27895660Y12708810D01*
X27878505Y12765361D01*
X27850648Y12817478D01*
X27813159Y12863159D01*
X27767478Y12900648D01*
X27715361Y12928505D01*
X27658810Y12945660D01*
X27600000Y12951452D01*
X27325000Y12950000D01*
X27250000Y12875000D01*
X27050000Y12875000D01*
X26975000Y12950000D01*
X26700000Y12951452D01*
X26641190Y12945660D01*
X26584639Y12928505D01*
X26532522Y12900648D01*
X26486841Y12863159D01*
X26449352Y12817478D01*
X26421495Y12765361D01*
X26404340Y12708810D01*
X26398548Y12650000D01*
X21596528Y12650000D01*
X21595660Y12658810D01*
X21578505Y12715361D01*
X21550648Y12767478D01*
X21523958Y12800000D01*
X21550648Y12832522D01*
X21578505Y12884639D01*
X21595660Y12941190D01*
X21601452Y13000000D01*
X21600000Y13225000D01*
X21525000Y13300000D01*
X20950000Y13300000D01*
X20750000Y13300000D01*
X20175000Y13300000D01*
X20100000Y13225000D01*
X20098548Y13000000D01*
X19901451Y13000000D01*
X19901451Y13800000D01*
X19895659Y13858810D01*
X19878504Y13915360D01*
X19850647Y13967477D01*
X19823956Y14000000D01*
X19850647Y14032523D01*
X19878504Y14084640D01*
X19895659Y14141190D01*
X19901451Y14200000D01*
X20098548Y14200000D01*
X20104340Y14141190D01*
X20121495Y14084639D01*
X20149352Y14032522D01*
X20176042Y14000000D01*
X20149352Y13967478D01*
X20121495Y13915361D01*
X20104340Y13858810D01*
X20098548Y13800000D01*
X20100000Y13575000D01*
X20175000Y13500000D01*
X20750000Y13500000D01*
X20750000Y14500000D01*
X20950000Y14500000D01*
X20950000Y13500000D01*
X21525000Y13500000D01*
X21600000Y13575000D01*
X21601452Y13800000D01*
X21595660Y13858810D01*
X21578505Y13915361D01*
X21550648Y13967478D01*
X21523958Y14000000D01*
X21550648Y14032522D01*
X21578505Y14084639D01*
X21595660Y14141190D01*
X21601452Y14200000D01*
X21600000Y14425000D01*
X21525000Y14500000D01*
X20950000Y14500000D01*
X20750000Y14500000D01*
X20175000Y14500000D01*
X20100000Y14425000D01*
X20098548Y14200000D01*
X19901451Y14200000D01*
X19901451Y15000000D01*
X19895659Y15058810D01*
X19878504Y15115360D01*
X19850647Y15167477D01*
X19823956Y15200000D01*
X19850647Y15232523D01*
X19878504Y15284640D01*
X19895659Y15341190D01*
X19901451Y15400000D01*
X20098548Y15400000D01*
X20104340Y15341190D01*
X20121495Y15284639D01*
X20149352Y15232522D01*
X20176042Y15200000D01*
X20149352Y15167478D01*
X20121495Y15115361D01*
X20104340Y15058810D01*
X20098548Y15000000D01*
X20100000Y14775000D01*
X20175000Y14700000D01*
X20750000Y14700000D01*
X20750000Y15700000D01*
X20950000Y15700000D01*
X20950000Y14700000D01*
X21525000Y14700000D01*
X21600000Y14775000D01*
X21601452Y15000000D01*
X21595660Y15058810D01*
X21578505Y15115361D01*
X21550648Y15167478D01*
X21523958Y15200000D01*
X21550648Y15232522D01*
X21578505Y15284639D01*
X21595660Y15341190D01*
X21601452Y15400000D01*
X21600000Y15625000D01*
X21525000Y15700000D01*
X20950000Y15700000D01*
X20750000Y15700000D01*
X20175000Y15700000D01*
X20100000Y15625000D01*
X20098548Y15400000D01*
X19901451Y15400000D01*
X19901451Y16200000D01*
X20098548Y16200000D01*
X20100000Y15975000D01*
X20175000Y15900000D01*
X20750000Y15900000D01*
X20750000Y15920000D01*
X20950000Y15920000D01*
X20950000Y15900000D01*
X21525000Y15900000D01*
X21600000Y15975000D01*
X21601452Y16200000D01*
X21595660Y16258810D01*
X21578505Y16315361D01*
X21550648Y16367478D01*
X21537597Y16383381D01*
X21567478Y16399352D01*
X21613159Y16436841D01*
X21650648Y16482522D01*
X21678505Y16534639D01*
X21695660Y16591190D01*
X21701452Y16650000D01*
X26548548Y16650000D01*
X26554340Y16591190D01*
X26571495Y16534639D01*
X26599352Y16482522D01*
X26636841Y16436841D01*
X26682522Y16399352D01*
X26734639Y16371495D01*
X26791190Y16354340D01*
X26850000Y16348548D01*
X27075000Y16350000D01*
X27150000Y16425000D01*
X27150000Y17000000D01*
X27350000Y17000000D01*
X27350000Y16425000D01*
X27425000Y16350000D01*
X27650000Y16348548D01*
X27708810Y16354340D01*
X27765361Y16371495D01*
X27817478Y16399352D01*
X27818267Y16400000D01*
X41898549Y16400000D01*
X41898549Y15600000D01*
X41904341Y15541190D01*
X41921496Y15484640D01*
X41949353Y15432523D01*
X41986842Y15386842D01*
X42032523Y15349353D01*
X42084640Y15321496D01*
X42135874Y15305954D01*
X42123058Y15275014D01*
X42100000Y15159095D01*
X42100000Y15040905D01*
X42123058Y14924986D01*
X42168287Y14815793D01*
X42233950Y14717522D01*
X42317522Y14633950D01*
X42415793Y14568287D01*
X42524986Y14523058D01*
X42640905Y14500000D01*
X42759095Y14500000D01*
X42875014Y14523058D01*
X42984207Y14568287D01*
X43082478Y14633950D01*
X43166050Y14717522D01*
X43231713Y14815793D01*
X43276942Y14924986D01*
X43300000Y15040905D01*
X43300000Y15159095D01*
X43276942Y15275014D01*
X43250016Y15340020D01*
X43267477Y15349353D01*
X43313158Y15386842D01*
X43350647Y15432523D01*
X43378504Y15484640D01*
X43395659Y15541190D01*
X43401451Y15600000D01*
X43598548Y15600000D01*
X43604340Y15541190D01*
X43621495Y15484639D01*
X43649352Y15432522D01*
X43686841Y15386841D01*
X43732522Y15349352D01*
X43784639Y15321495D01*
X43841190Y15304340D01*
X43900000Y15298548D01*
X44175000Y15300000D01*
X44250000Y15375000D01*
X44250000Y15900000D01*
X44450000Y15900000D01*
X44450000Y15375000D01*
X44525000Y15300000D01*
X44800000Y15298548D01*
X44858810Y15304340D01*
X44915361Y15321495D01*
X44967478Y15349352D01*
X45013159Y15386841D01*
X45050648Y15432522D01*
X45078505Y15484639D01*
X45095660Y15541190D01*
X45101452Y15600000D01*
X45100000Y15825000D01*
X45025000Y15900000D01*
X44450000Y15900000D01*
X44250000Y15900000D01*
X43675000Y15900000D01*
X43600000Y15825000D01*
X43598548Y15600000D01*
X43401451Y15600000D01*
X43401451Y16400000D01*
X43598548Y16400000D01*
X43600000Y16175000D01*
X43675000Y16100000D01*
X44250000Y16100000D01*
X44250000Y16625000D01*
X44450000Y16625000D01*
X44450000Y16100000D01*
X45025000Y16100000D01*
X45100000Y16175000D01*
X45101452Y16400000D01*
X45095660Y16458810D01*
X45078505Y16515361D01*
X45050648Y16567478D01*
X45013159Y16613159D01*
X44967478Y16650648D01*
X44915361Y16678505D01*
X44858810Y16695660D01*
X44800000Y16701452D01*
X44525000Y16700000D01*
X44450000Y16625000D01*
X44250000Y16625000D01*
X44175000Y16700000D01*
X43900000Y16701452D01*
X43841190Y16695660D01*
X43784639Y16678505D01*
X43732522Y16650648D01*
X43686841Y16613159D01*
X43649352Y16567478D01*
X43621495Y16515361D01*
X43604340Y16458810D01*
X43598548Y16400000D01*
X43401451Y16400000D01*
X43395659Y16458810D01*
X43378504Y16515360D01*
X43350647Y16567477D01*
X43313158Y16613158D01*
X43267477Y16650647D01*
X43215360Y16678504D01*
X43158810Y16695659D01*
X43100000Y16701451D01*
X42200000Y16701451D01*
X42141190Y16695659D01*
X42084640Y16678504D01*
X42032523Y16650647D01*
X41986842Y16613158D01*
X41949353Y16567477D01*
X41921496Y16515360D01*
X41904341Y16458810D01*
X41898549Y16400000D01*
X27818267Y16400000D01*
X27863159Y16436841D01*
X27900648Y16482522D01*
X27928505Y16534639D01*
X27945660Y16591190D01*
X27951452Y16650000D01*
X27950000Y16925000D01*
X27875000Y17000000D01*
X27350000Y17000000D01*
X27150000Y17000000D01*
X26625000Y17000000D01*
X26550000Y16925000D01*
X26548548Y16650000D01*
X21701452Y16650000D01*
X21700000Y16925000D01*
X21625000Y17000000D01*
X21100000Y17000000D01*
X21100000Y16980000D01*
X20900000Y16980000D01*
X20900000Y17000000D01*
X20375000Y17000000D01*
X20300000Y16925000D01*
X20298548Y16650000D01*
X20304340Y16591190D01*
X20321495Y16534639D01*
X20342273Y16495767D01*
X20341190Y16495660D01*
X20284639Y16478505D01*
X20232522Y16450648D01*
X20186841Y16413159D01*
X20149352Y16367478D01*
X20121495Y16315361D01*
X20104340Y16258810D01*
X20098548Y16200000D01*
X19901451Y16200000D01*
X19895659Y16258810D01*
X19878504Y16315360D01*
X19850647Y16367477D01*
X19813158Y16413158D01*
X19767477Y16450647D01*
X19715360Y16478504D01*
X19658810Y16495659D01*
X19600000Y16501451D01*
X19589474Y16501451D01*
X19586546Y16511104D01*
X19581707Y16534509D01*
X19573714Y16553402D01*
X19567757Y16573041D01*
X19556487Y16594126D01*
X19547171Y16616147D01*
X19535641Y16633125D01*
X19525971Y16651216D01*
X19510805Y16669696D01*
X19509850Y16671102D01*
X19500000Y16682922D01*
X19500000Y16759095D01*
X19476942Y16875014D01*
X19431713Y16984207D01*
X19366050Y17082478D01*
X19282478Y17166050D01*
X19184207Y17231713D01*
X19075014Y17276942D01*
X18959095Y17300000D01*
X18840905Y17300000D01*
X18724986Y17276942D01*
X18615793Y17231713D01*
X18517522Y17166050D01*
X18433950Y17082478D01*
X18368287Y16984207D01*
X18323058Y16875014D01*
X18300000Y16759095D01*
X18300000Y16640905D01*
X18323058Y16524986D01*
X18368287Y16415793D01*
X18427673Y16326916D01*
X18421496Y16315360D01*
X18404341Y16258810D01*
X18398549Y16200000D01*
X18398549Y15400000D01*
X18404341Y15341190D01*
X18421496Y15284640D01*
X18449353Y15232523D01*
X18476044Y15200000D01*
X18449353Y15167477D01*
X18434344Y15139397D01*
X18415793Y15131713D01*
X18317522Y15066050D01*
X18233950Y14982478D01*
X18168287Y14884207D01*
X18123058Y14775014D01*
X18100000Y14659095D01*
X17514054Y14659095D01*
X17434095Y14675000D01*
X17315905Y14675000D01*
X17199986Y14651942D01*
X17090793Y14606713D01*
X16992522Y14541050D01*
X16908950Y14457478D01*
X16843287Y14359207D01*
X16808407Y14275000D01*
X7300000Y14275000D01*
X7300000Y17550000D01*
X20298548Y17550000D01*
X20300000Y17275000D01*
X20375000Y17200000D01*
X20900000Y17200000D01*
X20900000Y17775000D01*
X21100000Y17775000D01*
X21100000Y17200000D01*
X21625000Y17200000D01*
X21700000Y17275000D01*
X21701452Y17550000D01*
X26548548Y17550000D01*
X26550000Y17275000D01*
X26625000Y17200000D01*
X27150000Y17200000D01*
X27150000Y17775000D01*
X27350000Y17775000D01*
X27350000Y17200000D01*
X27875000Y17200000D01*
X27950000Y17275000D01*
X27951452Y17550000D01*
X27945660Y17608810D01*
X27930406Y17659095D01*
X29000000Y17659095D01*
X29000000Y17540905D01*
X29023058Y17424986D01*
X29068287Y17315793D01*
X29133950Y17217522D01*
X29217522Y17133950D01*
X29315793Y17068287D01*
X29424986Y17023058D01*
X29540905Y17000000D01*
X29659095Y17000000D01*
X29775014Y17023058D01*
X29884207Y17068287D01*
X29919336Y17091760D01*
X29921496Y17084640D01*
X29949353Y17032523D01*
X29986842Y16986842D01*
X30032523Y16949353D01*
X30084640Y16921496D01*
X30141190Y16904341D01*
X30200000Y16898549D01*
X31100000Y16898549D01*
X31158810Y16904341D01*
X31215360Y16921496D01*
X31267477Y16949353D01*
X31313158Y16986842D01*
X31350647Y17032523D01*
X31378504Y17084640D01*
X31395659Y17141190D01*
X31401451Y17200000D01*
X31598548Y17200000D01*
X31604340Y17141190D01*
X31621495Y17084639D01*
X31649352Y17032522D01*
X31686841Y16986841D01*
X31732522Y16949352D01*
X31784639Y16921495D01*
X31841190Y16904340D01*
X31900000Y16898548D01*
X32175000Y16900000D01*
X32250000Y16975000D01*
X32250000Y17500000D01*
X32450000Y17500000D01*
X32450000Y16975000D01*
X32525000Y16900000D01*
X32800000Y16898548D01*
X32858810Y16904340D01*
X32915361Y16921495D01*
X32967478Y16949352D01*
X33013159Y16986841D01*
X33050648Y17032522D01*
X33078505Y17084639D01*
X33095660Y17141190D01*
X33101452Y17200000D01*
X33100000Y17425000D01*
X33025000Y17500000D01*
X32450000Y17500000D01*
X32250000Y17500000D01*
X31675000Y17500000D01*
X31600000Y17425000D01*
X31598548Y17200000D01*
X31401451Y17200000D01*
X31401451Y18000000D01*
X31598548Y18000000D01*
X31600000Y17775000D01*
X31675000Y17700000D01*
X32250000Y17700000D01*
X32250000Y18225000D01*
X32450000Y18225000D01*
X32450000Y17700000D01*
X33025000Y17700000D01*
X33100000Y17775000D01*
X33101452Y18000000D01*
X33095660Y18058810D01*
X33078505Y18115361D01*
X33050648Y18167478D01*
X33013159Y18213159D01*
X32967478Y18250648D01*
X32915361Y18278505D01*
X32858810Y18295660D01*
X32800000Y18301452D01*
X32525000Y18300000D01*
X32450000Y18225000D01*
X32250000Y18225000D01*
X32175000Y18300000D01*
X31900000Y18301452D01*
X31841190Y18295660D01*
X31784639Y18278505D01*
X31732522Y18250648D01*
X31686841Y18213159D01*
X31649352Y18167478D01*
X31621495Y18115361D01*
X31604340Y18058810D01*
X31598548Y18000000D01*
X31401451Y18000000D01*
X31395659Y18058810D01*
X31378504Y18115360D01*
X31350647Y18167477D01*
X31313158Y18213158D01*
X31267477Y18250647D01*
X31215360Y18278504D01*
X31158810Y18295659D01*
X31100000Y18301451D01*
X30200000Y18301451D01*
X30141190Y18295659D01*
X30084640Y18278504D01*
X30032523Y18250647D01*
X29986842Y18213158D01*
X29949353Y18167477D01*
X29921496Y18115360D01*
X29919336Y18108240D01*
X29884207Y18131713D01*
X29775014Y18176942D01*
X29659095Y18200000D01*
X29540905Y18200000D01*
X29424986Y18176942D01*
X29315793Y18131713D01*
X29217522Y18066050D01*
X29133950Y17982478D01*
X29068287Y17884207D01*
X29023058Y17775014D01*
X29000000Y17659095D01*
X27930406Y17659095D01*
X27928505Y17665361D01*
X27900648Y17717478D01*
X27863159Y17763159D01*
X27817478Y17800648D01*
X27765361Y17828505D01*
X27708810Y17845660D01*
X27650000Y17851452D01*
X27425000Y17850000D01*
X27350000Y17775000D01*
X27150000Y17775000D01*
X27075000Y17850000D01*
X26850000Y17851452D01*
X26791190Y17845660D01*
X26734639Y17828505D01*
X26682522Y17800648D01*
X26636841Y17763159D01*
X26599352Y17717478D01*
X26571495Y17665361D01*
X26554340Y17608810D01*
X26548548Y17550000D01*
X21701452Y17550000D01*
X21695660Y17608810D01*
X21678505Y17665361D01*
X21650648Y17717478D01*
X21613159Y17763159D01*
X21567478Y17800648D01*
X21515361Y17828505D01*
X21458810Y17845660D01*
X21400000Y17851452D01*
X21175000Y17850000D01*
X21100000Y17775000D01*
X20900000Y17775000D01*
X20825000Y17850000D01*
X20600000Y17851452D01*
X20541190Y17845660D01*
X20484639Y17828505D01*
X20432522Y17800648D01*
X20386841Y17763159D01*
X20349352Y17717478D01*
X20321495Y17665361D01*
X20304340Y17608810D01*
X20298548Y17550000D01*
X7300000Y17550000D01*
X7300000Y19250000D01*
X20298549Y19250000D01*
X20298549Y18350000D01*
X20304341Y18291190D01*
X20321496Y18234640D01*
X20349353Y18182523D01*
X20386842Y18136842D01*
X20432523Y18099353D01*
X20484640Y18071496D01*
X20541190Y18054341D01*
X20600000Y18048549D01*
X21400000Y18048549D01*
X21458810Y18054341D01*
X21515360Y18071496D01*
X21567477Y18099353D01*
X21613158Y18136842D01*
X21650647Y18182523D01*
X21678504Y18234640D01*
X21695659Y18291190D01*
X21701451Y18350000D01*
X21701451Y19250000D01*
X21695659Y19308810D01*
X21678504Y19365360D01*
X21650647Y19417477D01*
X21613158Y19463158D01*
X21567477Y19500647D01*
X21539397Y19515656D01*
X21531713Y19534207D01*
X21466050Y19632478D01*
X21382478Y19716050D01*
X21284207Y19781713D01*
X21175014Y19826942D01*
X21059095Y19850000D01*
X20940905Y19850000D01*
X20824986Y19826942D01*
X20715793Y19781713D01*
X20617522Y19716050D01*
X20533950Y19632478D01*
X20468287Y19534207D01*
X20460603Y19515656D01*
X20432523Y19500647D01*
X20386842Y19463158D01*
X20349353Y19417477D01*
X20321496Y19365360D01*
X20304341Y19308810D01*
X20298549Y19250000D01*
X7300000Y19250000D01*
X7300000Y20500000D01*
X7896130Y20500000D01*
X7911577Y20343173D01*
X7957321Y20192373D01*
X8031607Y20053394D01*
X8131579Y19931579D01*
X8253394Y19831607D01*
X8392373Y19757321D01*
X8543173Y19711577D01*
X8700000Y19696130D01*
X8856827Y19711577D01*
X9007627Y19757321D01*
X9146606Y19831607D01*
X9237901Y19906531D01*
X10932428Y21601058D01*
X27538978Y21654097D01*
X27532523Y21650647D01*
X27486842Y21613158D01*
X27449353Y21567477D01*
X27421496Y21515360D01*
X27404341Y21458810D01*
X27398549Y21400000D01*
X27319635Y21400000D01*
X27299999Y21401934D01*
X27280363Y21400000D01*
X27280353Y21400000D01*
X27221586Y21394212D01*
X27146186Y21371340D01*
X27076697Y21334197D01*
X27015789Y21284211D01*
X27003263Y21268948D01*
X26934315Y21200000D01*
X26840905Y21200000D01*
X26724986Y21176942D01*
X26615793Y21131713D01*
X26517522Y21066050D01*
X26433950Y20982478D01*
X26368287Y20884207D01*
X26323058Y20775014D01*
X26300000Y20659095D01*
X26300000Y20540905D01*
X26323058Y20424986D01*
X26368287Y20315793D01*
X26433950Y20217522D01*
X26517522Y20133950D01*
X26615793Y20068287D01*
X26724986Y20023058D01*
X26840905Y20000000D01*
X26951472Y20000000D01*
X26933950Y19982478D01*
X26868287Y19884207D01*
X26823058Y19775014D01*
X26800000Y19659095D01*
X26800000Y19546527D01*
X26791190Y19545659D01*
X26734640Y19528504D01*
X26682523Y19500647D01*
X26636842Y19463158D01*
X26599353Y19417477D01*
X26571496Y19365360D01*
X26554341Y19308810D01*
X26548549Y19250000D01*
X26548549Y18350000D01*
X26554341Y18291190D01*
X26571496Y18234640D01*
X26599353Y18182523D01*
X26636842Y18136842D01*
X26682523Y18099353D01*
X26734640Y18071496D01*
X26791190Y18054341D01*
X26850000Y18048549D01*
X27650000Y18048549D01*
X27708810Y18054341D01*
X27765360Y18071496D01*
X27817477Y18099353D01*
X27863158Y18136842D01*
X27900647Y18182523D01*
X27928504Y18234640D01*
X27945659Y18291190D01*
X27951451Y18350000D01*
X27951451Y18800000D01*
X41898549Y18800000D01*
X41898549Y18000000D01*
X41904341Y17941190D01*
X41921496Y17884640D01*
X41949353Y17832523D01*
X41986842Y17786842D01*
X42032523Y17749353D01*
X42084640Y17721496D01*
X42141190Y17704341D01*
X42200000Y17698549D01*
X43100000Y17698549D01*
X43158810Y17704341D01*
X43215360Y17721496D01*
X43267477Y17749353D01*
X43313158Y17786842D01*
X43350647Y17832523D01*
X43378504Y17884640D01*
X43395659Y17941190D01*
X43401451Y18000000D01*
X43598548Y18000000D01*
X43604340Y17941190D01*
X43621495Y17884639D01*
X43649352Y17832522D01*
X43686841Y17786841D01*
X43732522Y17749352D01*
X43784639Y17721495D01*
X43841190Y17704340D01*
X43900000Y17698548D01*
X44175000Y17700000D01*
X44250000Y17775000D01*
X44250000Y18300000D01*
X44450000Y18300000D01*
X44450000Y17775000D01*
X44525000Y17700000D01*
X44800000Y17698548D01*
X44858810Y17704340D01*
X44915361Y17721495D01*
X44967478Y17749352D01*
X45013159Y17786841D01*
X45050648Y17832522D01*
X45078505Y17884639D01*
X45095660Y17941190D01*
X45101452Y18000000D01*
X45100000Y18225000D01*
X45025000Y18300000D01*
X44450000Y18300000D01*
X44250000Y18300000D01*
X43675000Y18300000D01*
X43600000Y18225000D01*
X43598548Y18000000D01*
X43401451Y18000000D01*
X43401451Y18800000D01*
X43598548Y18800000D01*
X43600000Y18575000D01*
X43675000Y18500000D01*
X44250000Y18500000D01*
X44250000Y19025000D01*
X44450000Y19025000D01*
X44450000Y18500000D01*
X45025000Y18500000D01*
X45100000Y18575000D01*
X45101452Y18800000D01*
X45095660Y18858810D01*
X45078505Y18915361D01*
X45050648Y18967478D01*
X45013159Y19013159D01*
X44967478Y19050648D01*
X44915361Y19078505D01*
X44858810Y19095660D01*
X44800000Y19101452D01*
X44525000Y19100000D01*
X44450000Y19025000D01*
X44250000Y19025000D01*
X44175000Y19100000D01*
X43900000Y19101452D01*
X43841190Y19095660D01*
X43784639Y19078505D01*
X43732522Y19050648D01*
X43686841Y19013159D01*
X43649352Y18967478D01*
X43621495Y18915361D01*
X43604340Y18858810D01*
X43598548Y18800000D01*
X43401451Y18800000D01*
X43396706Y18848178D01*
X43466050Y18917522D01*
X43531713Y19015793D01*
X43576942Y19124986D01*
X43600000Y19240905D01*
X43600000Y19359095D01*
X43576942Y19475014D01*
X43531713Y19584207D01*
X43466050Y19682478D01*
X43382478Y19766050D01*
X43284207Y19831713D01*
X43175014Y19876942D01*
X43059095Y19900000D01*
X42940905Y19900000D01*
X42824986Y19876942D01*
X42715793Y19831713D01*
X42617522Y19766050D01*
X42533950Y19682478D01*
X42468287Y19584207D01*
X42423058Y19475014D01*
X42411921Y19419027D01*
X42313823Y19320928D01*
X42294736Y19305264D01*
X42232254Y19229129D01*
X42185825Y19142266D01*
X42172626Y19098755D01*
X42141190Y19095659D01*
X42084640Y19078504D01*
X42032523Y19050647D01*
X41986842Y19013158D01*
X41949353Y18967477D01*
X41921496Y18915360D01*
X41904341Y18858810D01*
X41898549Y18800000D01*
X27951451Y18800000D01*
X27951451Y19250000D01*
X27945659Y19308810D01*
X27938540Y19332276D01*
X27976942Y19424986D01*
X28000000Y19540905D01*
X28000000Y19659095D01*
X27976942Y19775014D01*
X27931713Y19884207D01*
X27866050Y19982478D01*
X27782478Y20066050D01*
X27684207Y20131713D01*
X27575014Y20176942D01*
X27459095Y20200000D01*
X27348528Y20200000D01*
X27366050Y20217522D01*
X27431713Y20315793D01*
X27469763Y20407653D01*
X27486842Y20386842D01*
X27532523Y20349353D01*
X27584640Y20321496D01*
X27641190Y20304341D01*
X27700000Y20298549D01*
X28600000Y20298549D01*
X28658810Y20304341D01*
X28715360Y20321496D01*
X28767477Y20349353D01*
X28813158Y20386842D01*
X28850647Y20432523D01*
X28878504Y20484640D01*
X28895659Y20541190D01*
X28901451Y20600000D01*
X29098548Y20600000D01*
X29104340Y20541190D01*
X29121495Y20484639D01*
X29149352Y20432522D01*
X29186841Y20386841D01*
X29232522Y20349352D01*
X29284639Y20321495D01*
X29341190Y20304340D01*
X29400000Y20298548D01*
X29675000Y20300000D01*
X29750000Y20375000D01*
X29750000Y20900000D01*
X29950000Y20900000D01*
X29950000Y20375000D01*
X30025000Y20300000D01*
X30300000Y20298548D01*
X30358810Y20304340D01*
X30415361Y20321495D01*
X30467478Y20349352D01*
X30513159Y20386841D01*
X30550648Y20432522D01*
X30578505Y20484639D01*
X30595660Y20541190D01*
X30601452Y20600000D01*
X30600000Y20825000D01*
X30525000Y20900000D01*
X29950000Y20900000D01*
X29750000Y20900000D01*
X29175000Y20900000D01*
X29100000Y20825000D01*
X29098548Y20600000D01*
X28901451Y20600000D01*
X28901451Y21400000D01*
X28895659Y21458810D01*
X28878504Y21515360D01*
X28850647Y21567477D01*
X28813158Y21613158D01*
X28767477Y21650647D01*
X28753763Y21657977D01*
X29249194Y21659559D01*
X29232522Y21650648D01*
X29186841Y21613159D01*
X29149352Y21567478D01*
X29121495Y21515361D01*
X29104340Y21458810D01*
X29098548Y21400000D01*
X29100000Y21175000D01*
X29175000Y21100000D01*
X29750000Y21100000D01*
X29750000Y21120000D01*
X29950000Y21120000D01*
X29950000Y21100000D01*
X30525000Y21100000D01*
X30600000Y21175000D01*
X30601452Y21400000D01*
X30595660Y21458810D01*
X30578505Y21515361D01*
X30550648Y21567478D01*
X30513159Y21613159D01*
X30467478Y21650648D01*
X30443668Y21663374D01*
X41086289Y21697366D01*
X41176918Y21606737D01*
X41365271Y21480884D01*
X41574557Y21394194D01*
X41796735Y21350000D01*
X42023265Y21350000D01*
X42245443Y21394194D01*
X42454729Y21480884D01*
X42643082Y21606737D01*
X42803263Y21766918D01*
X42929116Y21955271D01*
X43015806Y22164557D01*
X43060000Y22386735D01*
X43060000Y22613265D01*
X43015806Y22835443D01*
X42929116Y23044729D01*
X42803263Y23233082D01*
X42686345Y23350000D01*
X43298549Y23350000D01*
X43298549Y21650000D01*
X43304341Y21591190D01*
X43321496Y21534640D01*
X43349353Y21482523D01*
X43386842Y21436842D01*
X43432523Y21399353D01*
X43484640Y21371496D01*
X43541190Y21354341D01*
X43600000Y21348549D01*
X45300000Y21348549D01*
X45358810Y21354341D01*
X45415360Y21371496D01*
X45467477Y21399353D01*
X45513158Y21436842D01*
X45550647Y21482523D01*
X45578504Y21534640D01*
X45595659Y21591190D01*
X45601451Y21650000D01*
X45601451Y21700000D01*
X45876044Y21700000D01*
X45886842Y21686842D01*
X45932523Y21649353D01*
X45984640Y21621496D01*
X46041190Y21604341D01*
X46100000Y21598549D01*
X47300000Y21598549D01*
X47358810Y21604341D01*
X47415360Y21621496D01*
X47467477Y21649353D01*
X47513158Y21686842D01*
X47550647Y21732523D01*
X47578504Y21784640D01*
X47595659Y21841190D01*
X47601451Y21900000D01*
X47798548Y21900000D01*
X47804340Y21841190D01*
X47821495Y21784639D01*
X47849352Y21732522D01*
X47886841Y21686841D01*
X47932522Y21649352D01*
X47984639Y21621495D01*
X48041190Y21604340D01*
X48100000Y21598548D01*
X48525000Y21600000D01*
X48600000Y21675000D01*
X48600000Y22400000D01*
X48800000Y22400000D01*
X48800000Y21675000D01*
X48875000Y21600000D01*
X49300000Y21598548D01*
X49358810Y21604340D01*
X49415361Y21621495D01*
X49467478Y21649352D01*
X49513159Y21686841D01*
X49550648Y21732522D01*
X49578505Y21784639D01*
X49595660Y21841190D01*
X49601452Y21900000D01*
X49600000Y22325000D01*
X49525000Y22400000D01*
X48800000Y22400000D01*
X48600000Y22400000D01*
X47875000Y22400000D01*
X47800000Y22325000D01*
X47798548Y21900000D01*
X47601451Y21900000D01*
X47601451Y23100000D01*
X47798548Y23100000D01*
X47800000Y22675000D01*
X47875000Y22600000D01*
X48600000Y22600000D01*
X48600000Y23325000D01*
X48800000Y23325000D01*
X48800000Y22600000D01*
X49525000Y22600000D01*
X49600000Y22675000D01*
X49601452Y23100000D01*
X49595660Y23158810D01*
X49578505Y23215361D01*
X49550648Y23267478D01*
X49513159Y23313159D01*
X49467478Y23350648D01*
X49415361Y23378505D01*
X49358810Y23395660D01*
X49300000Y23401452D01*
X48875000Y23400000D01*
X48800000Y23325000D01*
X48600000Y23325000D01*
X48525000Y23400000D01*
X48100000Y23401452D01*
X48041190Y23395660D01*
X47984639Y23378505D01*
X47932522Y23350648D01*
X47886841Y23313159D01*
X47849352Y23267478D01*
X47821495Y23215361D01*
X47804340Y23158810D01*
X47798548Y23100000D01*
X47601451Y23100000D01*
X47595659Y23158810D01*
X47578504Y23215360D01*
X47550647Y23267477D01*
X47513158Y23313158D01*
X47467477Y23350647D01*
X47415360Y23378504D01*
X47358810Y23395659D01*
X47300000Y23401451D01*
X46100000Y23401451D01*
X46041190Y23395659D01*
X45984640Y23378504D01*
X45932523Y23350647D01*
X45886842Y23313158D01*
X45876044Y23300000D01*
X45601451Y23300000D01*
X45601451Y23350000D01*
X45595659Y23408810D01*
X45578504Y23465360D01*
X45550647Y23517477D01*
X45513158Y23563158D01*
X45467477Y23600647D01*
X45415360Y23628504D01*
X45358810Y23645659D01*
X45300000Y23651451D01*
X43600000Y23651451D01*
X43541190Y23645659D01*
X43484640Y23628504D01*
X43432523Y23600647D01*
X43386842Y23563158D01*
X43349353Y23517477D01*
X43321496Y23465360D01*
X43304341Y23408810D01*
X43298549Y23350000D01*
X42686345Y23350000D01*
X42643082Y23393263D01*
X42454729Y23519116D01*
X42245443Y23605806D01*
X42023265Y23650000D01*
X41796735Y23650000D01*
X41574557Y23605806D01*
X41365271Y23519116D01*
X41176918Y23393263D01*
X41081011Y23297356D01*
X10638021Y23200125D01*
X10600000Y23203870D01*
X10559431Y23199874D01*
X10558153Y23199870D01*
X10520280Y23196018D01*
X10443173Y23188423D01*
X10441943Y23188050D01*
X10440656Y23187919D01*
X10366554Y23165181D01*
X10292372Y23142679D01*
X10291231Y23142069D01*
X10290002Y23141692D01*
X10221988Y23105058D01*
X10153393Y23068393D01*
X10152393Y23067572D01*
X10151262Y23066963D01*
X10091615Y23017692D01*
X10062099Y22993469D01*
X10061192Y22992562D01*
X10029766Y22966603D01*
X10005628Y22936998D01*
X8106531Y21037901D01*
X8031607Y20946606D01*
X7957321Y20807627D01*
X7911577Y20656827D01*
X7896130Y20500000D01*
X7300000Y20500000D01*
X7294236Y20558527D01*
X7277164Y20614805D01*
X7249441Y20666671D01*
X7212132Y20712132D01*
X7166671Y20749441D01*
X7114805Y20777164D01*
X7058527Y20794236D01*
X7000000Y20800000D01*
X325000Y20800000D01*
X325000Y25513265D01*
X6070000Y25513265D01*
X6070000Y25286735D01*
X6114194Y25064557D01*
X6200884Y24855271D01*
X6326737Y24666918D01*
X6486918Y24506737D01*
X6675271Y24380884D01*
X6884557Y24294194D01*
X7106735Y24250000D01*
X7333265Y24250000D01*
X7555443Y24294194D01*
X7764729Y24380884D01*
X7953082Y24506737D01*
X8113263Y24666918D01*
X8239116Y24855271D01*
X8325806Y25064557D01*
X8370000Y25286735D01*
X8370000Y25513265D01*
X8610000Y25513265D01*
X8610000Y25286735D01*
X8654194Y25064557D01*
X8740884Y24855271D01*
X8866737Y24666918D01*
X9026918Y24506737D01*
X9215271Y24380884D01*
X9424557Y24294194D01*
X9646735Y24250000D01*
X9873265Y24250000D01*
X10095443Y24294194D01*
X10304729Y24380884D01*
X10493082Y24506737D01*
X10653263Y24666918D01*
X10779116Y24855271D01*
X10865806Y25064557D01*
X10910000Y25286735D01*
X10910000Y25513265D01*
X11150000Y25513265D01*
X11150000Y25286735D01*
X11194194Y25064557D01*
X11280884Y24855271D01*
X11406737Y24666918D01*
X11566918Y24506737D01*
X11755271Y24380884D01*
X11964557Y24294194D01*
X12186735Y24250000D01*
X12413265Y24250000D01*
X12635443Y24294194D01*
X12844729Y24380884D01*
X13033082Y24506737D01*
X13193263Y24666918D01*
X13319116Y24855271D01*
X13405806Y25064557D01*
X13450000Y25286735D01*
X13450000Y25513265D01*
X13690000Y25513265D01*
X13690000Y25286735D01*
X13734194Y25064557D01*
X13820884Y24855271D01*
X13946737Y24666918D01*
X14106918Y24506737D01*
X14295271Y24380884D01*
X14504557Y24294194D01*
X14726735Y24250000D01*
X14953265Y24250000D01*
X15175443Y24294194D01*
X15384729Y24380884D01*
X15573082Y24506737D01*
X15733263Y24666918D01*
X15859116Y24855271D01*
X15945806Y25064557D01*
X15990000Y25286735D01*
X15990000Y25513265D01*
X16230000Y25513265D01*
X16230000Y25286735D01*
X16274194Y25064557D01*
X16360884Y24855271D01*
X16486737Y24666918D01*
X16646918Y24506737D01*
X16835271Y24380884D01*
X17044557Y24294194D01*
X17266735Y24250000D01*
X17493265Y24250000D01*
X17715443Y24294194D01*
X17924729Y24380884D01*
X18113082Y24506737D01*
X18273263Y24666918D01*
X18399116Y24855271D01*
X18485806Y25064557D01*
X18530000Y25286735D01*
X18530000Y25513265D01*
X18770000Y25513265D01*
X18770000Y25286735D01*
X18814194Y25064557D01*
X18900884Y24855271D01*
X19026737Y24666918D01*
X19186918Y24506737D01*
X19375271Y24380884D01*
X19584557Y24294194D01*
X19806735Y24250000D01*
X20033265Y24250000D01*
X20255443Y24294194D01*
X20464729Y24380884D01*
X20653082Y24506737D01*
X20813263Y24666918D01*
X20939116Y24855271D01*
X21025806Y25064557D01*
X21070000Y25286735D01*
X21070000Y25513265D01*
X21310000Y25513265D01*
X21310000Y25286735D01*
X21354194Y25064557D01*
X21440884Y24855271D01*
X21566737Y24666918D01*
X21726918Y24506737D01*
X21915271Y24380884D01*
X22124557Y24294194D01*
X22346735Y24250000D01*
X22573265Y24250000D01*
X22795443Y24294194D01*
X23004729Y24380884D01*
X23193082Y24506737D01*
X23353263Y24666918D01*
X23479116Y24855271D01*
X23565806Y25064557D01*
X23610000Y25286735D01*
X23610000Y25513265D01*
X23565806Y25735443D01*
X23479116Y25944729D01*
X23353263Y26133082D01*
X23236345Y26250000D01*
X23848549Y26250000D01*
X23848549Y24550000D01*
X23854341Y24491190D01*
X23871496Y24434640D01*
X23899353Y24382523D01*
X23936842Y24336842D01*
X23982523Y24299353D01*
X24034640Y24271496D01*
X24091190Y24254341D01*
X24150000Y24248549D01*
X25850000Y24248549D01*
X25908810Y24254341D01*
X25965360Y24271496D01*
X26017477Y24299353D01*
X26063158Y24336842D01*
X26100647Y24382523D01*
X26128504Y24434640D01*
X26145659Y24491190D01*
X26151451Y24550000D01*
X26151451Y25513265D01*
X30600000Y25513265D01*
X30600000Y25286735D01*
X30644194Y25064557D01*
X30730884Y24855271D01*
X30856737Y24666918D01*
X31016918Y24506737D01*
X31205271Y24380884D01*
X31414557Y24294194D01*
X31636735Y24250000D01*
X31863265Y24250000D01*
X32085443Y24294194D01*
X32294729Y24380884D01*
X32483082Y24506737D01*
X32643263Y24666918D01*
X32769116Y24855271D01*
X32855806Y25064557D01*
X32900000Y25286735D01*
X32900000Y25513265D01*
X33140000Y25513265D01*
X33140000Y25286735D01*
X33184194Y25064557D01*
X33270884Y24855271D01*
X33396737Y24666918D01*
X33556918Y24506737D01*
X33745271Y24380884D01*
X33954557Y24294194D01*
X34176735Y24250000D01*
X34403265Y24250000D01*
X34625443Y24294194D01*
X34834729Y24380884D01*
X35023082Y24506737D01*
X35183263Y24666918D01*
X35309116Y24855271D01*
X35395806Y25064557D01*
X35407234Y25122012D01*
X35714099Y25122012D01*
X35789773Y24909652D01*
X35905423Y24716136D01*
X36056604Y24548900D01*
X36237506Y24414372D01*
X36441177Y24317721D01*
X36552013Y24284104D01*
X36730000Y24329661D01*
X36730000Y25300000D01*
X36930000Y25300000D01*
X36930000Y24329661D01*
X37107987Y24284104D01*
X37218823Y24317721D01*
X37422494Y24414372D01*
X37603396Y24548900D01*
X37754577Y24716136D01*
X37870227Y24909652D01*
X37945901Y25122012D01*
X38254099Y25122012D01*
X38329773Y24909652D01*
X38445423Y24716136D01*
X38596604Y24548900D01*
X38777506Y24414372D01*
X38981177Y24317721D01*
X39092013Y24284104D01*
X39270000Y24329661D01*
X39270000Y25300000D01*
X39470000Y25300000D01*
X39470000Y24329661D01*
X39647987Y24284104D01*
X39758823Y24317721D01*
X39962494Y24414372D01*
X40143396Y24548900D01*
X40294577Y24716136D01*
X40410227Y24909652D01*
X40485901Y25122012D01*
X40440649Y25300000D01*
X39470000Y25300000D01*
X39270000Y25300000D01*
X38299351Y25300000D01*
X38254099Y25122012D01*
X37945901Y25122012D01*
X37900649Y25300000D01*
X36930000Y25300000D01*
X36730000Y25300000D01*
X35759351Y25300000D01*
X35714099Y25122012D01*
X35407234Y25122012D01*
X35440000Y25286735D01*
X35440000Y25513265D01*
X35407235Y25677988D01*
X35714099Y25677988D01*
X35759351Y25500000D01*
X36730000Y25500000D01*
X36730000Y26470339D01*
X36930000Y26470339D01*
X36930000Y25500000D01*
X37900649Y25500000D01*
X37945901Y25677988D01*
X38254099Y25677988D01*
X38299351Y25500000D01*
X39270000Y25500000D01*
X39270000Y26470339D01*
X39470000Y26470339D01*
X39470000Y25500000D01*
X40440649Y25500000D01*
X40444021Y25513265D01*
X40760000Y25513265D01*
X40760000Y25286735D01*
X40804194Y25064557D01*
X40890884Y24855271D01*
X41016737Y24666918D01*
X41176918Y24506737D01*
X41365271Y24380884D01*
X41574557Y24294194D01*
X41796735Y24250000D01*
X42023265Y24250000D01*
X42245443Y24294194D01*
X42454729Y24380884D01*
X42643082Y24506737D01*
X42803263Y24666918D01*
X42929116Y24855271D01*
X43015806Y25064557D01*
X43060000Y25286735D01*
X43060000Y25513265D01*
X43300000Y25513265D01*
X43300000Y25286735D01*
X43344194Y25064557D01*
X43430884Y24855271D01*
X43556737Y24666918D01*
X43716918Y24506737D01*
X43905271Y24380884D01*
X44114557Y24294194D01*
X44336735Y24250000D01*
X44563265Y24250000D01*
X44785443Y24294194D01*
X44994729Y24380884D01*
X45183082Y24506737D01*
X45343263Y24666918D01*
X45469116Y24855271D01*
X45555806Y25064557D01*
X45567234Y25122012D01*
X45874099Y25122012D01*
X45949773Y24909652D01*
X46065423Y24716136D01*
X46216604Y24548900D01*
X46397506Y24414372D01*
X46601177Y24317721D01*
X46712013Y24284104D01*
X46890000Y24329661D01*
X46890000Y25300000D01*
X47090000Y25300000D01*
X47090000Y24329661D01*
X47267987Y24284104D01*
X47378823Y24317721D01*
X47582494Y24414372D01*
X47763396Y24548900D01*
X47764390Y24550000D01*
X48378548Y24550000D01*
X48384340Y24491190D01*
X48401495Y24434639D01*
X48429352Y24382522D01*
X48466841Y24336841D01*
X48512522Y24299352D01*
X48564639Y24271495D01*
X48621190Y24254340D01*
X48680000Y24248548D01*
X49355000Y24250000D01*
X49430000Y24325000D01*
X49430000Y25300000D01*
X49630000Y25300000D01*
X49630000Y24325000D01*
X49705000Y24250000D01*
X50380000Y24248548D01*
X50438810Y24254340D01*
X50495361Y24271495D01*
X50547478Y24299352D01*
X50593159Y24336841D01*
X50630648Y24382522D01*
X50658505Y24434639D01*
X50675660Y24491190D01*
X50681452Y24550000D01*
X50680000Y25225000D01*
X50605000Y25300000D01*
X49630000Y25300000D01*
X49430000Y25300000D01*
X48455000Y25300000D01*
X48380000Y25225000D01*
X48378548Y24550000D01*
X47764390Y24550000D01*
X47914577Y24716136D01*
X48030227Y24909652D01*
X48105901Y25122012D01*
X48060649Y25300000D01*
X47090000Y25300000D01*
X46890000Y25300000D01*
X45919351Y25300000D01*
X45874099Y25122012D01*
X45567234Y25122012D01*
X45600000Y25286735D01*
X45600000Y25513265D01*
X45567235Y25677988D01*
X45874099Y25677988D01*
X45919351Y25500000D01*
X46890000Y25500000D01*
X46890000Y26470339D01*
X47090000Y26470339D01*
X47090000Y25500000D01*
X48060649Y25500000D01*
X48105901Y25677988D01*
X48030227Y25890348D01*
X47914577Y26083864D01*
X47764391Y26250000D01*
X48378548Y26250000D01*
X48380000Y25575000D01*
X48455000Y25500000D01*
X49430000Y25500000D01*
X49430000Y26475000D01*
X49630000Y26475000D01*
X49630000Y25500000D01*
X50605000Y25500000D01*
X50680000Y25575000D01*
X50681452Y26250000D01*
X50675660Y26308810D01*
X50658505Y26365361D01*
X50630648Y26417478D01*
X50593159Y26463159D01*
X50547478Y26500648D01*
X50495361Y26528505D01*
X50438810Y26545660D01*
X50380000Y26551452D01*
X49705000Y26550000D01*
X49630000Y26475000D01*
X49430000Y26475000D01*
X49355000Y26550000D01*
X48680000Y26551452D01*
X48621190Y26545660D01*
X48564639Y26528505D01*
X48512522Y26500648D01*
X48466841Y26463159D01*
X48429352Y26417478D01*
X48401495Y26365361D01*
X48384340Y26308810D01*
X48378548Y26250000D01*
X47764391Y26250000D01*
X47763396Y26251100D01*
X47582494Y26385628D01*
X47378823Y26482279D01*
X47267987Y26515896D01*
X47090000Y26470339D01*
X46890000Y26470339D01*
X46712013Y26515896D01*
X46601177Y26482279D01*
X46397506Y26385628D01*
X46216604Y26251100D01*
X46065423Y26083864D01*
X45949773Y25890348D01*
X45874099Y25677988D01*
X45567235Y25677988D01*
X45555806Y25735443D01*
X45469116Y25944729D01*
X45343263Y26133082D01*
X45183082Y26293263D01*
X44994729Y26419116D01*
X44785443Y26505806D01*
X44563265Y26550000D01*
X44336735Y26550000D01*
X44114557Y26505806D01*
X43905271Y26419116D01*
X43716918Y26293263D01*
X43556737Y26133082D01*
X43430884Y25944729D01*
X43344194Y25735443D01*
X43300000Y25513265D01*
X43060000Y25513265D01*
X43015806Y25735443D01*
X42929116Y25944729D01*
X42803263Y26133082D01*
X42643082Y26293263D01*
X42454729Y26419116D01*
X42245443Y26505806D01*
X42023265Y26550000D01*
X41796735Y26550000D01*
X41574557Y26505806D01*
X41365271Y26419116D01*
X41176918Y26293263D01*
X41016737Y26133082D01*
X40890884Y25944729D01*
X40804194Y25735443D01*
X40760000Y25513265D01*
X40444021Y25513265D01*
X40485901Y25677988D01*
X40410227Y25890348D01*
X40294577Y26083864D01*
X40143396Y26251100D01*
X39962494Y26385628D01*
X39758823Y26482279D01*
X39647987Y26515896D01*
X39470000Y26470339D01*
X39270000Y26470339D01*
X39092013Y26515896D01*
X38981177Y26482279D01*
X38777506Y26385628D01*
X38596604Y26251100D01*
X38445423Y26083864D01*
X38329773Y25890348D01*
X38254099Y25677988D01*
X37945901Y25677988D01*
X37870227Y25890348D01*
X37754577Y26083864D01*
X37603396Y26251100D01*
X37422494Y26385628D01*
X37218823Y26482279D01*
X37107987Y26515896D01*
X36930000Y26470339D01*
X36730000Y26470339D01*
X36552013Y26515896D01*
X36441177Y26482279D01*
X36237506Y26385628D01*
X36056604Y26251100D01*
X35905423Y26083864D01*
X35789773Y25890348D01*
X35714099Y25677988D01*
X35407235Y25677988D01*
X35395806Y25735443D01*
X35309116Y25944729D01*
X35183263Y26133082D01*
X35023082Y26293263D01*
X34834729Y26419116D01*
X34625443Y26505806D01*
X34403265Y26550000D01*
X34176735Y26550000D01*
X33954557Y26505806D01*
X33745271Y26419116D01*
X33556918Y26293263D01*
X33396737Y26133082D01*
X33270884Y25944729D01*
X33184194Y25735443D01*
X33140000Y25513265D01*
X32900000Y25513265D01*
X32855806Y25735443D01*
X32769116Y25944729D01*
X32643263Y26133082D01*
X32483082Y26293263D01*
X32294729Y26419116D01*
X32085443Y26505806D01*
X31863265Y26550000D01*
X31636735Y26550000D01*
X31414557Y26505806D01*
X31205271Y26419116D01*
X31016918Y26293263D01*
X30856737Y26133082D01*
X30730884Y25944729D01*
X30644194Y25735443D01*
X30600000Y25513265D01*
X26151451Y25513265D01*
X26151451Y26250000D01*
X26145659Y26308810D01*
X26128504Y26365360D01*
X26100647Y26417477D01*
X26063158Y26463158D01*
X26017477Y26500647D01*
X25965360Y26528504D01*
X25908810Y26545659D01*
X25850000Y26551451D01*
X24150000Y26551451D01*
X24091190Y26545659D01*
X24034640Y26528504D01*
X23982523Y26500647D01*
X23936842Y26463158D01*
X23899353Y26417477D01*
X23871496Y26365360D01*
X23854341Y26308810D01*
X23848549Y26250000D01*
X23236345Y26250000D01*
X23193082Y26293263D01*
X23004729Y26419116D01*
X22795443Y26505806D01*
X22573265Y26550000D01*
X22346735Y26550000D01*
X22124557Y26505806D01*
X21915271Y26419116D01*
X21726918Y26293263D01*
X21566737Y26133082D01*
X21440884Y25944729D01*
X21354194Y25735443D01*
X21310000Y25513265D01*
X21070000Y25513265D01*
X21025806Y25735443D01*
X20939116Y25944729D01*
X20813263Y26133082D01*
X20653082Y26293263D01*
X20464729Y26419116D01*
X20255443Y26505806D01*
X20033265Y26550000D01*
X19806735Y26550000D01*
X19584557Y26505806D01*
X19375271Y26419116D01*
X19186918Y26293263D01*
X19026737Y26133082D01*
X18900884Y25944729D01*
X18814194Y25735443D01*
X18770000Y25513265D01*
X18530000Y25513265D01*
X18485806Y25735443D01*
X18399116Y25944729D01*
X18273263Y26133082D01*
X18113082Y26293263D01*
X17924729Y26419116D01*
X17715443Y26505806D01*
X17493265Y26550000D01*
X17266735Y26550000D01*
X17044557Y26505806D01*
X16835271Y26419116D01*
X16646918Y26293263D01*
X16486737Y26133082D01*
X16360884Y25944729D01*
X16274194Y25735443D01*
X16230000Y25513265D01*
X15990000Y25513265D01*
X15945806Y25735443D01*
X15859116Y25944729D01*
X15733263Y26133082D01*
X15573082Y26293263D01*
X15384729Y26419116D01*
X15175443Y26505806D01*
X14953265Y26550000D01*
X14726735Y26550000D01*
X14504557Y26505806D01*
X14295271Y26419116D01*
X14106918Y26293263D01*
X13946737Y26133082D01*
X13820884Y25944729D01*
X13734194Y25735443D01*
X13690000Y25513265D01*
X13450000Y25513265D01*
X13405806Y25735443D01*
X13319116Y25944729D01*
X13193263Y26133082D01*
X13033082Y26293263D01*
X12844729Y26419116D01*
X12635443Y26505806D01*
X12413265Y26550000D01*
X12186735Y26550000D01*
X11964557Y26505806D01*
X11755271Y26419116D01*
X11566918Y26293263D01*
X11406737Y26133082D01*
X11280884Y25944729D01*
X11194194Y25735443D01*
X11150000Y25513265D01*
X10910000Y25513265D01*
X10865806Y25735443D01*
X10779116Y25944729D01*
X10653263Y26133082D01*
X10493082Y26293263D01*
X10304729Y26419116D01*
X10095443Y26505806D01*
X9873265Y26550000D01*
X9646735Y26550000D01*
X9424557Y26505806D01*
X9215271Y26419116D01*
X9026918Y26293263D01*
X8866737Y26133082D01*
X8740884Y25944729D01*
X8654194Y25735443D01*
X8610000Y25513265D01*
X8370000Y25513265D01*
X8325806Y25735443D01*
X8239116Y25944729D01*
X8113263Y26133082D01*
X7953082Y26293263D01*
X7764729Y26419116D01*
X7555443Y26505806D01*
X7333265Y26550000D01*
X7106735Y26550000D01*
X6884557Y26505806D01*
X6675271Y26419116D01*
X6486918Y26293263D01*
X6326737Y26133082D01*
X6200884Y25944729D01*
X6114194Y25735443D01*
X6070000Y25513265D01*
X325000Y25513265D01*
X325000Y27575000D01*
X51675001Y27575000D01*
X51675000Y325000D01*
G04 #@! TO.N,/Processor+USB/VBUS*
G36*
X8100000Y12958578D02*
G01*
X8100000Y12441422D01*
X7958578Y12300000D01*
X6741422Y12300000D01*
X6679567Y12361855D01*
X6678504Y12365360D01*
X6650647Y12417477D01*
X6613158Y12463158D01*
X6567477Y12500647D01*
X6515360Y12528504D01*
X6511855Y12529567D01*
X6470711Y12570711D01*
X6455557Y12583147D01*
X6438268Y12592388D01*
X6419509Y12598079D01*
X6400000Y12600000D01*
X5100000Y12600000D01*
X5100000Y12800000D01*
X6400000Y12800000D01*
X6419509Y12801921D01*
X6438268Y12807612D01*
X6455557Y12816853D01*
X6470711Y12829289D01*
X6511855Y12870433D01*
X6515360Y12871496D01*
X6567477Y12899353D01*
X6613158Y12936842D01*
X6624096Y12950170D01*
X6642401Y12950308D01*
X6660259Y12954000D01*
X6678414Y12955788D01*
X6698757Y12961959D01*
X6719562Y12966260D01*
X6736353Y12973363D01*
X6753814Y12978660D01*
X6772564Y12988682D01*
X6792129Y12996959D01*
X6807213Y13007203D01*
X6823303Y13015803D01*
X6839736Y13029289D01*
X6840980Y13030134D01*
X6854897Y13041731D01*
X6884211Y13065789D01*
X6885174Y13066963D01*
X6894819Y13075000D01*
X7983578Y13075000D01*
X8100000Y12958578D01*
G37*
X8100000Y12958578D02*
X8100000Y12441422D01*
X7958578Y12300000D01*
X6741422Y12300000D01*
X6679567Y12361855D01*
X6678504Y12365360D01*
X6650647Y12417477D01*
X6613158Y12463158D01*
X6567477Y12500647D01*
X6515360Y12528504D01*
X6511855Y12529567D01*
X6470711Y12570711D01*
X6455557Y12583147D01*
X6438268Y12592388D01*
X6419509Y12598079D01*
X6400000Y12600000D01*
X5100000Y12600000D01*
X5100000Y12800000D01*
X6400000Y12800000D01*
X6419509Y12801921D01*
X6438268Y12807612D01*
X6455557Y12816853D01*
X6470711Y12829289D01*
X6511855Y12870433D01*
X6515360Y12871496D01*
X6567477Y12899353D01*
X6613158Y12936842D01*
X6624096Y12950170D01*
X6642401Y12950308D01*
X6660259Y12954000D01*
X6678414Y12955788D01*
X6698757Y12961959D01*
X6719562Y12966260D01*
X6736353Y12973363D01*
X6753814Y12978660D01*
X6772564Y12988682D01*
X6792129Y12996959D01*
X6807213Y13007203D01*
X6823303Y13015803D01*
X6839736Y13029289D01*
X6840980Y13030134D01*
X6854897Y13041731D01*
X6884211Y13065789D01*
X6885174Y13066963D01*
X6894819Y13075000D01*
X7983578Y13075000D01*
X8100000Y12958578D01*
G04 #@! TD*
M02*
