  0
SECTION
  2
HEADER
  9
$ANGBASE
  50
0.0
  9
$ANGDIR
  70
1
  9
$MEASUREMENT
  70
1
  0
ENDSEC
  0
SECTION
  2
TABLES
  0
TABLE
  2
LTYPE
  70
4
  0
LTYPE
  5
40F
  2
CONTINUOUS
  70
0
  3
Solid line
  72
65
  73
0
  40
0.0
  0
LTYPE
  5
410
  2
DASHDOT
 70
0
  3
Dash Dot ____ _ ____ _
 72
65
 73
4
 40
2.0
 49
1.25
 49
-0.25
 49
0.25
 49
-0.25
  0
LTYPE
  5
411
  2
DASHED
 70
0
  3
Dashed __ __ __ __ __
 72
65
 73
2
 40
0.75
 49
0.5
 49
-0.25
  0
LTYPE
  5
43B
  2
DOTTED
 70
0
  3
Dotted .  .  .  .
 72
65
 73
2
 40
0.2
 49
0.0
 49
-0.2
  0
ENDTAB
  0
TABLE
  2
STYLE
  70
4
  0
STYLE
  2
KICAD
  70
0
  40
0
  41
1
  42
1
  50
0
  71
0
  3
isocp.shx
  0
STYLE
  2
KICADB
  70
0
  40
0
  41
1
  42
1
  50
0
  71
0
  3
isocp.shx
  0
STYLE
  2
KICADI
  70
0
  40
0
  41
1
  42
1
  50
15
  71
0
  3
isocp.shx
  0
STYLE
  2
KICADBI
  70
0
  40
0
  41
1
  42
1
  50
15
  71
0
  3
isocp.shx
  0
ENDTAB
  0
TABLE
  2
LAYER
  70
1
  0
LAYER
  2
BLACK
  70
0
  62
7
  6
CONTINUOUS
  0
ENDTAB
  0
ENDSEC
  0
SECTION
  2
ENTITIES
0
LINE
8
BLACK
6
CONTINUOUS
10
120
20
-109.7
11
120
21
-120
0
LINE
8
BLACK
6
CONTINUOUS
10
120
20
-92.1
11
120
21
-102.3
0
LINE
8
BLACK
6
CONTINUOUS
10
172
20
-120
11
120
21
-120
0
LINE
8
BLACK
6
CONTINUOUS
10
172
20
-120
11
172
21
-92.1
0
LINE
8
BLACK
6
CONTINUOUS
10
120
20
-92.1
11
172
21
-92.1
0
LINE
8
BLACK
6
CONTINUOUS
10
129.35
20
-112.35
11
129.65
21
-112.65
0
LINE
8
BLACK
6
CONTINUOUS
10
129.65
20
-112.35
11
129.35
21
-112.65
0
LINE
8
BLACK
6
CONTINUOUS
10
130.45
20
-110.45
11
130.75
21
-110.75
0
LINE
8
BLACK
6
CONTINUOUS
10
130.75
20
-110.45
11
130.45
21
-110.75
0
LINE
8
BLACK
6
CONTINUOUS
10
130.45
20
-111.25
11
130.75
21
-111.55
0
LINE
8
BLACK
6
CONTINUOUS
10
130.75
20
-111.25
11
130.45
21
-111.55
0
LINE
8
BLACK
6
CONTINUOUS
10
131.25
20
-110.45
11
131.55
21
-110.75
0
LINE
8
BLACK
6
CONTINUOUS
10
131.55
20
-110.45
11
131.25
21
-110.75
0
LINE
8
BLACK
6
CONTINUOUS
10
131.25
20
-111.25
11
131.55
21
-111.55
0
LINE
8
BLACK
6
CONTINUOUS
10
131.55
20
-111.25
11
131.25
21
-111.55
0
LINE
8
BLACK
6
CONTINUOUS
10
132.4
20
-100.25
11
132.7
21
-100.55
0
LINE
8
BLACK
6
CONTINUOUS
10
132.7
20
-100.25
11
132.4
21
-100.55
0
LINE
8
BLACK
6
CONTINUOUS
10
133.25
20
-109.95
11
133.55
21
-110.25
0
LINE
8
BLACK
6
CONTINUOUS
10
133.55
20
-109.95
11
133.25
21
-110.25
0
LINE
8
BLACK
6
CONTINUOUS
10
134
20
-110.75
11
134.3
21
-111.05
0
LINE
8
BLACK
6
CONTINUOUS
10
134.3
20
-110.75
11
134
21
-111.05
0
LINE
8
BLACK
6
CONTINUOUS
10
134
20
-111.95
11
134.3
21
-112.25
0
LINE
8
BLACK
6
CONTINUOUS
10
134.3
20
-111.95
11
134
21
-112.25
0
LINE
8
BLACK
6
CONTINUOUS
10
134.55
20
-102.05
11
134.85
21
-102.35
0
LINE
8
BLACK
6
CONTINUOUS
10
134.85
20
-102.05
11
134.55
21
-102.35
0
LINE
8
BLACK
6
CONTINUOUS
10
136.65
20
-110.45
11
136.95
21
-110.75
0
LINE
8
BLACK
6
CONTINUOUS
10
136.95
20
-110.45
11
136.65
21
-110.75
0
LINE
8
BLACK
6
CONTINUOUS
10
136.65
20
-112.25
11
136.95
21
-112.55
0
LINE
8
BLACK
6
CONTINUOUS
10
136.95
20
-112.25
11
136.65
21
-112.55
0
LINE
8
BLACK
6
CONTINUOUS
10
137.225
20
-105.775
11
137.525
21
-106.075
0
LINE
8
BLACK
6
CONTINUOUS
10
137.525
20
-105.775
11
137.225
21
-106.075
0
LINE
8
BLACK
6
CONTINUOUS
10
137.25
20
-106.575
11
137.55
21
-106.875
0
LINE
8
BLACK
6
CONTINUOUS
10
137.55
20
-106.575
11
137.25
21
-106.875
0
LINE
8
BLACK
6
CONTINUOUS
10
138.55
20
-105.25
11
138.85
21
-105.55
0
LINE
8
BLACK
6
CONTINUOUS
10
138.85
20
-105.25
11
138.55
21
-105.55
0
LINE
8
BLACK
6
CONTINUOUS
10
138.55
20
-107.65
11
138.85
21
-107.95
0
LINE
8
BLACK
6
CONTINUOUS
10
138.85
20
-107.65
11
138.55
21
-107.95
0
LINE
8
BLACK
6
CONTINUOUS
10
138.75
20
-103.15
11
139.05
21
-103.45
0
LINE
8
BLACK
6
CONTINUOUS
10
139.05
20
-103.15
11
138.75
21
-103.45
0
LINE
8
BLACK
6
CONTINUOUS
10
140.85
20
-100.6
11
141.15
21
-100.9
0
LINE
8
BLACK
6
CONTINUOUS
10
141.15
20
-100.6
11
140.85
21
-100.9
0
LINE
8
BLACK
6
CONTINUOUS
10
141.45
20
-111.15
11
141.75
21
-111.45
0
LINE
8
BLACK
6
CONTINUOUS
10
141.75
20
-111.15
11
141.45
21
-111.45
0
LINE
8
BLACK
6
CONTINUOUS
10
142.25
20
-103.85
11
142.55
21
-104.15
0
LINE
8
BLACK
6
CONTINUOUS
10
142.55
20
-103.85
11
142.25
21
-104.15
0
LINE
8
BLACK
6
CONTINUOUS
10
142.25
20
-104.65
11
142.55
21
-104.95
0
LINE
8
BLACK
6
CONTINUOUS
10
142.55
20
-104.65
11
142.25
21
-104.95
0
LINE
8
BLACK
6
CONTINUOUS
10
142.25
20
-105.45
11
142.55
21
-105.75
0
LINE
8
BLACK
6
CONTINUOUS
10
142.55
20
-105.45
11
142.25
21
-105.75
0
LINE
8
BLACK
6
CONTINUOUS
10
142.25
20
-106.25
11
142.55
21
-106.55
0
LINE
8
BLACK
6
CONTINUOUS
10
142.55
20
-106.25
11
142.25
21
-106.55
0
LINE
8
BLACK
6
CONTINUOUS
10
142.25
20
-107.05
11
142.55
21
-107.35
0
LINE
8
BLACK
6
CONTINUOUS
10
142.55
20
-107.05
11
142.25
21
-107.35
0
LINE
8
BLACK
6
CONTINUOUS
10
142.25
20
-107.85
11
142.55
21
-108.15
0
LINE
8
BLACK
6
CONTINUOUS
10
142.55
20
-107.85
11
142.25
21
-108.15
0
LINE
8
BLACK
6
CONTINUOUS
10
143.05
20
-103.85
11
143.35
21
-104.15
0
LINE
8
BLACK
6
CONTINUOUS
10
143.35
20
-103.85
11
143.05
21
-104.15
0
LINE
8
BLACK
6
CONTINUOUS
10
143.05
20
-104.65
11
143.35
21
-104.95
0
LINE
8
BLACK
6
CONTINUOUS
10
143.35
20
-104.65
11
143.05
21
-104.95
0
LINE
8
BLACK
6
CONTINUOUS
10
143.05
20
-105.45
11
143.35
21
-105.75
0
LINE
8
BLACK
6
CONTINUOUS
10
143.35
20
-105.45
11
143.05
21
-105.75
0
LINE
8
BLACK
6
CONTINUOUS
10
143.05
20
-106.25
11
143.35
21
-106.55
0
LINE
8
BLACK
6
CONTINUOUS
10
143.35
20
-106.25
11
143.05
21
-106.55
0
LINE
8
BLACK
6
CONTINUOUS
10
143.05
20
-107.05
11
143.35
21
-107.35
0
LINE
8
BLACK
6
CONTINUOUS
10
143.35
20
-107.05
11
143.05
21
-107.35
0
LINE
8
BLACK
6
CONTINUOUS
10
143.05
20
-107.85
11
143.35
21
-108.15
0
LINE
8
BLACK
6
CONTINUOUS
10
143.35
20
-107.85
11
143.05
21
-108.15
0
LINE
8
BLACK
6
CONTINUOUS
10
143.85
20
-103.85
11
144.15
21
-104.15
0
LINE
8
BLACK
6
CONTINUOUS
10
144.15
20
-103.85
11
143.85
21
-104.15
0
LINE
8
BLACK
6
CONTINUOUS
10
143.85
20
-104.65
11
144.15
21
-104.95
0
LINE
8
BLACK
6
CONTINUOUS
10
144.15
20
-104.65
11
143.85
21
-104.95
0
LINE
8
BLACK
6
CONTINUOUS
10
143.85
20
-105.45
11
144.15
21
-105.75
0
LINE
8
BLACK
6
CONTINUOUS
10
144.15
20
-105.45
11
143.85
21
-105.75
0
LINE
8
BLACK
6
CONTINUOUS
10
143.85
20
-106.25
11
144.15
21
-106.55
0
LINE
8
BLACK
6
CONTINUOUS
10
144.15
20
-106.25
11
143.85
21
-106.55
0
LINE
8
BLACK
6
CONTINUOUS
10
143.85
20
-107.05
11
144.15
21
-107.35
0
LINE
8
BLACK
6
CONTINUOUS
10
144.15
20
-107.05
11
143.85
21
-107.35
0
LINE
8
BLACK
6
CONTINUOUS
10
143.85
20
-107.85
11
144.15
21
-108.15
0
LINE
8
BLACK
6
CONTINUOUS
10
144.15
20
-107.85
11
143.85
21
-108.15
0
LINE
8
BLACK
6
CONTINUOUS
10
144.65
20
-103.85
11
144.95
21
-104.15
0
LINE
8
BLACK
6
CONTINUOUS
10
144.95
20
-103.85
11
144.65
21
-104.15
0
LINE
8
BLACK
6
CONTINUOUS
10
144.65
20
-104.65
11
144.95
21
-104.95
0
LINE
8
BLACK
6
CONTINUOUS
10
144.95
20
-104.65
11
144.65
21
-104.95
0
LINE
8
BLACK
6
CONTINUOUS
10
144.65
20
-105.45
11
144.95
21
-105.75
0
LINE
8
BLACK
6
CONTINUOUS
10
144.95
20
-105.45
11
144.65
21
-105.75
0
LINE
8
BLACK
6
CONTINUOUS
10
144.65
20
-106.25
11
144.95
21
-106.55
0
LINE
8
BLACK
6
CONTINUOUS
10
144.95
20
-106.25
11
144.65
21
-106.55
0
LINE
8
BLACK
6
CONTINUOUS
10
144.65
20
-107.05
11
144.95
21
-107.35
0
LINE
8
BLACK
6
CONTINUOUS
10
144.95
20
-107.05
11
144.65
21
-107.35
0
LINE
8
BLACK
6
CONTINUOUS
10
144.65
20
-107.85
11
144.95
21
-108.15
0
LINE
8
BLACK
6
CONTINUOUS
10
144.95
20
-107.85
11
144.65
21
-108.15
0
LINE
8
BLACK
6
CONTINUOUS
10
145.45
20
-103.85
11
145.75
21
-104.15
0
LINE
8
BLACK
6
CONTINUOUS
10
145.75
20
-103.85
11
145.45
21
-104.15
0
LINE
8
BLACK
6
CONTINUOUS
10
145.45
20
-104.65
11
145.75
21
-104.95
0
LINE
8
BLACK
6
CONTINUOUS
10
145.75
20
-104.65
11
145.45
21
-104.95
0
LINE
8
BLACK
6
CONTINUOUS
10
145.45
20
-105.45
11
145.75
21
-105.75
0
LINE
8
BLACK
6
CONTINUOUS
10
145.75
20
-105.45
11
145.45
21
-105.75
0
LINE
8
BLACK
6
CONTINUOUS
10
145.45
20
-106.25
11
145.75
21
-106.55
0
LINE
8
BLACK
6
CONTINUOUS
10
145.75
20
-106.25
11
145.45
21
-106.55
0
LINE
8
BLACK
6
CONTINUOUS
10
145.45
20
-107.05
11
145.75
21
-107.35
0
LINE
8
BLACK
6
CONTINUOUS
10
145.75
20
-107.05
11
145.45
21
-107.35
0
LINE
8
BLACK
6
CONTINUOUS
10
145.45
20
-107.85
11
145.75
21
-108.15
0
LINE
8
BLACK
6
CONTINUOUS
10
145.75
20
-107.85
11
145.45
21
-108.15
0
LINE
8
BLACK
6
CONTINUOUS
10
146.05
20
-114.95
11
146.35
21
-115.25
0
LINE
8
BLACK
6
CONTINUOUS
10
146.35
20
-114.95
11
146.05
21
-115.25
0
LINE
8
BLACK
6
CONTINUOUS
10
146.75
20
-99.25
11
147.05
21
-99.55
0
LINE
8
BLACK
6
CONTINUOUS
10
147.05
20
-99.25
11
146.75
21
-99.55
0
LINE
8
BLACK
6
CONTINUOUS
10
146.85
20
-111.1
11
147.15
21
-111.4
0
LINE
8
BLACK
6
CONTINUOUS
10
147.15
20
-111.1
11
146.85
21
-111.4
0
LINE
8
BLACK
6
CONTINUOUS
10
147.25
20
-100.25
11
147.55
21
-100.55
0
LINE
8
BLACK
6
CONTINUOUS
10
147.55
20
-100.25
11
147.25
21
-100.55
0
LINE
8
BLACK
6
CONTINUOUS
10
149.45
20
-102.25
11
149.75
21
-102.55
0
LINE
8
BLACK
6
CONTINUOUS
10
149.75
20
-102.25
11
149.45
21
-102.55
0
LINE
8
BLACK
6
CONTINUOUS
10
149.65
20
-107.85
11
149.95
21
-108.15
0
LINE
8
BLACK
6
CONTINUOUS
10
149.95
20
-107.85
11
149.65
21
-108.15
0
LINE
8
BLACK
6
CONTINUOUS
10
162.55
20
-104.75
11
162.85
21
-105.05
0
LINE
8
BLACK
6
CONTINUOUS
10
162.85
20
-104.75
11
162.55
21
-105.05
0
LINE
8
BLACK
6
CONTINUOUS
10
162.65
20
-102.65
11
162.95
21
-102.95
0
LINE
8
BLACK
6
CONTINUOUS
10
162.95
20
-102.65
11
162.65
21
-102.95
0
LINE
8
BLACK
6
CONTINUOUS
10
162.85
20
-100.55
11
163.15
21
-100.85
0
LINE
8
BLACK
6
CONTINUOUS
10
163.15
20
-100.55
11
162.85
21
-100.85
0
LINE
8
BLACK
6
CONTINUOUS
10
163.35
20
-102.65
11
163.65
21
-102.95
0
LINE
8
BLACK
6
CONTINUOUS
10
163.65
20
-102.65
11
163.35
21
-102.95
0
LINE
8
BLACK
6
CONTINUOUS
10
164.05
20
-102.65
11
164.35
21
-102.95
0
LINE
8
BLACK
6
CONTINUOUS
10
164.35
20
-102.65
11
164.05
21
-102.95
0
CIRCLE
8
BLACK
10
127.7
20
-107.3
40
0.25
0
CIRCLE
8
BLACK
10
128.7
20
-99.5
40
0.25
0
LINE
8
BLACK
6
CONTINUOUS
10
121.6
20
-100.5
11
121.6
21
-101.3
0
LINE
8
BLACK
6
CONTINUOUS
10
121.2
20
-100.9
11
122
21
-100.9
0
LINE
8
BLACK
6
CONTINUOUS
10
121.25
20
-101.3
11
121.95
21
-101.3
0
LINE
8
BLACK
6
CONTINUOUS
10
121.25
20
-100.5
11
121.95
21
-100.5
0
ARC
8
BLACK
10
121.95
20
-100.9
40
0.4
50
270
51
450
0
ARC
8
BLACK
10
121.25
20
-100.9
40
0.4
50
90
51
270
0
LINE
8
BLACK
6
CONTINUOUS
10
121.6
20
-110.7
11
121.6
21
-111.5
0
LINE
8
BLACK
6
CONTINUOUS
10
121.2
20
-111.1
11
122
21
-111.1
0
LINE
8
BLACK
6
CONTINUOUS
10
121.25
20
-111.5
11
121.95
21
-111.5
0
LINE
8
BLACK
6
CONTINUOUS
10
121.25
20
-110.7
11
121.95
21
-110.7
0
ARC
8
BLACK
10
121.95
20
-111.1
40
0.4
50
270
51
450
0
ARC
8
BLACK
10
121.25
20
-111.1
40
0.4
50
90
51
270
0
LINE
8
BLACK
6
CONTINUOUS
10
125.3
20
-100.5
11
125.3
21
-101.3
0
LINE
8
BLACK
6
CONTINUOUS
10
124.9
20
-100.9
11
125.7
21
-100.9
0
LINE
8
BLACK
6
CONTINUOUS
10
124.95
20
-101.3
11
125.65
21
-101.3
0
LINE
8
BLACK
6
CONTINUOUS
10
124.95
20
-100.5
11
125.65
21
-100.5
0
ARC
8
BLACK
10
125.65
20
-100.9
40
0.4
50
270
51
450
0
ARC
8
BLACK
10
124.95
20
-100.9
40
0.4
50
90
51
270
0
LINE
8
BLACK
6
CONTINUOUS
10
125.3
20
-110.7
11
125.3
21
-111.5
0
LINE
8
BLACK
6
CONTINUOUS
10
124.9
20
-111.1
11
125.7
21
-111.1
0
LINE
8
BLACK
6
CONTINUOUS
10
124.95
20
-111.5
11
125.65
21
-111.5
0
LINE
8
BLACK
6
CONTINUOUS
10
124.95
20
-110.7
11
125.65
21
-110.7
0
ARC
8
BLACK
10
125.65
20
-111.1
40
0.4
50
270
51
450
0
ARC
8
BLACK
10
124.95
20
-111.1
40
0.4
50
90
51
270
0
LINE
8
BLACK
6
CONTINUOUS
10
147.024
20
-117.814
11
147.024
21
-117.106
0
LINE
8
BLACK
6
CONTINUOUS
10
147.024
20
-117.106
11
146.316
21
-117.106
0
LINE
8
BLACK
6
CONTINUOUS
10
146.316
20
-117.106
11
146.316
21
-117.814
0
LINE
8
BLACK
6
CONTINUOUS
10
146.316
20
-117.814
11
147.024
21
-117.814
0
LINE
8
BLACK
6
CONTINUOUS
10
149.564
20
-117.814
11
149.564
21
-117.106
0
LINE
8
BLACK
6
CONTINUOUS
10
149.564
20
-117.106
11
148.856
21
-117.106
0
LINE
8
BLACK
6
CONTINUOUS
10
148.856
20
-117.106
11
148.856
21
-117.814
0
LINE
8
BLACK
6
CONTINUOUS
10
148.856
20
-117.814
11
149.564
21
-117.814
0
LINE
8
BLACK
6
CONTINUOUS
10
126.704
20
-117.814
11
126.704
21
-117.106
0
LINE
8
BLACK
6
CONTINUOUS
10
126.704
20
-117.106
11
125.996
21
-117.106
0
LINE
8
BLACK
6
CONTINUOUS
10
125.996
20
-117.106
11
125.996
21
-117.814
0
LINE
8
BLACK
6
CONTINUOUS
10
125.996
20
-117.814
11
126.704
21
-117.814
0
LINE
8
BLACK
6
CONTINUOUS
10
129.244
20
-117.814
11
129.244
21
-117.106
0
LINE
8
BLACK
6
CONTINUOUS
10
129.244
20
-117.106
11
128.536
21
-117.106
0
LINE
8
BLACK
6
CONTINUOUS
10
128.536
20
-117.106
11
128.536
21
-117.814
0
LINE
8
BLACK
6
CONTINUOUS
10
128.536
20
-117.814
11
129.244
21
-117.814
0
LINE
8
BLACK
6
CONTINUOUS
10
131.784
20
-117.814
11
131.784
21
-117.106
0
LINE
8
BLACK
6
CONTINUOUS
10
131.784
20
-117.106
11
131.076
21
-117.106
0
LINE
8
BLACK
6
CONTINUOUS
10
131.076
20
-117.106
11
131.076
21
-117.814
0
LINE
8
BLACK
6
CONTINUOUS
10
131.076
20
-117.814
11
131.784
21
-117.814
0
LINE
8
BLACK
6
CONTINUOUS
10
134.324
20
-117.814
11
134.324
21
-117.106
0
LINE
8
BLACK
6
CONTINUOUS
10
134.324
20
-117.106
11
133.616
21
-117.106
0
LINE
8
BLACK
6
CONTINUOUS
10
133.616
20
-117.106
11
133.616
21
-117.814
0
LINE
8
BLACK
6
CONTINUOUS
10
133.616
20
-117.814
11
134.324
21
-117.814
0
LINE
8
BLACK
6
CONTINUOUS
10
136.864
20
-117.814
11
136.864
21
-117.106
0
LINE
8
BLACK
6
CONTINUOUS
10
136.864
20
-117.106
11
136.156
21
-117.106
0
LINE
8
BLACK
6
CONTINUOUS
10
136.156
20
-117.106
11
136.156
21
-117.814
0
LINE
8
BLACK
6
CONTINUOUS
10
136.156
20
-117.814
11
136.864
21
-117.814
0
LINE
8
BLACK
6
CONTINUOUS
10
139.404
20
-117.814
11
139.404
21
-117.106
0
LINE
8
BLACK
6
CONTINUOUS
10
139.404
20
-117.106
11
138.696
21
-117.106
0
LINE
8
BLACK
6
CONTINUOUS
10
138.696
20
-117.106
11
138.696
21
-117.814
0
LINE
8
BLACK
6
CONTINUOUS
10
138.696
20
-117.814
11
139.404
21
-117.814
0
LINE
8
BLACK
6
CONTINUOUS
10
141.944
20
-117.814
11
141.944
21
-117.106
0
LINE
8
BLACK
6
CONTINUOUS
10
141.944
20
-117.106
11
141.236
21
-117.106
0
LINE
8
BLACK
6
CONTINUOUS
10
141.236
20
-117.106
11
141.236
21
-117.814
0
LINE
8
BLACK
6
CONTINUOUS
10
141.236
20
-117.814
11
141.944
21
-117.814
0
LINE
8
BLACK
6
CONTINUOUS
10
144.484
20
-117.814
11
144.484
21
-117.106
0
LINE
8
BLACK
6
CONTINUOUS
10
144.484
20
-117.106
11
143.776
21
-117.106
0
LINE
8
BLACK
6
CONTINUOUS
10
143.776
20
-117.106
11
143.776
21
-117.814
0
LINE
8
BLACK
6
CONTINUOUS
10
143.776
20
-117.814
11
144.484
21
-117.814
0
LINE
8
BLACK
6
CONTINUOUS
10
152.104
20
-117.814
11
152.104
21
-117.106
0
LINE
8
BLACK
6
CONTINUOUS
10
152.104
20
-117.106
11
151.396
21
-117.106
0
LINE
8
BLACK
6
CONTINUOUS
10
151.396
20
-117.106
11
151.396
21
-117.814
0
LINE
8
BLACK
6
CONTINUOUS
10
151.396
20
-117.814
11
152.104
21
-117.814
0
LINE
8
BLACK
6
CONTINUOUS
10
154.644
20
-117.814
11
154.644
21
-117.106
0
LINE
8
BLACK
6
CONTINUOUS
10
154.644
20
-117.106
11
153.936
21
-117.106
0
LINE
8
BLACK
6
CONTINUOUS
10
153.936
20
-117.106
11
153.936
21
-117.814
0
LINE
8
BLACK
6
CONTINUOUS
10
153.936
20
-117.814
11
154.644
21
-117.814
0
LINE
8
BLACK
6
CONTINUOUS
10
157.184
20
-117.814
11
157.184
21
-117.106
0
LINE
8
BLACK
6
CONTINUOUS
10
157.184
20
-117.106
11
156.476
21
-117.106
0
LINE
8
BLACK
6
CONTINUOUS
10
156.476
20
-117.106
11
156.476
21
-117.814
0
LINE
8
BLACK
6
CONTINUOUS
10
156.476
20
-117.814
11
157.184
21
-117.814
0
LINE
8
BLACK
6
CONTINUOUS
10
159.724
20
-117.814
11
159.724
21
-117.106
0
LINE
8
BLACK
6
CONTINUOUS
10
159.724
20
-117.106
11
159.016
21
-117.106
0
LINE
8
BLACK
6
CONTINUOUS
10
159.016
20
-117.106
11
159.016
21
-117.814
0
LINE
8
BLACK
6
CONTINUOUS
10
159.016
20
-117.814
11
159.724
21
-117.814
0
LINE
8
BLACK
6
CONTINUOUS
10
162.264
20
-117.814
11
162.264
21
-117.106
0
LINE
8
BLACK
6
CONTINUOUS
10
162.264
20
-117.106
11
161.556
21
-117.106
0
LINE
8
BLACK
6
CONTINUOUS
10
161.556
20
-117.106
11
161.556
21
-117.814
0
LINE
8
BLACK
6
CONTINUOUS
10
161.556
20
-117.814
11
162.264
21
-117.814
0
LINE
8
BLACK
6
CONTINUOUS
10
164.804
20
-117.814
11
164.804
21
-117.106
0
LINE
8
BLACK
6
CONTINUOUS
10
164.804
20
-117.106
11
164.096
21
-117.106
0
LINE
8
BLACK
6
CONTINUOUS
10
164.096
20
-117.106
11
164.096
21
-117.814
0
LINE
8
BLACK
6
CONTINUOUS
10
164.096
20
-117.814
11
164.804
21
-117.814
0
LINE
8
BLACK
6
CONTINUOUS
10
167.344
20
-117.814
11
167.344
21
-117.106
0
LINE
8
BLACK
6
CONTINUOUS
10
167.344
20
-117.106
11
166.636
21
-117.106
0
LINE
8
BLACK
6
CONTINUOUS
10
166.636
20
-117.106
11
166.636
21
-117.814
0
LINE
8
BLACK
6
CONTINUOUS
10
166.636
20
-117.814
11
167.344
21
-117.814
0
LINE
8
BLACK
6
CONTINUOUS
10
169.884
20
-117.814
11
169.884
21
-117.106
0
LINE
8
BLACK
6
CONTINUOUS
10
169.884
20
-117.106
11
169.176
21
-117.106
0
LINE
8
BLACK
6
CONTINUOUS
10
169.176
20
-117.106
11
169.176
21
-117.814
0
LINE
8
BLACK
6
CONTINUOUS
10
169.176
20
-117.814
11
169.884
21
-117.814
0
LINE
8
BLACK
6
CONTINUOUS
10
162.264
20
-97.8536
11
162.264
21
-97.1464
0
LINE
8
BLACK
6
CONTINUOUS
10
162.264
20
-97.1464
11
161.556
21
-97.1464
0
LINE
8
BLACK
6
CONTINUOUS
10
161.556
20
-97.1464
11
161.556
21
-97.8536
0
LINE
8
BLACK
6
CONTINUOUS
10
161.556
20
-97.8536
11
162.264
21
-97.8536
0
LINE
8
BLACK
6
CONTINUOUS
10
164.804
20
-97.8536
11
164.804
21
-97.1464
0
LINE
8
BLACK
6
CONTINUOUS
10
164.804
20
-97.1464
11
164.096
21
-97.1464
0
LINE
8
BLACK
6
CONTINUOUS
10
164.096
20
-97.1464
11
164.096
21
-97.8536
0
LINE
8
BLACK
6
CONTINUOUS
10
164.096
20
-97.8536
11
164.804
21
-97.8536
0
LINE
8
BLACK
6
CONTINUOUS
10
152.104
20
-94.9536
11
152.104
21
-94.2464
0
LINE
8
BLACK
6
CONTINUOUS
10
152.104
20
-94.2464
11
151.396
21
-94.2464
0
LINE
8
BLACK
6
CONTINUOUS
10
151.396
20
-94.2464
11
151.396
21
-94.9536
0
LINE
8
BLACK
6
CONTINUOUS
10
151.396
20
-94.9536
11
152.104
21
-94.9536
0
LINE
8
BLACK
6
CONTINUOUS
10
154.644
20
-94.9536
11
154.644
21
-94.2464
0
LINE
8
BLACK
6
CONTINUOUS
10
154.644
20
-94.2464
11
153.936
21
-94.2464
0
LINE
8
BLACK
6
CONTINUOUS
10
153.936
20
-94.2464
11
153.936
21
-94.9536
0
LINE
8
BLACK
6
CONTINUOUS
10
153.936
20
-94.9536
11
154.644
21
-94.9536
0
LINE
8
BLACK
6
CONTINUOUS
10
157.184
20
-94.9536
11
157.184
21
-94.2464
0
LINE
8
BLACK
6
CONTINUOUS
10
157.184
20
-94.2464
11
156.476
21
-94.2464
0
LINE
8
BLACK
6
CONTINUOUS
10
156.476
20
-94.2464
11
156.476
21
-94.9536
0
LINE
8
BLACK
6
CONTINUOUS
10
156.476
20
-94.9536
11
157.184
21
-94.9536
0
LINE
8
BLACK
6
CONTINUOUS
10
159.724
20
-94.9536
11
159.724
21
-94.2464
0
LINE
8
BLACK
6
CONTINUOUS
10
159.724
20
-94.2464
11
159.016
21
-94.2464
0
LINE
8
BLACK
6
CONTINUOUS
10
159.016
20
-94.2464
11
159.016
21
-94.9536
0
LINE
8
BLACK
6
CONTINUOUS
10
159.016
20
-94.9536
11
159.724
21
-94.9536
0
LINE
8
BLACK
6
CONTINUOUS
10
162.264
20
-94.9536
11
162.264
21
-94.2464
0
LINE
8
BLACK
6
CONTINUOUS
10
162.264
20
-94.2464
11
161.556
21
-94.2464
0
LINE
8
BLACK
6
CONTINUOUS
10
161.556
20
-94.2464
11
161.556
21
-94.9536
0
LINE
8
BLACK
6
CONTINUOUS
10
161.556
20
-94.9536
11
162.264
21
-94.9536
0
LINE
8
BLACK
6
CONTINUOUS
10
164.804
20
-94.9536
11
164.804
21
-94.2464
0
LINE
8
BLACK
6
CONTINUOUS
10
164.804
20
-94.2464
11
164.096
21
-94.2464
0
LINE
8
BLACK
6
CONTINUOUS
10
164.096
20
-94.2464
11
164.096
21
-94.9536
0
LINE
8
BLACK
6
CONTINUOUS
10
164.096
20
-94.9536
11
164.804
21
-94.9536
0
LINE
8
BLACK
6
CONTINUOUS
10
167.344
20
-94.9536
11
167.344
21
-94.2464
0
LINE
8
BLACK
6
CONTINUOUS
10
167.344
20
-94.2464
11
166.636
21
-94.2464
0
LINE
8
BLACK
6
CONTINUOUS
10
166.636
20
-94.2464
11
166.636
21
-94.9536
0
LINE
8
BLACK
6
CONTINUOUS
10
166.636
20
-94.9536
11
167.344
21
-94.9536
0
LINE
8
BLACK
6
CONTINUOUS
10
169.884
20
-94.9536
11
169.884
21
-94.2464
0
LINE
8
BLACK
6
CONTINUOUS
10
169.884
20
-94.2464
11
169.176
21
-94.2464
0
LINE
8
BLACK
6
CONTINUOUS
10
169.176
20
-94.2464
11
169.176
21
-94.9536
0
LINE
8
BLACK
6
CONTINUOUS
10
169.176
20
-94.9536
11
169.884
21
-94.9536
0
LINE
8
BLACK
6
CONTINUOUS
10
127.574
20
-94.9536
11
127.574
21
-94.2464
0
LINE
8
BLACK
6
CONTINUOUS
10
127.574
20
-94.2464
11
126.866
21
-94.2464
0
LINE
8
BLACK
6
CONTINUOUS
10
126.866
20
-94.2464
11
126.866
21
-94.9536
0
LINE
8
BLACK
6
CONTINUOUS
10
126.866
20
-94.9536
11
127.574
21
-94.9536
0
LINE
8
BLACK
6
CONTINUOUS
10
130.114
20
-94.9536
11
130.114
21
-94.2464
0
LINE
8
BLACK
6
CONTINUOUS
10
130.114
20
-94.2464
11
129.406
21
-94.2464
0
LINE
8
BLACK
6
CONTINUOUS
10
129.406
20
-94.2464
11
129.406
21
-94.9536
0
LINE
8
BLACK
6
CONTINUOUS
10
129.406
20
-94.9536
11
130.114
21
-94.9536
0
LINE
8
BLACK
6
CONTINUOUS
10
132.654
20
-94.9536
11
132.654
21
-94.2464
0
LINE
8
BLACK
6
CONTINUOUS
10
132.654
20
-94.2464
11
131.946
21
-94.2464
0
LINE
8
BLACK
6
CONTINUOUS
10
131.946
20
-94.2464
11
131.946
21
-94.9536
0
LINE
8
BLACK
6
CONTINUOUS
10
131.946
20
-94.9536
11
132.654
21
-94.9536
0
LINE
8
BLACK
6
CONTINUOUS
10
135.194
20
-94.9536
11
135.194
21
-94.2464
0
LINE
8
BLACK
6
CONTINUOUS
10
135.194
20
-94.2464
11
134.486
21
-94.2464
0
LINE
8
BLACK
6
CONTINUOUS
10
134.486
20
-94.2464
11
134.486
21
-94.9536
0
LINE
8
BLACK
6
CONTINUOUS
10
134.486
20
-94.9536
11
135.194
21
-94.9536
0
LINE
8
BLACK
6
CONTINUOUS
10
137.734
20
-94.9536
11
137.734
21
-94.2464
0
LINE
8
BLACK
6
CONTINUOUS
10
137.734
20
-94.2464
11
137.026
21
-94.2464
0
LINE
8
BLACK
6
CONTINUOUS
10
137.026
20
-94.2464
11
137.026
21
-94.9536
0
LINE
8
BLACK
6
CONTINUOUS
10
137.026
20
-94.9536
11
137.734
21
-94.9536
0
LINE
8
BLACK
6
CONTINUOUS
10
140.274
20
-94.9536
11
140.274
21
-94.2464
0
LINE
8
BLACK
6
CONTINUOUS
10
140.274
20
-94.2464
11
139.566
21
-94.2464
0
LINE
8
BLACK
6
CONTINUOUS
10
139.566
20
-94.2464
11
139.566
21
-94.9536
0
LINE
8
BLACK
6
CONTINUOUS
10
139.566
20
-94.9536
11
140.274
21
-94.9536
0
LINE
8
BLACK
6
CONTINUOUS
10
142.814
20
-94.9536
11
142.814
21
-94.2464
0
LINE
8
BLACK
6
CONTINUOUS
10
142.814
20
-94.2464
11
142.106
21
-94.2464
0
LINE
8
BLACK
6
CONTINUOUS
10
142.106
20
-94.2464
11
142.106
21
-94.9536
0
LINE
8
BLACK
6
CONTINUOUS
10
142.106
20
-94.9536
11
142.814
21
-94.9536
0
LINE
8
BLACK
6
CONTINUOUS
10
145.354
20
-94.9536
11
145.354
21
-94.2464
0
LINE
8
BLACK
6
CONTINUOUS
10
145.354
20
-94.2464
11
144.646
21
-94.2464
0
LINE
8
BLACK
6
CONTINUOUS
10
144.646
20
-94.2464
11
144.646
21
-94.9536
0
LINE
8
BLACK
6
CONTINUOUS
10
144.646
20
-94.9536
11
145.354
21
-94.9536
0
LINE
8
BLACK
6
CONTINUOUS
10
122.839
20
-124.682
11
122.839
21
-121.682
0
LINE
8
BLACK
6
CONTINUOUS
10
122.839
20
-121.682
11
123.554
21
-121.682
0
LINE
8
BLACK
6
CONTINUOUS
10
123.554
20
-121.682
11
123.982
21
-121.825
0
LINE
8
BLACK
6
CONTINUOUS
10
123.982
20
-121.825
11
124.268
21
-122.111
0
LINE
8
BLACK
6
CONTINUOUS
10
124.268
20
-122.111
11
124.411
21
-122.396
0
LINE
8
BLACK
6
CONTINUOUS
10
124.411
20
-122.396
11
124.554
21
-122.968
0
LINE
8
BLACK
6
CONTINUOUS
10
124.554
20
-122.968
11
124.554
21
-123.396
0
LINE
8
BLACK
6
CONTINUOUS
10
124.554
20
-123.396
11
124.411
21
-123.968
0
LINE
8
BLACK
6
CONTINUOUS
10
124.411
20
-123.968
11
124.268
21
-124.254
0
LINE
8
BLACK
6
CONTINUOUS
10
124.268
20
-124.254
11
123.982
21
-124.539
0
LINE
8
BLACK
6
CONTINUOUS
10
123.982
20
-124.539
11
123.554
21
-124.682
0
LINE
8
BLACK
6
CONTINUOUS
10
123.554
20
-124.682
11
122.839
21
-124.682
0
LINE
8
BLACK
6
CONTINUOUS
10
125.839
20
-124.682
11
125.839
21
-122.682
0
LINE
8
BLACK
6
CONTINUOUS
10
125.839
20
-123.254
11
125.982
21
-122.968
0
LINE
8
BLACK
6
CONTINUOUS
10
125.982
20
-122.968
11
126.125
21
-122.825
0
LINE
8
BLACK
6
CONTINUOUS
10
126.125
20
-122.825
11
126.411
21
-122.682
0
LINE
8
BLACK
6
CONTINUOUS
10
126.411
20
-122.682
11
126.696
21
-122.682
0
LINE
8
BLACK
6
CONTINUOUS
10
127.696
20
-124.682
11
127.696
21
-122.682
0
LINE
8
BLACK
6
CONTINUOUS
10
127.696
20
-121.682
11
127.554
21
-121.825
0
LINE
8
BLACK
6
CONTINUOUS
10
127.554
20
-121.825
11
127.696
21
-121.968
0
LINE
8
BLACK
6
CONTINUOUS
10
127.696
20
-121.968
11
127.839
21
-121.825
0
LINE
8
BLACK
6
CONTINUOUS
10
127.839
20
-121.825
11
127.696
21
-121.682
0
LINE
8
BLACK
6
CONTINUOUS
10
127.696
20
-121.682
11
127.696
21
-121.968
0
LINE
8
BLACK
6
CONTINUOUS
10
129.554
20
-124.682
11
129.268
21
-124.539
0
LINE
8
BLACK
6
CONTINUOUS
10
129.268
20
-124.539
11
129.125
21
-124.254
0
LINE
8
BLACK
6
CONTINUOUS
10
129.125
20
-124.254
11
129.125
21
-121.682
0
LINE
8
BLACK
6
CONTINUOUS
10
131.125
20
-124.682
11
130.839
21
-124.539
0
LINE
8
BLACK
6
CONTINUOUS
10
130.839
20
-124.539
11
130.696
21
-124.254
0
LINE
8
BLACK
6
CONTINUOUS
10
130.696
20
-124.254
11
130.696
21
-121.682
0
LINE
8
BLACK
6
CONTINUOUS
10
134.554
20
-124.682
11
134.554
21
-121.682
0
LINE
8
BLACK
6
CONTINUOUS
10
134.554
20
-121.682
11
135.554
21
-123.825
0
LINE
8
BLACK
6
CONTINUOUS
10
135.554
20
-123.825
11
136.554
21
-121.682
0
LINE
8
BLACK
6
CONTINUOUS
10
136.554
20
-121.682
11
136.554
21
-124.682
0
LINE
8
BLACK
6
CONTINUOUS
10
139.268
20
-124.682
11
139.268
21
-123.111
0
LINE
8
BLACK
6
CONTINUOUS
10
139.268
20
-123.111
11
139.125
21
-122.825
0
LINE
8
BLACK
6
CONTINUOUS
10
139.125
20
-122.825
11
138.839
21
-122.682
0
LINE
8
BLACK
6
CONTINUOUS
10
138.839
20
-122.682
11
138.268
21
-122.682
0
LINE
8
BLACK
6
CONTINUOUS
10
138.268
20
-122.682
11
137.982
21
-122.825
0
LINE
8
BLACK
6
CONTINUOUS
10
139.268
20
-124.539
11
138.982
21
-124.682
0
LINE
8
BLACK
6
CONTINUOUS
10
138.982
20
-124.682
11
138.268
21
-124.682
0
LINE
8
BLACK
6
CONTINUOUS
10
138.268
20
-124.682
11
137.982
21
-124.539
0
LINE
8
BLACK
6
CONTINUOUS
10
137.982
20
-124.539
11
137.839
21
-124.254
0
LINE
8
BLACK
6
CONTINUOUS
10
137.839
20
-124.254
11
137.839
21
-123.968
0
LINE
8
BLACK
6
CONTINUOUS
10
137.839
20
-123.968
11
137.982
21
-123.682
0
LINE
8
BLACK
6
CONTINUOUS
10
137.982
20
-123.682
11
138.268
21
-123.539
0
LINE
8
BLACK
6
CONTINUOUS
10
138.268
20
-123.539
11
138.982
21
-123.539
0
LINE
8
BLACK
6
CONTINUOUS
10
138.982
20
-123.539
11
139.268
21
-123.396
0
LINE
8
BLACK
6
CONTINUOUS
10
140.696
20
-122.682
11
140.696
21
-125.682
0
LINE
8
BLACK
6
CONTINUOUS
10
140.696
20
-122.825
11
140.982
21
-122.682
0
LINE
8
BLACK
6
CONTINUOUS
10
140.982
20
-122.682
11
141.554
21
-122.682
0
LINE
8
BLACK
6
CONTINUOUS
10
141.554
20
-122.682
11
141.839
21
-122.825
0
LINE
8
BLACK
6
CONTINUOUS
10
141.839
20
-122.825
11
141.982
21
-122.968
0
LINE
8
BLACK
6
CONTINUOUS
10
141.982
20
-122.968
11
142.125
21
-123.254
0
LINE
8
BLACK
6
CONTINUOUS
10
142.125
20
-123.254
11
142.125
21
-124.111
0
LINE
8
BLACK
6
CONTINUOUS
10
142.125
20
-124.111
11
141.982
21
-124.396
0
LINE
8
BLACK
6
CONTINUOUS
10
141.982
20
-124.396
11
141.839
21
-124.539
0
LINE
8
BLACK
6
CONTINUOUS
10
141.839
20
-124.539
11
141.554
21
-124.682
0
LINE
8
BLACK
6
CONTINUOUS
10
141.554
20
-124.682
11
140.982
21
-124.682
0
LINE
8
BLACK
6
CONTINUOUS
10
140.982
20
-124.682
11
140.696
21
-124.539
0
LINE
8
BLACK
6
CONTINUOUS
10
143.411
20
-124.396
11
143.554
21
-124.539
0
LINE
8
BLACK
6
CONTINUOUS
10
143.554
20
-124.539
11
143.411
21
-124.682
0
LINE
8
BLACK
6
CONTINUOUS
10
143.411
20
-124.682
11
143.268
21
-124.539
0
LINE
8
BLACK
6
CONTINUOUS
10
143.268
20
-124.539
11
143.411
21
-124.396
0
LINE
8
BLACK
6
CONTINUOUS
10
143.411
20
-124.396
11
143.411
21
-124.682
0
LINE
8
BLACK
6
CONTINUOUS
10
143.411
20
-122.825
11
143.554
21
-122.968
0
LINE
8
BLACK
6
CONTINUOUS
10
143.554
20
-122.968
11
143.411
21
-123.111
0
LINE
8
BLACK
6
CONTINUOUS
10
143.411
20
-123.111
11
143.268
21
-122.968
0
LINE
8
BLACK
6
CONTINUOUS
10
143.268
20
-122.968
11
143.411
21
-122.825
0
LINE
8
BLACK
6
CONTINUOUS
10
143.411
20
-122.825
11
143.411
21
-123.111
0
LINE
8
BLACK
6
CONTINUOUS
10
119.675
20
-129.475
11
119.975
21
-129.775
0
LINE
8
BLACK
6
CONTINUOUS
10
119.975
20
-129.475
11
119.675
21
-129.775
0
LINE
8
BLACK
6
CONTINUOUS
10
123.411
20
-127.982
11
123.696
21
-127.982
0
LINE
8
BLACK
6
CONTINUOUS
10
123.696
20
-127.982
11
123.982
21
-128.125
0
LINE
8
BLACK
6
CONTINUOUS
10
123.982
20
-128.125
11
124.125
21
-128.268
0
LINE
8
BLACK
6
CONTINUOUS
10
124.125
20
-128.268
11
124.268
21
-128.554
0
LINE
8
BLACK
6
CONTINUOUS
10
124.268
20
-128.554
11
124.411
21
-129.125
0
LINE
8
BLACK
6
CONTINUOUS
10
124.411
20
-129.125
11
124.411
21
-129.839
0
LINE
8
BLACK
6
CONTINUOUS
10
124.411
20
-129.839
11
124.268
21
-130.411
0
LINE
8
BLACK
6
CONTINUOUS
10
124.268
20
-130.411
11
124.125
21
-130.696
0
LINE
8
BLACK
6
CONTINUOUS
10
124.125
20
-130.696
11
123.982
21
-130.839
0
LINE
8
BLACK
6
CONTINUOUS
10
123.982
20
-130.839
11
123.696
21
-130.982
0
LINE
8
BLACK
6
CONTINUOUS
10
123.696
20
-130.982
11
123.411
21
-130.982
0
LINE
8
BLACK
6
CONTINUOUS
10
123.411
20
-130.982
11
123.125
21
-130.839
0
LINE
8
BLACK
6
CONTINUOUS
10
123.125
20
-130.839
11
122.982
21
-130.696
0
LINE
8
BLACK
6
CONTINUOUS
10
122.982
20
-130.696
11
122.839
21
-130.411
0
LINE
8
BLACK
6
CONTINUOUS
10
122.839
20
-130.411
11
122.696
21
-129.839
0
LINE
8
BLACK
6
CONTINUOUS
10
122.696
20
-129.839
11
122.696
21
-129.125
0
LINE
8
BLACK
6
CONTINUOUS
10
122.696
20
-129.125
11
122.839
21
-128.554
0
LINE
8
BLACK
6
CONTINUOUS
10
122.839
20
-128.554
11
122.982
21
-128.268
0
LINE
8
BLACK
6
CONTINUOUS
10
122.982
20
-128.268
11
123.125
21
-128.125
0
LINE
8
BLACK
6
CONTINUOUS
10
123.125
20
-128.125
11
123.411
21
-127.982
0
LINE
8
BLACK
6
CONTINUOUS
10
125.696
20
-130.696
11
125.839
21
-130.839
0
LINE
8
BLACK
6
CONTINUOUS
10
125.839
20
-130.839
11
125.696
21
-130.982
0
LINE
8
BLACK
6
CONTINUOUS
10
125.696
20
-130.982
11
125.554
21
-130.839
0
LINE
8
BLACK
6
CONTINUOUS
10
125.554
20
-130.839
11
125.696
21
-130.696
0
LINE
8
BLACK
6
CONTINUOUS
10
125.696
20
-130.696
11
125.696
21
-130.982
0
LINE
8
BLACK
6
CONTINUOUS
10
126.839
20
-127.982
11
128.696
21
-127.982
0
LINE
8
BLACK
6
CONTINUOUS
10
128.696
20
-127.982
11
127.696
21
-129.125
0
LINE
8
BLACK
6
CONTINUOUS
10
127.696
20
-129.125
11
128.125
21
-129.125
0
LINE
8
BLACK
6
CONTINUOUS
10
128.125
20
-129.125
11
128.411
21
-129.268
0
LINE
8
BLACK
6
CONTINUOUS
10
128.411
20
-129.268
11
128.554
21
-129.411
0
LINE
8
BLACK
6
CONTINUOUS
10
128.554
20
-129.411
11
128.696
21
-129.696
0
LINE
8
BLACK
6
CONTINUOUS
10
128.696
20
-129.696
11
128.696
21
-130.411
0
LINE
8
BLACK
6
CONTINUOUS
10
128.696
20
-130.411
11
128.554
21
-130.696
0
LINE
8
BLACK
6
CONTINUOUS
10
128.554
20
-130.696
11
128.411
21
-130.839
0
LINE
8
BLACK
6
CONTINUOUS
10
128.411
20
-130.839
11
128.125
21
-130.982
0
LINE
8
BLACK
6
CONTINUOUS
10
128.125
20
-130.982
11
127.268
21
-130.982
0
LINE
8
BLACK
6
CONTINUOUS
10
127.268
20
-130.982
11
126.982
21
-130.839
0
LINE
8
BLACK
6
CONTINUOUS
10
126.982
20
-130.839
11
126.839
21
-130.696
0
LINE
8
BLACK
6
CONTINUOUS
10
130.554
20
-127.982
11
130.839
21
-127.982
0
LINE
8
BLACK
6
CONTINUOUS
10
130.839
20
-127.982
11
131.125
21
-128.125
0
LINE
8
BLACK
6
CONTINUOUS
10
131.125
20
-128.125
11
131.268
21
-128.268
0
LINE
8
BLACK
6
CONTINUOUS
10
131.268
20
-128.268
11
131.411
21
-128.554
0
LINE
8
BLACK
6
CONTINUOUS
10
131.411
20
-128.554
11
131.554
21
-129.125
0
LINE
8
BLACK
6
CONTINUOUS
10
131.554
20
-129.125
11
131.554
21
-129.839
0
LINE
8
BLACK
6
CONTINUOUS
10
131.554
20
-129.839
11
131.411
21
-130.411
0
LINE
8
BLACK
6
CONTINUOUS
10
131.411
20
-130.411
11
131.268
21
-130.696
0
LINE
8
BLACK
6
CONTINUOUS
10
131.268
20
-130.696
11
131.125
21
-130.839
0
LINE
8
BLACK
6
CONTINUOUS
10
131.125
20
-130.839
11
130.839
21
-130.982
0
LINE
8
BLACK
6
CONTINUOUS
10
130.839
20
-130.982
11
130.554
21
-130.982
0
LINE
8
BLACK
6
CONTINUOUS
10
130.554
20
-130.982
11
130.268
21
-130.839
0
LINE
8
BLACK
6
CONTINUOUS
10
130.268
20
-130.839
11
130.125
21
-130.696
0
LINE
8
BLACK
6
CONTINUOUS
10
130.125
20
-130.696
11
129.982
21
-130.411
0
LINE
8
BLACK
6
CONTINUOUS
10
129.982
20
-130.411
11
129.839
21
-129.839
0
LINE
8
BLACK
6
CONTINUOUS
10
129.839
20
-129.839
11
129.839
21
-129.125
0
LINE
8
BLACK
6
CONTINUOUS
10
129.839
20
-129.125
11
129.982
21
-128.554
0
LINE
8
BLACK
6
CONTINUOUS
10
129.982
20
-128.554
11
130.125
21
-128.268
0
LINE
8
BLACK
6
CONTINUOUS
10
130.125
20
-128.268
11
130.268
21
-128.125
0
LINE
8
BLACK
6
CONTINUOUS
10
130.268
20
-128.125
11
130.554
21
-127.982
0
LINE
8
BLACK
6
CONTINUOUS
10
132.839
20
-130.982
11
132.839
21
-128.982
0
LINE
8
BLACK
6
CONTINUOUS
10
132.839
20
-129.268
11
132.982
21
-129.125
0
LINE
8
BLACK
6
CONTINUOUS
10
132.982
20
-129.125
11
133.268
21
-128.982
0
LINE
8
BLACK
6
CONTINUOUS
10
133.268
20
-128.982
11
133.696
21
-128.982
0
LINE
8
BLACK
6
CONTINUOUS
10
133.696
20
-128.982
11
133.982
21
-129.125
0
LINE
8
BLACK
6
CONTINUOUS
10
133.982
20
-129.125
11
134.125
21
-129.411
0
LINE
8
BLACK
6
CONTINUOUS
10
134.125
20
-129.411
11
134.125
21
-130.982
0
LINE
8
BLACK
6
CONTINUOUS
10
134.125
20
-129.411
11
134.268
21
-129.125
0
LINE
8
BLACK
6
CONTINUOUS
10
134.268
20
-129.125
11
134.554
21
-128.982
0
LINE
8
BLACK
6
CONTINUOUS
10
134.554
20
-128.982
11
134.982
21
-128.982
0
LINE
8
BLACK
6
CONTINUOUS
10
134.982
20
-128.982
11
135.268
21
-129.125
0
LINE
8
BLACK
6
CONTINUOUS
10
135.268
20
-129.125
11
135.411
21
-129.411
0
LINE
8
BLACK
6
CONTINUOUS
10
135.411
20
-129.411
11
135.411
21
-130.982
0
LINE
8
BLACK
6
CONTINUOUS
10
136.839
20
-130.982
11
136.839
21
-128.982
0
LINE
8
BLACK
6
CONTINUOUS
10
136.839
20
-129.268
11
136.982
21
-129.125
0
LINE
8
BLACK
6
CONTINUOUS
10
136.982
20
-129.125
11
137.268
21
-128.982
0
LINE
8
BLACK
6
CONTINUOUS
10
137.268
20
-128.982
11
137.696
21
-128.982
0
LINE
8
BLACK
6
CONTINUOUS
10
137.696
20
-128.982
11
137.982
21
-129.125
0
LINE
8
BLACK
6
CONTINUOUS
10
137.982
20
-129.125
11
138.125
21
-129.411
0
LINE
8
BLACK
6
CONTINUOUS
10
138.125
20
-129.411
11
138.125
21
-130.982
0
LINE
8
BLACK
6
CONTINUOUS
10
138.125
20
-129.411
11
138.268
21
-129.125
0
LINE
8
BLACK
6
CONTINUOUS
10
138.268
20
-129.125
11
138.554
21
-128.982
0
LINE
8
BLACK
6
CONTINUOUS
10
138.554
20
-128.982
11
138.982
21
-128.982
0
LINE
8
BLACK
6
CONTINUOUS
10
138.982
20
-128.982
11
139.268
21
-129.125
0
LINE
8
BLACK
6
CONTINUOUS
10
139.268
20
-129.125
11
139.411
21
-129.411
0
LINE
8
BLACK
6
CONTINUOUS
10
139.411
20
-129.411
11
139.411
21
-130.982
0
LINE
8
BLACK
6
CONTINUOUS
10
145.268
20
-127.839
11
142.696
21
-131.696
0
LINE
8
BLACK
6
CONTINUOUS
10
149.125
20
-127.982
11
149.411
21
-127.982
0
LINE
8
BLACK
6
CONTINUOUS
10
149.411
20
-127.982
11
149.696
21
-128.125
0
LINE
8
BLACK
6
CONTINUOUS
10
149.696
20
-128.125
11
149.839
21
-128.268
0
LINE
8
BLACK
6
CONTINUOUS
10
149.839
20
-128.268
11
149.982
21
-128.554
0
LINE
8
BLACK
6
CONTINUOUS
10
149.982
20
-128.554
11
150.125
21
-129.125
0
LINE
8
BLACK
6
CONTINUOUS
10
150.125
20
-129.125
11
150.125
21
-129.839
0
LINE
8
BLACK
6
CONTINUOUS
10
150.125
20
-129.839
11
149.982
21
-130.411
0
LINE
8
BLACK
6
CONTINUOUS
10
149.982
20
-130.411
11
149.839
21
-130.696
0
LINE
8
BLACK
6
CONTINUOUS
10
149.839
20
-130.696
11
149.696
21
-130.839
0
LINE
8
BLACK
6
CONTINUOUS
10
149.696
20
-130.839
11
149.411
21
-130.982
0
LINE
8
BLACK
6
CONTINUOUS
10
149.411
20
-130.982
11
149.125
21
-130.982
0
LINE
8
BLACK
6
CONTINUOUS
10
149.125
20
-130.982
11
148.839
21
-130.839
0
LINE
8
BLACK
6
CONTINUOUS
10
148.839
20
-130.839
11
148.696
21
-130.696
0
LINE
8
BLACK
6
CONTINUOUS
10
148.696
20
-130.696
11
148.554
21
-130.411
0
LINE
8
BLACK
6
CONTINUOUS
10
148.554
20
-130.411
11
148.411
21
-129.839
0
LINE
8
BLACK
6
CONTINUOUS
10
148.411
20
-129.839
11
148.411
21
-129.125
0
LINE
8
BLACK
6
CONTINUOUS
10
148.411
20
-129.125
11
148.554
21
-128.554
0
LINE
8
BLACK
6
CONTINUOUS
10
148.554
20
-128.554
11
148.696
21
-128.268
0
LINE
8
BLACK
6
CONTINUOUS
10
148.696
20
-128.268
11
148.839
21
-128.125
0
LINE
8
BLACK
6
CONTINUOUS
10
148.839
20
-128.125
11
149.125
21
-127.982
0
LINE
8
BLACK
6
CONTINUOUS
10
151.411
20
-130.696
11
151.554
21
-130.839
0
LINE
8
BLACK
6
CONTINUOUS
10
151.554
20
-130.839
11
151.411
21
-130.982
0
LINE
8
BLACK
6
CONTINUOUS
10
151.411
20
-130.982
11
151.268
21
-130.839
0
LINE
8
BLACK
6
CONTINUOUS
10
151.268
20
-130.839
11
151.411
21
-130.696
0
LINE
8
BLACK
6
CONTINUOUS
10
151.411
20
-130.696
11
151.411
21
-130.982
0
LINE
8
BLACK
6
CONTINUOUS
10
153.411
20
-127.982
11
153.696
21
-127.982
0
LINE
8
BLACK
6
CONTINUOUS
10
153.696
20
-127.982
11
153.982
21
-128.125
0
LINE
8
BLACK
6
CONTINUOUS
10
153.982
20
-128.125
11
154.125
21
-128.268
0
LINE
8
BLACK
6
CONTINUOUS
10
154.125
20
-128.268
11
154.268
21
-128.554
0
LINE
8
BLACK
6
CONTINUOUS
10
154.268
20
-128.554
11
154.411
21
-129.125
0
LINE
8
BLACK
6
CONTINUOUS
10
154.411
20
-129.125
11
154.411
21
-129.839
0
LINE
8
BLACK
6
CONTINUOUS
10
154.411
20
-129.839
11
154.268
21
-130.411
0
LINE
8
BLACK
6
CONTINUOUS
10
154.268
20
-130.411
11
154.125
21
-130.696
0
LINE
8
BLACK
6
CONTINUOUS
10
154.125
20
-130.696
11
153.982
21
-130.839
0
LINE
8
BLACK
6
CONTINUOUS
10
153.982
20
-130.839
11
153.696
21
-130.982
0
LINE
8
BLACK
6
CONTINUOUS
10
153.696
20
-130.982
11
153.411
21
-130.982
0
LINE
8
BLACK
6
CONTINUOUS
10
153.411
20
-130.982
11
153.125
21
-130.839
0
LINE
8
BLACK
6
CONTINUOUS
10
153.125
20
-130.839
11
152.982
21
-130.696
0
LINE
8
BLACK
6
CONTINUOUS
10
152.982
20
-130.696
11
152.839
21
-130.411
0
LINE
8
BLACK
6
CONTINUOUS
10
152.839
20
-130.411
11
152.696
21
-129.839
0
LINE
8
BLACK
6
CONTINUOUS
10
152.696
20
-129.839
11
152.696
21
-129.125
0
LINE
8
BLACK
6
CONTINUOUS
10
152.696
20
-129.125
11
152.839
21
-128.554
0
LINE
8
BLACK
6
CONTINUOUS
10
152.839
20
-128.554
11
152.982
21
-128.268
0
LINE
8
BLACK
6
CONTINUOUS
10
152.982
20
-128.268
11
153.125
21
-128.125
0
LINE
8
BLACK
6
CONTINUOUS
10
153.125
20
-128.125
11
153.411
21
-127.982
0
LINE
8
BLACK
6
CONTINUOUS
10
157.268
20
-130.982
11
155.554
21
-130.982
0
LINE
8
BLACK
6
CONTINUOUS
10
156.411
20
-130.982
11
156.411
21
-127.982
0
LINE
8
BLACK
6
CONTINUOUS
10
156.411
20
-127.982
11
156.125
21
-128.411
0
LINE
8
BLACK
6
CONTINUOUS
10
156.125
20
-128.411
11
155.839
21
-128.696
0
LINE
8
BLACK
6
CONTINUOUS
10
155.839
20
-128.696
11
155.554
21
-128.839
0
LINE
8
BLACK
6
CONTINUOUS
10
158.411
20
-128.268
11
158.554
21
-128.125
0
LINE
8
BLACK
6
CONTINUOUS
10
158.554
20
-128.125
11
158.839
21
-127.982
0
LINE
8
BLACK
6
CONTINUOUS
10
158.839
20
-127.982
11
159.554
21
-127.982
0
LINE
8
BLACK
6
CONTINUOUS
10
159.554
20
-127.982
11
159.839
21
-128.125
0
LINE
8
BLACK
6
CONTINUOUS
10
159.839
20
-128.125
11
159.982
21
-128.268
0
LINE
8
BLACK
6
CONTINUOUS
10
159.982
20
-128.268
11
160.125
21
-128.554
0
LINE
8
BLACK
6
CONTINUOUS
10
160.125
20
-128.554
11
160.125
21
-128.839
0
LINE
8
BLACK
6
CONTINUOUS
10
160.125
20
-128.839
11
159.982
21
-129.268
0
LINE
8
BLACK
6
CONTINUOUS
10
159.982
20
-129.268
11
158.268
21
-130.982
0
LINE
8
BLACK
6
CONTINUOUS
10
158.268
20
-130.982
11
160.125
21
-130.982
0
LINE
8
BLACK
6
CONTINUOUS
10
161.268
20
-127.982
11
161.268
21
-128.554
0
LINE
8
BLACK
6
CONTINUOUS
10
162.411
20
-127.982
11
162.411
21
-128.554
0
LINE
8
BLACK
6
CONTINUOUS
10
166.839
20
-132.125
11
166.696
21
-131.982
0
LINE
8
BLACK
6
CONTINUOUS
10
166.696
20
-131.982
11
166.411
21
-131.554
0
LINE
8
BLACK
6
CONTINUOUS
10
166.411
20
-131.554
11
166.268
21
-131.268
0
LINE
8
BLACK
6
CONTINUOUS
10
166.268
20
-131.268
11
166.125
21
-130.839
0
LINE
8
BLACK
6
CONTINUOUS
10
166.125
20
-130.839
11
165.982
21
-130.125
0
LINE
8
BLACK
6
CONTINUOUS
10
165.982
20
-130.125
11
165.982
21
-129.554
0
LINE
8
BLACK
6
CONTINUOUS
10
165.982
20
-129.554
11
166.125
21
-128.839
0
LINE
8
BLACK
6
CONTINUOUS
10
166.125
20
-128.839
11
166.268
21
-128.411
0
LINE
8
BLACK
6
CONTINUOUS
10
166.268
20
-128.411
11
166.411
21
-128.125
0
LINE
8
BLACK
6
CONTINUOUS
10
166.411
20
-128.125
11
166.696
21
-127.696
0
LINE
8
BLACK
6
CONTINUOUS
10
166.696
20
-127.696
11
166.839
21
-127.554
0
LINE
8
BLACK
6
CONTINUOUS
10
169.268
20
-127.982
11
168.696
21
-127.982
0
LINE
8
BLACK
6
CONTINUOUS
10
168.696
20
-127.982
11
168.411
21
-128.125
0
LINE
8
BLACK
6
CONTINUOUS
10
168.411
20
-128.125
11
168.268
21
-128.268
0
LINE
8
BLACK
6
CONTINUOUS
10
168.268
20
-128.268
11
167.982
21
-128.696
0
LINE
8
BLACK
6
CONTINUOUS
10
167.982
20
-128.696
11
167.839
21
-129.268
0
LINE
8
BLACK
6
CONTINUOUS
10
167.839
20
-129.268
11
167.839
21
-130.411
0
LINE
8
BLACK
6
CONTINUOUS
10
167.839
20
-130.411
11
167.982
21
-130.696
0
LINE
8
BLACK
6
CONTINUOUS
10
167.982
20
-130.696
11
168.125
21
-130.839
0
LINE
8
BLACK
6
CONTINUOUS
10
168.125
20
-130.839
11
168.411
21
-130.982
0
LINE
8
BLACK
6
CONTINUOUS
10
168.411
20
-130.982
11
168.982
21
-130.982
0
LINE
8
BLACK
6
CONTINUOUS
10
168.982
20
-130.982
11
169.268
21
-130.839
0
LINE
8
BLACK
6
CONTINUOUS
10
169.268
20
-130.839
11
169.411
21
-130.696
0
LINE
8
BLACK
6
CONTINUOUS
10
169.411
20
-130.696
11
169.554
21
-130.411
0
LINE
8
BLACK
6
CONTINUOUS
10
169.554
20
-130.411
11
169.554
21
-129.696
0
LINE
8
BLACK
6
CONTINUOUS
10
169.554
20
-129.696
11
169.411
21
-129.411
0
LINE
8
BLACK
6
CONTINUOUS
10
169.411
20
-129.411
11
169.268
21
-129.268
0
LINE
8
BLACK
6
CONTINUOUS
10
169.268
20
-129.268
11
168.982
21
-129.125
0
LINE
8
BLACK
6
CONTINUOUS
10
168.982
20
-129.125
11
168.411
21
-129.125
0
LINE
8
BLACK
6
CONTINUOUS
10
168.411
20
-129.125
11
168.125
21
-129.268
0
LINE
8
BLACK
6
CONTINUOUS
10
168.125
20
-129.268
11
167.982
21
-129.411
0
LINE
8
BLACK
6
CONTINUOUS
10
167.982
20
-129.411
11
167.839
21
-129.696
0
LINE
8
BLACK
6
CONTINUOUS
10
171.411
20
-127.982
11
171.696
21
-127.982
0
LINE
8
BLACK
6
CONTINUOUS
10
171.696
20
-127.982
11
171.982
21
-128.125
0
LINE
8
BLACK
6
CONTINUOUS
10
171.982
20
-128.125
11
172.125
21
-128.268
0
LINE
8
BLACK
6
CONTINUOUS
10
172.125
20
-128.268
11
172.268
21
-128.554
0
LINE
8
BLACK
6
CONTINUOUS
10
172.268
20
-128.554
11
172.411
21
-129.125
0
LINE
8
BLACK
6
CONTINUOUS
10
172.411
20
-129.125
11
172.411
21
-129.839
0
LINE
8
BLACK
6
CONTINUOUS
10
172.411
20
-129.839
11
172.268
21
-130.411
0
LINE
8
BLACK
6
CONTINUOUS
10
172.268
20
-130.411
11
172.125
21
-130.696
0
LINE
8
BLACK
6
CONTINUOUS
10
172.125
20
-130.696
11
171.982
21
-130.839
0
LINE
8
BLACK
6
CONTINUOUS
10
171.982
20
-130.839
11
171.696
21
-130.982
0
LINE
8
BLACK
6
CONTINUOUS
10
171.696
20
-130.982
11
171.411
21
-130.982
0
LINE
8
BLACK
6
CONTINUOUS
10
171.411
20
-130.982
11
171.125
21
-130.839
0
LINE
8
BLACK
6
CONTINUOUS
10
171.125
20
-130.839
11
170.982
21
-130.696
0
LINE
8
BLACK
6
CONTINUOUS
10
170.982
20
-130.696
11
170.839
21
-130.411
0
LINE
8
BLACK
6
CONTINUOUS
10
170.839
20
-130.411
11
170.696
21
-129.839
0
LINE
8
BLACK
6
CONTINUOUS
10
170.696
20
-129.839
11
170.696
21
-129.125
0
LINE
8
BLACK
6
CONTINUOUS
10
170.696
20
-129.125
11
170.839
21
-128.554
0
LINE
8
BLACK
6
CONTINUOUS
10
170.839
20
-128.554
11
170.982
21
-128.268
0
LINE
8
BLACK
6
CONTINUOUS
10
170.982
20
-128.268
11
171.125
21
-128.125
0
LINE
8
BLACK
6
CONTINUOUS
10
171.125
20
-128.125
11
171.411
21
-127.982
0
LINE
8
BLACK
6
CONTINUOUS
10
175.982
20
-130.982
11
175.982
21
-127.982
0
LINE
8
BLACK
6
CONTINUOUS
10
177.268
20
-130.982
11
177.268
21
-129.411
0
LINE
8
BLACK
6
CONTINUOUS
10
177.268
20
-129.411
11
177.125
21
-129.125
0
LINE
8
BLACK
6
CONTINUOUS
10
177.125
20
-129.125
11
176.839
21
-128.982
0
LINE
8
BLACK
6
CONTINUOUS
10
176.839
20
-128.982
11
176.411
21
-128.982
0
LINE
8
BLACK
6
CONTINUOUS
10
176.411
20
-128.982
11
176.125
21
-129.125
0
LINE
8
BLACK
6
CONTINUOUS
10
176.125
20
-129.125
11
175.982
21
-129.268
0
LINE
8
BLACK
6
CONTINUOUS
10
179.125
20
-130.982
11
178.839
21
-130.839
0
LINE
8
BLACK
6
CONTINUOUS
10
178.839
20
-130.839
11
178.696
21
-130.696
0
LINE
8
BLACK
6
CONTINUOUS
10
178.696
20
-130.696
11
178.554
21
-130.411
0
LINE
8
BLACK
6
CONTINUOUS
10
178.554
20
-130.411
11
178.554
21
-129.554
0
LINE
8
BLACK
6
CONTINUOUS
10
178.554
20
-129.554
11
178.696
21
-129.268
0
LINE
8
BLACK
6
CONTINUOUS
10
178.696
20
-129.268
11
178.839
21
-129.125
0
LINE
8
BLACK
6
CONTINUOUS
10
178.839
20
-129.125
11
179.125
21
-128.982
0
LINE
8
BLACK
6
CONTINUOUS
10
179.125
20
-128.982
11
179.554
21
-128.982
0
LINE
8
BLACK
6
CONTINUOUS
10
179.554
20
-128.982
11
179.839
21
-129.125
0
LINE
8
BLACK
6
CONTINUOUS
10
179.839
20
-129.125
11
179.982
21
-129.268
0
LINE
8
BLACK
6
CONTINUOUS
10
179.982
20
-129.268
11
180.125
21
-129.554
0
LINE
8
BLACK
6
CONTINUOUS
10
180.125
20
-129.554
11
180.125
21
-130.411
0
LINE
8
BLACK
6
CONTINUOUS
10
180.125
20
-130.411
11
179.982
21
-130.696
0
LINE
8
BLACK
6
CONTINUOUS
10
179.982
20
-130.696
11
179.839
21
-130.839
0
LINE
8
BLACK
6
CONTINUOUS
10
179.839
20
-130.839
11
179.554
21
-130.982
0
LINE
8
BLACK
6
CONTINUOUS
10
179.554
20
-130.982
11
179.125
21
-130.982
0
LINE
8
BLACK
6
CONTINUOUS
10
181.839
20
-130.982
11
181.554
21
-130.839
0
LINE
8
BLACK
6
CONTINUOUS
10
181.554
20
-130.839
11
181.411
21
-130.554
0
LINE
8
BLACK
6
CONTINUOUS
10
181.411
20
-130.554
11
181.411
21
-127.982
0
LINE
8
BLACK
6
CONTINUOUS
10
184.125
20
-130.839
11
183.839
21
-130.982
0
LINE
8
BLACK
6
CONTINUOUS
10
183.839
20
-130.982
11
183.268
21
-130.982
0
LINE
8
BLACK
6
CONTINUOUS
10
183.268
20
-130.982
11
182.982
21
-130.839
0
LINE
8
BLACK
6
CONTINUOUS
10
182.982
20
-130.839
11
182.839
21
-130.554
0
LINE
8
BLACK
6
CONTINUOUS
10
182.839
20
-130.554
11
182.839
21
-129.411
0
LINE
8
BLACK
6
CONTINUOUS
10
182.839
20
-129.411
11
182.982
21
-129.125
0
LINE
8
BLACK
6
CONTINUOUS
10
182.982
20
-129.125
11
183.268
21
-128.982
0
LINE
8
BLACK
6
CONTINUOUS
10
183.268
20
-128.982
11
183.839
21
-128.982
0
LINE
8
BLACK
6
CONTINUOUS
10
183.839
20
-128.982
11
184.125
21
-129.125
0
LINE
8
BLACK
6
CONTINUOUS
10
184.125
20
-129.125
11
184.268
21
-129.411
0
LINE
8
BLACK
6
CONTINUOUS
10
184.268
20
-129.411
11
184.268
21
-129.696
0
LINE
8
BLACK
6
CONTINUOUS
10
184.268
20
-129.696
11
182.839
21
-129.982
0
LINE
8
BLACK
6
CONTINUOUS
10
185.411
20
-130.839
11
185.696
21
-130.982
0
LINE
8
BLACK
6
CONTINUOUS
10
185.696
20
-130.982
11
186.268
21
-130.982
0
LINE
8
BLACK
6
CONTINUOUS
10
186.268
20
-130.982
11
186.554
21
-130.839
0
LINE
8
BLACK
6
CONTINUOUS
10
186.554
20
-130.839
11
186.696
21
-130.554
0
LINE
8
BLACK
6
CONTINUOUS
10
186.696
20
-130.554
11
186.696
21
-130.411
0
LINE
8
BLACK
6
CONTINUOUS
10
186.696
20
-130.411
11
186.554
21
-130.125
0
LINE
8
BLACK
6
CONTINUOUS
10
186.554
20
-130.125
11
186.268
21
-129.982
0
LINE
8
BLACK
6
CONTINUOUS
10
186.268
20
-129.982
11
185.839
21
-129.982
0
LINE
8
BLACK
6
CONTINUOUS
10
185.839
20
-129.982
11
185.554
21
-129.839
0
LINE
8
BLACK
6
CONTINUOUS
10
185.554
20
-129.839
11
185.411
21
-129.554
0
LINE
8
BLACK
6
CONTINUOUS
10
185.411
20
-129.554
11
185.411
21
-129.411
0
LINE
8
BLACK
6
CONTINUOUS
10
185.411
20
-129.411
11
185.554
21
-129.125
0
LINE
8
BLACK
6
CONTINUOUS
10
185.554
20
-129.125
11
185.839
21
-128.982
0
LINE
8
BLACK
6
CONTINUOUS
10
185.839
20
-128.982
11
186.268
21
-128.982
0
LINE
8
BLACK
6
CONTINUOUS
10
186.268
20
-128.982
11
186.554
21
-129.125
0
LINE
8
BLACK
6
CONTINUOUS
10
187.696
20
-132.125
11
187.839
21
-131.982
0
LINE
8
BLACK
6
CONTINUOUS
10
187.839
20
-131.982
11
188.125
21
-131.554
0
LINE
8
BLACK
6
CONTINUOUS
10
188.125
20
-131.554
11
188.268
21
-131.268
0
LINE
8
BLACK
6
CONTINUOUS
10
188.268
20
-131.268
11
188.411
21
-130.839
0
LINE
8
BLACK
6
CONTINUOUS
10
188.411
20
-130.839
11
188.554
21
-130.125
0
LINE
8
BLACK
6
CONTINUOUS
10
188.554
20
-130.125
11
188.554
21
-129.554
0
LINE
8
BLACK
6
CONTINUOUS
10
188.554
20
-129.554
11
188.411
21
-128.839
0
LINE
8
BLACK
6
CONTINUOUS
10
188.411
20
-128.839
11
188.268
21
-128.411
0
LINE
8
BLACK
6
CONTINUOUS
10
188.268
20
-128.411
11
188.125
21
-128.125
0
LINE
8
BLACK
6
CONTINUOUS
10
188.125
20
-128.125
11
187.839
21
-127.696
0
LINE
8
BLACK
6
CONTINUOUS
10
187.839
20
-127.696
11
187.696
21
-127.554
0
CIRCLE
8
BLACK
10
119.725
20
-133.585
40
0.25
0
LINE
8
BLACK
6
CONTINUOUS
10
123.411
20
-131.942
11
123.696
21
-131.942
0
LINE
8
BLACK
6
CONTINUOUS
10
123.696
20
-131.942
11
123.982
21
-132.085
0
LINE
8
BLACK
6
CONTINUOUS
10
123.982
20
-132.085
11
124.125
21
-132.228
0
LINE
8
BLACK
6
CONTINUOUS
10
124.125
20
-132.228
11
124.268
21
-132.514
0
LINE
8
BLACK
6
CONTINUOUS
10
124.268
20
-132.514
11
124.411
21
-133.085
0
LINE
8
BLACK
6
CONTINUOUS
10
124.411
20
-133.085
11
124.411
21
-133.799
0
LINE
8
BLACK
6
CONTINUOUS
10
124.411
20
-133.799
11
124.268
21
-134.371
0
LINE
8
BLACK
6
CONTINUOUS
10
124.268
20
-134.371
11
124.125
21
-134.656
0
LINE
8
BLACK
6
CONTINUOUS
10
124.125
20
-134.656
11
123.982
21
-134.799
0
LINE
8
BLACK
6
CONTINUOUS
10
123.982
20
-134.799
11
123.696
21
-134.942
0
LINE
8
BLACK
6
CONTINUOUS
10
123.696
20
-134.942
11
123.411
21
-134.942
0
LINE
8
BLACK
6
CONTINUOUS
10
123.411
20
-134.942
11
123.125
21
-134.799
0
LINE
8
BLACK
6
CONTINUOUS
10
123.125
20
-134.799
11
122.982
21
-134.656
0
LINE
8
BLACK
6
CONTINUOUS
10
122.982
20
-134.656
11
122.839
21
-134.371
0
LINE
8
BLACK
6
CONTINUOUS
10
122.839
20
-134.371
11
122.696
21
-133.799
0
LINE
8
BLACK
6
CONTINUOUS
10
122.696
20
-133.799
11
122.696
21
-133.085
0
LINE
8
BLACK
6
CONTINUOUS
10
122.696
20
-133.085
11
122.839
21
-132.514
0
LINE
8
BLACK
6
CONTINUOUS
10
122.839
20
-132.514
11
122.982
21
-132.228
0
LINE
8
BLACK
6
CONTINUOUS
10
122.982
20
-132.228
11
123.125
21
-132.085
0
LINE
8
BLACK
6
CONTINUOUS
10
123.125
20
-132.085
11
123.411
21
-131.942
0
LINE
8
BLACK
6
CONTINUOUS
10
125.696
20
-134.656
11
125.839
21
-134.799
0
LINE
8
BLACK
6
CONTINUOUS
10
125.839
20
-134.799
11
125.696
21
-134.942
0
LINE
8
BLACK
6
CONTINUOUS
10
125.696
20
-134.942
11
125.554
21
-134.799
0
LINE
8
BLACK
6
CONTINUOUS
10
125.554
20
-134.799
11
125.696
21
-134.656
0
LINE
8
BLACK
6
CONTINUOUS
10
125.696
20
-134.656
11
125.696
21
-134.942
0
LINE
8
BLACK
6
CONTINUOUS
10
128.554
20
-131.942
11
127.125
21
-131.942
0
LINE
8
BLACK
6
CONTINUOUS
10
127.125
20
-131.942
11
126.982
21
-133.371
0
LINE
8
BLACK
6
CONTINUOUS
10
126.982
20
-133.371
11
127.125
21
-133.228
0
LINE
8
BLACK
6
CONTINUOUS
10
127.125
20
-133.228
11
127.411
21
-133.085
0
LINE
8
BLACK
6
CONTINUOUS
10
127.411
20
-133.085
11
128.125
21
-133.085
0
LINE
8
BLACK
6
CONTINUOUS
10
128.125
20
-133.085
11
128.411
21
-133.228
0
LINE
8
BLACK
6
CONTINUOUS
10
128.411
20
-133.228
11
128.554
21
-133.371
0
LINE
8
BLACK
6
CONTINUOUS
10
128.554
20
-133.371
11
128.696
21
-133.656
0
LINE
8
BLACK
6
CONTINUOUS
10
128.696
20
-133.656
11
128.696
21
-134.371
0
LINE
8
BLACK
6
CONTINUOUS
10
128.696
20
-134.371
11
128.554
21
-134.656
0
LINE
8
BLACK
6
CONTINUOUS
10
128.554
20
-134.656
11
128.411
21
-134.799
0
LINE
8
BLACK
6
CONTINUOUS
10
128.411
20
-134.799
11
128.125
21
-134.942
0
LINE
8
BLACK
6
CONTINUOUS
10
128.125
20
-134.942
11
127.411
21
-134.942
0
LINE
8
BLACK
6
CONTINUOUS
10
127.411
20
-134.942
11
127.125
21
-134.799
0
LINE
8
BLACK
6
CONTINUOUS
10
127.125
20
-134.799
11
126.982
21
-134.656
0
LINE
8
BLACK
6
CONTINUOUS
10
130.554
20
-131.942
11
130.839
21
-131.942
0
LINE
8
BLACK
6
CONTINUOUS
10
130.839
20
-131.942
11
131.125
21
-132.085
0
LINE
8
BLACK
6
CONTINUOUS
10
131.125
20
-132.085
11
131.268
21
-132.228
0
LINE
8
BLACK
6
CONTINUOUS
10
131.268
20
-132.228
11
131.411
21
-132.514
0
LINE
8
BLACK
6
CONTINUOUS
10
131.411
20
-132.514
11
131.554
21
-133.085
0
LINE
8
BLACK
6
CONTINUOUS
10
131.554
20
-133.085
11
131.554
21
-133.799
0
LINE
8
BLACK
6
CONTINUOUS
10
131.554
20
-133.799
11
131.411
21
-134.371
0
LINE
8
BLACK
6
CONTINUOUS
10
131.411
20
-134.371
11
131.268
21
-134.656
0
LINE
8
BLACK
6
CONTINUOUS
10
131.268
20
-134.656
11
131.125
21
-134.799
0
LINE
8
BLACK
6
CONTINUOUS
10
131.125
20
-134.799
11
130.839
21
-134.942
0
LINE
8
BLACK
6
CONTINUOUS
10
130.839
20
-134.942
11
130.554
21
-134.942
0
LINE
8
BLACK
6
CONTINUOUS
10
130.554
20
-134.942
11
130.268
21
-134.799
0
LINE
8
BLACK
6
CONTINUOUS
10
130.268
20
-134.799
11
130.125
21
-134.656
0
LINE
8
BLACK
6
CONTINUOUS
10
130.125
20
-134.656
11
129.982
21
-134.371
0
LINE
8
BLACK
6
CONTINUOUS
10
129.982
20
-134.371
11
129.839
21
-133.799
0
LINE
8
BLACK
6
CONTINUOUS
10
129.839
20
-133.799
11
129.839
21
-133.085
0
LINE
8
BLACK
6
CONTINUOUS
10
129.839
20
-133.085
11
129.982
21
-132.514
0
LINE
8
BLACK
6
CONTINUOUS
10
129.982
20
-132.514
11
130.125
21
-132.228
0
LINE
8
BLACK
6
CONTINUOUS
10
130.125
20
-132.228
11
130.268
21
-132.085
0
LINE
8
BLACK
6
CONTINUOUS
10
130.268
20
-132.085
11
130.554
21
-131.942
0
LINE
8
BLACK
6
CONTINUOUS
10
132.839
20
-134.942
11
132.839
21
-132.942
0
LINE
8
BLACK
6
CONTINUOUS
10
132.839
20
-133.228
11
132.982
21
-133.085
0
LINE
8
BLACK
6
CONTINUOUS
10
132.982
20
-133.085
11
133.268
21
-132.942
0
LINE
8
BLACK
6
CONTINUOUS
10
133.268
20
-132.942
11
133.696
21
-132.942
0
LINE
8
BLACK
6
CONTINUOUS
10
133.696
20
-132.942
11
133.982
21
-133.085
0
LINE
8
BLACK
6
CONTINUOUS
10
133.982
20
-133.085
11
134.125
21
-133.371
0
LINE
8
BLACK
6
CONTINUOUS
10
134.125
20
-133.371
11
134.125
21
-134.942
0
LINE
8
BLACK
6
CONTINUOUS
10
134.125
20
-133.371
11
134.268
21
-133.085
0
LINE
8
BLACK
6
CONTINUOUS
10
134.268
20
-133.085
11
134.554
21
-132.942
0
LINE
8
BLACK
6
CONTINUOUS
10
134.554
20
-132.942
11
134.982
21
-132.942
0
LINE
8
BLACK
6
CONTINUOUS
10
134.982
20
-132.942
11
135.268
21
-133.085
0
LINE
8
BLACK
6
CONTINUOUS
10
135.268
20
-133.085
11
135.411
21
-133.371
0
LINE
8
BLACK
6
CONTINUOUS
10
135.411
20
-133.371
11
135.411
21
-134.942
0
LINE
8
BLACK
6
CONTINUOUS
10
136.839
20
-134.942
11
136.839
21
-132.942
0
LINE
8
BLACK
6
CONTINUOUS
10
136.839
20
-133.228
11
136.982
21
-133.085
0
LINE
8
BLACK
6
CONTINUOUS
10
136.982
20
-133.085
11
137.268
21
-132.942
0
LINE
8
BLACK
6
CONTINUOUS
10
137.268
20
-132.942
11
137.696
21
-132.942
0
LINE
8
BLACK
6
CONTINUOUS
10
137.696
20
-132.942
11
137.982
21
-133.085
0
LINE
8
BLACK
6
CONTINUOUS
10
137.982
20
-133.085
11
138.125
21
-133.371
0
LINE
8
BLACK
6
CONTINUOUS
10
138.125
20
-133.371
11
138.125
21
-134.942
0
LINE
8
BLACK
6
CONTINUOUS
10
138.125
20
-133.371
11
138.268
21
-133.085
0
LINE
8
BLACK
6
CONTINUOUS
10
138.268
20
-133.085
11
138.554
21
-132.942
0
LINE
8
BLACK
6
CONTINUOUS
10
138.554
20
-132.942
11
138.982
21
-132.942
0
LINE
8
BLACK
6
CONTINUOUS
10
138.982
20
-132.942
11
139.268
21
-133.085
0
LINE
8
BLACK
6
CONTINUOUS
10
139.268
20
-133.085
11
139.411
21
-133.371
0
LINE
8
BLACK
6
CONTINUOUS
10
139.411
20
-133.371
11
139.411
21
-134.942
0
LINE
8
BLACK
6
CONTINUOUS
10
145.268
20
-131.799
11
142.696
21
-135.656
0
LINE
8
BLACK
6
CONTINUOUS
10
149.125
20
-131.942
11
149.411
21
-131.942
0
LINE
8
BLACK
6
CONTINUOUS
10
149.411
20
-131.942
11
149.696
21
-132.085
0
LINE
8
BLACK
6
CONTINUOUS
10
149.696
20
-132.085
11
149.839
21
-132.228
0
LINE
8
BLACK
6
CONTINUOUS
10
149.839
20
-132.228
11
149.982
21
-132.514
0
LINE
8
BLACK
6
CONTINUOUS
10
149.982
20
-132.514
11
150.125
21
-133.085
0
LINE
8
BLACK
6
CONTINUOUS
10
150.125
20
-133.085
11
150.125
21
-133.799
0
LINE
8
BLACK
6
CONTINUOUS
10
150.125
20
-133.799
11
149.982
21
-134.371
0
LINE
8
BLACK
6
CONTINUOUS
10
149.982
20
-134.371
11
149.839
21
-134.656
0
LINE
8
BLACK
6
CONTINUOUS
10
149.839
20
-134.656
11
149.696
21
-134.799
0
LINE
8
BLACK
6
CONTINUOUS
10
149.696
20
-134.799
11
149.411
21
-134.942
0
LINE
8
BLACK
6
CONTINUOUS
10
149.411
20
-134.942
11
149.125
21
-134.942
0
LINE
8
BLACK
6
CONTINUOUS
10
149.125
20
-134.942
11
148.839
21
-134.799
0
LINE
8
BLACK
6
CONTINUOUS
10
148.839
20
-134.799
11
148.696
21
-134.656
0
LINE
8
BLACK
6
CONTINUOUS
10
148.696
20
-134.656
11
148.554
21
-134.371
0
LINE
8
BLACK
6
CONTINUOUS
10
148.554
20
-134.371
11
148.411
21
-133.799
0
LINE
8
BLACK
6
CONTINUOUS
10
148.411
20
-133.799
11
148.411
21
-133.085
0
LINE
8
BLACK
6
CONTINUOUS
10
148.411
20
-133.085
11
148.554
21
-132.514
0
LINE
8
BLACK
6
CONTINUOUS
10
148.554
20
-132.514
11
148.696
21
-132.228
0
LINE
8
BLACK
6
CONTINUOUS
10
148.696
20
-132.228
11
148.839
21
-132.085
0
LINE
8
BLACK
6
CONTINUOUS
10
148.839
20
-132.085
11
149.125
21
-131.942
0
LINE
8
BLACK
6
CONTINUOUS
10
151.411
20
-134.656
11
151.554
21
-134.799
0
LINE
8
BLACK
6
CONTINUOUS
10
151.554
20
-134.799
11
151.411
21
-134.942
0
LINE
8
BLACK
6
CONTINUOUS
10
151.411
20
-134.942
11
151.268
21
-134.799
0
LINE
8
BLACK
6
CONTINUOUS
10
151.268
20
-134.799
11
151.411
21
-134.656
0
LINE
8
BLACK
6
CONTINUOUS
10
151.411
20
-134.656
11
151.411
21
-134.942
0
LINE
8
BLACK
6
CONTINUOUS
10
153.411
20
-131.942
11
153.696
21
-131.942
0
LINE
8
BLACK
6
CONTINUOUS
10
153.696
20
-131.942
11
153.982
21
-132.085
0
LINE
8
BLACK
6
CONTINUOUS
10
153.982
20
-132.085
11
154.125
21
-132.228
0
LINE
8
BLACK
6
CONTINUOUS
10
154.125
20
-132.228
11
154.268
21
-132.514
0
LINE
8
BLACK
6
CONTINUOUS
10
154.268
20
-132.514
11
154.411
21
-133.085
0
LINE
8
BLACK
6
CONTINUOUS
10
154.411
20
-133.085
11
154.411
21
-133.799
0
LINE
8
BLACK
6
CONTINUOUS
10
154.411
20
-133.799
11
154.268
21
-134.371
0
LINE
8
BLACK
6
CONTINUOUS
10
154.268
20
-134.371
11
154.125
21
-134.656
0
LINE
8
BLACK
6
CONTINUOUS
10
154.125
20
-134.656
11
153.982
21
-134.799
0
LINE
8
BLACK
6
CONTINUOUS
10
153.982
20
-134.799
11
153.696
21
-134.942
0
LINE
8
BLACK
6
CONTINUOUS
10
153.696
20
-134.942
11
153.411
21
-134.942
0
LINE
8
BLACK
6
CONTINUOUS
10
153.411
20
-134.942
11
153.125
21
-134.799
0
LINE
8
BLACK
6
CONTINUOUS
10
153.125
20
-134.799
11
152.982
21
-134.656
0
LINE
8
BLACK
6
CONTINUOUS
10
152.982
20
-134.656
11
152.839
21
-134.371
0
LINE
8
BLACK
6
CONTINUOUS
10
152.839
20
-134.371
11
152.696
21
-133.799
0
LINE
8
BLACK
6
CONTINUOUS
10
152.696
20
-133.799
11
152.696
21
-133.085
0
LINE
8
BLACK
6
CONTINUOUS
10
152.696
20
-133.085
11
152.839
21
-132.514
0
LINE
8
BLACK
6
CONTINUOUS
10
152.839
20
-132.514
11
152.982
21
-132.228
0
LINE
8
BLACK
6
CONTINUOUS
10
152.982
20
-132.228
11
153.125
21
-132.085
0
LINE
8
BLACK
6
CONTINUOUS
10
153.125
20
-132.085
11
153.411
21
-131.942
0
LINE
8
BLACK
6
CONTINUOUS
10
155.554
20
-132.228
11
155.696
21
-132.085
0
LINE
8
BLACK
6
CONTINUOUS
10
155.696
20
-132.085
11
155.982
21
-131.942
0
LINE
8
BLACK
6
CONTINUOUS
10
155.982
20
-131.942
11
156.696
21
-131.942
0
LINE
8
BLACK
6
CONTINUOUS
10
156.696
20
-131.942
11
156.982
21
-132.085
0
LINE
8
BLACK
6
CONTINUOUS
10
156.982
20
-132.085
11
157.125
21
-132.228
0
LINE
8
BLACK
6
CONTINUOUS
10
157.125
20
-132.228
11
157.268
21
-132.514
0
LINE
8
BLACK
6
CONTINUOUS
10
157.268
20
-132.514
11
157.268
21
-132.799
0
LINE
8
BLACK
6
CONTINUOUS
10
157.268
20
-132.799
11
157.125
21
-133.228
0
LINE
8
BLACK
6
CONTINUOUS
10
157.125
20
-133.228
11
155.411
21
-134.942
0
LINE
8
BLACK
6
CONTINUOUS
10
155.411
20
-134.942
11
157.268
21
-134.942
0
LINE
8
BLACK
6
CONTINUOUS
10
159.125
20
-131.942
11
159.411
21
-131.942
0
LINE
8
BLACK
6
CONTINUOUS
10
159.411
20
-131.942
11
159.696
21
-132.085
0
LINE
8
BLACK
6
CONTINUOUS
10
159.696
20
-132.085
11
159.839
21
-132.228
0
LINE
8
BLACK
6
CONTINUOUS
10
159.839
20
-132.228
11
159.982
21
-132.514
0
LINE
8
BLACK
6
CONTINUOUS
10
159.982
20
-132.514
11
160.125
21
-133.085
0
LINE
8
BLACK
6
CONTINUOUS
10
160.125
20
-133.085
11
160.125
21
-133.799
0
LINE
8
BLACK
6
CONTINUOUS
10
160.125
20
-133.799
11
159.982
21
-134.371
0
LINE
8
BLACK
6
CONTINUOUS
10
159.982
20
-134.371
11
159.839
21
-134.656
0
LINE
8
BLACK
6
CONTINUOUS
10
159.839
20
-134.656
11
159.696
21
-134.799
0
LINE
8
BLACK
6
CONTINUOUS
10
159.696
20
-134.799
11
159.411
21
-134.942
0
LINE
8
BLACK
6
CONTINUOUS
10
159.411
20
-134.942
11
159.125
21
-134.942
0
LINE
8
BLACK
6
CONTINUOUS
10
159.125
20
-134.942
11
158.839
21
-134.799
0
LINE
8
BLACK
6
CONTINUOUS
10
158.839
20
-134.799
11
158.696
21
-134.656
0
LINE
8
BLACK
6
CONTINUOUS
10
158.696
20
-134.656
11
158.554
21
-134.371
0
LINE
8
BLACK
6
CONTINUOUS
10
158.554
20
-134.371
11
158.411
21
-133.799
0
LINE
8
BLACK
6
CONTINUOUS
10
158.411
20
-133.799
11
158.411
21
-133.085
0
LINE
8
BLACK
6
CONTINUOUS
10
158.411
20
-133.085
11
158.554
21
-132.514
0
LINE
8
BLACK
6
CONTINUOUS
10
158.554
20
-132.514
11
158.696
21
-132.228
0
LINE
8
BLACK
6
CONTINUOUS
10
158.696
20
-132.228
11
158.839
21
-132.085
0
LINE
8
BLACK
6
CONTINUOUS
10
158.839
20
-132.085
11
159.125
21
-131.942
0
LINE
8
BLACK
6
CONTINUOUS
10
161.268
20
-131.942
11
161.268
21
-132.514
0
LINE
8
BLACK
6
CONTINUOUS
10
162.411
20
-131.942
11
162.411
21
-132.514
0
LINE
8
BLACK
6
CONTINUOUS
10
166.839
20
-136.085
11
166.696
21
-135.942
0
LINE
8
BLACK
6
CONTINUOUS
10
166.696
20
-135.942
11
166.411
21
-135.514
0
LINE
8
BLACK
6
CONTINUOUS
10
166.411
20
-135.514
11
166.268
21
-135.228
0
LINE
8
BLACK
6
CONTINUOUS
10
166.268
20
-135.228
11
166.125
21
-134.799
0
LINE
8
BLACK
6
CONTINUOUS
10
166.125
20
-134.799
11
165.982
21
-134.085
0
LINE
8
BLACK
6
CONTINUOUS
10
165.982
20
-134.085
11
165.982
21
-133.514
0
LINE
8
BLACK
6
CONTINUOUS
10
165.982
20
-133.514
11
166.125
21
-132.799
0
LINE
8
BLACK
6
CONTINUOUS
10
166.125
20
-132.799
11
166.268
21
-132.371
0
LINE
8
BLACK
6
CONTINUOUS
10
166.268
20
-132.371
11
166.411
21
-132.085
0
LINE
8
BLACK
6
CONTINUOUS
10
166.411
20
-132.085
11
166.696
21
-131.656
0
LINE
8
BLACK
6
CONTINUOUS
10
166.696
20
-131.656
11
166.839
21
-131.514
0
LINE
8
BLACK
6
CONTINUOUS
10
167.839
20
-132.228
11
167.982
21
-132.085
0
LINE
8
BLACK
6
CONTINUOUS
10
167.982
20
-132.085
11
168.268
21
-131.942
0
LINE
8
BLACK
6
CONTINUOUS
10
168.268
20
-131.942
11
168.982
21
-131.942
0
LINE
8
BLACK
6
CONTINUOUS
10
168.982
20
-131.942
11
169.268
21
-132.085
0
LINE
8
BLACK
6
CONTINUOUS
10
169.268
20
-132.085
11
169.411
21
-132.228
0
LINE
8
BLACK
6
CONTINUOUS
10
169.411
20
-132.228
11
169.554
21
-132.514
0
LINE
8
BLACK
6
CONTINUOUS
10
169.554
20
-132.514
11
169.554
21
-132.799
0
LINE
8
BLACK
6
CONTINUOUS
10
169.554
20
-132.799
11
169.411
21
-133.228
0
LINE
8
BLACK
6
CONTINUOUS
10
169.411
20
-133.228
11
167.696
21
-134.942
0
LINE
8
BLACK
6
CONTINUOUS
10
167.696
20
-134.942
11
169.554
21
-134.942
0
LINE
8
BLACK
6
CONTINUOUS
10
173.125
20
-134.942
11
173.125
21
-131.942
0
LINE
8
BLACK
6
CONTINUOUS
10
174.411
20
-134.942
11
174.411
21
-133.371
0
LINE
8
BLACK
6
CONTINUOUS
10
174.411
20
-133.371
11
174.268
21
-133.085
0
LINE
8
BLACK
6
CONTINUOUS
10
174.268
20
-133.085
11
173.982
21
-132.942
0
LINE
8
BLACK
6
CONTINUOUS
10
173.982
20
-132.942
11
173.554
21
-132.942
0
LINE
8
BLACK
6
CONTINUOUS
10
173.554
20
-132.942
11
173.268
21
-133.085
0
LINE
8
BLACK
6
CONTINUOUS
10
173.268
20
-133.085
11
173.125
21
-133.228
0
LINE
8
BLACK
6
CONTINUOUS
10
176.268
20
-134.942
11
175.982
21
-134.799
0
LINE
8
BLACK
6
CONTINUOUS
10
175.982
20
-134.799
11
175.839
21
-134.656
0
LINE
8
BLACK
6
CONTINUOUS
10
175.839
20
-134.656
11
175.696
21
-134.371
0
LINE
8
BLACK
6
CONTINUOUS
10
175.696
20
-134.371
11
175.696
21
-133.514
0
LINE
8
BLACK
6
CONTINUOUS
10
175.696
20
-133.514
11
175.839
21
-133.228
0
LINE
8
BLACK
6
CONTINUOUS
10
175.839
20
-133.228
11
175.982
21
-133.085
0
LINE
8
BLACK
6
CONTINUOUS
10
175.982
20
-133.085
11
176.268
21
-132.942
0
LINE
8
BLACK
6
CONTINUOUS
10
176.268
20
-132.942
11
176.696
21
-132.942
0
LINE
8
BLACK
6
CONTINUOUS
10
176.696
20
-132.942
11
176.982
21
-133.085
0
LINE
8
BLACK
6
CONTINUOUS
10
176.982
20
-133.085
11
177.125
21
-133.228
0
LINE
8
BLACK
6
CONTINUOUS
10
177.125
20
-133.228
11
177.268
21
-133.514
0
LINE
8
BLACK
6
CONTINUOUS
10
177.268
20
-133.514
11
177.268
21
-134.371
0
LINE
8
BLACK
6
CONTINUOUS
10
177.268
20
-134.371
11
177.125
21
-134.656
0
LINE
8
BLACK
6
CONTINUOUS
10
177.125
20
-134.656
11
176.982
21
-134.799
0
LINE
8
BLACK
6
CONTINUOUS
10
176.982
20
-134.799
11
176.696
21
-134.942
0
LINE
8
BLACK
6
CONTINUOUS
10
176.696
20
-134.942
11
176.268
21
-134.942
0
LINE
8
BLACK
6
CONTINUOUS
10
178.982
20
-134.942
11
178.696
21
-134.799
0
LINE
8
BLACK
6
CONTINUOUS
10
178.696
20
-134.799
11
178.554
21
-134.514
0
LINE
8
BLACK
6
CONTINUOUS
10
178.554
20
-134.514
11
178.554
21
-131.942
0
LINE
8
BLACK
6
CONTINUOUS
10
181.268
20
-134.799
11
180.982
21
-134.942
0
LINE
8
BLACK
6
CONTINUOUS
10
180.982
20
-134.942
11
180.411
21
-134.942
0
LINE
8
BLACK
6
CONTINUOUS
10
180.411
20
-134.942
11
180.125
21
-134.799
0
LINE
8
BLACK
6
CONTINUOUS
10
180.125
20
-134.799
11
179.982
21
-134.514
0
LINE
8
BLACK
6
CONTINUOUS
10
179.982
20
-134.514
11
179.982
21
-133.371
0
LINE
8
BLACK
6
CONTINUOUS
10
179.982
20
-133.371
11
180.125
21
-133.085
0
LINE
8
BLACK
6
CONTINUOUS
10
180.125
20
-133.085
11
180.411
21
-132.942
0
LINE
8
BLACK
6
CONTINUOUS
10
180.411
20
-132.942
11
180.982
21
-132.942
0
LINE
8
BLACK
6
CONTINUOUS
10
180.982
20
-132.942
11
181.268
21
-133.085
0
LINE
8
BLACK
6
CONTINUOUS
10
181.268
20
-133.085
11
181.411
21
-133.371
0
LINE
8
BLACK
6
CONTINUOUS
10
181.411
20
-133.371
11
181.411
21
-133.656
0
LINE
8
BLACK
6
CONTINUOUS
10
181.411
20
-133.656
11
179.982
21
-133.942
0
LINE
8
BLACK
6
CONTINUOUS
10
182.554
20
-134.799
11
182.839
21
-134.942
0
LINE
8
BLACK
6
CONTINUOUS
10
182.839
20
-134.942
11
183.411
21
-134.942
0
LINE
8
BLACK
6
CONTINUOUS
10
183.411
20
-134.942
11
183.696
21
-134.799
0
LINE
8
BLACK
6
CONTINUOUS
10
183.696
20
-134.799
11
183.839
21
-134.514
0
LINE
8
BLACK
6
CONTINUOUS
10
183.839
20
-134.514
11
183.839
21
-134.371
0
LINE
8
BLACK
6
CONTINUOUS
10
183.839
20
-134.371
11
183.696
21
-134.085
0
LINE
8
BLACK
6
CONTINUOUS
10
183.696
20
-134.085
11
183.411
21
-133.942
0
LINE
8
BLACK
6
CONTINUOUS
10
183.411
20
-133.942
11
182.982
21
-133.942
0
LINE
8
BLACK
6
CONTINUOUS
10
182.982
20
-133.942
11
182.696
21
-133.799
0
LINE
8
BLACK
6
CONTINUOUS
10
182.696
20
-133.799
11
182.554
21
-133.514
0
LINE
8
BLACK
6
CONTINUOUS
10
182.554
20
-133.514
11
182.554
21
-133.371
0
LINE
8
BLACK
6
CONTINUOUS
10
182.554
20
-133.371
11
182.696
21
-133.085
0
LINE
8
BLACK
6
CONTINUOUS
10
182.696
20
-133.085
11
182.982
21
-132.942
0
LINE
8
BLACK
6
CONTINUOUS
10
182.982
20
-132.942
11
183.411
21
-132.942
0
LINE
8
BLACK
6
CONTINUOUS
10
183.411
20
-132.942
11
183.696
21
-133.085
0
LINE
8
BLACK
6
CONTINUOUS
10
184.839
20
-136.085
11
184.982
21
-135.942
0
LINE
8
BLACK
6
CONTINUOUS
10
184.982
20
-135.942
11
185.268
21
-135.514
0
LINE
8
BLACK
6
CONTINUOUS
10
185.268
20
-135.514
11
185.411
21
-135.228
0
LINE
8
BLACK
6
CONTINUOUS
10
185.411
20
-135.228
11
185.554
21
-134.799
0
LINE
8
BLACK
6
CONTINUOUS
10
185.554
20
-134.799
11
185.696
21
-134.085
0
LINE
8
BLACK
6
CONTINUOUS
10
185.696
20
-134.085
11
185.696
21
-133.514
0
LINE
8
BLACK
6
CONTINUOUS
10
185.696
20
-133.514
11
185.554
21
-132.799
0
LINE
8
BLACK
6
CONTINUOUS
10
185.554
20
-132.799
11
185.411
21
-132.371
0
LINE
8
BLACK
6
CONTINUOUS
10
185.411
20
-132.371
11
185.268
21
-132.085
0
LINE
8
BLACK
6
CONTINUOUS
10
185.268
20
-132.085
11
184.982
21
-131.656
0
LINE
8
BLACK
6
CONTINUOUS
10
184.982
20
-131.656
11
184.839
21
-131.514
0
LINE
8
BLACK
6
CONTINUOUS
10
119.575
20
-137.145
11
119.575
21
-137.945
0
LINE
8
BLACK
6
CONTINUOUS
10
119.175
20
-137.545
11
119.975
21
-137.545
0
LINE
8
BLACK
6
CONTINUOUS
10
123.411
20
-135.902
11
123.696
21
-135.902
0
LINE
8
BLACK
6
CONTINUOUS
10
123.696
20
-135.902
11
123.982
21
-136.045
0
LINE
8
BLACK
6
CONTINUOUS
10
123.982
20
-136.045
11
124.125
21
-136.188
0
LINE
8
BLACK
6
CONTINUOUS
10
124.125
20
-136.188
11
124.268
21
-136.474
0
LINE
8
BLACK
6
CONTINUOUS
10
124.268
20
-136.474
11
124.411
21
-137.045
0
LINE
8
BLACK
6
CONTINUOUS
10
124.411
20
-137.045
11
124.411
21
-137.759
0
LINE
8
BLACK
6
CONTINUOUS
10
124.411
20
-137.759
11
124.268
21
-138.331
0
LINE
8
BLACK
6
CONTINUOUS
10
124.268
20
-138.331
11
124.125
21
-138.616
0
LINE
8
BLACK
6
CONTINUOUS
10
124.125
20
-138.616
11
123.982
21
-138.759
0
LINE
8
BLACK
6
CONTINUOUS
10
123.982
20
-138.759
11
123.696
21
-138.902
0
LINE
8
BLACK
6
CONTINUOUS
10
123.696
20
-138.902
11
123.411
21
-138.902
0
LINE
8
BLACK
6
CONTINUOUS
10
123.411
20
-138.902
11
123.125
21
-138.759
0
LINE
8
BLACK
6
CONTINUOUS
10
123.125
20
-138.759
11
122.982
21
-138.616
0
LINE
8
BLACK
6
CONTINUOUS
10
122.982
20
-138.616
11
122.839
21
-138.331
0
LINE
8
BLACK
6
CONTINUOUS
10
122.839
20
-138.331
11
122.696
21
-137.759
0
LINE
8
BLACK
6
CONTINUOUS
10
122.696
20
-137.759
11
122.696
21
-137.045
0
LINE
8
BLACK
6
CONTINUOUS
10
122.696
20
-137.045
11
122.839
21
-136.474
0
LINE
8
BLACK
6
CONTINUOUS
10
122.839
20
-136.474
11
122.982
21
-136.188
0
LINE
8
BLACK
6
CONTINUOUS
10
122.982
20
-136.188
11
123.125
21
-136.045
0
LINE
8
BLACK
6
CONTINUOUS
10
123.125
20
-136.045
11
123.411
21
-135.902
0
LINE
8
BLACK
6
CONTINUOUS
10
125.696
20
-138.616
11
125.839
21
-138.759
0
LINE
8
BLACK
6
CONTINUOUS
10
125.839
20
-138.759
11
125.696
21
-138.902
0
LINE
8
BLACK
6
CONTINUOUS
10
125.696
20
-138.902
11
125.554
21
-138.759
0
LINE
8
BLACK
6
CONTINUOUS
10
125.554
20
-138.759
11
125.696
21
-138.616
0
LINE
8
BLACK
6
CONTINUOUS
10
125.696
20
-138.616
11
125.696
21
-138.902
0
LINE
8
BLACK
6
CONTINUOUS
10
127.554
20
-137.188
11
127.268
21
-137.045
0
LINE
8
BLACK
6
CONTINUOUS
10
127.268
20
-137.045
11
127.125
21
-136.902
0
LINE
8
BLACK
6
CONTINUOUS
10
127.125
20
-136.902
11
126.982
21
-136.616
0
LINE
8
BLACK
6
CONTINUOUS
10
126.982
20
-136.616
11
126.982
21
-136.474
0
LINE
8
BLACK
6
CONTINUOUS
10
126.982
20
-136.474
11
127.125
21
-136.188
0
LINE
8
BLACK
6
CONTINUOUS
10
127.125
20
-136.188
11
127.268
21
-136.045
0
LINE
8
BLACK
6
CONTINUOUS
10
127.268
20
-136.045
11
127.554
21
-135.902
0
LINE
8
BLACK
6
CONTINUOUS
10
127.554
20
-135.902
11
128.125
21
-135.902
0
LINE
8
BLACK
6
CONTINUOUS
10
128.125
20
-135.902
11
128.411
21
-136.045
0
LINE
8
BLACK
6
CONTINUOUS
10
128.411
20
-136.045
11
128.554
21
-136.188
0
LINE
8
BLACK
6
CONTINUOUS
10
128.554
20
-136.188
11
128.696
21
-136.474
0
LINE
8
BLACK
6
CONTINUOUS
10
128.696
20
-136.474
11
128.696
21
-136.616
0
LINE
8
BLACK
6
CONTINUOUS
10
128.696
20
-136.616
11
128.554
21
-136.902
0
LINE
8
BLACK
6
CONTINUOUS
10
128.554
20
-136.902
11
128.411
21
-137.045
0
LINE
8
BLACK
6
CONTINUOUS
10
128.411
20
-137.045
11
128.125
21
-137.188
0
LINE
8
BLACK
6
CONTINUOUS
10
128.125
20
-137.188
11
127.554
21
-137.188
0
LINE
8
BLACK
6
CONTINUOUS
10
127.554
20
-137.188
11
127.268
21
-137.331
0
LINE
8
BLACK
6
CONTINUOUS
10
127.268
20
-137.331
11
127.125
21
-137.474
0
LINE
8
BLACK
6
CONTINUOUS
10
127.125
20
-137.474
11
126.982
21
-137.759
0
LINE
8
BLACK
6
CONTINUOUS
10
126.982
20
-137.759
11
126.982
21
-138.331
0
LINE
8
BLACK
6
CONTINUOUS
10
126.982
20
-138.331
11
127.125
21
-138.616
0
LINE
8
BLACK
6
CONTINUOUS
10
127.125
20
-138.616
11
127.268
21
-138.759
0
LINE
8
BLACK
6
CONTINUOUS
10
127.268
20
-138.759
11
127.554
21
-138.902
0
LINE
8
BLACK
6
CONTINUOUS
10
127.554
20
-138.902
11
128.125
21
-138.902
0
LINE
8
BLACK
6
CONTINUOUS
10
128.125
20
-138.902
11
128.411
21
-138.759
0
LINE
8
BLACK
6
CONTINUOUS
10
128.411
20
-138.759
11
128.554
21
-138.616
0
LINE
8
BLACK
6
CONTINUOUS
10
128.554
20
-138.616
11
128.696
21
-138.331
0
LINE
8
BLACK
6
CONTINUOUS
10
128.696
20
-138.331
11
128.696
21
-137.759
0
LINE
8
BLACK
6
CONTINUOUS
10
128.696
20
-137.759
11
128.554
21
-137.474
0
LINE
8
BLACK
6
CONTINUOUS
10
128.554
20
-137.474
11
128.411
21
-137.331
0
LINE
8
BLACK
6
CONTINUOUS
10
128.411
20
-137.331
11
128.125
21
-137.188
0
LINE
8
BLACK
6
CONTINUOUS
10
130.554
20
-135.902
11
130.839
21
-135.902
0
LINE
8
BLACK
6
CONTINUOUS
10
130.839
20
-135.902
11
131.125
21
-136.045
0
LINE
8
BLACK
6
CONTINUOUS
10
131.125
20
-136.045
11
131.268
21
-136.188
0
LINE
8
BLACK
6
CONTINUOUS
10
131.268
20
-136.188
11
131.411
21
-136.474
0
LINE
8
BLACK
6
CONTINUOUS
10
131.411
20
-136.474
11
131.554
21
-137.045
0
LINE
8
BLACK
6
CONTINUOUS
10
131.554
20
-137.045
11
131.554
21
-137.759
0
LINE
8
BLACK
6
CONTINUOUS
10
131.554
20
-137.759
11
131.411
21
-138.331
0
LINE
8
BLACK
6
CONTINUOUS
10
131.411
20
-138.331
11
131.268
21
-138.616
0
LINE
8
BLACK
6
CONTINUOUS
10
131.268
20
-138.616
11
131.125
21
-138.759
0
LINE
8
BLACK
6
CONTINUOUS
10
131.125
20
-138.759
11
130.839
21
-138.902
0
LINE
8
BLACK
6
CONTINUOUS
10
130.839
20
-138.902
11
130.554
21
-138.902
0
LINE
8
BLACK
6
CONTINUOUS
10
130.554
20
-138.902
11
130.268
21
-138.759
0
LINE
8
BLACK
6
CONTINUOUS
10
130.268
20
-138.759
11
130.125
21
-138.616
0
LINE
8
BLACK
6
CONTINUOUS
10
130.125
20
-138.616
11
129.982
21
-138.331
0
LINE
8
BLACK
6
CONTINUOUS
10
129.982
20
-138.331
11
129.839
21
-137.759
0
LINE
8
BLACK
6
CONTINUOUS
10
129.839
20
-137.759
11
129.839
21
-137.045
0
LINE
8
BLACK
6
CONTINUOUS
10
129.839
20
-137.045
11
129.982
21
-136.474
0
LINE
8
BLACK
6
CONTINUOUS
10
129.982
20
-136.474
11
130.125
21
-136.188
0
LINE
8
BLACK
6
CONTINUOUS
10
130.125
20
-136.188
11
130.268
21
-136.045
0
LINE
8
BLACK
6
CONTINUOUS
10
130.268
20
-136.045
11
130.554
21
-135.902
0
LINE
8
BLACK
6
CONTINUOUS
10
132.839
20
-138.902
11
132.839
21
-136.902
0
LINE
8
BLACK
6
CONTINUOUS
10
132.839
20
-137.188
11
132.982
21
-137.045
0
LINE
8
BLACK
6
CONTINUOUS
10
132.982
20
-137.045
11
133.268
21
-136.902
0
LINE
8
BLACK
6
CONTINUOUS
10
133.268
20
-136.902
11
133.696
21
-136.902
0
LINE
8
BLACK
6
CONTINUOUS
10
133.696
20
-136.902
11
133.982
21
-137.045
0
LINE
8
BLACK
6
CONTINUOUS
10
133.982
20
-137.045
11
134.125
21
-137.331
0
LINE
8
BLACK
6
CONTINUOUS
10
134.125
20
-137.331
11
134.125
21
-138.902
0
LINE
8
BLACK
6
CONTINUOUS
10
134.125
20
-137.331
11
134.268
21
-137.045
0
LINE
8
BLACK
6
CONTINUOUS
10
134.268
20
-137.045
11
134.554
21
-136.902
0
LINE
8
BLACK
6
CONTINUOUS
10
134.554
20
-136.902
11
134.982
21
-136.902
0
LINE
8
BLACK
6
CONTINUOUS
10
134.982
20
-136.902
11
135.268
21
-137.045
0
LINE
8
BLACK
6
CONTINUOUS
10
135.268
20
-137.045
11
135.411
21
-137.331
0
LINE
8
BLACK
6
CONTINUOUS
10
135.411
20
-137.331
11
135.411
21
-138.902
0
LINE
8
BLACK
6
CONTINUOUS
10
136.839
20
-138.902
11
136.839
21
-136.902
0
LINE
8
BLACK
6
CONTINUOUS
10
136.839
20
-137.188
11
136.982
21
-137.045
0
LINE
8
BLACK
6
CONTINUOUS
10
136.982
20
-137.045
11
137.268
21
-136.902
0
LINE
8
BLACK
6
CONTINUOUS
10
137.268
20
-136.902
11
137.696
21
-136.902
0
LINE
8
BLACK
6
CONTINUOUS
10
137.696
20
-136.902
11
137.982
21
-137.045
0
LINE
8
BLACK
6
CONTINUOUS
10
137.982
20
-137.045
11
138.125
21
-137.331
0
LINE
8
BLACK
6
CONTINUOUS
10
138.125
20
-137.331
11
138.125
21
-138.902
0
LINE
8
BLACK
6
CONTINUOUS
10
138.125
20
-137.331
11
138.268
21
-137.045
0
LINE
8
BLACK
6
CONTINUOUS
10
138.268
20
-137.045
11
138.554
21
-136.902
0
LINE
8
BLACK
6
CONTINUOUS
10
138.554
20
-136.902
11
138.982
21
-136.902
0
LINE
8
BLACK
6
CONTINUOUS
10
138.982
20
-136.902
11
139.268
21
-137.045
0
LINE
8
BLACK
6
CONTINUOUS
10
139.268
20
-137.045
11
139.411
21
-137.331
0
LINE
8
BLACK
6
CONTINUOUS
10
139.411
20
-137.331
11
139.411
21
-138.902
0
LINE
8
BLACK
6
CONTINUOUS
10
145.268
20
-135.759
11
142.696
21
-139.616
0
LINE
8
BLACK
6
CONTINUOUS
10
149.125
20
-135.902
11
149.411
21
-135.902
0
LINE
8
BLACK
6
CONTINUOUS
10
149.411
20
-135.902
11
149.696
21
-136.045
0
LINE
8
BLACK
6
CONTINUOUS
10
149.696
20
-136.045
11
149.839
21
-136.188
0
LINE
8
BLACK
6
CONTINUOUS
10
149.839
20
-136.188
11
149.982
21
-136.474
0
LINE
8
BLACK
6
CONTINUOUS
10
149.982
20
-136.474
11
150.125
21
-137.045
0
LINE
8
BLACK
6
CONTINUOUS
10
150.125
20
-137.045
11
150.125
21
-137.759
0
LINE
8
BLACK
6
CONTINUOUS
10
150.125
20
-137.759
11
149.982
21
-138.331
0
LINE
8
BLACK
6
CONTINUOUS
10
149.982
20
-138.331
11
149.839
21
-138.616
0
LINE
8
BLACK
6
CONTINUOUS
10
149.839
20
-138.616
11
149.696
21
-138.759
0
LINE
8
BLACK
6
CONTINUOUS
10
149.696
20
-138.759
11
149.411
21
-138.902
0
LINE
8
BLACK
6
CONTINUOUS
10
149.411
20
-138.902
11
149.125
21
-138.902
0
LINE
8
BLACK
6
CONTINUOUS
10
149.125
20
-138.902
11
148.839
21
-138.759
0
LINE
8
BLACK
6
CONTINUOUS
10
148.839
20
-138.759
11
148.696
21
-138.616
0
LINE
8
BLACK
6
CONTINUOUS
10
148.696
20
-138.616
11
148.554
21
-138.331
0
LINE
8
BLACK
6
CONTINUOUS
10
148.554
20
-138.331
11
148.411
21
-137.759
0
LINE
8
BLACK
6
CONTINUOUS
10
148.411
20
-137.759
11
148.411
21
-137.045
0
LINE
8
BLACK
6
CONTINUOUS
10
148.411
20
-137.045
11
148.554
21
-136.474
0
LINE
8
BLACK
6
CONTINUOUS
10
148.554
20
-136.474
11
148.696
21
-136.188
0
LINE
8
BLACK
6
CONTINUOUS
10
148.696
20
-136.188
11
148.839
21
-136.045
0
LINE
8
BLACK
6
CONTINUOUS
10
148.839
20
-136.045
11
149.125
21
-135.902
0
LINE
8
BLACK
6
CONTINUOUS
10
151.411
20
-138.616
11
151.554
21
-138.759
0
LINE
8
BLACK
6
CONTINUOUS
10
151.554
20
-138.759
11
151.411
21
-138.902
0
LINE
8
BLACK
6
CONTINUOUS
10
151.411
20
-138.902
11
151.268
21
-138.759
0
LINE
8
BLACK
6
CONTINUOUS
10
151.268
20
-138.759
11
151.411
21
-138.616
0
LINE
8
BLACK
6
CONTINUOUS
10
151.411
20
-138.616
11
151.411
21
-138.902
0
LINE
8
BLACK
6
CONTINUOUS
10
153.411
20
-135.902
11
153.696
21
-135.902
0
LINE
8
BLACK
6
CONTINUOUS
10
153.696
20
-135.902
11
153.982
21
-136.045
0
LINE
8
BLACK
6
CONTINUOUS
10
153.982
20
-136.045
11
154.125
21
-136.188
0
LINE
8
BLACK
6
CONTINUOUS
10
154.125
20
-136.188
11
154.268
21
-136.474
0
LINE
8
BLACK
6
CONTINUOUS
10
154.268
20
-136.474
11
154.411
21
-137.045
0
LINE
8
BLACK
6
CONTINUOUS
10
154.411
20
-137.045
11
154.411
21
-137.759
0
LINE
8
BLACK
6
CONTINUOUS
10
154.411
20
-137.759
11
154.268
21
-138.331
0
LINE
8
BLACK
6
CONTINUOUS
10
154.268
20
-138.331
11
154.125
21
-138.616
0
LINE
8
BLACK
6
CONTINUOUS
10
154.125
20
-138.616
11
153.982
21
-138.759
0
LINE
8
BLACK
6
CONTINUOUS
10
153.982
20
-138.759
11
153.696
21
-138.902
0
LINE
8
BLACK
6
CONTINUOUS
10
153.696
20
-138.902
11
153.411
21
-138.902
0
LINE
8
BLACK
6
CONTINUOUS
10
153.411
20
-138.902
11
153.125
21
-138.759
0
LINE
8
BLACK
6
CONTINUOUS
10
153.125
20
-138.759
11
152.982
21
-138.616
0
LINE
8
BLACK
6
CONTINUOUS
10
152.982
20
-138.616
11
152.839
21
-138.331
0
LINE
8
BLACK
6
CONTINUOUS
10
152.839
20
-138.331
11
152.696
21
-137.759
0
LINE
8
BLACK
6
CONTINUOUS
10
152.696
20
-137.759
11
152.696
21
-137.045
0
LINE
8
BLACK
6
CONTINUOUS
10
152.696
20
-137.045
11
152.839
21
-136.474
0
LINE
8
BLACK
6
CONTINUOUS
10
152.839
20
-136.474
11
152.982
21
-136.188
0
LINE
8
BLACK
6
CONTINUOUS
10
152.982
20
-136.188
11
153.125
21
-136.045
0
LINE
8
BLACK
6
CONTINUOUS
10
153.125
20
-136.045
11
153.411
21
-135.902
0
LINE
8
BLACK
6
CONTINUOUS
10
155.411
20
-135.902
11
157.268
21
-135.902
0
LINE
8
BLACK
6
CONTINUOUS
10
157.268
20
-135.902
11
156.268
21
-137.045
0
LINE
8
BLACK
6
CONTINUOUS
10
156.268
20
-137.045
11
156.696
21
-137.045
0
LINE
8
BLACK
6
CONTINUOUS
10
156.696
20
-137.045
11
156.982
21
-137.188
0
LINE
8
BLACK
6
CONTINUOUS
10
156.982
20
-137.188
11
157.125
21
-137.331
0
LINE
8
BLACK
6
CONTINUOUS
10
157.125
20
-137.331
11
157.268
21
-137.616
0
LINE
8
BLACK
6
CONTINUOUS
10
157.268
20
-137.616
11
157.268
21
-138.331
0
LINE
8
BLACK
6
CONTINUOUS
10
157.268
20
-138.331
11
157.125
21
-138.616
0
LINE
8
BLACK
6
CONTINUOUS
10
157.125
20
-138.616
11
156.982
21
-138.759
0
LINE
8
BLACK
6
CONTINUOUS
10
156.982
20
-138.759
11
156.696
21
-138.902
0
LINE
8
BLACK
6
CONTINUOUS
10
156.696
20
-138.902
11
155.839
21
-138.902
0
LINE
8
BLACK
6
CONTINUOUS
10
155.839
20
-138.902
11
155.554
21
-138.759
0
LINE
8
BLACK
6
CONTINUOUS
10
155.554
20
-138.759
11
155.411
21
-138.616
0
LINE
8
BLACK
6
CONTINUOUS
10
160.125
20
-138.902
11
158.411
21
-138.902
0
LINE
8
BLACK
6
CONTINUOUS
10
159.268
20
-138.902
11
159.268
21
-135.902
0
LINE
8
BLACK
6
CONTINUOUS
10
159.268
20
-135.902
11
158.982
21
-136.331
0
LINE
8
BLACK
6
CONTINUOUS
10
158.982
20
-136.331
11
158.696
21
-136.616
0
LINE
8
BLACK
6
CONTINUOUS
10
158.696
20
-136.616
11
158.411
21
-136.759
0
LINE
8
BLACK
6
CONTINUOUS
10
161.268
20
-135.902
11
161.268
21
-136.474
0
LINE
8
BLACK
6
CONTINUOUS
10
162.411
20
-135.902
11
162.411
21
-136.474
0
LINE
8
BLACK
6
CONTINUOUS
10
166.839
20
-140.045
11
166.696
21
-139.902
0
LINE
8
BLACK
6
CONTINUOUS
10
166.696
20
-139.902
11
166.411
21
-139.474
0
LINE
8
BLACK
6
CONTINUOUS
10
166.411
20
-139.474
11
166.268
21
-139.188
0
LINE
8
BLACK
6
CONTINUOUS
10
166.268
20
-139.188
11
166.125
21
-138.759
0
LINE
8
BLACK
6
CONTINUOUS
10
166.125
20
-138.759
11
165.982
21
-138.045
0
LINE
8
BLACK
6
CONTINUOUS
10
165.982
20
-138.045
11
165.982
21
-137.474
0
LINE
8
BLACK
6
CONTINUOUS
10
165.982
20
-137.474
11
166.125
21
-136.759
0
LINE
8
BLACK
6
CONTINUOUS
10
166.125
20
-136.759
11
166.268
21
-136.331
0
LINE
8
BLACK
6
CONTINUOUS
10
166.268
20
-136.331
11
166.411
21
-136.045
0
LINE
8
BLACK
6
CONTINUOUS
10
166.411
20
-136.045
11
166.696
21
-135.616
0
LINE
8
BLACK
6
CONTINUOUS
10
166.696
20
-135.616
11
166.839
21
-135.474
0
LINE
8
BLACK
6
CONTINUOUS
10
168.554
20
-135.902
11
168.839
21
-135.902
0
LINE
8
BLACK
6
CONTINUOUS
10
168.839
20
-135.902
11
169.125
21
-136.045
0
LINE
8
BLACK
6
CONTINUOUS
10
169.125
20
-136.045
11
169.268
21
-136.188
0
LINE
8
BLACK
6
CONTINUOUS
10
169.268
20
-136.188
11
169.411
21
-136.474
0
LINE
8
BLACK
6
CONTINUOUS
10
169.411
20
-136.474
11
169.554
21
-137.045
0
LINE
8
BLACK
6
CONTINUOUS
10
169.554
20
-137.045
11
169.554
21
-137.759
0
LINE
8
BLACK
6
CONTINUOUS
10
169.554
20
-137.759
11
169.411
21
-138.331
0
LINE
8
BLACK
6
CONTINUOUS
10
169.411
20
-138.331
11
169.268
21
-138.616
0
LINE
8
BLACK
6
CONTINUOUS
10
169.268
20
-138.616
11
169.125
21
-138.759
0
LINE
8
BLACK
6
CONTINUOUS
10
169.125
20
-138.759
11
168.839
21
-138.902
0
LINE
8
BLACK
6
CONTINUOUS
10
168.839
20
-138.902
11
168.554
21
-138.902
0
LINE
8
BLACK
6
CONTINUOUS
10
168.554
20
-138.902
11
168.268
21
-138.759
0
LINE
8
BLACK
6
CONTINUOUS
10
168.268
20
-138.759
11
168.125
21
-138.616
0
LINE
8
BLACK
6
CONTINUOUS
10
168.125
20
-138.616
11
167.982
21
-138.331
0
LINE
8
BLACK
6
CONTINUOUS
10
167.982
20
-138.331
11
167.839
21
-137.759
0
LINE
8
BLACK
6
CONTINUOUS
10
167.839
20
-137.759
11
167.839
21
-137.045
0
LINE
8
BLACK
6
CONTINUOUS
10
167.839
20
-137.045
11
167.982
21
-136.474
0
LINE
8
BLACK
6
CONTINUOUS
10
167.982
20
-136.474
11
168.125
21
-136.188
0
LINE
8
BLACK
6
CONTINUOUS
10
168.125
20
-136.188
11
168.268
21
-136.045
0
LINE
8
BLACK
6
CONTINUOUS
10
168.268
20
-136.045
11
168.554
21
-135.902
0
LINE
8
BLACK
6
CONTINUOUS
10
173.125
20
-138.902
11
173.125
21
-135.902
0
LINE
8
BLACK
6
CONTINUOUS
10
174.411
20
-138.902
11
174.411
21
-137.331
0
LINE
8
BLACK
6
CONTINUOUS
10
174.411
20
-137.331
11
174.268
21
-137.045
0
LINE
8
BLACK
6
CONTINUOUS
10
174.268
20
-137.045
11
173.982
21
-136.902
0
LINE
8
BLACK
6
CONTINUOUS
10
173.982
20
-136.902
11
173.554
21
-136.902
0
LINE
8
BLACK
6
CONTINUOUS
10
173.554
20
-136.902
11
173.268
21
-137.045
0
LINE
8
BLACK
6
CONTINUOUS
10
173.268
20
-137.045
11
173.125
21
-137.188
0
LINE
8
BLACK
6
CONTINUOUS
10
176.268
20
-138.902
11
175.982
21
-138.759
0
LINE
8
BLACK
6
CONTINUOUS
10
175.982
20
-138.759
11
175.839
21
-138.616
0
LINE
8
BLACK
6
CONTINUOUS
10
175.839
20
-138.616
11
175.696
21
-138.331
0
LINE
8
BLACK
6
CONTINUOUS
10
175.696
20
-138.331
11
175.696
21
-137.474
0
LINE
8
BLACK
6
CONTINUOUS
10
175.696
20
-137.474
11
175.839
21
-137.188
0
LINE
8
BLACK
6
CONTINUOUS
10
175.839
20
-137.188
11
175.982
21
-137.045
0
LINE
8
BLACK
6
CONTINUOUS
10
175.982
20
-137.045
11
176.268
21
-136.902
0
LINE
8
BLACK
6
CONTINUOUS
10
176.268
20
-136.902
11
176.696
21
-136.902
0
LINE
8
BLACK
6
CONTINUOUS
10
176.696
20
-136.902
11
176.982
21
-137.045
0
LINE
8
BLACK
6
CONTINUOUS
10
176.982
20
-137.045
11
177.125
21
-137.188
0
LINE
8
BLACK
6
CONTINUOUS
10
177.125
20
-137.188
11
177.268
21
-137.474
0
LINE
8
BLACK
6
CONTINUOUS
10
177.268
20
-137.474
11
177.268
21
-138.331
0
LINE
8
BLACK
6
CONTINUOUS
10
177.268
20
-138.331
11
177.125
21
-138.616
0
LINE
8
BLACK
6
CONTINUOUS
10
177.125
20
-138.616
11
176.982
21
-138.759
0
LINE
8
BLACK
6
CONTINUOUS
10
176.982
20
-138.759
11
176.696
21
-138.902
0
LINE
8
BLACK
6
CONTINUOUS
10
176.696
20
-138.902
11
176.268
21
-138.902
0
LINE
8
BLACK
6
CONTINUOUS
10
178.982
20
-138.902
11
178.696
21
-138.759
0
LINE
8
BLACK
6
CONTINUOUS
10
178.696
20
-138.759
11
178.554
21
-138.474
0
LINE
8
BLACK
6
CONTINUOUS
10
178.554
20
-138.474
11
178.554
21
-135.902
0
LINE
8
BLACK
6
CONTINUOUS
10
181.268
20
-138.759
11
180.982
21
-138.902
0
LINE
8
BLACK
6
CONTINUOUS
10
180.982
20
-138.902
11
180.411
21
-138.902
0
LINE
8
BLACK
6
CONTINUOUS
10
180.411
20
-138.902
11
180.125
21
-138.759
0
LINE
8
BLACK
6
CONTINUOUS
10
180.125
20
-138.759
11
179.982
21
-138.474
0
LINE
8
BLACK
6
CONTINUOUS
10
179.982
20
-138.474
11
179.982
21
-137.331
0
LINE
8
BLACK
6
CONTINUOUS
10
179.982
20
-137.331
11
180.125
21
-137.045
0
LINE
8
BLACK
6
CONTINUOUS
10
180.125
20
-137.045
11
180.411
21
-136.902
0
LINE
8
BLACK
6
CONTINUOUS
10
180.411
20
-136.902
11
180.982
21
-136.902
0
LINE
8
BLACK
6
CONTINUOUS
10
180.982
20
-136.902
11
181.268
21
-137.045
0
LINE
8
BLACK
6
CONTINUOUS
10
181.268
20
-137.045
11
181.411
21
-137.331
0
LINE
8
BLACK
6
CONTINUOUS
10
181.411
20
-137.331
11
181.411
21
-137.616
0
LINE
8
BLACK
6
CONTINUOUS
10
181.411
20
-137.616
11
179.982
21
-137.902
0
LINE
8
BLACK
6
CONTINUOUS
10
182.554
20
-138.759
11
182.839
21
-138.902
0
LINE
8
BLACK
6
CONTINUOUS
10
182.839
20
-138.902
11
183.411
21
-138.902
0
LINE
8
BLACK
6
CONTINUOUS
10
183.411
20
-138.902
11
183.696
21
-138.759
0
LINE
8
BLACK
6
CONTINUOUS
10
183.696
20
-138.759
11
183.839
21
-138.474
0
LINE
8
BLACK
6
CONTINUOUS
10
183.839
20
-138.474
11
183.839
21
-138.331
0
LINE
8
BLACK
6
CONTINUOUS
10
183.839
20
-138.331
11
183.696
21
-138.045
0
LINE
8
BLACK
6
CONTINUOUS
10
183.696
20
-138.045
11
183.411
21
-137.902
0
LINE
8
BLACK
6
CONTINUOUS
10
183.411
20
-137.902
11
182.982
21
-137.902
0
LINE
8
BLACK
6
CONTINUOUS
10
182.982
20
-137.902
11
182.696
21
-137.759
0
LINE
8
BLACK
6
CONTINUOUS
10
182.696
20
-137.759
11
182.554
21
-137.474
0
LINE
8
BLACK
6
CONTINUOUS
10
182.554
20
-137.474
11
182.554
21
-137.331
0
LINE
8
BLACK
6
CONTINUOUS
10
182.554
20
-137.331
11
182.696
21
-137.045
0
LINE
8
BLACK
6
CONTINUOUS
10
182.696
20
-137.045
11
182.982
21
-136.902
0
LINE
8
BLACK
6
CONTINUOUS
10
182.982
20
-136.902
11
183.411
21
-136.902
0
LINE
8
BLACK
6
CONTINUOUS
10
183.411
20
-136.902
11
183.696
21
-137.045
0
LINE
8
BLACK
6
CONTINUOUS
10
187.411
20
-137.759
11
189.696
21
-137.759
0
LINE
8
BLACK
6
CONTINUOUS
10
188.554
20
-138.902
11
188.554
21
-136.616
0
LINE
8
BLACK
6
CONTINUOUS
10
194.696
20
-136.902
11
194.696
21
-138.902
0
LINE
8
BLACK
6
CONTINUOUS
10
193.982
20
-135.759
11
193.268
21
-137.902
0
LINE
8
BLACK
6
CONTINUOUS
10
193.268
20
-137.902
11
195.125
21
-137.902
0
LINE
8
BLACK
6
CONTINUOUS
10
198.411
20
-138.759
11
198.696
21
-138.902
0
LINE
8
BLACK
6
CONTINUOUS
10
198.696
20
-138.902
11
199.268
21
-138.902
0
LINE
8
BLACK
6
CONTINUOUS
10
199.268
20
-138.902
11
199.554
21
-138.759
0
LINE
8
BLACK
6
CONTINUOUS
10
199.554
20
-138.759
11
199.696
21
-138.474
0
LINE
8
BLACK
6
CONTINUOUS
10
199.696
20
-138.474
11
199.696
21
-138.331
0
LINE
8
BLACK
6
CONTINUOUS
10
199.696
20
-138.331
11
199.554
21
-138.045
0
LINE
8
BLACK
6
CONTINUOUS
10
199.554
20
-138.045
11
199.268
21
-137.902
0
LINE
8
BLACK
6
CONTINUOUS
10
199.268
20
-137.902
11
198.839
21
-137.902
0
LINE
8
BLACK
6
CONTINUOUS
10
198.839
20
-137.902
11
198.554
21
-137.759
0
LINE
8
BLACK
6
CONTINUOUS
10
198.554
20
-137.759
11
198.411
21
-137.474
0
LINE
8
BLACK
6
CONTINUOUS
10
198.411
20
-137.474
11
198.411
21
-137.331
0
LINE
8
BLACK
6
CONTINUOUS
10
198.411
20
-137.331
11
198.554
21
-137.045
0
LINE
8
BLACK
6
CONTINUOUS
10
198.554
20
-137.045
11
198.839
21
-136.902
0
LINE
8
BLACK
6
CONTINUOUS
10
198.839
20
-136.902
11
199.268
21
-136.902
0
LINE
8
BLACK
6
CONTINUOUS
10
199.268
20
-136.902
11
199.554
21
-137.045
0
LINE
8
BLACK
6
CONTINUOUS
10
201.411
20
-138.902
11
201.125
21
-138.759
0
LINE
8
BLACK
6
CONTINUOUS
10
201.125
20
-138.759
11
200.982
21
-138.474
0
LINE
8
BLACK
6
CONTINUOUS
10
200.982
20
-138.474
11
200.982
21
-135.902
0
LINE
8
BLACK
6
CONTINUOUS
10
202.982
20
-138.902
11
202.696
21
-138.759
0
LINE
8
BLACK
6
CONTINUOUS
10
202.696
20
-138.759
11
202.554
21
-138.616
0
LINE
8
BLACK
6
CONTINUOUS
10
202.554
20
-138.616
11
202.411
21
-138.331
0
LINE
8
BLACK
6
CONTINUOUS
10
202.411
20
-138.331
11
202.411
21
-137.474
0
LINE
8
BLACK
6
CONTINUOUS
10
202.411
20
-137.474
11
202.554
21
-137.188
0
LINE
8
BLACK
6
CONTINUOUS
10
202.554
20
-137.188
11
202.696
21
-137.045
0
LINE
8
BLACK
6
CONTINUOUS
10
202.696
20
-137.045
11
202.982
21
-136.902
0
LINE
8
BLACK
6
CONTINUOUS
10
202.982
20
-136.902
11
203.411
21
-136.902
0
LINE
8
BLACK
6
CONTINUOUS
10
203.411
20
-136.902
11
203.696
21
-137.045
0
LINE
8
BLACK
6
CONTINUOUS
10
203.696
20
-137.045
11
203.839
21
-137.188
0
LINE
8
BLACK
6
CONTINUOUS
10
203.839
20
-137.188
11
203.982
21
-137.474
0
LINE
8
BLACK
6
CONTINUOUS
10
203.982
20
-137.474
11
203.982
21
-138.331
0
LINE
8
BLACK
6
CONTINUOUS
10
203.982
20
-138.331
11
203.839
21
-138.616
0
LINE
8
BLACK
6
CONTINUOUS
10
203.839
20
-138.616
11
203.696
21
-138.759
0
LINE
8
BLACK
6
CONTINUOUS
10
203.696
20
-138.759
11
203.411
21
-138.902
0
LINE
8
BLACK
6
CONTINUOUS
10
203.411
20
-138.902
11
202.982
21
-138.902
0
LINE
8
BLACK
6
CONTINUOUS
10
204.839
20
-136.902
11
205.982
21
-136.902
0
LINE
8
BLACK
6
CONTINUOUS
10
205.268
20
-135.902
11
205.268
21
-138.474
0
LINE
8
BLACK
6
CONTINUOUS
10
205.268
20
-138.474
11
205.411
21
-138.759
0
LINE
8
BLACK
6
CONTINUOUS
10
205.411
20
-138.759
11
205.696
21
-138.902
0
LINE
8
BLACK
6
CONTINUOUS
10
205.696
20
-138.902
11
205.982
21
-138.902
0
LINE
8
BLACK
6
CONTINUOUS
10
206.839
20
-138.759
11
207.125
21
-138.902
0
LINE
8
BLACK
6
CONTINUOUS
10
207.125
20
-138.902
11
207.696
21
-138.902
0
LINE
8
BLACK
6
CONTINUOUS
10
207.696
20
-138.902
11
207.982
21
-138.759
0
LINE
8
BLACK
6
CONTINUOUS
10
207.982
20
-138.759
11
208.125
21
-138.474
0
LINE
8
BLACK
6
CONTINUOUS
10
208.125
20
-138.474
11
208.125
21
-138.331
0
LINE
8
BLACK
6
CONTINUOUS
10
208.125
20
-138.331
11
207.982
21
-138.045
0
LINE
8
BLACK
6
CONTINUOUS
10
207.982
20
-138.045
11
207.696
21
-137.902
0
LINE
8
BLACK
6
CONTINUOUS
10
207.696
20
-137.902
11
207.268
21
-137.902
0
LINE
8
BLACK
6
CONTINUOUS
10
207.268
20
-137.902
11
206.982
21
-137.759
0
LINE
8
BLACK
6
CONTINUOUS
10
206.982
20
-137.759
11
206.839
21
-137.474
0
LINE
8
BLACK
6
CONTINUOUS
10
206.839
20
-137.474
11
206.839
21
-137.331
0
LINE
8
BLACK
6
CONTINUOUS
10
206.839
20
-137.331
11
206.982
21
-137.045
0
LINE
8
BLACK
6
CONTINUOUS
10
206.982
20
-137.045
11
207.268
21
-136.902
0
LINE
8
BLACK
6
CONTINUOUS
10
207.268
20
-136.902
11
207.696
21
-136.902
0
LINE
8
BLACK
6
CONTINUOUS
10
207.696
20
-136.902
11
207.982
21
-137.045
0
LINE
8
BLACK
6
CONTINUOUS
10
209.125
20
-140.045
11
209.268
21
-139.902
0
LINE
8
BLACK
6
CONTINUOUS
10
209.268
20
-139.902
11
209.554
21
-139.474
0
LINE
8
BLACK
6
CONTINUOUS
10
209.554
20
-139.474
11
209.696
21
-139.188
0
LINE
8
BLACK
6
CONTINUOUS
10
209.696
20
-139.188
11
209.839
21
-138.759
0
LINE
8
BLACK
6
CONTINUOUS
10
209.839
20
-138.759
11
209.982
21
-138.045
0
LINE
8
BLACK
6
CONTINUOUS
10
209.982
20
-138.045
11
209.982
21
-137.474
0
LINE
8
BLACK
6
CONTINUOUS
10
209.982
20
-137.474
11
209.839
21
-136.759
0
LINE
8
BLACK
6
CONTINUOUS
10
209.839
20
-136.759
11
209.696
21
-136.331
0
LINE
8
BLACK
6
CONTINUOUS
10
209.696
20
-136.331
11
209.554
21
-136.045
0
LINE
8
BLACK
6
CONTINUOUS
10
209.554
20
-136.045
11
209.268
21
-135.616
0
LINE
8
BLACK
6
CONTINUOUS
10
209.268
20
-135.616
11
209.125
21
-135.474
0
LINE
8
BLACK
6
CONTINUOUS
10
119.829
20
-141.859
11
119.829
21
-141.151
0
LINE
8
BLACK
6
CONTINUOUS
10
119.829
20
-141.151
11
119.121
21
-141.151
0
LINE
8
BLACK
6
CONTINUOUS
10
119.121
20
-141.151
11
119.121
21
-141.859
0
LINE
8
BLACK
6
CONTINUOUS
10
119.121
20
-141.859
11
119.829
21
-141.859
0
LINE
8
BLACK
6
CONTINUOUS
10
124.411
20
-142.862
11
122.696
21
-142.862
0
LINE
8
BLACK
6
CONTINUOUS
10
123.554
20
-142.862
11
123.554
21
-139.862
0
LINE
8
BLACK
6
CONTINUOUS
10
123.554
20
-139.862
11
123.268
21
-140.291
0
LINE
8
BLACK
6
CONTINUOUS
10
123.268
20
-140.291
11
122.982
21
-140.576
0
LINE
8
BLACK
6
CONTINUOUS
10
122.982
20
-140.576
11
122.696
21
-140.719
0
LINE
8
BLACK
6
CONTINUOUS
10
125.696
20
-142.576
11
125.839
21
-142.719
0
LINE
8
BLACK
6
CONTINUOUS
10
125.839
20
-142.719
11
125.696
21
-142.862
0
LINE
8
BLACK
6
CONTINUOUS
10
125.696
20
-142.862
11
125.554
21
-142.719
0
LINE
8
BLACK
6
CONTINUOUS
10
125.554
20
-142.719
11
125.696
21
-142.576
0
LINE
8
BLACK
6
CONTINUOUS
10
125.696
20
-142.576
11
125.696
21
-142.862
0
LINE
8
BLACK
6
CONTINUOUS
10
127.696
20
-139.862
11
127.982
21
-139.862
0
LINE
8
BLACK
6
CONTINUOUS
10
127.982
20
-139.862
11
128.268
21
-140.005
0
LINE
8
BLACK
6
CONTINUOUS
10
128.268
20
-140.005
11
128.411
21
-140.148
0
LINE
8
BLACK
6
CONTINUOUS
10
128.411
20
-140.148
11
128.554
21
-140.434
0
LINE
8
BLACK
6
CONTINUOUS
10
128.554
20
-140.434
11
128.696
21
-141.005
0
LINE
8
BLACK
6
CONTINUOUS
10
128.696
20
-141.005
11
128.696
21
-141.719
0
LINE
8
BLACK
6
CONTINUOUS
10
128.696
20
-141.719
11
128.554
21
-142.291
0
LINE
8
BLACK
6
CONTINUOUS
10
128.554
20
-142.291
11
128.411
21
-142.576
0
LINE
8
BLACK
6
CONTINUOUS
10
128.411
20
-142.576
11
128.268
21
-142.719
0
LINE
8
BLACK
6
CONTINUOUS
10
128.268
20
-142.719
11
127.982
21
-142.862
0
LINE
8
BLACK
6
CONTINUOUS
10
127.982
20
-142.862
11
127.696
21
-142.862
0
LINE
8
BLACK
6
CONTINUOUS
10
127.696
20
-142.862
11
127.411
21
-142.719
0
LINE
8
BLACK
6
CONTINUOUS
10
127.411
20
-142.719
11
127.268
21
-142.576
0
LINE
8
BLACK
6
CONTINUOUS
10
127.268
20
-142.576
11
127.125
21
-142.291
0
LINE
8
BLACK
6
CONTINUOUS
10
127.125
20
-142.291
11
126.982
21
-141.719
0
LINE
8
BLACK
6
CONTINUOUS
10
126.982
20
-141.719
11
126.982
21
-141.005
0
LINE
8
BLACK
6
CONTINUOUS
10
126.982
20
-141.005
11
127.125
21
-140.434
0
LINE
8
BLACK
6
CONTINUOUS
10
127.125
20
-140.434
11
127.268
21
-140.148
0
LINE
8
BLACK
6
CONTINUOUS
10
127.268
20
-140.148
11
127.411
21
-140.005
0
LINE
8
BLACK
6
CONTINUOUS
10
127.411
20
-140.005
11
127.696
21
-139.862
0
LINE
8
BLACK
6
CONTINUOUS
10
130.554
20
-139.862
11
130.839
21
-139.862
0
LINE
8
BLACK
6
CONTINUOUS
10
130.839
20
-139.862
11
131.125
21
-140.005
0
LINE
8
BLACK
6
CONTINUOUS
10
131.125
20
-140.005
11
131.268
21
-140.148
0
LINE
8
BLACK
6
CONTINUOUS
10
131.268
20
-140.148
11
131.411
21
-140.434
0
LINE
8
BLACK
6
CONTINUOUS
10
131.411
20
-140.434
11
131.554
21
-141.005
0
LINE
8
BLACK
6
CONTINUOUS
10
131.554
20
-141.005
11
131.554
21
-141.719
0
LINE
8
BLACK
6
CONTINUOUS
10
131.554
20
-141.719
11
131.411
21
-142.291
0
LINE
8
BLACK
6
CONTINUOUS
10
131.411
20
-142.291
11
131.268
21
-142.576
0
LINE
8
BLACK
6
CONTINUOUS
10
131.268
20
-142.576
11
131.125
21
-142.719
0
LINE
8
BLACK
6
CONTINUOUS
10
131.125
20
-142.719
11
130.839
21
-142.862
0
LINE
8
BLACK
6
CONTINUOUS
10
130.839
20
-142.862
11
130.554
21
-142.862
0
LINE
8
BLACK
6
CONTINUOUS
10
130.554
20
-142.862
11
130.268
21
-142.719
0
LINE
8
BLACK
6
CONTINUOUS
10
130.268
20
-142.719
11
130.125
21
-142.576
0
LINE
8
BLACK
6
CONTINUOUS
10
130.125
20
-142.576
11
129.982
21
-142.291
0
LINE
8
BLACK
6
CONTINUOUS
10
129.982
20
-142.291
11
129.839
21
-141.719
0
LINE
8
BLACK
6
CONTINUOUS
10
129.839
20
-141.719
11
129.839
21
-141.005
0
LINE
8
BLACK
6
CONTINUOUS
10
129.839
20
-141.005
11
129.982
21
-140.434
0
LINE
8
BLACK
6
CONTINUOUS
10
129.982
20
-140.434
11
130.125
21
-140.148
0
LINE
8
BLACK
6
CONTINUOUS
10
130.125
20
-140.148
11
130.268
21
-140.005
0
LINE
8
BLACK
6
CONTINUOUS
10
130.268
20
-140.005
11
130.554
21
-139.862
0
LINE
8
BLACK
6
CONTINUOUS
10
132.839
20
-142.862
11
132.839
21
-140.862
0
LINE
8
BLACK
6
CONTINUOUS
10
132.839
20
-141.148
11
132.982
21
-141.005
0
LINE
8
BLACK
6
CONTINUOUS
10
132.982
20
-141.005
11
133.268
21
-140.862
0
LINE
8
BLACK
6
CONTINUOUS
10
133.268
20
-140.862
11
133.696
21
-140.862
0
LINE
8
BLACK
6
CONTINUOUS
10
133.696
20
-140.862
11
133.982
21
-141.005
0
LINE
8
BLACK
6
CONTINUOUS
10
133.982
20
-141.005
11
134.125
21
-141.291
0
LINE
8
BLACK
6
CONTINUOUS
10
134.125
20
-141.291
11
134.125
21
-142.862
0
LINE
8
BLACK
6
CONTINUOUS
10
134.125
20
-141.291
11
134.268
21
-141.005
0
LINE
8
BLACK
6
CONTINUOUS
10
134.268
20
-141.005
11
134.554
21
-140.862
0
LINE
8
BLACK
6
CONTINUOUS
10
134.554
20
-140.862
11
134.982
21
-140.862
0
LINE
8
BLACK
6
CONTINUOUS
10
134.982
20
-140.862
11
135.268
21
-141.005
0
LINE
8
BLACK
6
CONTINUOUS
10
135.268
20
-141.005
11
135.411
21
-141.291
0
LINE
8
BLACK
6
CONTINUOUS
10
135.411
20
-141.291
11
135.411
21
-142.862
0
LINE
8
BLACK
6
CONTINUOUS
10
136.839
20
-142.862
11
136.839
21
-140.862
0
LINE
8
BLACK
6
CONTINUOUS
10
136.839
20
-141.148
11
136.982
21
-141.005
0
LINE
8
BLACK
6
CONTINUOUS
10
136.982
20
-141.005
11
137.268
21
-140.862
0
LINE
8
BLACK
6
CONTINUOUS
10
137.268
20
-140.862
11
137.696
21
-140.862
0
LINE
8
BLACK
6
CONTINUOUS
10
137.696
20
-140.862
11
137.982
21
-141.005
0
LINE
8
BLACK
6
CONTINUOUS
10
137.982
20
-141.005
11
138.125
21
-141.291
0
LINE
8
BLACK
6
CONTINUOUS
10
138.125
20
-141.291
11
138.125
21
-142.862
0
LINE
8
BLACK
6
CONTINUOUS
10
138.125
20
-141.291
11
138.268
21
-141.005
0
LINE
8
BLACK
6
CONTINUOUS
10
138.268
20
-141.005
11
138.554
21
-140.862
0
LINE
8
BLACK
6
CONTINUOUS
10
138.554
20
-140.862
11
138.982
21
-140.862
0
LINE
8
BLACK
6
CONTINUOUS
10
138.982
20
-140.862
11
139.268
21
-141.005
0
LINE
8
BLACK
6
CONTINUOUS
10
139.268
20
-141.005
11
139.411
21
-141.291
0
LINE
8
BLACK
6
CONTINUOUS
10
139.411
20
-141.291
11
139.411
21
-142.862
0
LINE
8
BLACK
6
CONTINUOUS
10
145.268
20
-139.719
11
142.696
21
-143.576
0
LINE
8
BLACK
6
CONTINUOUS
10
149.125
20
-139.862
11
149.411
21
-139.862
0
LINE
8
BLACK
6
CONTINUOUS
10
149.411
20
-139.862
11
149.696
21
-140.005
0
LINE
8
BLACK
6
CONTINUOUS
10
149.696
20
-140.005
11
149.839
21
-140.148
0
LINE
8
BLACK
6
CONTINUOUS
10
149.839
20
-140.148
11
149.982
21
-140.434
0
LINE
8
BLACK
6
CONTINUOUS
10
149.982
20
-140.434
11
150.125
21
-141.005
0
LINE
8
BLACK
6
CONTINUOUS
10
150.125
20
-141.005
11
150.125
21
-141.719
0
LINE
8
BLACK
6
CONTINUOUS
10
150.125
20
-141.719
11
149.982
21
-142.291
0
LINE
8
BLACK
6
CONTINUOUS
10
149.982
20
-142.291
11
149.839
21
-142.576
0
LINE
8
BLACK
6
CONTINUOUS
10
149.839
20
-142.576
11
149.696
21
-142.719
0
LINE
8
BLACK
6
CONTINUOUS
10
149.696
20
-142.719
11
149.411
21
-142.862
0
LINE
8
BLACK
6
CONTINUOUS
10
149.411
20
-142.862
11
149.125
21
-142.862
0
LINE
8
BLACK
6
CONTINUOUS
10
149.125
20
-142.862
11
148.839
21
-142.719
0
LINE
8
BLACK
6
CONTINUOUS
10
148.839
20
-142.719
11
148.696
21
-142.576
0
LINE
8
BLACK
6
CONTINUOUS
10
148.696
20
-142.576
11
148.554
21
-142.291
0
LINE
8
BLACK
6
CONTINUOUS
10
148.554
20
-142.291
11
148.411
21
-141.719
0
LINE
8
BLACK
6
CONTINUOUS
10
148.411
20
-141.719
11
148.411
21
-141.005
0
LINE
8
BLACK
6
CONTINUOUS
10
148.411
20
-141.005
11
148.554
21
-140.434
0
LINE
8
BLACK
6
CONTINUOUS
10
148.554
20
-140.434
11
148.696
21
-140.148
0
LINE
8
BLACK
6
CONTINUOUS
10
148.696
20
-140.148
11
148.839
21
-140.005
0
LINE
8
BLACK
6
CONTINUOUS
10
148.839
20
-140.005
11
149.125
21
-139.862
0
LINE
8
BLACK
6
CONTINUOUS
10
151.411
20
-142.576
11
151.554
21
-142.719
0
LINE
8
BLACK
6
CONTINUOUS
10
151.554
20
-142.719
11
151.411
21
-142.862
0
LINE
8
BLACK
6
CONTINUOUS
10
151.411
20
-142.862
11
151.268
21
-142.719
0
LINE
8
BLACK
6
CONTINUOUS
10
151.268
20
-142.719
11
151.411
21
-142.576
0
LINE
8
BLACK
6
CONTINUOUS
10
151.411
20
-142.576
11
151.411
21
-142.862
0
LINE
8
BLACK
6
CONTINUOUS
10
153.411
20
-139.862
11
153.696
21
-139.862
0
LINE
8
BLACK
6
CONTINUOUS
10
153.696
20
-139.862
11
153.982
21
-140.005
0
LINE
8
BLACK
6
CONTINUOUS
10
153.982
20
-140.005
11
154.125
21
-140.148
0
LINE
8
BLACK
6
CONTINUOUS
10
154.125
20
-140.148
11
154.268
21
-140.434
0
LINE
8
BLACK
6
CONTINUOUS
10
154.268
20
-140.434
11
154.411
21
-141.005
0
LINE
8
BLACK
6
CONTINUOUS
10
154.411
20
-141.005
11
154.411
21
-141.719
0
LINE
8
BLACK
6
CONTINUOUS
10
154.411
20
-141.719
11
154.268
21
-142.291
0
LINE
8
BLACK
6
CONTINUOUS
10
154.268
20
-142.291
11
154.125
21
-142.576
0
LINE
8
BLACK
6
CONTINUOUS
10
154.125
20
-142.576
11
153.982
21
-142.719
0
LINE
8
BLACK
6
CONTINUOUS
10
153.982
20
-142.719
11
153.696
21
-142.862
0
LINE
8
BLACK
6
CONTINUOUS
10
153.696
20
-142.862
11
153.411
21
-142.862
0
LINE
8
BLACK
6
CONTINUOUS
10
153.411
20
-142.862
11
153.125
21
-142.719
0
LINE
8
BLACK
6
CONTINUOUS
10
153.125
20
-142.719
11
152.982
21
-142.576
0
LINE
8
BLACK
6
CONTINUOUS
10
152.982
20
-142.576
11
152.839
21
-142.291
0
LINE
8
BLACK
6
CONTINUOUS
10
152.839
20
-142.291
11
152.696
21
-141.719
0
LINE
8
BLACK
6
CONTINUOUS
10
152.696
20
-141.719
11
152.696
21
-141.005
0
LINE
8
BLACK
6
CONTINUOUS
10
152.696
20
-141.005
11
152.839
21
-140.434
0
LINE
8
BLACK
6
CONTINUOUS
10
152.839
20
-140.434
11
152.982
21
-140.148
0
LINE
8
BLACK
6
CONTINUOUS
10
152.982
20
-140.148
11
153.125
21
-140.005
0
LINE
8
BLACK
6
CONTINUOUS
10
153.125
20
-140.005
11
153.411
21
-139.862
0
LINE
8
BLACK
6
CONTINUOUS
10
155.411
20
-139.862
11
157.268
21
-139.862
0
LINE
8
BLACK
6
CONTINUOUS
10
157.268
20
-139.862
11
156.268
21
-141.005
0
LINE
8
BLACK
6
CONTINUOUS
10
156.268
20
-141.005
11
156.696
21
-141.005
0
LINE
8
BLACK
6
CONTINUOUS
10
156.696
20
-141.005
11
156.982
21
-141.148
0
LINE
8
BLACK
6
CONTINUOUS
10
156.982
20
-141.148
11
157.125
21
-141.291
0
LINE
8
BLACK
6
CONTINUOUS
10
157.125
20
-141.291
11
157.268
21
-141.576
0
LINE
8
BLACK
6
CONTINUOUS
10
157.268
20
-141.576
11
157.268
21
-142.291
0
LINE
8
BLACK
6
CONTINUOUS
10
157.268
20
-142.291
11
157.125
21
-142.576
0
LINE
8
BLACK
6
CONTINUOUS
10
157.125
20
-142.576
11
156.982
21
-142.719
0
LINE
8
BLACK
6
CONTINUOUS
10
156.982
20
-142.719
11
156.696
21
-142.862
0
LINE
8
BLACK
6
CONTINUOUS
10
156.696
20
-142.862
11
155.839
21
-142.862
0
LINE
8
BLACK
6
CONTINUOUS
10
155.839
20
-142.862
11
155.554
21
-142.719
0
LINE
8
BLACK
6
CONTINUOUS
10
155.554
20
-142.719
11
155.411
21
-142.576
0
LINE
8
BLACK
6
CONTINUOUS
10
158.696
20
-142.862
11
159.268
21
-142.862
0
LINE
8
BLACK
6
CONTINUOUS
10
159.268
20
-142.862
11
159.554
21
-142.719
0
LINE
8
BLACK
6
CONTINUOUS
10
159.554
20
-142.719
11
159.696
21
-142.576
0
LINE
8
BLACK
6
CONTINUOUS
10
159.696
20
-142.576
11
159.982
21
-142.148
0
LINE
8
BLACK
6
CONTINUOUS
10
159.982
20
-142.148
11
160.125
21
-141.576
0
LINE
8
BLACK
6
CONTINUOUS
10
160.125
20
-141.576
11
160.125
21
-140.434
0
LINE
8
BLACK
6
CONTINUOUS
10
160.125
20
-140.434
11
159.982
21
-140.148
0
LINE
8
BLACK
6
CONTINUOUS
10
159.982
20
-140.148
11
159.839
21
-140.005
0
LINE
8
BLACK
6
CONTINUOUS
10
159.839
20
-140.005
11
159.554
21
-139.862
0
LINE
8
BLACK
6
CONTINUOUS
10
159.554
20
-139.862
11
158.982
21
-139.862
0
LINE
8
BLACK
6
CONTINUOUS
10
158.982
20
-139.862
11
158.696
21
-140.005
0
LINE
8
BLACK
6
CONTINUOUS
10
158.696
20
-140.005
11
158.554
21
-140.148
0
LINE
8
BLACK
6
CONTINUOUS
10
158.554
20
-140.148
11
158.411
21
-140.434
0
LINE
8
BLACK
6
CONTINUOUS
10
158.411
20
-140.434
11
158.411
21
-141.148
0
LINE
8
BLACK
6
CONTINUOUS
10
158.411
20
-141.148
11
158.554
21
-141.434
0
LINE
8
BLACK
6
CONTINUOUS
10
158.554
20
-141.434
11
158.696
21
-141.576
0
LINE
8
BLACK
6
CONTINUOUS
10
158.696
20
-141.576
11
158.982
21
-141.719
0
LINE
8
BLACK
6
CONTINUOUS
10
158.982
20
-141.719
11
159.554
21
-141.719
0
LINE
8
BLACK
6
CONTINUOUS
10
159.554
20
-141.719
11
159.839
21
-141.576
0
LINE
8
BLACK
6
CONTINUOUS
10
159.839
20
-141.576
11
159.982
21
-141.434
0
LINE
8
BLACK
6
CONTINUOUS
10
159.982
20
-141.434
11
160.125
21
-141.148
0
LINE
8
BLACK
6
CONTINUOUS
10
161.268
20
-139.862
11
161.268
21
-140.434
0
LINE
8
BLACK
6
CONTINUOUS
10
162.411
20
-139.862
11
162.411
21
-140.434
0
LINE
8
BLACK
6
CONTINUOUS
10
166.839
20
-144.005
11
166.696
21
-143.862
0
LINE
8
BLACK
6
CONTINUOUS
10
166.696
20
-143.862
11
166.411
21
-143.434
0
LINE
8
BLACK
6
CONTINUOUS
10
166.411
20
-143.434
11
166.268
21
-143.148
0
LINE
8
BLACK
6
CONTINUOUS
10
166.268
20
-143.148
11
166.125
21
-142.719
0
LINE
8
BLACK
6
CONTINUOUS
10
166.125
20
-142.719
11
165.982
21
-142.005
0
LINE
8
BLACK
6
CONTINUOUS
10
165.982
20
-142.005
11
165.982
21
-141.434
0
LINE
8
BLACK
6
CONTINUOUS
10
165.982
20
-141.434
11
166.125
21
-140.719
0
LINE
8
BLACK
6
CONTINUOUS
10
166.125
20
-140.719
11
166.268
21
-140.291
0
LINE
8
BLACK
6
CONTINUOUS
10
166.268
20
-140.291
11
166.411
21
-140.005
0
LINE
8
BLACK
6
CONTINUOUS
10
166.411
20
-140.005
11
166.696
21
-139.576
0
LINE
8
BLACK
6
CONTINUOUS
10
166.696
20
-139.576
11
166.839
21
-139.434
0
LINE
8
BLACK
6
CONTINUOUS
10
167.696
20
-139.862
11
169.554
21
-139.862
0
LINE
8
BLACK
6
CONTINUOUS
10
169.554
20
-139.862
11
168.554
21
-141.005
0
LINE
8
BLACK
6
CONTINUOUS
10
168.554
20
-141.005
11
168.982
21
-141.005
0
LINE
8
BLACK
6
CONTINUOUS
10
168.982
20
-141.005
11
169.268
21
-141.148
0
LINE
8
BLACK
6
CONTINUOUS
10
169.268
20
-141.148
11
169.411
21
-141.291
0
LINE
8
BLACK
6
CONTINUOUS
10
169.411
20
-141.291
11
169.554
21
-141.576
0
LINE
8
BLACK
6
CONTINUOUS
10
169.554
20
-141.576
11
169.554
21
-142.291
0
LINE
8
BLACK
6
CONTINUOUS
10
169.554
20
-142.291
11
169.411
21
-142.576
0
LINE
8
BLACK
6
CONTINUOUS
10
169.411
20
-142.576
11
169.268
21
-142.719
0
LINE
8
BLACK
6
CONTINUOUS
10
169.268
20
-142.719
11
168.982
21
-142.862
0
LINE
8
BLACK
6
CONTINUOUS
10
168.982
20
-142.862
11
168.125
21
-142.862
0
LINE
8
BLACK
6
CONTINUOUS
10
168.125
20
-142.862
11
167.839
21
-142.719
0
LINE
8
BLACK
6
CONTINUOUS
10
167.839
20
-142.719
11
167.696
21
-142.576
0
LINE
8
BLACK
6
CONTINUOUS
10
172.125
20
-139.862
11
171.554
21
-139.862
0
LINE
8
BLACK
6
CONTINUOUS
10
171.554
20
-139.862
11
171.268
21
-140.005
0
LINE
8
BLACK
6
CONTINUOUS
10
171.268
20
-140.005
11
171.125
21
-140.148
0
LINE
8
BLACK
6
CONTINUOUS
10
171.125
20
-140.148
11
170.839
21
-140.576
0
LINE
8
BLACK
6
CONTINUOUS
10
170.839
20
-140.576
11
170.696
21
-141.148
0
LINE
8
BLACK
6
CONTINUOUS
10
170.696
20
-141.148
11
170.696
21
-142.291
0
LINE
8
BLACK
6
CONTINUOUS
10
170.696
20
-142.291
11
170.839
21
-142.576
0
LINE
8
BLACK
6
CONTINUOUS
10
170.839
20
-142.576
11
170.982
21
-142.719
0
LINE
8
BLACK
6
CONTINUOUS
10
170.982
20
-142.719
11
171.268
21
-142.862
0
LINE
8
BLACK
6
CONTINUOUS
10
171.268
20
-142.862
11
171.839
21
-142.862
0
LINE
8
BLACK
6
CONTINUOUS
10
171.839
20
-142.862
11
172.125
21
-142.719
0
LINE
8
BLACK
6
CONTINUOUS
10
172.125
20
-142.719
11
172.268
21
-142.576
0
LINE
8
BLACK
6
CONTINUOUS
10
172.268
20
-142.576
11
172.411
21
-142.291
0
LINE
8
BLACK
6
CONTINUOUS
10
172.411
20
-142.291
11
172.411
21
-141.576
0
LINE
8
BLACK
6
CONTINUOUS
10
172.411
20
-141.576
11
172.268
21
-141.291
0
LINE
8
BLACK
6
CONTINUOUS
10
172.268
20
-141.291
11
172.125
21
-141.148
0
LINE
8
BLACK
6
CONTINUOUS
10
172.125
20
-141.148
11
171.839
21
-141.005
0
LINE
8
BLACK
6
CONTINUOUS
10
171.839
20
-141.005
11
171.268
21
-141.005
0
LINE
8
BLACK
6
CONTINUOUS
10
171.268
20
-141.005
11
170.982
21
-141.148
0
LINE
8
BLACK
6
CONTINUOUS
10
170.982
20
-141.148
11
170.839
21
-141.291
0
LINE
8
BLACK
6
CONTINUOUS
10
170.839
20
-141.291
11
170.696
21
-141.576
0
LINE
8
BLACK
6
CONTINUOUS
10
175.982
20
-142.862
11
175.982
21
-139.862
0
LINE
8
BLACK
6
CONTINUOUS
10
177.268
20
-142.862
11
177.268
21
-141.291
0
LINE
8
BLACK
6
CONTINUOUS
10
177.268
20
-141.291
11
177.125
21
-141.005
0
LINE
8
BLACK
6
CONTINUOUS
10
177.125
20
-141.005
11
176.839
21
-140.862
0
LINE
8
BLACK
6
CONTINUOUS
10
176.839
20
-140.862
11
176.411
21
-140.862
0
LINE
8
BLACK
6
CONTINUOUS
10
176.411
20
-140.862
11
176.125
21
-141.005
0
LINE
8
BLACK
6
CONTINUOUS
10
176.125
20
-141.005
11
175.982
21
-141.148
0
LINE
8
BLACK
6
CONTINUOUS
10
179.125
20
-142.862
11
178.839
21
-142.719
0
LINE
8
BLACK
6
CONTINUOUS
10
178.839
20
-142.719
11
178.696
21
-142.576
0
LINE
8
BLACK
6
CONTINUOUS
10
178.696
20
-142.576
11
178.554
21
-142.291
0
LINE
8
BLACK
6
CONTINUOUS
10
178.554
20
-142.291
11
178.554
21
-141.434
0
LINE
8
BLACK
6
CONTINUOUS
10
178.554
20
-141.434
11
178.696
21
-141.148
0
LINE
8
BLACK
6
CONTINUOUS
10
178.696
20
-141.148
11
178.839
21
-141.005
0
LINE
8
BLACK
6
CONTINUOUS
10
178.839
20
-141.005
11
179.125
21
-140.862
0
LINE
8
BLACK
6
CONTINUOUS
10
179.125
20
-140.862
11
179.554
21
-140.862
0
LINE
8
BLACK
6
CONTINUOUS
10
179.554
20
-140.862
11
179.839
21
-141.005
0
LINE
8
BLACK
6
CONTINUOUS
10
179.839
20
-141.005
11
179.982
21
-141.148
0
LINE
8
BLACK
6
CONTINUOUS
10
179.982
20
-141.148
11
180.125
21
-141.434
0
LINE
8
BLACK
6
CONTINUOUS
10
180.125
20
-141.434
11
180.125
21
-142.291
0
LINE
8
BLACK
6
CONTINUOUS
10
180.125
20
-142.291
11
179.982
21
-142.576
0
LINE
8
BLACK
6
CONTINUOUS
10
179.982
20
-142.576
11
179.839
21
-142.719
0
LINE
8
BLACK
6
CONTINUOUS
10
179.839
20
-142.719
11
179.554
21
-142.862
0
LINE
8
BLACK
6
CONTINUOUS
10
179.554
20
-142.862
11
179.125
21
-142.862
0
LINE
8
BLACK
6
CONTINUOUS
10
181.839
20
-142.862
11
181.554
21
-142.719
0
LINE
8
BLACK
6
CONTINUOUS
10
181.554
20
-142.719
11
181.411
21
-142.434
0
LINE
8
BLACK
6
CONTINUOUS
10
181.411
20
-142.434
11
181.411
21
-139.862
0
LINE
8
BLACK
6
CONTINUOUS
10
184.125
20
-142.719
11
183.839
21
-142.862
0
LINE
8
BLACK
6
CONTINUOUS
10
183.839
20
-142.862
11
183.268
21
-142.862
0
LINE
8
BLACK
6
CONTINUOUS
10
183.268
20
-142.862
11
182.982
21
-142.719
0
LINE
8
BLACK
6
CONTINUOUS
10
182.982
20
-142.719
11
182.839
21
-142.434
0
LINE
8
BLACK
6
CONTINUOUS
10
182.839
20
-142.434
11
182.839
21
-141.291
0
LINE
8
BLACK
6
CONTINUOUS
10
182.839
20
-141.291
11
182.982
21
-141.005
0
LINE
8
BLACK
6
CONTINUOUS
10
182.982
20
-141.005
11
183.268
21
-140.862
0
LINE
8
BLACK
6
CONTINUOUS
10
183.268
20
-140.862
11
183.839
21
-140.862
0
LINE
8
BLACK
6
CONTINUOUS
10
183.839
20
-140.862
11
184.125
21
-141.005
0
LINE
8
BLACK
6
CONTINUOUS
10
184.125
20
-141.005
11
184.268
21
-141.291
0
LINE
8
BLACK
6
CONTINUOUS
10
184.268
20
-141.291
11
184.268
21
-141.576
0
LINE
8
BLACK
6
CONTINUOUS
10
184.268
20
-141.576
11
182.839
21
-141.862
0
LINE
8
BLACK
6
CONTINUOUS
10
185.411
20
-142.719
11
185.696
21
-142.862
0
LINE
8
BLACK
6
CONTINUOUS
10
185.696
20
-142.862
11
186.268
21
-142.862
0
LINE
8
BLACK
6
CONTINUOUS
10
186.268
20
-142.862
11
186.554
21
-142.719
0
LINE
8
BLACK
6
CONTINUOUS
10
186.554
20
-142.719
11
186.696
21
-142.434
0
LINE
8
BLACK
6
CONTINUOUS
10
186.696
20
-142.434
11
186.696
21
-142.291
0
LINE
8
BLACK
6
CONTINUOUS
10
186.696
20
-142.291
11
186.554
21
-142.005
0
LINE
8
BLACK
6
CONTINUOUS
10
186.554
20
-142.005
11
186.268
21
-141.862
0
LINE
8
BLACK
6
CONTINUOUS
10
186.268
20
-141.862
11
185.839
21
-141.862
0
LINE
8
BLACK
6
CONTINUOUS
10
185.839
20
-141.862
11
185.554
21
-141.719
0
LINE
8
BLACK
6
CONTINUOUS
10
185.554
20
-141.719
11
185.411
21
-141.434
0
LINE
8
BLACK
6
CONTINUOUS
10
185.411
20
-141.434
11
185.411
21
-141.291
0
LINE
8
BLACK
6
CONTINUOUS
10
185.411
20
-141.291
11
185.554
21
-141.005
0
LINE
8
BLACK
6
CONTINUOUS
10
185.554
20
-141.005
11
185.839
21
-140.862
0
LINE
8
BLACK
6
CONTINUOUS
10
185.839
20
-140.862
11
186.268
21
-140.862
0
LINE
8
BLACK
6
CONTINUOUS
10
186.268
20
-140.862
11
186.554
21
-141.005
0
LINE
8
BLACK
6
CONTINUOUS
10
187.696
20
-144.005
11
187.839
21
-143.862
0
LINE
8
BLACK
6
CONTINUOUS
10
187.839
20
-143.862
11
188.125
21
-143.434
0
LINE
8
BLACK
6
CONTINUOUS
10
188.125
20
-143.434
11
188.268
21
-143.148
0
LINE
8
BLACK
6
CONTINUOUS
10
188.268
20
-143.148
11
188.411
21
-142.719
0
LINE
8
BLACK
6
CONTINUOUS
10
188.411
20
-142.719
11
188.554
21
-142.005
0
LINE
8
BLACK
6
CONTINUOUS
10
188.554
20
-142.005
11
188.554
21
-141.434
0
LINE
8
BLACK
6
CONTINUOUS
10
188.554
20
-141.434
11
188.411
21
-140.719
0
LINE
8
BLACK
6
CONTINUOUS
10
188.411
20
-140.719
11
188.268
21
-140.291
0
LINE
8
BLACK
6
CONTINUOUS
10
188.268
20
-140.291
11
188.125
21
-140.005
0
LINE
8
BLACK
6
CONTINUOUS
10
188.125
20
-140.005
11
187.839
21
-139.576
0
LINE
8
BLACK
6
CONTINUOUS
10
187.839
20
-139.576
11
187.696
21
-139.434
  0
ENDSEC
  0
EOF
