G04 #@! TF.GenerationSoftware,KiCad,Pcbnew,5.1.6*
G04 #@! TF.CreationDate,2020-07-10T23:15:47+01:00*
G04 #@! TF.ProjectId,CY7CBreakout,43593743-4272-4656-916b-6f75742e6b69,rev?*
G04 #@! TF.SameCoordinates,PX7270e00PY7270e00*
G04 #@! TF.FileFunction,Paste,Bot*
G04 #@! TF.FilePolarity,Positive*
%FSLAX46Y46*%
G04 Gerber Fmt 4.6, Leading zero omitted, Abs format (unit mm)*
G04 Created by KiCad (PCBNEW 5.1.6) date 2020-07-10 23:15:47*
%MOMM*%
%LPD*%
G01*
G04 APERTURE LIST*
%ADD10R,1.400000X1.200000*%
%ADD11R,1.400000X0.400000*%
%ADD12R,1.200000X1.200000*%
%ADD13R,0.900000X0.800000*%
%ADD14R,0.800000X0.900000*%
G04 APERTURE END LIST*
G04 #@! TO.C,JP1*
G36*
G01*
X2500000Y18300000D02*
X700000Y18300000D01*
G75*
G02*
X500000Y18500000I0J200000D01*
G01*
X500000Y19700000D01*
G75*
G02*
X700000Y19900000I200000J0D01*
G01*
X2500000Y19900000D01*
G75*
G02*
X2700000Y19700000I0J-200000D01*
G01*
X2700000Y18500000D01*
G75*
G02*
X2500000Y18300000I-200000J0D01*
G01*
G37*
G36*
G01*
X6200000Y18300000D02*
X4400000Y18300000D01*
G75*
G02*
X4200000Y18500000I0J200000D01*
G01*
X4200000Y19700000D01*
G75*
G02*
X4400000Y19900000I200000J0D01*
G01*
X6200000Y19900000D01*
G75*
G02*
X6400000Y19700000I0J-200000D01*
G01*
X6400000Y18500000D01*
G75*
G02*
X6200000Y18300000I-200000J0D01*
G01*
G37*
G36*
G01*
X6200000Y8100000D02*
X4400000Y8100000D01*
G75*
G02*
X4200000Y8300000I0J200000D01*
G01*
X4200000Y9500000D01*
G75*
G02*
X4400000Y9700000I200000J0D01*
G01*
X6200000Y9700000D01*
G75*
G02*
X6400000Y9500000I0J-200000D01*
G01*
X6400000Y8300000D01*
G75*
G02*
X6200000Y8100000I-200000J0D01*
G01*
G37*
G36*
G01*
X2500000Y8100000D02*
X700000Y8100000D01*
G75*
G02*
X500000Y8300000I0J200000D01*
G01*
X500000Y9500000D01*
G75*
G02*
X700000Y9700000I200000J0D01*
G01*
X2500000Y9700000D01*
G75*
G02*
X2700000Y9500000I0J-200000D01*
G01*
X2700000Y8300000D01*
G75*
G02*
X2500000Y8100000I-200000J0D01*
G01*
G37*
D10*
X5700000Y16350000D03*
X5700000Y11650000D03*
D11*
X5700000Y12700000D03*
X5700000Y15300000D03*
X5700000Y14650000D03*
X5700000Y14000000D03*
X5700000Y13350000D03*
G04 #@! TD*
D12*
G04 #@! TO.C,C18*
X48700000Y22500000D03*
X46700000Y22500000D03*
G04 #@! TD*
D13*
G04 #@! TO.C,C17*
X44350000Y16000000D03*
X42650000Y16000000D03*
G04 #@! TD*
G04 #@! TO.C,C16*
X42650000Y18400000D03*
X44350000Y18400000D03*
G04 #@! TD*
D14*
G04 #@! TO.C,R6*
X1400000Y6850000D03*
X1400000Y5150000D03*
G04 #@! TD*
G04 #@! TO.C,C15*
X2800000Y5150000D03*
X2800000Y6850000D03*
G04 #@! TD*
D13*
G04 #@! TO.C,R4*
X14150000Y7900000D03*
X15850000Y7900000D03*
G04 #@! TD*
G04 #@! TO.C,C14*
X20850000Y12200000D03*
X19150000Y12200000D03*
G04 #@! TD*
G04 #@! TO.C,C13*
X20850000Y13400000D03*
X19150000Y13400000D03*
G04 #@! TD*
G04 #@! TO.C,C12*
X20850000Y14600000D03*
X19150000Y14600000D03*
G04 #@! TD*
D14*
G04 #@! TO.C,C11*
X21000000Y17100000D03*
X21000000Y18800000D03*
G04 #@! TD*
G04 #@! TO.C,C10*
X27250000Y17100000D03*
X27250000Y18800000D03*
G04 #@! TD*
G04 #@! TO.C,C9*
X21750000Y10900000D03*
X21750000Y9200000D03*
G04 #@! TD*
G04 #@! TO.C,C8*
X27000000Y10900000D03*
X27000000Y9200000D03*
G04 #@! TD*
D13*
G04 #@! TO.C,C7*
X27150000Y12250000D03*
X28850000Y12250000D03*
G04 #@! TD*
G04 #@! TO.C,C6*
X20850000Y15800000D03*
X19150000Y15800000D03*
G04 #@! TD*
G04 #@! TO.C,C5*
X11250000Y7500000D03*
X9550000Y7500000D03*
G04 #@! TD*
G04 #@! TO.C,R3*
X14150000Y9100000D03*
X15850000Y9100000D03*
G04 #@! TD*
G04 #@! TO.C,C4*
X32350000Y17600000D03*
X30650000Y17600000D03*
G04 #@! TD*
G04 #@! TO.C,C3*
X29850000Y21000000D03*
X28150000Y21000000D03*
G04 #@! TD*
M02*
